M48
;Layer_Color=9474304
;FILE_FORMAT=4:4
METRIC,TZ
;TYPE=PLATED
T1F00S00C0.2000
T2F00S00C0.3000
T3F00S00C0.9000
T4F00S00C1.3000
T5F00S00C1.6000
T6F00S00C2.5000
%
T01
X490000Y5000
X505000
X525000
X530000Y27000
X500700Y56000
X488000Y192000
X480500Y200500
Y211500
X487500Y222498
Y233498
X499500Y250500
X491000Y265000
X487000Y269000
X480000Y265000
X475000Y260000
X469000Y265000
X462500Y260000
X460000Y242000
X448000Y246000
X441999Y271000
X436999Y266000
X431000Y230000
X392500Y271500
Y282500
X400500Y301500
X407500Y296000
X417000Y310000
X446000Y319000
X464000
X464000Y300000
X446000
X493000Y300000
X503000
X509000Y299000
X515000
X521000
X527000Y300000
X533000
X539000
X544000Y302000
X548000Y305000
X552000Y309000
X556000Y313000
X560000Y317000
X564000Y321000
X568000Y325000
X556500Y335500
X552000Y331000
X547500Y326500
X542500Y334500
X535500Y328000
X528500Y334000
Y321500
X527000Y313000
X533000
X538000Y315000
X521000Y314000
X515000
Y320000
X507000Y317000
X503511Y335543
X494999Y334999
X515000Y334500
X522000Y327500
X536000Y341500
X537500Y354000
X543500Y348500
X550000Y342000
X531500Y360000
X524000Y382000
X523000Y286000
X529000
X516000
X509000
X502000
X494500Y287000
X492500Y278000
X500000Y293000
X539000Y263000
X547000
X549000Y235000
X559000
Y225000
X549000
X522000Y230000
X551000Y195000
X560000
X567500
X546000Y170000
X449000Y349000
X450500Y418000
X437500
X399500
X350000Y275000
Y263500
T02
X652000Y46000
X668000Y50000
Y70000
Y90000
Y110000
Y130000
X624000Y118000
X608000
X560000Y110000
Y130000
Y90000
X566000Y82000
Y70000
X576000
X624000
X638000Y38000
X628000Y24000
X620000Y5000
X605000
X585000
X565000
X545000
X545000Y27500
Y40000
X503000Y28000
X476000Y50000
X440000Y64000
Y74000
X430000
Y64000
Y90000
X440000
Y110000
X430000
X405000Y120000
X395000Y110000
X385000Y120000
Y95000
X405000
Y70000
X395000Y80000
X385000Y70000
X348000Y57000
X335000Y15000
X325000Y5000
X345000
X365000
X385000
X405000
X425000
X445000
X465000
X502000Y81500
X292000Y65000
X285000Y54000
X267000Y65000
Y90000
Y120000
X292000
X285000Y5000
X265000
X305000
X150000Y22000
Y138000
X265000Y185000
Y200000
Y220000
Y240000
X302500Y245000
X304000Y260000
X335000
Y301000
Y325000
Y355000
X351000
X371000Y392500
X389000Y401000
X390000Y420000
Y448000
X375000
X355000
X335000
Y420000
X355000
X390000Y331000
X377500Y315000
X395000Y254500
X410500
Y265500
X422000Y280000
X416000Y202000
X395000
X380000Y185000
X350000
X365000Y200000
Y170000
X395000Y160000
X405000Y150000
X470000Y160000
X490000
X510000
X530000
X550000
X560000Y150000
X608000Y156000
X624000
X585000Y184000
X532000Y196000
X510000Y181000
X473000
X520000Y255000
X567500Y277500
X582500
X597500
X597511Y292316
X612500Y292500
X605000Y300000
X597500Y307500
X582500
Y322500
X590000Y315000
X575000
Y330000
X567500Y307500
Y292500
X582500
X560000Y300000
X555000Y350000
X547500Y357500
X540000Y365000
X532500Y372500
X510000Y395000
X502500Y402500
X495000Y410000
X487500Y417500
X480000Y425000
X472500Y432500
X465000Y440000
X466500Y369000
X456500
X466500Y354500
X612500Y277500
X620000Y285000
X627500Y277500
X350000Y220000
X320000
X293000
Y185000
X320000
X668000Y170000
Y150000
Y210000
Y230000
T03
X334900Y105600
X157100
X90000Y275000
Y375000
X157100Y359600
Y410400
X334900Y156400
T04
X641000Y98800
Y136900
Y175000
Y213100
Y251200
T05
X35000Y125400
Y176200
Y227000
Y277800
Y328600
T06
X587000Y31500
X87000
Y421500
M30
