G04*
G04 #@! TF.GenerationSoftware,Altium Limited,Altium Designer,22.6.1 (34)*
G04*
G04 Layer_Color=255*
%FSLAX44Y44*%
%MOMM*%
G71*
G04*
G04 #@! TF.SameCoordinates,A0D8632A-B648-4B75-ABCE-4127253DC59C*
G04*
G04*
G04 #@! TF.FilePolarity,Positive*
G04*
G01*
G75*
G04:AMPARAMS|DCode=17|XSize=0.6mm|YSize=0.6mm|CornerRadius=0.075mm|HoleSize=0mm|Usage=FLASHONLY|Rotation=90.000|XOffset=0mm|YOffset=0mm|HoleType=Round|Shape=RoundedRectangle|*
%AMROUNDEDRECTD17*
21,1,0.6000,0.4500,0,0,90.0*
21,1,0.4500,0.6000,0,0,90.0*
1,1,0.1500,0.2250,0.2250*
1,1,0.1500,0.2250,-0.2250*
1,1,0.1500,-0.2250,-0.2250*
1,1,0.1500,-0.2250,0.2250*
%
%ADD17ROUNDEDRECTD17*%
G04:AMPARAMS|DCode=19|XSize=2.4mm|YSize=0.8mm|CornerRadius=0.2mm|HoleSize=0mm|Usage=FLASHONLY|Rotation=270.000|XOffset=0mm|YOffset=0mm|HoleType=Round|Shape=RoundedRectangle|*
%AMROUNDEDRECTD19*
21,1,2.4000,0.4000,0,0,270.0*
21,1,2.0000,0.8000,0,0,270.0*
1,1,0.4000,-0.2000,-1.0000*
1,1,0.4000,-0.2000,1.0000*
1,1,0.4000,0.2000,1.0000*
1,1,0.4000,0.2000,-1.0000*
%
%ADD19ROUNDEDRECTD19*%
G04:AMPARAMS|DCode=20|XSize=0.3mm|YSize=0.8mm|CornerRadius=0.045mm|HoleSize=0mm|Usage=FLASHONLY|Rotation=270.000|XOffset=0mm|YOffset=0mm|HoleType=Round|Shape=RoundedRectangle|*
%AMROUNDEDRECTD20*
21,1,0.3000,0.7100,0,0,270.0*
21,1,0.2100,0.8000,0,0,270.0*
1,1,0.0900,-0.3550,-0.1050*
1,1,0.0900,-0.3550,0.1050*
1,1,0.0900,0.3550,0.1050*
1,1,0.0900,0.3550,-0.1050*
%
%ADD20ROUNDEDRECTD20*%
G04:AMPARAMS|DCode=21|XSize=0.3mm|YSize=0.8mm|CornerRadius=0.045mm|HoleSize=0mm|Usage=FLASHONLY|Rotation=180.000|XOffset=0mm|YOffset=0mm|HoleType=Round|Shape=RoundedRectangle|*
%AMROUNDEDRECTD21*
21,1,0.3000,0.7100,0,0,180.0*
21,1,0.2100,0.8000,0,0,180.0*
1,1,0.0900,-0.1050,0.3550*
1,1,0.0900,0.1050,0.3550*
1,1,0.0900,0.1050,-0.3550*
1,1,0.0900,-0.1050,-0.3550*
%
%ADD21ROUNDEDRECTD21*%
%ADD22R,3.2500X3.2500*%
G04:AMPARAMS|DCode=23|XSize=0.42mm|YSize=1.1mm|CornerRadius=0.105mm|HoleSize=0mm|Usage=FLASHONLY|Rotation=0.000|XOffset=0mm|YOffset=0mm|HoleType=Round|Shape=RoundedRectangle|*
%AMROUNDEDRECTD23*
21,1,0.4200,0.8900,0,0,0.0*
21,1,0.2100,1.1000,0,0,0.0*
1,1,0.2100,0.1050,-0.4450*
1,1,0.2100,-0.1050,-0.4450*
1,1,0.2100,-0.1050,0.4450*
1,1,0.2100,0.1050,0.4450*
%
%ADD23ROUNDEDRECTD23*%
G04:AMPARAMS|DCode=24|XSize=0.9mm|YSize=0.8mm|CornerRadius=0.2mm|HoleSize=0mm|Usage=FLASHONLY|Rotation=90.000|XOffset=0mm|YOffset=0mm|HoleType=Round|Shape=RoundedRectangle|*
%AMROUNDEDRECTD24*
21,1,0.9000,0.4000,0,0,90.0*
21,1,0.5000,0.8000,0,0,90.0*
1,1,0.4000,0.2000,0.2500*
1,1,0.4000,0.2000,-0.2500*
1,1,0.4000,-0.2000,-0.2500*
1,1,0.4000,-0.2000,0.2500*
%
%ADD24ROUNDEDRECTD24*%
G04:AMPARAMS|DCode=25|XSize=0.6mm|YSize=0.6mm|CornerRadius=0.075mm|HoleSize=0mm|Usage=FLASHONLY|Rotation=135.000|XOffset=0mm|YOffset=0mm|HoleType=Round|Shape=RoundedRectangle|*
%AMROUNDEDRECTD25*
21,1,0.6000,0.4500,0,0,135.0*
21,1,0.4500,0.6000,0,0,135.0*
1,1,0.1500,0.0000,0.3182*
1,1,0.1500,0.3182,0.0000*
1,1,0.1500,0.0000,-0.3182*
1,1,0.1500,-0.3182,0.0000*
%
%ADD25ROUNDEDRECTD25*%
G04:AMPARAMS|DCode=26|XSize=0.6mm|YSize=0.6mm|CornerRadius=0.075mm|HoleSize=0mm|Usage=FLASHONLY|Rotation=180.000|XOffset=0mm|YOffset=0mm|HoleType=Round|Shape=RoundedRectangle|*
%AMROUNDEDRECTD26*
21,1,0.6000,0.4500,0,0,180.0*
21,1,0.4500,0.6000,0,0,180.0*
1,1,0.1500,-0.2250,0.2250*
1,1,0.1500,0.2250,0.2250*
1,1,0.1500,0.2250,-0.2250*
1,1,0.1500,-0.2250,-0.2250*
%
%ADD26ROUNDEDRECTD26*%
G04:AMPARAMS|DCode=27|XSize=1.7mm|YSize=1.05mm|CornerRadius=0.2625mm|HoleSize=0mm|Usage=FLASHONLY|Rotation=0.000|XOffset=0mm|YOffset=0mm|HoleType=Round|Shape=RoundedRectangle|*
%AMROUNDEDRECTD27*
21,1,1.7000,0.5250,0,0,0.0*
21,1,1.1750,1.0500,0,0,0.0*
1,1,0.5250,0.5875,-0.2625*
1,1,0.5250,-0.5875,-0.2625*
1,1,0.5250,-0.5875,0.2625*
1,1,0.5250,0.5875,0.2625*
%
%ADD27ROUNDEDRECTD27*%
G04:AMPARAMS|DCode=28|XSize=1.7mm|YSize=1.05mm|CornerRadius=0.2625mm|HoleSize=0mm|Usage=FLASHONLY|Rotation=90.000|XOffset=0mm|YOffset=0mm|HoleType=Round|Shape=RoundedRectangle|*
%AMROUNDEDRECTD28*
21,1,1.7000,0.5250,0,0,90.0*
21,1,1.1750,1.0500,0,0,90.0*
1,1,0.5250,0.2625,0.5875*
1,1,0.5250,0.2625,-0.5875*
1,1,0.5250,-0.2625,-0.5875*
1,1,0.5250,-0.2625,0.5875*
%
%ADD28ROUNDEDRECTD28*%
G04:AMPARAMS|DCode=29|XSize=0.9mm|YSize=0.8mm|CornerRadius=0.2mm|HoleSize=0mm|Usage=FLASHONLY|Rotation=180.000|XOffset=0mm|YOffset=0mm|HoleType=Round|Shape=RoundedRectangle|*
%AMROUNDEDRECTD29*
21,1,0.9000,0.4000,0,0,180.0*
21,1,0.5000,0.8000,0,0,180.0*
1,1,0.4000,-0.2500,0.2000*
1,1,0.4000,0.2500,0.2000*
1,1,0.4000,0.2500,-0.2000*
1,1,0.4000,-0.2500,-0.2000*
%
%ADD29ROUNDEDRECTD29*%
G04:AMPARAMS|DCode=30|XSize=1mm|YSize=0.9mm|CornerRadius=0.225mm|HoleSize=0mm|Usage=FLASHONLY|Rotation=90.000|XOffset=0mm|YOffset=0mm|HoleType=Round|Shape=RoundedRectangle|*
%AMROUNDEDRECTD30*
21,1,1.0000,0.4500,0,0,90.0*
21,1,0.5500,0.9000,0,0,90.0*
1,1,0.4500,0.2250,0.2750*
1,1,0.4500,0.2250,-0.2750*
1,1,0.4500,-0.2250,-0.2750*
1,1,0.4500,-0.2250,0.2750*
%
%ADD30ROUNDEDRECTD30*%
G04:AMPARAMS|DCode=31|XSize=0.62mm|YSize=0.56mm|CornerRadius=0.14mm|HoleSize=0mm|Usage=FLASHONLY|Rotation=0.000|XOffset=0mm|YOffset=0mm|HoleType=Round|Shape=RoundedRectangle|*
%AMROUNDEDRECTD31*
21,1,0.6200,0.2800,0,0,0.0*
21,1,0.3400,0.5600,0,0,0.0*
1,1,0.2800,0.1700,-0.1400*
1,1,0.2800,-0.1700,-0.1400*
1,1,0.2800,-0.1700,0.1400*
1,1,0.2800,0.1700,0.1400*
%
%ADD31ROUNDEDRECTD31*%
G04:AMPARAMS|DCode=32|XSize=1.42mm|YSize=0.89mm|CornerRadius=0.2225mm|HoleSize=0mm|Usage=FLASHONLY|Rotation=270.000|XOffset=0mm|YOffset=0mm|HoleType=Round|Shape=RoundedRectangle|*
%AMROUNDEDRECTD32*
21,1,1.4200,0.4450,0,0,270.0*
21,1,0.9750,0.8900,0,0,270.0*
1,1,0.4450,-0.2225,-0.4875*
1,1,0.4450,-0.2225,0.4875*
1,1,0.4450,0.2225,0.4875*
1,1,0.4450,0.2225,-0.4875*
%
%ADD32ROUNDEDRECTD32*%
G04:AMPARAMS|DCode=33|XSize=0.62mm|YSize=0.56mm|CornerRadius=0.14mm|HoleSize=0mm|Usage=FLASHONLY|Rotation=90.000|XOffset=0mm|YOffset=0mm|HoleType=Round|Shape=RoundedRectangle|*
%AMROUNDEDRECTD33*
21,1,0.6200,0.2800,0,0,90.0*
21,1,0.3400,0.5600,0,0,90.0*
1,1,0.2800,0.1400,0.1700*
1,1,0.2800,0.1400,-0.1700*
1,1,0.2800,-0.1400,-0.1700*
1,1,0.2800,-0.1400,0.1700*
%
%ADD33ROUNDEDRECTD33*%
G04:AMPARAMS|DCode=34|XSize=5.7mm|YSize=2.35mm|CornerRadius=0.2938mm|HoleSize=0mm|Usage=FLASHONLY|Rotation=180.000|XOffset=0mm|YOffset=0mm|HoleType=Round|Shape=RoundedRectangle|*
%AMROUNDEDRECTD34*
21,1,5.7000,1.7625,0,0,180.0*
21,1,5.1125,2.3500,0,0,180.0*
1,1,0.5875,-2.5563,0.8813*
1,1,0.5875,2.5563,0.8813*
1,1,0.5875,2.5563,-0.8813*
1,1,0.5875,-2.5563,-0.8813*
%
%ADD34ROUNDEDRECTD34*%
G04:AMPARAMS|DCode=35|XSize=0.2mm|YSize=0.7mm|CornerRadius=0.05mm|HoleSize=0mm|Usage=FLASHONLY|Rotation=0.000|XOffset=0mm|YOffset=0mm|HoleType=Round|Shape=RoundedRectangle|*
%AMROUNDEDRECTD35*
21,1,0.2000,0.6000,0,0,0.0*
21,1,0.1000,0.7000,0,0,0.0*
1,1,0.1000,0.0500,-0.3000*
1,1,0.1000,-0.0500,-0.3000*
1,1,0.1000,-0.0500,0.3000*
1,1,0.1000,0.0500,0.3000*
%
%ADD35ROUNDEDRECTD35*%
G04:AMPARAMS|DCode=36|XSize=0.2mm|YSize=0.7mm|CornerRadius=0.05mm|HoleSize=0mm|Usage=FLASHONLY|Rotation=90.000|XOffset=0mm|YOffset=0mm|HoleType=Round|Shape=RoundedRectangle|*
%AMROUNDEDRECTD36*
21,1,0.2000,0.6000,0,0,90.0*
21,1,0.1000,0.7000,0,0,90.0*
1,1,0.1000,0.3000,0.0500*
1,1,0.1000,0.3000,-0.0500*
1,1,0.1000,-0.3000,-0.0500*
1,1,0.1000,-0.3000,0.0500*
%
%ADD36ROUNDEDRECTD36*%
G04:AMPARAMS|DCode=37|XSize=0.95mm|YSize=0.85mm|CornerRadius=0.2125mm|HoleSize=0mm|Usage=FLASHONLY|Rotation=180.000|XOffset=0mm|YOffset=0mm|HoleType=Round|Shape=RoundedRectangle|*
%AMROUNDEDRECTD37*
21,1,0.9500,0.4250,0,0,180.0*
21,1,0.5250,0.8500,0,0,180.0*
1,1,0.4250,-0.2625,0.2125*
1,1,0.4250,0.2625,0.2125*
1,1,0.4250,0.2625,-0.2125*
1,1,0.4250,-0.2625,-0.2125*
%
%ADD37ROUNDEDRECTD37*%
G04:AMPARAMS|DCode=38|XSize=1.45mm|YSize=1mm|CornerRadius=0.25mm|HoleSize=0mm|Usage=FLASHONLY|Rotation=180.000|XOffset=0mm|YOffset=0mm|HoleType=Round|Shape=RoundedRectangle|*
%AMROUNDEDRECTD38*
21,1,1.4500,0.5000,0,0,180.0*
21,1,0.9500,1.0000,0,0,180.0*
1,1,0.5000,-0.4750,0.2500*
1,1,0.5000,0.4750,0.2500*
1,1,0.5000,0.4750,-0.2500*
1,1,0.5000,-0.4750,-0.2500*
%
%ADD38ROUNDEDRECTD38*%
G04:AMPARAMS|DCode=39|XSize=0.65mm|YSize=0.55mm|CornerRadius=0.1375mm|HoleSize=0mm|Usage=FLASHONLY|Rotation=90.000|XOffset=0mm|YOffset=0mm|HoleType=Round|Shape=RoundedRectangle|*
%AMROUNDEDRECTD39*
21,1,0.6500,0.2750,0,0,90.0*
21,1,0.3750,0.5500,0,0,90.0*
1,1,0.2750,0.1375,0.1875*
1,1,0.2750,0.1375,-0.1875*
1,1,0.2750,-0.1375,-0.1875*
1,1,0.2750,-0.1375,0.1875*
%
%ADD39ROUNDEDRECTD39*%
G04:AMPARAMS|DCode=40|XSize=1.45mm|YSize=1mm|CornerRadius=0.25mm|HoleSize=0mm|Usage=FLASHONLY|Rotation=270.000|XOffset=0mm|YOffset=0mm|HoleType=Round|Shape=RoundedRectangle|*
%AMROUNDEDRECTD40*
21,1,1.4500,0.5000,0,0,270.0*
21,1,0.9500,1.0000,0,0,270.0*
1,1,0.5000,-0.2500,-0.4750*
1,1,0.5000,-0.2500,0.4750*
1,1,0.5000,0.2500,0.4750*
1,1,0.5000,0.2500,-0.4750*
%
%ADD40ROUNDEDRECTD40*%
G04:AMPARAMS|DCode=41|XSize=0.65mm|YSize=0.55mm|CornerRadius=0.1375mm|HoleSize=0mm|Usage=FLASHONLY|Rotation=0.000|XOffset=0mm|YOffset=0mm|HoleType=Round|Shape=RoundedRectangle|*
%AMROUNDEDRECTD41*
21,1,0.6500,0.2750,0,0,0.0*
21,1,0.3750,0.5500,0,0,0.0*
1,1,0.2750,0.1875,-0.1375*
1,1,0.2750,-0.1875,-0.1375*
1,1,0.2750,-0.1875,0.1375*
1,1,0.2750,0.1875,0.1375*
%
%ADD41ROUNDEDRECTD41*%
G04:AMPARAMS|DCode=42|XSize=0.95mm|YSize=0.85mm|CornerRadius=0.2125mm|HoleSize=0mm|Usage=FLASHONLY|Rotation=90.000|XOffset=0mm|YOffset=0mm|HoleType=Round|Shape=RoundedRectangle|*
%AMROUNDEDRECTD42*
21,1,0.9500,0.4250,0,0,90.0*
21,1,0.5250,0.8500,0,0,90.0*
1,1,0.4250,0.2125,0.2625*
1,1,0.4250,0.2125,-0.2625*
1,1,0.4250,-0.2125,-0.2625*
1,1,0.4250,-0.2125,0.2625*
%
%ADD42ROUNDEDRECTD42*%
G04:AMPARAMS|DCode=43|XSize=0.65mm|YSize=0.55mm|CornerRadius=0.1375mm|HoleSize=0mm|Usage=FLASHONLY|Rotation=225.000|XOffset=0mm|YOffset=0mm|HoleType=Round|Shape=RoundedRectangle|*
%AMROUNDEDRECTD43*
21,1,0.6500,0.2750,0,0,225.0*
21,1,0.3750,0.5500,0,0,225.0*
1,1,0.2750,-0.2298,-0.0354*
1,1,0.2750,0.0354,0.2298*
1,1,0.2750,0.2298,0.0354*
1,1,0.2750,-0.0354,-0.2298*
%
%ADD43ROUNDEDRECTD43*%
G04:AMPARAMS|DCode=44|XSize=1.65mm|YSize=3.35mm|CornerRadius=0.33mm|HoleSize=0mm|Usage=FLASHONLY|Rotation=270.000|XOffset=0mm|YOffset=0mm|HoleType=Round|Shape=RoundedRectangle|*
%AMROUNDEDRECTD44*
21,1,1.6500,2.6900,0,0,270.0*
21,1,0.9900,3.3500,0,0,270.0*
1,1,0.6600,-1.3450,-0.4950*
1,1,0.6600,-1.3450,0.4950*
1,1,0.6600,1.3450,0.4950*
1,1,0.6600,1.3450,-0.4950*
%
%ADD44ROUNDEDRECTD44*%
G04:AMPARAMS|DCode=45|XSize=1.9mm|YSize=1.3mm|CornerRadius=0.325mm|HoleSize=0mm|Usage=FLASHONLY|Rotation=270.000|XOffset=0mm|YOffset=0mm|HoleType=Round|Shape=RoundedRectangle|*
%AMROUNDEDRECTD45*
21,1,1.9000,0.6500,0,0,270.0*
21,1,1.2500,1.3000,0,0,270.0*
1,1,0.6500,-0.3250,-0.6250*
1,1,0.6500,-0.3250,0.6250*
1,1,0.6500,0.3250,0.6250*
1,1,0.6500,0.3250,-0.6250*
%
%ADD45ROUNDEDRECTD45*%
G04:AMPARAMS|DCode=46|XSize=1.9mm|YSize=1.3mm|CornerRadius=0.325mm|HoleSize=0mm|Usage=FLASHONLY|Rotation=180.000|XOffset=0mm|YOffset=0mm|HoleType=Round|Shape=RoundedRectangle|*
%AMROUNDEDRECTD46*
21,1,1.9000,0.6500,0,0,180.0*
21,1,1.2500,1.3000,0,0,180.0*
1,1,0.6500,-0.6250,0.3250*
1,1,0.6500,0.6250,0.3250*
1,1,0.6500,0.6250,-0.3250*
1,1,0.6500,-0.6250,-0.3250*
%
%ADD46ROUNDEDRECTD46*%
G04:AMPARAMS|DCode=47|XSize=1.2mm|YSize=1.5mm|CornerRadius=0.18mm|HoleSize=0mm|Usage=FLASHONLY|Rotation=225.000|XOffset=0mm|YOffset=0mm|HoleType=Round|Shape=RoundedRectangle|*
%AMROUNDEDRECTD47*
21,1,1.2000,1.1400,0,0,225.0*
21,1,0.8400,1.5000,0,0,225.0*
1,1,0.3600,-0.7000,0.1061*
1,1,0.3600,-0.1061,0.7000*
1,1,0.3600,0.7000,-0.1061*
1,1,0.3600,0.1061,-0.7000*
%
%ADD47ROUNDEDRECTD47*%
G04:AMPARAMS|DCode=48|XSize=1.2mm|YSize=1.4mm|CornerRadius=0.21mm|HoleSize=0mm|Usage=FLASHONLY|Rotation=225.000|XOffset=0mm|YOffset=0mm|HoleType=Round|Shape=RoundedRectangle|*
%AMROUNDEDRECTD48*
21,1,1.2000,0.9800,0,0,225.0*
21,1,0.7800,1.4000,0,0,225.0*
1,1,0.4200,-0.6223,0.0707*
1,1,0.4200,-0.0707,0.6223*
1,1,0.4200,0.6223,-0.0707*
1,1,0.4200,0.0707,-0.6223*
%
%ADD48ROUNDEDRECTD48*%
%ADD95C,0.8000*%
G04:AMPARAMS|DCode=96|XSize=0.65mm|YSize=0.85mm|CornerRadius=0.1625mm|HoleSize=0mm|Usage=FLASHONLY|Rotation=0.000|XOffset=0mm|YOffset=0mm|HoleType=Round|Shape=RoundedRectangle|*
%AMROUNDEDRECTD96*
21,1,0.6500,0.5250,0,0,0.0*
21,1,0.3250,0.8500,0,0,0.0*
1,1,0.3250,0.1625,-0.2625*
1,1,0.3250,-0.1625,-0.2625*
1,1,0.3250,-0.1625,0.2625*
1,1,0.3250,0.1625,0.2625*
%
%ADD96ROUNDEDRECTD96*%
%ADD97R,4.6000X4.6000*%
G04:AMPARAMS|DCode=101|XSize=2.3mm|YSize=3.4mm|CornerRadius=0.46mm|HoleSize=0mm|Usage=FLASHONLY|Rotation=270.000|XOffset=0mm|YOffset=0mm|HoleType=Round|Shape=RoundedRectangle|*
%AMROUNDEDRECTD101*
21,1,2.3000,2.4800,0,0,270.0*
21,1,1.3800,3.4000,0,0,270.0*
1,1,0.9200,-1.2400,-0.6900*
1,1,0.9200,-1.2400,0.6900*
1,1,0.9200,1.2400,0.6900*
1,1,0.9200,1.2400,-0.6900*
%
%ADD101ROUNDEDRECTD101*%
%ADD102O,3.4000X2.3000*%
G04:AMPARAMS|DCode=103|XSize=2mm|YSize=2.8mm|CornerRadius=0.4mm|HoleSize=0mm|Usage=FLASHONLY|Rotation=90.000|XOffset=0mm|YOffset=0mm|HoleType=Round|Shape=RoundedRectangle|*
%AMROUNDEDRECTD103*
21,1,2.0000,2.0000,0,0,90.0*
21,1,1.2000,2.8000,0,0,90.0*
1,1,0.8000,1.0000,0.6000*
1,1,0.8000,1.0000,-0.6000*
1,1,0.8000,-1.0000,-0.6000*
1,1,0.8000,-1.0000,0.6000*
%
%ADD103ROUNDEDRECTD103*%
%ADD104O,2.8000X2.0000*%
%ADD105C,2.0000*%
%ADD106C,0.2000*%
%ADD107C,1.8000*%
D17*
X401700Y278500D02*
D03*
X411300D02*
D03*
X401700Y289500D02*
D03*
X411300D02*
D03*
X498797Y201493D02*
D03*
X489198D02*
D03*
X498797Y212495D02*
D03*
X489198D02*
D03*
X496198Y223498D02*
D03*
X505797D02*
D03*
Y234500D02*
D03*
X496198D02*
D03*
X480800Y393000D02*
D03*
X471200D02*
D03*
D19*
X400600Y404000D02*
D03*
Y440000D02*
D03*
X413300Y404000D02*
D03*
Y440000D02*
D03*
X426000Y404000D02*
D03*
Y440000D02*
D03*
X438700Y404000D02*
D03*
Y440000D02*
D03*
X451400Y404000D02*
D03*
Y440000D02*
D03*
D20*
X579000Y218000D02*
D03*
Y224500D02*
D03*
Y231000D02*
D03*
Y237500D02*
D03*
Y244000D02*
D03*
X531000D02*
D03*
Y237500D02*
D03*
Y231000D02*
D03*
Y224500D02*
D03*
Y218000D02*
D03*
D21*
X568000Y255000D02*
D03*
X561500D02*
D03*
X555000D02*
D03*
X548500D02*
D03*
X542000D02*
D03*
Y207000D02*
D03*
X548500D02*
D03*
X555000D02*
D03*
X561500D02*
D03*
X568000D02*
D03*
D22*
X555000Y231000D02*
D03*
D23*
X517750Y38000D02*
D03*
X530750D02*
D03*
X524250D02*
D03*
X511250D02*
D03*
X530750Y64000D02*
D03*
X511250Y64000D02*
D03*
X517750D02*
D03*
X524250Y64000D02*
D03*
D24*
X612497Y257000D02*
D03*
X597497D02*
D03*
X612497Y205497D02*
D03*
X597497D02*
D03*
X222500Y24000D02*
D03*
X207500D02*
D03*
X306500D02*
D03*
X321500D02*
D03*
X596000Y138500D02*
D03*
X611000D02*
D03*
X596000Y98500D02*
D03*
X611000D02*
D03*
X350500Y46503D02*
D03*
X335500D02*
D03*
X258000Y40000D02*
D03*
X244000D02*
D03*
X285000D02*
D03*
X271000D02*
D03*
X336000Y30000D02*
D03*
X350000D02*
D03*
D25*
X561894Y329794D02*
D03*
X555106Y323006D02*
D03*
D26*
X450000Y253700D02*
D03*
Y263300D02*
D03*
D27*
X104000Y101250D02*
D03*
Y72750D02*
D03*
X104000Y167250D02*
D03*
Y138750D02*
D03*
D28*
X55250Y76000D02*
D03*
X26750D02*
D03*
X102753Y188000D02*
D03*
X74253D02*
D03*
D29*
X445000Y193500D02*
D03*
X445000Y208500D02*
D03*
X366000Y43500D02*
D03*
Y28500D02*
D03*
D30*
X497500Y16000D02*
D03*
X512500D02*
D03*
D31*
X428000Y370000D02*
D03*
Y360000D02*
D03*
D32*
X409098Y358505D02*
D03*
X389897D02*
D03*
D33*
X521500Y307400D02*
D03*
X511500D02*
D03*
D34*
X518500Y100000D02*
D03*
X518500Y142000D02*
D03*
D35*
X434000Y340000D02*
D03*
X438000D02*
D03*
X442000D02*
D03*
X446000D02*
D03*
X450000D02*
D03*
X454000D02*
D03*
X458000D02*
D03*
X462000D02*
D03*
X466000D02*
D03*
X470000D02*
D03*
X474000D02*
D03*
X478000D02*
D03*
X478000Y282000D02*
D03*
X474000D02*
D03*
X470000D02*
D03*
X466000D02*
D03*
X462000D02*
D03*
X458000D02*
D03*
X454000D02*
D03*
X450000D02*
D03*
X446000D02*
D03*
X442000D02*
D03*
X438000D02*
D03*
X434000D02*
D03*
D36*
X485000Y333000D02*
D03*
Y329000D02*
D03*
Y325000D02*
D03*
Y321000D02*
D03*
Y317000D02*
D03*
Y313000D02*
D03*
Y309000D02*
D03*
Y305000D02*
D03*
Y301000D02*
D03*
Y297000D02*
D03*
Y293000D02*
D03*
Y289000D02*
D03*
X427000Y289000D02*
D03*
Y293000D02*
D03*
Y297000D02*
D03*
Y301000D02*
D03*
Y305000D02*
D03*
Y309000D02*
D03*
Y313000D02*
D03*
X427000Y317000D02*
D03*
X427000Y321000D02*
D03*
Y325000D02*
D03*
Y329000D02*
D03*
Y333000D02*
D03*
D37*
X538997Y274002D02*
D03*
X538997Y289002D02*
D03*
X555000D02*
D03*
Y274002D02*
D03*
X547000Y52500D02*
D03*
Y67500D02*
D03*
D38*
X601000Y240000D02*
D03*
Y222000D02*
D03*
D39*
X506000Y328503D02*
D03*
X516000D02*
D03*
X510500Y344500D02*
D03*
X500500D02*
D03*
X475000Y355503D02*
D03*
X485000D02*
D03*
X420000Y255495D02*
D03*
X430000D02*
D03*
X420000Y266497D02*
D03*
X430000D02*
D03*
D40*
X407500Y316000D02*
D03*
X389500D02*
D03*
D41*
X411497Y332003D02*
D03*
Y342002D02*
D03*
X400495Y332003D02*
D03*
Y342003D02*
D03*
X500500Y317800D02*
D03*
Y307800D02*
D03*
D42*
X442500Y359000D02*
D03*
X457500D02*
D03*
X544502Y16000D02*
D03*
X529502D02*
D03*
D43*
X561465Y343536D02*
D03*
X568535Y336465D02*
D03*
X541665Y323736D02*
D03*
X548736Y316665D02*
D03*
D44*
X405000Y136000D02*
D03*
X457000D02*
D03*
X400000Y51000D02*
D03*
X452000Y51000D02*
D03*
D45*
X426000Y186000D02*
D03*
X396000D02*
D03*
D46*
X487503Y66000D02*
D03*
X487503Y36000D02*
D03*
D47*
X640284Y408284D02*
D03*
D48*
X583716Y351716D02*
D03*
D95*
X442500Y369000D02*
D03*
X421500Y214000D02*
D03*
X381500Y21000D02*
D03*
X365500Y60000D02*
D03*
X445000Y180500D02*
D03*
X531500Y80500D02*
D03*
X494000Y185000D02*
D03*
X128500Y58500D02*
D03*
X620500Y99000D02*
D03*
X621000Y138500D02*
D03*
X502500Y383000D02*
D03*
D96*
X310000Y39750D02*
D03*
X319500Y62250D02*
D03*
X300500D02*
D03*
X209500D02*
D03*
X228500D02*
D03*
X219000Y39750D02*
D03*
D97*
X456000Y311000D02*
D03*
D101*
X36000Y329600D02*
D03*
D102*
Y228000D02*
D03*
Y278800D02*
D03*
Y177200D02*
D03*
Y126400D02*
D03*
D103*
X642000Y99800D02*
D03*
D104*
Y176000D02*
D03*
Y137900D02*
D03*
Y214100D02*
D03*
Y252200D02*
D03*
D105*
X158100Y411400D02*
D03*
Y360600D02*
D03*
Y106600D02*
D03*
X335900Y157400D02*
D03*
Y106600D02*
D03*
D106*
X447000Y320000D02*
D03*
X465000D02*
D03*
X447000Y301000D02*
D03*
X465000D02*
D03*
D107*
X91000Y376000D02*
D03*
Y276000D02*
D03*
M02*
