G04 Layer_Color=8388736*
%FSLAX44Y44*%
%MOMM*%
G71*
G01*
G75*
%ADD74C,0.9200*%
G04:AMPARAMS|DCode=75|XSize=0.72mm|YSize=0.72mm|CornerRadius=0.135mm|HoleSize=0mm|Usage=FLASHONLY|Rotation=90.000|XOffset=0mm|YOffset=0mm|HoleType=Round|Shape=RoundedRectangle|*
%AMROUNDEDRECTD75*
21,1,0.7200,0.4500,0,0,90.0*
21,1,0.4500,0.7200,0,0,90.0*
1,1,0.2700,0.2250,0.2250*
1,1,0.2700,0.2250,-0.2250*
1,1,0.2700,-0.2250,-0.2250*
1,1,0.2700,-0.2250,0.2250*
%
%ADD75ROUNDEDRECTD75*%
G04:AMPARAMS|DCode=76|XSize=0.77mm|YSize=0.97mm|CornerRadius=0.2225mm|HoleSize=0mm|Usage=FLASHONLY|Rotation=0.000|XOffset=0mm|YOffset=0mm|HoleType=Round|Shape=RoundedRectangle|*
%AMROUNDEDRECTD76*
21,1,0.7700,0.5250,0,0,0.0*
21,1,0.3250,0.9700,0,0,0.0*
1,1,0.4450,0.1625,-0.2625*
1,1,0.4450,-0.1625,-0.2625*
1,1,0.4450,-0.1625,0.2625*
1,1,0.4450,0.1625,0.2625*
%
%ADD76ROUNDEDRECTD76*%
G04:AMPARAMS|DCode=77|XSize=2.52mm|YSize=0.92mm|CornerRadius=0.26mm|HoleSize=0mm|Usage=FLASHONLY|Rotation=270.000|XOffset=0mm|YOffset=0mm|HoleType=Round|Shape=RoundedRectangle|*
%AMROUNDEDRECTD77*
21,1,2.5200,0.4000,0,0,270.0*
21,1,2.0000,0.9200,0,0,270.0*
1,1,0.5200,-0.2000,-1.0000*
1,1,0.5200,-0.2000,1.0000*
1,1,0.5200,0.2000,1.0000*
1,1,0.5200,0.2000,-1.0000*
%
%ADD77ROUNDEDRECTD77*%
G04:AMPARAMS|DCode=78|XSize=0.4mm|YSize=0.9mm|CornerRadius=0.095mm|HoleSize=0mm|Usage=FLASHONLY|Rotation=270.000|XOffset=0mm|YOffset=0mm|HoleType=Round|Shape=RoundedRectangle|*
%AMROUNDEDRECTD78*
21,1,0.4000,0.7100,0,0,270.0*
21,1,0.2100,0.9000,0,0,270.0*
1,1,0.1900,-0.3550,-0.1050*
1,1,0.1900,-0.3550,0.1050*
1,1,0.1900,0.3550,0.1050*
1,1,0.1900,0.3550,-0.1050*
%
%ADD78ROUNDEDRECTD78*%
G04:AMPARAMS|DCode=79|XSize=0.4mm|YSize=0.9mm|CornerRadius=0.095mm|HoleSize=0mm|Usage=FLASHONLY|Rotation=180.000|XOffset=0mm|YOffset=0mm|HoleType=Round|Shape=RoundedRectangle|*
%AMROUNDEDRECTD79*
21,1,0.4000,0.7100,0,0,180.0*
21,1,0.2100,0.9000,0,0,180.0*
1,1,0.1900,-0.1050,0.3550*
1,1,0.1900,0.1050,0.3550*
1,1,0.1900,0.1050,-0.3550*
1,1,0.1900,-0.1050,-0.3550*
%
%ADD79ROUNDEDRECTD79*%
%ADD80R,3.3500X3.3500*%
G04:AMPARAMS|DCode=81|XSize=0.48mm|YSize=1.16mm|CornerRadius=0.135mm|HoleSize=0mm|Usage=FLASHONLY|Rotation=0.000|XOffset=0mm|YOffset=0mm|HoleType=Round|Shape=RoundedRectangle|*
%AMROUNDEDRECTD81*
21,1,0.4800,0.8900,0,0,0.0*
21,1,0.2100,1.1600,0,0,0.0*
1,1,0.2700,0.1050,-0.4450*
1,1,0.2700,-0.1050,-0.4450*
1,1,0.2700,-0.1050,0.4450*
1,1,0.2700,0.1050,0.4450*
%
%ADD81ROUNDEDRECTD81*%
G04:AMPARAMS|DCode=82|XSize=1.02mm|YSize=0.92mm|CornerRadius=0.26mm|HoleSize=0mm|Usage=FLASHONLY|Rotation=90.000|XOffset=0mm|YOffset=0mm|HoleType=Round|Shape=RoundedRectangle|*
%AMROUNDEDRECTD82*
21,1,1.0200,0.4000,0,0,90.0*
21,1,0.5000,0.9200,0,0,90.0*
1,1,0.5200,0.2000,0.2500*
1,1,0.5200,0.2000,-0.2500*
1,1,0.5200,-0.2000,-0.2500*
1,1,0.5200,-0.2000,0.2500*
%
%ADD82ROUNDEDRECTD82*%
G04:AMPARAMS|DCode=83|XSize=0.72mm|YSize=0.72mm|CornerRadius=0.135mm|HoleSize=0mm|Usage=FLASHONLY|Rotation=135.000|XOffset=0mm|YOffset=0mm|HoleType=Round|Shape=RoundedRectangle|*
%AMROUNDEDRECTD83*
21,1,0.7200,0.4500,0,0,135.0*
21,1,0.4500,0.7200,0,0,135.0*
1,1,0.2700,0.0000,0.3182*
1,1,0.2700,0.3182,0.0000*
1,1,0.2700,0.0000,-0.3182*
1,1,0.2700,-0.3182,0.0000*
%
%ADD83ROUNDEDRECTD83*%
G04:AMPARAMS|DCode=84|XSize=0.72mm|YSize=0.72mm|CornerRadius=0.135mm|HoleSize=0mm|Usage=FLASHONLY|Rotation=180.000|XOffset=0mm|YOffset=0mm|HoleType=Round|Shape=RoundedRectangle|*
%AMROUNDEDRECTD84*
21,1,0.7200,0.4500,0,0,180.0*
21,1,0.4500,0.7200,0,0,180.0*
1,1,0.2700,-0.2250,0.2250*
1,1,0.2700,0.2250,0.2250*
1,1,0.2700,0.2250,-0.2250*
1,1,0.2700,-0.2250,-0.2250*
%
%ADD84ROUNDEDRECTD84*%
G04:AMPARAMS|DCode=85|XSize=1.82mm|YSize=1.17mm|CornerRadius=0.3225mm|HoleSize=0mm|Usage=FLASHONLY|Rotation=0.000|XOffset=0mm|YOffset=0mm|HoleType=Round|Shape=RoundedRectangle|*
%AMROUNDEDRECTD85*
21,1,1.8200,0.5250,0,0,0.0*
21,1,1.1750,1.1700,0,0,0.0*
1,1,0.6450,0.5875,-0.2625*
1,1,0.6450,-0.5875,-0.2625*
1,1,0.6450,-0.5875,0.2625*
1,1,0.6450,0.5875,0.2625*
%
%ADD85ROUNDEDRECTD85*%
G04:AMPARAMS|DCode=86|XSize=1.82mm|YSize=1.17mm|CornerRadius=0.3225mm|HoleSize=0mm|Usage=FLASHONLY|Rotation=90.000|XOffset=0mm|YOffset=0mm|HoleType=Round|Shape=RoundedRectangle|*
%AMROUNDEDRECTD86*
21,1,1.8200,0.5250,0,0,90.0*
21,1,1.1750,1.1700,0,0,90.0*
1,1,0.6450,0.2625,0.5875*
1,1,0.6450,0.2625,-0.5875*
1,1,0.6450,-0.2625,-0.5875*
1,1,0.6450,-0.2625,0.5875*
%
%ADD86ROUNDEDRECTD86*%
G04:AMPARAMS|DCode=87|XSize=1.02mm|YSize=0.92mm|CornerRadius=0.26mm|HoleSize=0mm|Usage=FLASHONLY|Rotation=180.000|XOffset=0mm|YOffset=0mm|HoleType=Round|Shape=RoundedRectangle|*
%AMROUNDEDRECTD87*
21,1,1.0200,0.4000,0,0,180.0*
21,1,0.5000,0.9200,0,0,180.0*
1,1,0.5200,-0.2500,0.2000*
1,1,0.5200,0.2500,0.2000*
1,1,0.5200,0.2500,-0.2000*
1,1,0.5200,-0.2500,-0.2000*
%
%ADD87ROUNDEDRECTD87*%
G04:AMPARAMS|DCode=88|XSize=1.12mm|YSize=1.02mm|CornerRadius=0.285mm|HoleSize=0mm|Usage=FLASHONLY|Rotation=90.000|XOffset=0mm|YOffset=0mm|HoleType=Round|Shape=RoundedRectangle|*
%AMROUNDEDRECTD88*
21,1,1.1200,0.4500,0,0,90.0*
21,1,0.5500,1.0200,0,0,90.0*
1,1,0.5700,0.2250,0.2750*
1,1,0.5700,0.2250,-0.2750*
1,1,0.5700,-0.2250,-0.2750*
1,1,0.5700,-0.2250,0.2750*
%
%ADD88ROUNDEDRECTD88*%
G04:AMPARAMS|DCode=89|XSize=0.74mm|YSize=0.68mm|CornerRadius=0.2mm|HoleSize=0mm|Usage=FLASHONLY|Rotation=0.000|XOffset=0mm|YOffset=0mm|HoleType=Round|Shape=RoundedRectangle|*
%AMROUNDEDRECTD89*
21,1,0.7400,0.2800,0,0,0.0*
21,1,0.3400,0.6800,0,0,0.0*
1,1,0.4000,0.1700,-0.1400*
1,1,0.4000,-0.1700,-0.1400*
1,1,0.4000,-0.1700,0.1400*
1,1,0.4000,0.1700,0.1400*
%
%ADD89ROUNDEDRECTD89*%
G04:AMPARAMS|DCode=90|XSize=1.54mm|YSize=1.01mm|CornerRadius=0.2825mm|HoleSize=0mm|Usage=FLASHONLY|Rotation=270.000|XOffset=0mm|YOffset=0mm|HoleType=Round|Shape=RoundedRectangle|*
%AMROUNDEDRECTD90*
21,1,1.5400,0.4450,0,0,270.0*
21,1,0.9750,1.0100,0,0,270.0*
1,1,0.5650,-0.2225,-0.4875*
1,1,0.5650,-0.2225,0.4875*
1,1,0.5650,0.2225,0.4875*
1,1,0.5650,0.2225,-0.4875*
%
%ADD90ROUNDEDRECTD90*%
G04:AMPARAMS|DCode=91|XSize=0.74mm|YSize=0.68mm|CornerRadius=0.2mm|HoleSize=0mm|Usage=FLASHONLY|Rotation=90.000|XOffset=0mm|YOffset=0mm|HoleType=Round|Shape=RoundedRectangle|*
%AMROUNDEDRECTD91*
21,1,0.7400,0.2800,0,0,90.0*
21,1,0.3400,0.6800,0,0,90.0*
1,1,0.4000,0.1400,0.1700*
1,1,0.4000,0.1400,-0.1700*
1,1,0.4000,-0.1400,-0.1700*
1,1,0.4000,-0.1400,0.1700*
%
%ADD91ROUNDEDRECTD91*%
G04:AMPARAMS|DCode=92|XSize=5.82mm|YSize=2.47mm|CornerRadius=0.3538mm|HoleSize=0mm|Usage=FLASHONLY|Rotation=180.000|XOffset=0mm|YOffset=0mm|HoleType=Round|Shape=RoundedRectangle|*
%AMROUNDEDRECTD92*
21,1,5.8200,1.7625,0,0,180.0*
21,1,5.1125,2.4700,0,0,180.0*
1,1,0.7075,-2.5562,0.8812*
1,1,0.7075,2.5562,0.8812*
1,1,0.7075,2.5562,-0.8812*
1,1,0.7075,-2.5562,-0.8812*
%
%ADD92ROUNDEDRECTD92*%
%ADD93R,4.7000X4.7000*%
G04:AMPARAMS|DCode=94|XSize=0.3mm|YSize=0.8mm|CornerRadius=0.1mm|HoleSize=0mm|Usage=FLASHONLY|Rotation=0.000|XOffset=0mm|YOffset=0mm|HoleType=Round|Shape=RoundedRectangle|*
%AMROUNDEDRECTD94*
21,1,0.3000,0.6000,0,0,0.0*
21,1,0.1000,0.8000,0,0,0.0*
1,1,0.2000,0.0500,-0.3000*
1,1,0.2000,-0.0500,-0.3000*
1,1,0.2000,-0.0500,0.3000*
1,1,0.2000,0.0500,0.3000*
%
%ADD94ROUNDEDRECTD94*%
G04:AMPARAMS|DCode=95|XSize=0.3mm|YSize=0.8mm|CornerRadius=0.1mm|HoleSize=0mm|Usage=FLASHONLY|Rotation=90.000|XOffset=0mm|YOffset=0mm|HoleType=Round|Shape=RoundedRectangle|*
%AMROUNDEDRECTD95*
21,1,0.3000,0.6000,0,0,90.0*
21,1,0.1000,0.8000,0,0,90.0*
1,1,0.2000,0.3000,0.0500*
1,1,0.2000,0.3000,-0.0500*
1,1,0.2000,-0.3000,-0.0500*
1,1,0.2000,-0.3000,0.0500*
%
%ADD95ROUNDEDRECTD95*%
G04:AMPARAMS|DCode=96|XSize=1.07mm|YSize=0.97mm|CornerRadius=0.2725mm|HoleSize=0mm|Usage=FLASHONLY|Rotation=180.000|XOffset=0mm|YOffset=0mm|HoleType=Round|Shape=RoundedRectangle|*
%AMROUNDEDRECTD96*
21,1,1.0700,0.4250,0,0,180.0*
21,1,0.5250,0.9700,0,0,180.0*
1,1,0.5450,-0.2625,0.2125*
1,1,0.5450,0.2625,0.2125*
1,1,0.5450,0.2625,-0.2125*
1,1,0.5450,-0.2625,-0.2125*
%
%ADD96ROUNDEDRECTD96*%
G04:AMPARAMS|DCode=97|XSize=1.57mm|YSize=1.12mm|CornerRadius=0.31mm|HoleSize=0mm|Usage=FLASHONLY|Rotation=180.000|XOffset=0mm|YOffset=0mm|HoleType=Round|Shape=RoundedRectangle|*
%AMROUNDEDRECTD97*
21,1,1.5700,0.5000,0,0,180.0*
21,1,0.9500,1.1200,0,0,180.0*
1,1,0.6200,-0.4750,0.2500*
1,1,0.6200,0.4750,0.2500*
1,1,0.6200,0.4750,-0.2500*
1,1,0.6200,-0.4750,-0.2500*
%
%ADD97ROUNDEDRECTD97*%
G04:AMPARAMS|DCode=98|XSize=0.77mm|YSize=0.67mm|CornerRadius=0.1975mm|HoleSize=0mm|Usage=FLASHONLY|Rotation=90.000|XOffset=0mm|YOffset=0mm|HoleType=Round|Shape=RoundedRectangle|*
%AMROUNDEDRECTD98*
21,1,0.7700,0.2750,0,0,90.0*
21,1,0.3750,0.6700,0,0,90.0*
1,1,0.3950,0.1375,0.1875*
1,1,0.3950,0.1375,-0.1875*
1,1,0.3950,-0.1375,-0.1875*
1,1,0.3950,-0.1375,0.1875*
%
%ADD98ROUNDEDRECTD98*%
G04:AMPARAMS|DCode=99|XSize=1.57mm|YSize=1.12mm|CornerRadius=0.31mm|HoleSize=0mm|Usage=FLASHONLY|Rotation=270.000|XOffset=0mm|YOffset=0mm|HoleType=Round|Shape=RoundedRectangle|*
%AMROUNDEDRECTD99*
21,1,1.5700,0.5000,0,0,270.0*
21,1,0.9500,1.1200,0,0,270.0*
1,1,0.6200,-0.2500,-0.4750*
1,1,0.6200,-0.2500,0.4750*
1,1,0.6200,0.2500,0.4750*
1,1,0.6200,0.2500,-0.4750*
%
%ADD99ROUNDEDRECTD99*%
G04:AMPARAMS|DCode=100|XSize=0.77mm|YSize=0.67mm|CornerRadius=0.1975mm|HoleSize=0mm|Usage=FLASHONLY|Rotation=0.000|XOffset=0mm|YOffset=0mm|HoleType=Round|Shape=RoundedRectangle|*
%AMROUNDEDRECTD100*
21,1,0.7700,0.2750,0,0,0.0*
21,1,0.3750,0.6700,0,0,0.0*
1,1,0.3950,0.1875,-0.1375*
1,1,0.3950,-0.1875,-0.1375*
1,1,0.3950,-0.1875,0.1375*
1,1,0.3950,0.1875,0.1375*
%
%ADD100ROUNDEDRECTD100*%
G04:AMPARAMS|DCode=101|XSize=1.07mm|YSize=0.97mm|CornerRadius=0.2725mm|HoleSize=0mm|Usage=FLASHONLY|Rotation=90.000|XOffset=0mm|YOffset=0mm|HoleType=Round|Shape=RoundedRectangle|*
%AMROUNDEDRECTD101*
21,1,1.0700,0.4250,0,0,90.0*
21,1,0.5250,0.9700,0,0,90.0*
1,1,0.5450,0.2125,0.2625*
1,1,0.5450,0.2125,-0.2625*
1,1,0.5450,-0.2125,-0.2625*
1,1,0.5450,-0.2125,0.2625*
%
%ADD101ROUNDEDRECTD101*%
G04:AMPARAMS|DCode=102|XSize=0.77mm|YSize=0.67mm|CornerRadius=0.1975mm|HoleSize=0mm|Usage=FLASHONLY|Rotation=225.000|XOffset=0mm|YOffset=0mm|HoleType=Round|Shape=RoundedRectangle|*
%AMROUNDEDRECTD102*
21,1,0.7700,0.2750,0,0,225.0*
21,1,0.3750,0.6700,0,0,225.0*
1,1,0.3950,-0.2298,-0.0353*
1,1,0.3950,0.0353,0.2298*
1,1,0.3950,0.2298,0.0353*
1,1,0.3950,-0.0353,-0.2298*
%
%ADD102ROUNDEDRECTD102*%
G04:AMPARAMS|DCode=103|XSize=1.77mm|YSize=3.47mm|CornerRadius=0.39mm|HoleSize=0mm|Usage=FLASHONLY|Rotation=270.000|XOffset=0mm|YOffset=0mm|HoleType=Round|Shape=RoundedRectangle|*
%AMROUNDEDRECTD103*
21,1,1.7700,2.6900,0,0,270.0*
21,1,0.9900,3.4700,0,0,270.0*
1,1,0.7800,-1.3450,-0.4950*
1,1,0.7800,-1.3450,0.4950*
1,1,0.7800,1.3450,0.4950*
1,1,0.7800,1.3450,-0.4950*
%
%ADD103ROUNDEDRECTD103*%
G04:AMPARAMS|DCode=104|XSize=2.02mm|YSize=1.42mm|CornerRadius=0.385mm|HoleSize=0mm|Usage=FLASHONLY|Rotation=270.000|XOffset=0mm|YOffset=0mm|HoleType=Round|Shape=RoundedRectangle|*
%AMROUNDEDRECTD104*
21,1,2.0200,0.6500,0,0,270.0*
21,1,1.2500,1.4200,0,0,270.0*
1,1,0.7700,-0.3250,-0.6250*
1,1,0.7700,-0.3250,0.6250*
1,1,0.7700,0.3250,0.6250*
1,1,0.7700,0.3250,-0.6250*
%
%ADD104ROUNDEDRECTD104*%
G04:AMPARAMS|DCode=105|XSize=2.02mm|YSize=1.42mm|CornerRadius=0.385mm|HoleSize=0mm|Usage=FLASHONLY|Rotation=180.000|XOffset=0mm|YOffset=0mm|HoleType=Round|Shape=RoundedRectangle|*
%AMROUNDEDRECTD105*
21,1,2.0200,0.6500,0,0,180.0*
21,1,1.2500,1.4200,0,0,180.0*
1,1,0.7700,-0.6250,0.3250*
1,1,0.7700,0.6250,0.3250*
1,1,0.7700,0.6250,-0.3250*
1,1,0.7700,-0.6250,-0.3250*
%
%ADD105ROUNDEDRECTD105*%
G04:AMPARAMS|DCode=106|XSize=1.3mm|YSize=1.6mm|CornerRadius=0.23mm|HoleSize=0mm|Usage=FLASHONLY|Rotation=225.000|XOffset=0mm|YOffset=0mm|HoleType=Round|Shape=RoundedRectangle|*
%AMROUNDEDRECTD106*
21,1,1.3000,1.1400,0,0,225.0*
21,1,0.8400,1.6000,0,0,225.0*
1,1,0.4600,-0.7000,0.1061*
1,1,0.4600,-0.1061,0.7000*
1,1,0.4600,0.7000,-0.1061*
1,1,0.4600,0.1061,-0.7000*
%
%ADD106ROUNDEDRECTD106*%
G04:AMPARAMS|DCode=107|XSize=1.3mm|YSize=1.5mm|CornerRadius=0.26mm|HoleSize=0mm|Usage=FLASHONLY|Rotation=225.000|XOffset=0mm|YOffset=0mm|HoleType=Round|Shape=RoundedRectangle|*
%AMROUNDEDRECTD107*
21,1,1.3000,0.9800,0,0,225.0*
21,1,0.7800,1.5000,0,0,225.0*
1,1,0.5200,-0.6223,0.0707*
1,1,0.5200,-0.0707,0.6223*
1,1,0.5200,0.6223,-0.0707*
1,1,0.5200,0.0707,-0.6223*
%
%ADD107ROUNDEDRECTD107*%
G04:AMPARAMS|DCode=108|XSize=2.42mm|YSize=3.52mm|CornerRadius=0.52mm|HoleSize=0mm|Usage=FLASHONLY|Rotation=270.000|XOffset=0mm|YOffset=0mm|HoleType=Round|Shape=RoundedRectangle|*
%AMROUNDEDRECTD108*
21,1,2.4200,2.4800,0,0,270.0*
21,1,1.3800,3.5200,0,0,270.0*
1,1,1.0400,-1.2400,-0.6900*
1,1,1.0400,-1.2400,0.6900*
1,1,1.0400,1.2400,0.6900*
1,1,1.0400,1.2400,-0.6900*
%
%ADD108ROUNDEDRECTD108*%
%ADD109O,3.5200X2.4200*%
G04:AMPARAMS|DCode=110|XSize=2.12mm|YSize=2.92mm|CornerRadius=0.46mm|HoleSize=0mm|Usage=FLASHONLY|Rotation=90.000|XOffset=0mm|YOffset=0mm|HoleType=Round|Shape=RoundedRectangle|*
%AMROUNDEDRECTD110*
21,1,2.1200,2.0000,0,0,90.0*
21,1,1.2000,2.9200,0,0,90.0*
1,1,0.9200,1.0000,0.6000*
1,1,0.9200,1.0000,-0.6000*
1,1,0.9200,-1.0000,-0.6000*
1,1,0.9200,-1.0000,0.6000*
%
%ADD110ROUNDEDRECTD110*%
%ADD111O,2.9200X2.1200*%
%ADD112C,2.1200*%
%ADD113C,1.9200*%
%ADD114C,0.1200*%
%ADD115C,0.5700*%
D74*
X441500Y368000D02*
D03*
X420500Y213000D02*
D03*
X380500Y20000D02*
D03*
X364500Y59000D02*
D03*
X444000Y179500D02*
D03*
X530500Y79500D02*
D03*
X493000Y184000D02*
D03*
X127500Y57500D02*
D03*
X619500Y98000D02*
D03*
X620000Y137500D02*
D03*
X501500Y382000D02*
D03*
D75*
X400700Y277500D02*
D03*
X410300D02*
D03*
X400700Y288500D02*
D03*
X410300D02*
D03*
X497798Y200492D02*
D03*
X488198D02*
D03*
X497798Y211495D02*
D03*
X488198D02*
D03*
X495197Y222498D02*
D03*
X504797D02*
D03*
Y233500D02*
D03*
X495197D02*
D03*
X479800Y392000D02*
D03*
X470200D02*
D03*
D76*
X309000Y38750D02*
D03*
X318500Y61250D02*
D03*
X299500D02*
D03*
X208500D02*
D03*
X227500D02*
D03*
X218000Y38750D02*
D03*
D77*
X399600Y403000D02*
D03*
Y439000D02*
D03*
X412300Y403000D02*
D03*
Y439000D02*
D03*
X425000Y403000D02*
D03*
Y439000D02*
D03*
X437700Y403000D02*
D03*
Y439000D02*
D03*
X450400Y403000D02*
D03*
Y439000D02*
D03*
D78*
X578000Y217000D02*
D03*
Y223500D02*
D03*
Y230000D02*
D03*
Y236500D02*
D03*
Y243000D02*
D03*
X530000D02*
D03*
Y236500D02*
D03*
Y230000D02*
D03*
Y223500D02*
D03*
Y217000D02*
D03*
D79*
X567000Y254000D02*
D03*
X560500D02*
D03*
X554000D02*
D03*
X547500D02*
D03*
X541000D02*
D03*
Y206000D02*
D03*
X547500D02*
D03*
X554000D02*
D03*
X560500D02*
D03*
X567000D02*
D03*
D80*
X554000Y230000D02*
D03*
D81*
X516750Y37000D02*
D03*
X529750D02*
D03*
X523250D02*
D03*
X510250D02*
D03*
X529750Y63000D02*
D03*
X510250Y63000D02*
D03*
X516750D02*
D03*
X523250Y63000D02*
D03*
D82*
X611497Y256000D02*
D03*
X596497D02*
D03*
X611497Y204498D02*
D03*
X596497D02*
D03*
X221500Y23000D02*
D03*
X206500D02*
D03*
X305500D02*
D03*
X320500D02*
D03*
X595000Y137500D02*
D03*
X610000D02*
D03*
X595000Y97500D02*
D03*
X610000D02*
D03*
X349500Y45503D02*
D03*
X334500D02*
D03*
X257000Y39000D02*
D03*
X243000D02*
D03*
X284000D02*
D03*
X270000D02*
D03*
X335000Y29000D02*
D03*
X349000D02*
D03*
D83*
X560894Y328794D02*
D03*
X554106Y322006D02*
D03*
D84*
X449000Y252700D02*
D03*
Y262300D02*
D03*
D85*
X103000Y100250D02*
D03*
Y71750D02*
D03*
X103000Y166250D02*
D03*
Y137750D02*
D03*
D86*
X54250Y75000D02*
D03*
X25750D02*
D03*
X101753Y187000D02*
D03*
X73253D02*
D03*
D87*
X444000Y192500D02*
D03*
X444000Y207500D02*
D03*
X365000Y42500D02*
D03*
Y27500D02*
D03*
D88*
X496500Y15000D02*
D03*
X511500D02*
D03*
D89*
X427000Y369000D02*
D03*
Y359000D02*
D03*
D90*
X408097Y357505D02*
D03*
X388897D02*
D03*
D91*
X520500Y306400D02*
D03*
X510500D02*
D03*
D92*
X517500Y99000D02*
D03*
X517500Y141000D02*
D03*
D93*
X455000Y310000D02*
D03*
D94*
X433000Y339000D02*
D03*
X437000D02*
D03*
X441000D02*
D03*
X445000D02*
D03*
X449000D02*
D03*
X453000D02*
D03*
X457000D02*
D03*
X461000D02*
D03*
X465000D02*
D03*
X469000D02*
D03*
X473000D02*
D03*
X477000D02*
D03*
X477000Y281000D02*
D03*
X473000D02*
D03*
X469000D02*
D03*
X465000D02*
D03*
X461000D02*
D03*
X457000D02*
D03*
X453000D02*
D03*
X449000D02*
D03*
X445000D02*
D03*
X441000D02*
D03*
X437000D02*
D03*
X433000D02*
D03*
D95*
X484000Y332000D02*
D03*
Y328000D02*
D03*
Y324000D02*
D03*
Y320000D02*
D03*
Y316000D02*
D03*
Y312000D02*
D03*
Y308000D02*
D03*
Y304000D02*
D03*
Y300000D02*
D03*
Y296000D02*
D03*
Y292000D02*
D03*
Y288000D02*
D03*
X426000Y288000D02*
D03*
Y292000D02*
D03*
Y296000D02*
D03*
Y300000D02*
D03*
Y304000D02*
D03*
Y308000D02*
D03*
Y312000D02*
D03*
X426000Y316000D02*
D03*
X426000Y320000D02*
D03*
Y324000D02*
D03*
Y328000D02*
D03*
Y332000D02*
D03*
D96*
X537998Y273002D02*
D03*
X537998Y288002D02*
D03*
X554000D02*
D03*
Y273002D02*
D03*
X546000Y51500D02*
D03*
Y66500D02*
D03*
D97*
X600000Y239000D02*
D03*
Y221000D02*
D03*
D98*
X505000Y327503D02*
D03*
X515000D02*
D03*
X509500Y343500D02*
D03*
X499500D02*
D03*
X474000Y354502D02*
D03*
X484000D02*
D03*
X419000Y254495D02*
D03*
X429000D02*
D03*
X419000Y265497D02*
D03*
X429000D02*
D03*
D99*
X406500Y315000D02*
D03*
X388500D02*
D03*
D100*
X410498Y331003D02*
D03*
Y341003D02*
D03*
X399495Y331003D02*
D03*
Y341003D02*
D03*
X499500Y316800D02*
D03*
Y306800D02*
D03*
D101*
X441500Y358000D02*
D03*
X456500D02*
D03*
X543503Y15000D02*
D03*
X528503D02*
D03*
D102*
X560465Y342536D02*
D03*
X567536Y335465D02*
D03*
X540664Y322735D02*
D03*
X547735Y315665D02*
D03*
D103*
X404000Y135000D02*
D03*
X456000D02*
D03*
X399000Y50000D02*
D03*
X451000Y50000D02*
D03*
D104*
X425000Y185000D02*
D03*
X395000D02*
D03*
D105*
X486502Y65000D02*
D03*
X486502Y35000D02*
D03*
D106*
X639284Y407284D02*
D03*
D107*
X582716Y350716D02*
D03*
D108*
X35000Y328600D02*
D03*
D109*
Y227000D02*
D03*
Y277800D02*
D03*
Y176200D02*
D03*
Y125400D02*
D03*
D110*
X641000Y98800D02*
D03*
D111*
Y175000D02*
D03*
Y136900D02*
D03*
Y213100D02*
D03*
Y251200D02*
D03*
D112*
X157100Y410400D02*
D03*
Y359600D02*
D03*
Y105600D02*
D03*
X334900Y156400D02*
D03*
Y105600D02*
D03*
D113*
X90000Y375000D02*
D03*
Y275000D02*
D03*
D114*
X87000Y421500D02*
D03*
X587000Y31500D02*
D03*
X87000D02*
D03*
D115*
X560000Y195000D02*
D03*
X567500D02*
D03*
M02*
