G04 Layer_Color=30967*
%FSLAX44Y44*%
%MOMM*%
G71*
G01*
G75*
%ADD122C,0.1000*%
D122*
X117000Y31500D02*
G03*
X117000Y31500I-30000J0D01*
G01*
Y421500D02*
G03*
X117000Y421500I-30000J0D01*
G01*
X617000Y31500D02*
G03*
X617000Y31500I-30000J0D01*
G01*
X405500Y274500D02*
Y280500D01*
X402500Y277500D02*
X408500D01*
X395000Y272000D02*
X416000D01*
X395000Y283000D02*
X416000D01*
Y272000D02*
Y283000D01*
X395000Y272000D02*
Y283000D01*
X405500Y285500D02*
Y291500D01*
X402500Y288500D02*
X408500D01*
X395000Y283000D02*
X416000D01*
X395000Y294000D02*
X416000D01*
Y283000D02*
Y294000D01*
X395000Y283000D02*
Y294000D01*
X291000Y31000D02*
Y69000D01*
X304000Y50000D02*
X314000D01*
X309000Y45000D02*
Y55000D01*
X291000Y31000D02*
X327000D01*
X291000Y69000D02*
X327000D01*
Y31000D02*
Y69000D01*
X236000Y31000D02*
Y69000D01*
X200000D02*
X236000D01*
X200000Y31000D02*
X236000D01*
X218000Y45000D02*
Y55000D01*
X213000Y50000D02*
X223000D01*
X200000Y31000D02*
Y69000D01*
X385000Y385000D02*
X465000D01*
X385000D02*
Y457000D01*
X465000D01*
Y385000D02*
Y457000D01*
X425000Y416000D02*
Y426000D01*
X420000Y421000D02*
X430000D01*
X-5000Y222000D02*
Y232000D01*
X-10000Y227000D02*
X0D01*
X64000Y87000D02*
Y367000D01*
X-67000Y87000D02*
X64000D01*
X-67000D02*
Y367000D01*
X64000D01*
X675000Y170000D02*
Y180000D01*
X670000Y175000D02*
X680000D01*
X618000Y70000D02*
Y280000D01*
X723000D01*
Y70000D02*
Y280000D01*
X618000Y70000D02*
X723000D01*
X589000Y195000D02*
Y265000D01*
X519000Y195000D02*
Y265000D01*
Y195000D02*
X589000Y195000D01*
X519000Y265000D02*
X589000Y265000D01*
X549000Y230000D02*
X559000D01*
X554000Y225000D02*
Y235000D01*
X515000Y50000D02*
X525000Y50000D01*
X520000Y55000D02*
X520000Y45000D01*
X502000Y74000D02*
X502000Y26000D01*
X538000Y74000D02*
X538000Y26000D01*
X502000D02*
X538000D01*
X502000Y74000D02*
X538000D01*
X116000Y63000D02*
Y453000D01*
X376000D01*
Y63000D02*
Y453000D01*
X116000Y63000D02*
X376000D01*
X246000Y253000D02*
Y263000D01*
X241000Y258000D02*
X251000D01*
X482497Y194992D02*
Y205992D01*
X503498Y194992D02*
Y205992D01*
X482497D02*
X503498D01*
X482497Y194992D02*
X503498D01*
X489997Y200492D02*
X495997D01*
X492998Y197493D02*
Y203492D01*
X482497Y205995D02*
Y216995D01*
X503498Y205995D02*
Y216995D01*
X482497D02*
X503498D01*
X482497Y205995D02*
X503498D01*
X489997Y211495D02*
X495997D01*
X492998Y208495D02*
Y214495D01*
X499997Y219498D02*
Y225497D01*
X496997Y222498D02*
X502997D01*
X489497Y216998D02*
X510498D01*
X489497Y227997D02*
X510498D01*
Y216998D02*
Y227997D01*
X489497Y216998D02*
Y227997D01*
Y228000D02*
Y239000D01*
X510498Y228000D02*
Y239000D01*
X489497D02*
X510498D01*
X489497Y228000D02*
X510498D01*
X496997Y233500D02*
X502997D01*
X499997Y230500D02*
Y236500D01*
X603997Y251500D02*
X603997Y260500D01*
X599497Y256000D02*
X608498D01*
X589997Y248000D02*
X617998Y248000D01*
X589997Y264000D02*
X617998D01*
Y248000D02*
Y264000D01*
X589997Y248000D02*
Y264000D01*
X603997Y199997D02*
Y208997D01*
X599497Y204498D02*
X608498D01*
X589997Y196497D02*
X617998Y196497D01*
X589997Y212497D02*
X617997D01*
X617998Y196497D01*
X589997Y196497D02*
X589997Y212497D01*
X464500Y386500D02*
Y397500D01*
X485500Y386500D02*
Y397500D01*
X464500D02*
X485500D01*
X464500Y386500D02*
X485500D01*
X472000Y392000D02*
X478000D01*
X475000Y389000D02*
Y395000D01*
X546186Y321865D02*
X553965Y314086D01*
X561036Y336714D02*
X568814Y328936D01*
X546186Y321865D02*
X561036Y336714D01*
X553965Y314086D02*
X568814Y328936D01*
X555379Y323279D02*
X559621Y327521D01*
X555379D02*
X559621Y323279D01*
X446000Y257500D02*
X452000D01*
X449000Y254500D02*
Y260500D01*
X454500Y247000D02*
Y268000D01*
X443500Y247000D02*
Y268000D01*
X454500D01*
X443500Y247000D02*
X454500D01*
X214000Y18500D02*
Y27500D01*
X209500Y23000D02*
X218500D01*
X200000Y15000D02*
X228000D01*
X200000Y31000D02*
X228000D01*
Y15000D02*
Y31000D01*
X200000Y15000D02*
Y31000D01*
X313000Y18500D02*
Y27500D01*
X308500Y23000D02*
X317500D01*
X299000Y31000D02*
X327000D01*
X299000Y15000D02*
X327000D01*
X299000D02*
Y31000D01*
X327000Y15000D02*
Y31000D01*
X602500Y133000D02*
Y142000D01*
X598000Y137500D02*
X607000D01*
X588500Y145500D02*
X616500D01*
X588500Y129500D02*
X616500D01*
X588500D02*
Y145500D01*
X616500Y129500D02*
Y145500D01*
X602500Y93000D02*
Y102000D01*
X598000Y97500D02*
X607000D01*
X588500Y105500D02*
X616500Y105500D01*
X588500Y89500D02*
X616500D01*
X588500Y105500D02*
X588500Y89500D01*
X616500D02*
Y105500D01*
X91000Y109000D02*
X115000D01*
X91000Y63000D02*
X115000D01*
Y109000D01*
X91000D02*
X91000Y63000D01*
X103000Y81000D02*
Y91000D01*
X98000Y86000D02*
X108000D01*
X40000Y70000D02*
Y80000D01*
X35000Y75000D02*
X45000D01*
X17000Y63000D02*
X63000D01*
X17000Y87000D02*
X63000Y87000D01*
X63000Y63000D01*
X17000D02*
Y87000D01*
X91000Y175000D02*
X115000D01*
X91000Y129000D02*
X115000Y129000D01*
X115000Y175000D01*
X91000D02*
X91000Y129000D01*
X103000Y147000D02*
X103000Y157000D01*
X98000Y152000D02*
X108000D01*
X87502Y192000D02*
X87502Y182000D01*
X82502Y187000D02*
X92502D01*
X64503Y175000D02*
X110503D01*
X64503Y199000D02*
X110503D01*
Y175000D02*
Y199000D01*
X64503Y175000D02*
Y199000D01*
X342000Y41003D02*
X342000Y50003D01*
X337500Y45503D02*
X346500Y45503D01*
X328000Y37503D02*
X356000D01*
X328000Y53503D02*
X356000Y53503D01*
X356000Y37503D01*
X328000Y53503D02*
X328000Y37503D01*
X436000Y186000D02*
X452000Y186000D01*
X436000Y214000D02*
X452000D01*
X436000Y186000D02*
X436000Y214000D01*
X452000Y186000D02*
Y214000D01*
X444000Y204500D02*
X444000Y195500D01*
X439500Y200000D02*
X448500Y200000D01*
X488500Y7000D02*
Y23000D01*
X519500Y23000D02*
X519500Y7000D01*
X488500Y23000D02*
X519500Y23000D01*
X488500Y7000D02*
X519500D01*
X499500Y15000D02*
X508500D01*
X504000Y10500D02*
Y19500D01*
X357000Y49000D02*
X373000D01*
X357000Y21000D02*
X373000D01*
Y49000D01*
X357000Y21000D02*
Y49000D01*
X365000Y30500D02*
Y39500D01*
X360500Y35000D02*
X369500D01*
X421000Y374500D02*
X433000Y374500D01*
X421000Y353500D02*
X433000Y353500D01*
Y374500D01*
X421000Y353500D02*
Y374500D01*
X427000Y361000D02*
Y367000D01*
X424000Y364000D02*
X430000D01*
X415998Y346505D02*
Y368505D01*
X380998Y346505D02*
Y368505D01*
Y346505D02*
X415998D01*
X380998Y368505D02*
X415998D01*
X393498Y357505D02*
X403498D01*
X398498Y352505D02*
Y362505D01*
X515500Y303400D02*
Y309400D01*
X512500Y306400D02*
X518500D01*
X505000Y300400D02*
X526000D01*
X505000Y312400D02*
X526000D01*
X526000Y300400D01*
X505000D02*
X505000Y312400D01*
X482500Y83000D02*
X552500Y83000D01*
X482500Y157000D02*
X552500Y157000D01*
X482500Y83000D02*
Y157000D01*
X552500Y83000D02*
Y157000D01*
X517500Y115000D02*
X517500Y125000D01*
X512500Y120000D02*
X522500D01*
X450000Y310000D02*
X460000D01*
X455000Y305000D02*
Y315000D01*
X416000Y271000D02*
Y349000D01*
Y271000D02*
X494000D01*
Y349000D01*
X416000D02*
X494000D01*
X250000Y34500D02*
Y43500D01*
X245500Y39000D02*
X254500D01*
X236000Y31000D02*
X264000Y31000D01*
X236000Y47000D02*
X264000D01*
Y31000D02*
Y47000D01*
X236000Y31000D02*
Y47000D01*
X291000Y31000D02*
Y47000D01*
X263000Y31000D02*
Y47000D01*
Y31000D02*
X291000D01*
X263000Y47000D02*
X291000Y47000D01*
X272500Y39000D02*
X281500D01*
X277000Y34500D02*
Y43500D01*
X342000Y24500D02*
Y33500D01*
X337500Y29000D02*
X346500Y29000D01*
X328000Y37000D02*
X356000D01*
X328000Y21000D02*
X356000Y21000D01*
X328000Y21000D02*
Y37000D01*
X356000Y21000D02*
X356000Y37000D01*
X529997Y265002D02*
X545998D01*
X529997Y296003D02*
X545998D01*
X529997Y265002D02*
Y296003D01*
X545998Y265002D02*
Y296003D01*
X537998Y276003D02*
Y285003D01*
X533497Y280503D02*
X542497Y280502D01*
X549500D02*
X558500Y280503D01*
X554000Y276003D02*
Y285003D01*
X562000Y265002D02*
Y296003D01*
X546000Y265002D02*
Y296003D01*
X562000D01*
X546000Y265002D02*
X562000D01*
X595000Y230000D02*
X605000D01*
X600000Y225000D02*
Y235000D01*
X610500Y212500D02*
Y247500D01*
X589500Y212500D02*
Y247500D01*
X610500D01*
X589500Y212500D02*
X610500D01*
X499500Y333003D02*
X499500Y322003D01*
X520500Y333003D02*
X520500Y322003D01*
X499500Y333003D02*
X520500D01*
X499500Y322003D02*
X520500Y322003D01*
X507250Y327503D02*
X512750D01*
X510000Y324753D02*
Y330253D01*
X415000Y304500D02*
Y325500D01*
X380000Y304500D02*
Y325500D01*
Y304500D02*
X415000D01*
X380000Y325500D02*
X415000D01*
X392500Y315000D02*
X402500D01*
X397500Y310000D02*
Y320000D01*
X407747Y336003D02*
X413247D01*
X410498Y333252D02*
X410498Y338753D01*
X404997Y346502D02*
X404997Y325503D01*
X415998D02*
Y346502D01*
X404997Y325503D02*
X415998D01*
X404997Y346502D02*
X415998D01*
X396745Y336003D02*
X402245Y336003D01*
X399495Y333253D02*
Y338753D01*
X393995Y325503D02*
Y346503D01*
X404995Y325503D02*
Y346503D01*
X393995Y325503D02*
X404995Y325503D01*
X393995Y346503D02*
X404995D01*
X504500Y340750D02*
X504500Y346250D01*
X501750Y343500D02*
X507250D01*
X494000Y338000D02*
X515000D01*
X494000Y349000D02*
X515000D01*
X515000Y338000D02*
X515000Y349000D01*
X494000Y338000D02*
Y349000D01*
X479000Y351753D02*
Y357253D01*
X476250Y354502D02*
X481750D01*
X468500Y360003D02*
X489500D01*
X468500Y349002D02*
X489500D01*
X468500D02*
Y360003D01*
X489500Y349002D02*
Y360003D01*
X424000Y251745D02*
Y257245D01*
X421250Y254495D02*
X426750D01*
X413500Y259995D02*
X434500Y259995D01*
X413500Y248995D02*
X434500D01*
X413500Y259995D02*
X413500Y248995D01*
X434500Y259995D02*
X434500Y248995D01*
X424000Y262747D02*
Y268247D01*
X421250Y265497D02*
X426750Y265497D01*
X413500Y270998D02*
X434500D01*
X413500Y259998D02*
X434500Y259997D01*
X413500Y259998D02*
Y270998D01*
X434500Y259997D02*
X434500Y270998D01*
X433500Y366000D02*
X433500Y350000D01*
X464500Y366000D02*
X464500Y350000D01*
X433500Y366000D02*
X464500D01*
X433500Y350000D02*
X464500D01*
X444500Y358000D02*
X453500D01*
X449000Y353500D02*
Y362500D01*
X562056Y337056D02*
X565945Y340945D01*
X562055D02*
X565945Y337056D01*
X560465Y350314D02*
X575314Y335465D01*
X552686Y342536D02*
X567536Y327686D01*
X552686Y342536D02*
X560465Y350314D01*
X567536Y327686D02*
X575314Y335465D01*
X542256Y317255D02*
X546145Y321144D01*
X542256D02*
X546144Y317255D01*
X540664Y330514D02*
X555514Y315665D01*
X532886Y322735D02*
X547735Y307886D01*
X532886Y322735D02*
X540664Y330514D01*
X547735Y307886D02*
X555514Y315665D01*
X496750Y311800D02*
X502250D01*
X499500Y309050D02*
Y314550D01*
X505000Y301300D02*
X505000Y322300D01*
X494000Y301300D02*
Y322300D01*
X505000Y322300D01*
X494000Y301300D02*
X505000Y301300D01*
X541500Y59000D02*
X550500D01*
X546000Y54500D02*
Y63500D01*
X538000Y43500D02*
Y74500D01*
X554000Y43500D02*
Y74500D01*
X538000Y43500D02*
X554000D01*
X538000Y74500D02*
X554000D01*
X536003Y10500D02*
Y19500D01*
X531503Y15000D02*
X540502Y15000D01*
X520503Y7000D02*
X551502D01*
X520503Y23000D02*
X551502Y23000D01*
Y7000D02*
Y23000D01*
X520503Y7000D02*
Y23000D01*
X430000Y130000D02*
Y140000D01*
X425000Y135000D02*
X435000D01*
X381000Y172000D02*
X479000D01*
X381000Y98000D02*
X479000D01*
X381000D02*
Y172000D01*
X479000Y98000D02*
Y172000D01*
X435000Y172500D02*
Y197500D01*
X385000Y172500D02*
Y197500D01*
Y172500D02*
X435000D01*
X385000Y197500D02*
X435000D01*
X405000Y185000D02*
X415000D01*
X410000Y180000D02*
Y190000D01*
X481502Y50000D02*
X491502D01*
X486502Y55000D02*
X486502Y45000D01*
X499003Y25000D02*
Y75000D01*
X474003Y25000D02*
X474003Y75000D01*
X499003Y75000D01*
X474003Y25000D02*
X499003Y25000D01*
X425000Y45000D02*
Y55000D01*
X420000Y50000D02*
X430000Y50000D01*
X376000Y87000D02*
X474000D01*
X376000Y13000D02*
X474000D01*
X376000D02*
Y87000D01*
X474000Y13000D02*
Y87000D01*
X62500Y395000D02*
X117500D01*
X62500Y255000D02*
Y395000D01*
Y255000D02*
X117500D01*
Y395000D01*
X90000Y320000D02*
Y330000D01*
X85000Y325000D02*
X95000D01*
X566452Y348594D02*
X580594Y334452D01*
X655548Y409406D01*
X641406Y423548D02*
X655548Y409406D01*
X566452Y348594D02*
X641406Y423548D01*
X607464Y375465D02*
X614536Y382536D01*
X607464D02*
X614536Y375465D01*
X457000Y454000D02*
X674000Y237000D01*
M02*
