G04*
G04 #@! TF.GenerationSoftware,Altium Limited,Altium Designer,22.6.1 (34)*
G04*
G04 Layer_Color=13010237*
%FSLAX44Y44*%
%MOMM*%
G71*
G04*
G04 #@! TF.SameCoordinates,A0D8632A-B648-4B75-ABCE-4127253DC59C*
G04*
G04*
G04 #@! TF.FilePolarity,Positive*
G04*
G01*
G75*
%ADD122C,0.1000*%
D122*
X113000Y32500D02*
G03*
X113000Y32500I-25000J0D01*
G01*
Y422500D02*
G03*
X113000Y422500I-25000J0D01*
G01*
X613000Y32500D02*
G03*
X613000Y32500I-25000J0D01*
G01*
X420500Y246000D02*
X426500D01*
X423500Y243000D02*
Y249000D01*
X418000Y235500D02*
Y256500D01*
X429000Y235500D02*
Y256500D01*
X418000D02*
X429000D01*
X418000Y235500D02*
X429000D01*
X432500Y246000D02*
X438500D01*
X435500Y243000D02*
Y249000D01*
X430000Y235500D02*
Y256500D01*
X441000Y235500D02*
Y256500D01*
X430000D02*
X441000D01*
X430000Y235500D02*
X441000D01*
X579500Y120500D02*
X617500D01*
X579500D02*
Y156500D01*
X617500Y120500D02*
Y156500D01*
X593500Y138500D02*
X603500D01*
X598500Y133500D02*
Y143500D01*
X579500Y156500D02*
X617500D01*
X579500Y80500D02*
X617500D01*
X579500D02*
Y116500D01*
X617500Y80500D02*
Y116500D01*
X593500Y98500D02*
X603500D01*
X598500Y93500D02*
Y103500D01*
X579500Y116500D02*
X617500D01*
X500914Y365778D02*
Y375778D01*
X524914Y349778D02*
Y391778D01*
X476914Y349778D02*
X524914D01*
X476914D02*
Y391778D01*
X524914Y391778D01*
X495914Y370778D02*
X505914Y370778D01*
X221000Y30500D02*
Y40500D01*
X216000Y35500D02*
X226000D01*
X160000Y63500D02*
X282000D01*
X160000Y7500D02*
X282000D01*
Y63500D01*
X160000Y7500D02*
Y63500D01*
X221000Y146000D02*
Y156000D01*
X216000Y151000D02*
X226000D01*
X160000Y179000D02*
X282000D01*
X160000Y123000D02*
X282000D01*
Y179000D01*
X160000Y123000D02*
Y179000D01*
X291000Y381000D02*
Y391000D01*
X286000Y386000D02*
X296000D01*
X230000Y414000D02*
X352000D01*
X230000Y358000D02*
X352000D01*
Y414000D01*
X230000Y358000D02*
Y414000D01*
X565500Y192500D02*
X581500D01*
X565500Y164500D02*
X581500D01*
X565500D02*
Y192500D01*
X581500Y164500D02*
Y192500D01*
X573500Y174000D02*
Y183000D01*
X569000Y178500D02*
X578000D01*
X548500Y192500D02*
X564500D01*
X548500Y164500D02*
X564500D01*
X548500D02*
Y192500D01*
X564500Y164500D02*
Y192500D01*
X556500Y174000D02*
Y183000D01*
X552000Y178500D02*
X561000D01*
X481000Y276000D02*
Y282000D01*
X478000Y279000D02*
X484000D01*
X470500Y284500D02*
X491500D01*
X470500Y273500D02*
X491500D01*
Y284500D01*
X470500Y273500D02*
Y284500D01*
X497500Y262997D02*
X503500D01*
X500500Y259998D02*
Y265997D01*
X506000Y252498D02*
Y273498D01*
X495000Y252498D02*
Y273498D01*
Y252498D02*
X506000D01*
X495000Y273498D02*
X506000D01*
X113997Y60000D02*
Y84000D01*
X159997Y60000D02*
Y84000D01*
X113997Y60000D02*
X159997D01*
X113997Y84000D02*
X159997D01*
X131997Y72000D02*
X141997Y72000D01*
X136997Y67000D02*
Y77000D01*
X108000Y93000D02*
Y103000D01*
X103000Y98000D02*
X113000D01*
X85000Y110000D02*
X131000D01*
X85000Y86000D02*
X131000D01*
Y110000D01*
X85000Y86000D02*
Y110000D01*
X299000Y36000D02*
X308000D01*
X303500Y31500D02*
Y40500D01*
X295500Y22000D02*
Y50000D01*
X311500Y22000D02*
Y50000D01*
X295500D02*
X311500D01*
X295500Y22000D02*
X311500D01*
X136997Y182000D02*
Y192000D01*
X131997Y187000D02*
X141997D01*
X113997Y199000D02*
X159997D01*
X113997Y175000D02*
X159997D01*
Y199000D01*
X113997Y175000D02*
Y199000D01*
X85000Y150000D02*
Y174000D01*
X131000Y150000D02*
Y174000D01*
X85000Y150000D02*
X131000D01*
X85000Y174000D02*
X131000D01*
X103000Y162000D02*
X113000Y162000D01*
X108000Y157000D02*
Y167000D01*
X296003Y134000D02*
Y143000D01*
X291502Y138500D02*
X300502D01*
X282003Y146500D02*
X310002D01*
X282003Y130500D02*
X310002D01*
Y146500D01*
X282003Y130500D02*
Y146500D01*
X355503Y386000D02*
X364503D01*
X360003Y381500D02*
Y390500D01*
X352002Y372000D02*
Y400000D01*
X368003Y372000D02*
Y400000D01*
X352002D02*
X368003D01*
X352002Y372000D02*
X368003Y372000D01*
X511500Y38000D02*
X520500D01*
X516000Y33500D02*
Y42500D01*
X524000Y24000D02*
Y52000D01*
X508000Y24000D02*
Y52000D01*
Y24000D02*
X524000D01*
X508000Y52000D02*
X524000D01*
X537000Y8000D02*
Y24000D01*
X509000Y8000D02*
Y24000D01*
X537000D01*
X509000Y8000D02*
X537000D01*
X518500Y16000D02*
X527500D01*
X523000Y11500D02*
Y20500D01*
X494997Y11500D02*
Y20500D01*
X490497Y16000D02*
X499497D01*
X480998Y8000D02*
X508997D01*
X480998Y24000D02*
X508997D01*
X480998Y8000D02*
Y24000D01*
X508997Y8000D02*
Y24000D01*
X485000Y25000D02*
X501000D01*
X485000Y53000D02*
X501000D01*
Y25000D02*
Y53000D01*
X485000Y25000D02*
Y53000D01*
X493000Y34500D02*
Y43500D01*
X488500Y39000D02*
X497500D01*
X167000Y100000D02*
X205000D01*
X186000Y77000D02*
Y87000D01*
X181000Y82000D02*
X191000D01*
X205000Y64000D02*
Y100000D01*
X167000Y64000D02*
Y100000D01*
Y64000D02*
X205000D01*
X167000Y179000D02*
X205000D01*
X167000D02*
Y215000D01*
X205000Y179000D02*
Y215000D01*
X181000Y197000D02*
X191000D01*
X186000Y192000D02*
Y202000D01*
X167000Y215000D02*
X205000D01*
X488914Y341028D02*
Y346528D01*
X486164Y343778D02*
X491664Y343778D01*
X478414Y338278D02*
X499414Y338278D01*
X478414Y349278D02*
X499414Y349278D01*
X478414Y338278D02*
Y349278D01*
X499414Y338278D02*
X499414Y349278D01*
X510914Y341028D02*
X510914Y346528D01*
X508164Y343778D02*
X513664D01*
X500414Y349278D02*
X521414D01*
X500414Y338278D02*
X521414D01*
X521414Y349278D02*
X521414Y338278D01*
X500414D02*
X500414Y349278D01*
X495000Y273500D02*
Y284500D01*
X516000Y273500D02*
Y284500D01*
X495000Y273500D02*
X516000Y273500D01*
X495000Y284500D02*
X516000D01*
X502750Y279000D02*
X508250D01*
X505500Y276250D02*
Y281750D01*
X353500Y156000D02*
X378500D01*
X353500Y106000D02*
X378500D01*
X353500D02*
X353500Y156000D01*
X378500D02*
X378500Y106000D01*
X366000Y126000D02*
Y136000D01*
X361000Y131000D02*
X371000Y131000D01*
X488500Y75000D02*
X497500D01*
X493000Y70500D02*
Y79500D01*
X501000Y59500D02*
Y90500D01*
X485000Y59500D02*
Y90500D01*
Y59500D02*
X501000D01*
X485000Y90500D02*
X501000D01*
X160000Y324000D02*
Y348000D01*
X206000Y324000D02*
Y348000D01*
X160000Y324000D02*
X206000Y324000D01*
X160000Y348000D02*
X206000Y348000D01*
X178000Y336000D02*
X188000D01*
X183000Y331000D02*
Y341000D01*
X206000Y324000D02*
Y348000D01*
X252000Y324000D02*
X252000Y348000D01*
X206000Y324000D02*
X252000Y324000D01*
X206000Y348000D02*
X252000D01*
X224000Y336000D02*
X234000D01*
X229000Y331000D02*
Y341000D01*
X160000Y424000D02*
Y448000D01*
X206000D02*
X206000Y424000D01*
X160000Y424000D02*
X206000Y424000D01*
X160000Y448000D02*
X206000D01*
X178000Y436000D02*
X188000Y436000D01*
X183000Y441000D02*
X183000Y431000D01*
X206000Y424000D02*
Y448000D01*
X252000Y448000D02*
X252000Y424000D01*
X206000Y424000D02*
X252000Y424000D01*
X206000Y448000D02*
X252000Y448000D01*
X224000Y436000D02*
X234000D01*
X229000Y431000D02*
X229000Y441000D01*
M02*
