G04 Layer_Physical_Order=1*
G04 Layer_Color=255*
%FSLAX44Y44*%
%MOMM*%
G71*
G01*
G75*
%ADD10C,0.3500*%
%ADD11C,0.2000*%
%ADD12C,0.5000*%
%ADD13C,0.2500*%
%ADD14C,0.4000*%
%ADD15C,0.2933*%
%ADD16C,0.3000*%
%ADD17C,0.4200*%
%ADD18C,0.8000*%
G04:AMPARAMS|DCode=19|XSize=0.6mm|YSize=0.6mm|CornerRadius=0.075mm|HoleSize=0mm|Usage=FLASHONLY|Rotation=90.000|XOffset=0mm|YOffset=0mm|HoleType=Round|Shape=RoundedRectangle|*
%AMROUNDEDRECTD19*
21,1,0.6000,0.4500,0,0,90.0*
21,1,0.4500,0.6000,0,0,90.0*
1,1,0.1500,0.2250,0.2250*
1,1,0.1500,0.2250,-0.2250*
1,1,0.1500,-0.2250,-0.2250*
1,1,0.1500,-0.2250,0.2250*
%
%ADD19ROUNDEDRECTD19*%
G04:AMPARAMS|DCode=20|XSize=0.65mm|YSize=0.85mm|CornerRadius=0.1625mm|HoleSize=0mm|Usage=FLASHONLY|Rotation=0.000|XOffset=0mm|YOffset=0mm|HoleType=Round|Shape=RoundedRectangle|*
%AMROUNDEDRECTD20*
21,1,0.6500,0.5250,0,0,0.0*
21,1,0.3250,0.8500,0,0,0.0*
1,1,0.3250,0.1625,-0.2625*
1,1,0.3250,-0.1625,-0.2625*
1,1,0.3250,-0.1625,0.2625*
1,1,0.3250,0.1625,0.2625*
%
%ADD20ROUNDEDRECTD20*%
G04:AMPARAMS|DCode=21|XSize=2.4mm|YSize=0.8mm|CornerRadius=0.2mm|HoleSize=0mm|Usage=FLASHONLY|Rotation=270.000|XOffset=0mm|YOffset=0mm|HoleType=Round|Shape=RoundedRectangle|*
%AMROUNDEDRECTD21*
21,1,2.4000,0.4000,0,0,270.0*
21,1,2.0000,0.8000,0,0,270.0*
1,1,0.4000,-0.2000,-1.0000*
1,1,0.4000,-0.2000,1.0000*
1,1,0.4000,0.2000,1.0000*
1,1,0.4000,0.2000,-1.0000*
%
%ADD21ROUNDEDRECTD21*%
G04:AMPARAMS|DCode=22|XSize=0.3mm|YSize=0.8mm|CornerRadius=0.045mm|HoleSize=0mm|Usage=FLASHONLY|Rotation=270.000|XOffset=0mm|YOffset=0mm|HoleType=Round|Shape=RoundedRectangle|*
%AMROUNDEDRECTD22*
21,1,0.3000,0.7100,0,0,270.0*
21,1,0.2100,0.8000,0,0,270.0*
1,1,0.0900,-0.3550,-0.1050*
1,1,0.0900,-0.3550,0.1050*
1,1,0.0900,0.3550,0.1050*
1,1,0.0900,0.3550,-0.1050*
%
%ADD22ROUNDEDRECTD22*%
G04:AMPARAMS|DCode=23|XSize=0.3mm|YSize=0.8mm|CornerRadius=0.045mm|HoleSize=0mm|Usage=FLASHONLY|Rotation=180.000|XOffset=0mm|YOffset=0mm|HoleType=Round|Shape=RoundedRectangle|*
%AMROUNDEDRECTD23*
21,1,0.3000,0.7100,0,0,180.0*
21,1,0.2100,0.8000,0,0,180.0*
1,1,0.0900,-0.1050,0.3550*
1,1,0.0900,0.1050,0.3550*
1,1,0.0900,0.1050,-0.3550*
1,1,0.0900,-0.1050,-0.3550*
%
%ADD23ROUNDEDRECTD23*%
%ADD24R,3.2500X3.2500*%
G04:AMPARAMS|DCode=25|XSize=0.42mm|YSize=1.1mm|CornerRadius=0.105mm|HoleSize=0mm|Usage=FLASHONLY|Rotation=0.000|XOffset=0mm|YOffset=0mm|HoleType=Round|Shape=RoundedRectangle|*
%AMROUNDEDRECTD25*
21,1,0.4200,0.8900,0,0,0.0*
21,1,0.2100,1.1000,0,0,0.0*
1,1,0.2100,0.1050,-0.4450*
1,1,0.2100,-0.1050,-0.4450*
1,1,0.2100,-0.1050,0.4450*
1,1,0.2100,0.1050,0.4450*
%
%ADD25ROUNDEDRECTD25*%
G04:AMPARAMS|DCode=26|XSize=0.9mm|YSize=0.8mm|CornerRadius=0.2mm|HoleSize=0mm|Usage=FLASHONLY|Rotation=90.000|XOffset=0mm|YOffset=0mm|HoleType=Round|Shape=RoundedRectangle|*
%AMROUNDEDRECTD26*
21,1,0.9000,0.4000,0,0,90.0*
21,1,0.5000,0.8000,0,0,90.0*
1,1,0.4000,0.2000,0.2500*
1,1,0.4000,0.2000,-0.2500*
1,1,0.4000,-0.2000,-0.2500*
1,1,0.4000,-0.2000,0.2500*
%
%ADD26ROUNDEDRECTD26*%
G04:AMPARAMS|DCode=27|XSize=0.6mm|YSize=0.6mm|CornerRadius=0.075mm|HoleSize=0mm|Usage=FLASHONLY|Rotation=135.000|XOffset=0mm|YOffset=0mm|HoleType=Round|Shape=RoundedRectangle|*
%AMROUNDEDRECTD27*
21,1,0.6000,0.4500,0,0,135.0*
21,1,0.4500,0.6000,0,0,135.0*
1,1,0.1500,0.0000,0.3182*
1,1,0.1500,0.3182,0.0000*
1,1,0.1500,0.0000,-0.3182*
1,1,0.1500,-0.3182,0.0000*
%
%ADD27ROUNDEDRECTD27*%
G04:AMPARAMS|DCode=28|XSize=0.6mm|YSize=0.6mm|CornerRadius=0.075mm|HoleSize=0mm|Usage=FLASHONLY|Rotation=180.000|XOffset=0mm|YOffset=0mm|HoleType=Round|Shape=RoundedRectangle|*
%AMROUNDEDRECTD28*
21,1,0.6000,0.4500,0,0,180.0*
21,1,0.4500,0.6000,0,0,180.0*
1,1,0.1500,-0.2250,0.2250*
1,1,0.1500,0.2250,0.2250*
1,1,0.1500,0.2250,-0.2250*
1,1,0.1500,-0.2250,-0.2250*
%
%ADD28ROUNDEDRECTD28*%
G04:AMPARAMS|DCode=29|XSize=1.7mm|YSize=1.05mm|CornerRadius=0.2625mm|HoleSize=0mm|Usage=FLASHONLY|Rotation=0.000|XOffset=0mm|YOffset=0mm|HoleType=Round|Shape=RoundedRectangle|*
%AMROUNDEDRECTD29*
21,1,1.7000,0.5250,0,0,0.0*
21,1,1.1750,1.0500,0,0,0.0*
1,1,0.5250,0.5875,-0.2625*
1,1,0.5250,-0.5875,-0.2625*
1,1,0.5250,-0.5875,0.2625*
1,1,0.5250,0.5875,0.2625*
%
%ADD29ROUNDEDRECTD29*%
G04:AMPARAMS|DCode=30|XSize=1.7mm|YSize=1.05mm|CornerRadius=0.2625mm|HoleSize=0mm|Usage=FLASHONLY|Rotation=90.000|XOffset=0mm|YOffset=0mm|HoleType=Round|Shape=RoundedRectangle|*
%AMROUNDEDRECTD30*
21,1,1.7000,0.5250,0,0,90.0*
21,1,1.1750,1.0500,0,0,90.0*
1,1,0.5250,0.2625,0.5875*
1,1,0.5250,0.2625,-0.5875*
1,1,0.5250,-0.2625,-0.5875*
1,1,0.5250,-0.2625,0.5875*
%
%ADD30ROUNDEDRECTD30*%
G04:AMPARAMS|DCode=31|XSize=0.9mm|YSize=0.8mm|CornerRadius=0.2mm|HoleSize=0mm|Usage=FLASHONLY|Rotation=180.000|XOffset=0mm|YOffset=0mm|HoleType=Round|Shape=RoundedRectangle|*
%AMROUNDEDRECTD31*
21,1,0.9000,0.4000,0,0,180.0*
21,1,0.5000,0.8000,0,0,180.0*
1,1,0.4000,-0.2500,0.2000*
1,1,0.4000,0.2500,0.2000*
1,1,0.4000,0.2500,-0.2000*
1,1,0.4000,-0.2500,-0.2000*
%
%ADD31ROUNDEDRECTD31*%
G04:AMPARAMS|DCode=32|XSize=1mm|YSize=0.9mm|CornerRadius=0.225mm|HoleSize=0mm|Usage=FLASHONLY|Rotation=90.000|XOffset=0mm|YOffset=0mm|HoleType=Round|Shape=RoundedRectangle|*
%AMROUNDEDRECTD32*
21,1,1.0000,0.4500,0,0,90.0*
21,1,0.5500,0.9000,0,0,90.0*
1,1,0.4500,0.2250,0.2750*
1,1,0.4500,0.2250,-0.2750*
1,1,0.4500,-0.2250,-0.2750*
1,1,0.4500,-0.2250,0.2750*
%
%ADD32ROUNDEDRECTD32*%
G04:AMPARAMS|DCode=33|XSize=0.62mm|YSize=0.56mm|CornerRadius=0.14mm|HoleSize=0mm|Usage=FLASHONLY|Rotation=0.000|XOffset=0mm|YOffset=0mm|HoleType=Round|Shape=RoundedRectangle|*
%AMROUNDEDRECTD33*
21,1,0.6200,0.2800,0,0,0.0*
21,1,0.3400,0.5600,0,0,0.0*
1,1,0.2800,0.1700,-0.1400*
1,1,0.2800,-0.1700,-0.1400*
1,1,0.2800,-0.1700,0.1400*
1,1,0.2800,0.1700,0.1400*
%
%ADD33ROUNDEDRECTD33*%
G04:AMPARAMS|DCode=34|XSize=1.42mm|YSize=0.89mm|CornerRadius=0.2225mm|HoleSize=0mm|Usage=FLASHONLY|Rotation=270.000|XOffset=0mm|YOffset=0mm|HoleType=Round|Shape=RoundedRectangle|*
%AMROUNDEDRECTD34*
21,1,1.4200,0.4450,0,0,270.0*
21,1,0.9750,0.8900,0,0,270.0*
1,1,0.4450,-0.2225,-0.4875*
1,1,0.4450,-0.2225,0.4875*
1,1,0.4450,0.2225,0.4875*
1,1,0.4450,0.2225,-0.4875*
%
%ADD34ROUNDEDRECTD34*%
G04:AMPARAMS|DCode=35|XSize=0.62mm|YSize=0.56mm|CornerRadius=0.14mm|HoleSize=0mm|Usage=FLASHONLY|Rotation=90.000|XOffset=0mm|YOffset=0mm|HoleType=Round|Shape=RoundedRectangle|*
%AMROUNDEDRECTD35*
21,1,0.6200,0.2800,0,0,90.0*
21,1,0.3400,0.5600,0,0,90.0*
1,1,0.2800,0.1400,0.1700*
1,1,0.2800,0.1400,-0.1700*
1,1,0.2800,-0.1400,-0.1700*
1,1,0.2800,-0.1400,0.1700*
%
%ADD35ROUNDEDRECTD35*%
G04:AMPARAMS|DCode=36|XSize=5.7mm|YSize=2.35mm|CornerRadius=0.2938mm|HoleSize=0mm|Usage=FLASHONLY|Rotation=180.000|XOffset=0mm|YOffset=0mm|HoleType=Round|Shape=RoundedRectangle|*
%AMROUNDEDRECTD36*
21,1,5.7000,1.7625,0,0,180.0*
21,1,5.1125,2.3500,0,0,180.0*
1,1,0.5875,-2.5562,0.8812*
1,1,0.5875,2.5562,0.8812*
1,1,0.5875,2.5562,-0.8812*
1,1,0.5875,-2.5562,-0.8812*
%
%ADD36ROUNDEDRECTD36*%
%ADD37R,4.6000X4.6000*%
G04:AMPARAMS|DCode=38|XSize=0.2mm|YSize=0.7mm|CornerRadius=0.05mm|HoleSize=0mm|Usage=FLASHONLY|Rotation=0.000|XOffset=0mm|YOffset=0mm|HoleType=Round|Shape=RoundedRectangle|*
%AMROUNDEDRECTD38*
21,1,0.2000,0.6000,0,0,0.0*
21,1,0.1000,0.7000,0,0,0.0*
1,1,0.1000,0.0500,-0.3000*
1,1,0.1000,-0.0500,-0.3000*
1,1,0.1000,-0.0500,0.3000*
1,1,0.1000,0.0500,0.3000*
%
%ADD38ROUNDEDRECTD38*%
G04:AMPARAMS|DCode=39|XSize=0.2mm|YSize=0.7mm|CornerRadius=0.05mm|HoleSize=0mm|Usage=FLASHONLY|Rotation=90.000|XOffset=0mm|YOffset=0mm|HoleType=Round|Shape=RoundedRectangle|*
%AMROUNDEDRECTD39*
21,1,0.2000,0.6000,0,0,90.0*
21,1,0.1000,0.7000,0,0,90.0*
1,1,0.1000,0.3000,0.0500*
1,1,0.1000,0.3000,-0.0500*
1,1,0.1000,-0.3000,-0.0500*
1,1,0.1000,-0.3000,0.0500*
%
%ADD39ROUNDEDRECTD39*%
G04:AMPARAMS|DCode=40|XSize=0.95mm|YSize=0.85mm|CornerRadius=0.2125mm|HoleSize=0mm|Usage=FLASHONLY|Rotation=180.000|XOffset=0mm|YOffset=0mm|HoleType=Round|Shape=RoundedRectangle|*
%AMROUNDEDRECTD40*
21,1,0.9500,0.4250,0,0,180.0*
21,1,0.5250,0.8500,0,0,180.0*
1,1,0.4250,-0.2625,0.2125*
1,1,0.4250,0.2625,0.2125*
1,1,0.4250,0.2625,-0.2125*
1,1,0.4250,-0.2625,-0.2125*
%
%ADD40ROUNDEDRECTD40*%
G04:AMPARAMS|DCode=41|XSize=1.45mm|YSize=1mm|CornerRadius=0.25mm|HoleSize=0mm|Usage=FLASHONLY|Rotation=180.000|XOffset=0mm|YOffset=0mm|HoleType=Round|Shape=RoundedRectangle|*
%AMROUNDEDRECTD41*
21,1,1.4500,0.5000,0,0,180.0*
21,1,0.9500,1.0000,0,0,180.0*
1,1,0.5000,-0.4750,0.2500*
1,1,0.5000,0.4750,0.2500*
1,1,0.5000,0.4750,-0.2500*
1,1,0.5000,-0.4750,-0.2500*
%
%ADD41ROUNDEDRECTD41*%
G04:AMPARAMS|DCode=42|XSize=0.65mm|YSize=0.55mm|CornerRadius=0.1375mm|HoleSize=0mm|Usage=FLASHONLY|Rotation=90.000|XOffset=0mm|YOffset=0mm|HoleType=Round|Shape=RoundedRectangle|*
%AMROUNDEDRECTD42*
21,1,0.6500,0.2750,0,0,90.0*
21,1,0.3750,0.5500,0,0,90.0*
1,1,0.2750,0.1375,0.1875*
1,1,0.2750,0.1375,-0.1875*
1,1,0.2750,-0.1375,-0.1875*
1,1,0.2750,-0.1375,0.1875*
%
%ADD42ROUNDEDRECTD42*%
G04:AMPARAMS|DCode=43|XSize=1.45mm|YSize=1mm|CornerRadius=0.25mm|HoleSize=0mm|Usage=FLASHONLY|Rotation=270.000|XOffset=0mm|YOffset=0mm|HoleType=Round|Shape=RoundedRectangle|*
%AMROUNDEDRECTD43*
21,1,1.4500,0.5000,0,0,270.0*
21,1,0.9500,1.0000,0,0,270.0*
1,1,0.5000,-0.2500,-0.4750*
1,1,0.5000,-0.2500,0.4750*
1,1,0.5000,0.2500,0.4750*
1,1,0.5000,0.2500,-0.4750*
%
%ADD43ROUNDEDRECTD43*%
G04:AMPARAMS|DCode=44|XSize=0.65mm|YSize=0.55mm|CornerRadius=0.1375mm|HoleSize=0mm|Usage=FLASHONLY|Rotation=0.000|XOffset=0mm|YOffset=0mm|HoleType=Round|Shape=RoundedRectangle|*
%AMROUNDEDRECTD44*
21,1,0.6500,0.2750,0,0,0.0*
21,1,0.3750,0.5500,0,0,0.0*
1,1,0.2750,0.1875,-0.1375*
1,1,0.2750,-0.1875,-0.1375*
1,1,0.2750,-0.1875,0.1375*
1,1,0.2750,0.1875,0.1375*
%
%ADD44ROUNDEDRECTD44*%
G04:AMPARAMS|DCode=45|XSize=0.95mm|YSize=0.85mm|CornerRadius=0.2125mm|HoleSize=0mm|Usage=FLASHONLY|Rotation=90.000|XOffset=0mm|YOffset=0mm|HoleType=Round|Shape=RoundedRectangle|*
%AMROUNDEDRECTD45*
21,1,0.9500,0.4250,0,0,90.0*
21,1,0.5250,0.8500,0,0,90.0*
1,1,0.4250,0.2125,0.2625*
1,1,0.4250,0.2125,-0.2625*
1,1,0.4250,-0.2125,-0.2625*
1,1,0.4250,-0.2125,0.2625*
%
%ADD45ROUNDEDRECTD45*%
G04:AMPARAMS|DCode=46|XSize=0.65mm|YSize=0.55mm|CornerRadius=0.1375mm|HoleSize=0mm|Usage=FLASHONLY|Rotation=225.000|XOffset=0mm|YOffset=0mm|HoleType=Round|Shape=RoundedRectangle|*
%AMROUNDEDRECTD46*
21,1,0.6500,0.2750,0,0,225.0*
21,1,0.3750,0.5500,0,0,225.0*
1,1,0.2750,-0.2298,-0.0353*
1,1,0.2750,0.0353,0.2298*
1,1,0.2750,0.2298,0.0353*
1,1,0.2750,-0.0353,-0.2298*
%
%ADD46ROUNDEDRECTD46*%
G04:AMPARAMS|DCode=47|XSize=1.65mm|YSize=3.35mm|CornerRadius=0.33mm|HoleSize=0mm|Usage=FLASHONLY|Rotation=270.000|XOffset=0mm|YOffset=0mm|HoleType=Round|Shape=RoundedRectangle|*
%AMROUNDEDRECTD47*
21,1,1.6500,2.6900,0,0,270.0*
21,1,0.9900,3.3500,0,0,270.0*
1,1,0.6600,-1.3450,-0.4950*
1,1,0.6600,-1.3450,0.4950*
1,1,0.6600,1.3450,0.4950*
1,1,0.6600,1.3450,-0.4950*
%
%ADD47ROUNDEDRECTD47*%
G04:AMPARAMS|DCode=48|XSize=1.9mm|YSize=1.3mm|CornerRadius=0.325mm|HoleSize=0mm|Usage=FLASHONLY|Rotation=270.000|XOffset=0mm|YOffset=0mm|HoleType=Round|Shape=RoundedRectangle|*
%AMROUNDEDRECTD48*
21,1,1.9000,0.6500,0,0,270.0*
21,1,1.2500,1.3000,0,0,270.0*
1,1,0.6500,-0.3250,-0.6250*
1,1,0.6500,-0.3250,0.6250*
1,1,0.6500,0.3250,0.6250*
1,1,0.6500,0.3250,-0.6250*
%
%ADD48ROUNDEDRECTD48*%
G04:AMPARAMS|DCode=49|XSize=1.9mm|YSize=1.3mm|CornerRadius=0.325mm|HoleSize=0mm|Usage=FLASHONLY|Rotation=180.000|XOffset=0mm|YOffset=0mm|HoleType=Round|Shape=RoundedRectangle|*
%AMROUNDEDRECTD49*
21,1,1.9000,0.6500,0,0,180.0*
21,1,1.2500,1.3000,0,0,180.0*
1,1,0.6500,-0.6250,0.3250*
1,1,0.6500,0.6250,0.3250*
1,1,0.6500,0.6250,-0.3250*
1,1,0.6500,-0.6250,-0.3250*
%
%ADD49ROUNDEDRECTD49*%
G04:AMPARAMS|DCode=50|XSize=1.2mm|YSize=1.5mm|CornerRadius=0.18mm|HoleSize=0mm|Usage=FLASHONLY|Rotation=225.000|XOffset=0mm|YOffset=0mm|HoleType=Round|Shape=RoundedRectangle|*
%AMROUNDEDRECTD50*
21,1,1.2000,1.1400,0,0,225.0*
21,1,0.8400,1.5000,0,0,225.0*
1,1,0.3600,-0.7000,0.1061*
1,1,0.3600,-0.1061,0.7000*
1,1,0.3600,0.7000,-0.1061*
1,1,0.3600,0.1061,-0.7000*
%
%ADD50ROUNDEDRECTD50*%
G04:AMPARAMS|DCode=51|XSize=1.2mm|YSize=1.4mm|CornerRadius=0.21mm|HoleSize=0mm|Usage=FLASHONLY|Rotation=225.000|XOffset=0mm|YOffset=0mm|HoleType=Round|Shape=RoundedRectangle|*
%AMROUNDEDRECTD51*
21,1,1.2000,0.9800,0,0,225.0*
21,1,0.7800,1.4000,0,0,225.0*
1,1,0.4200,-0.6223,0.0707*
1,1,0.4200,-0.0707,0.6223*
1,1,0.4200,0.6223,-0.0707*
1,1,0.4200,0.0707,-0.6223*
%
%ADD51ROUNDEDRECTD51*%
%ADD52C,1.0000*%
%ADD53C,0.7000*%
%ADD54C,0.3200*%
G04:AMPARAMS|DCode=55|XSize=2.3mm|YSize=3.4mm|CornerRadius=0.46mm|HoleSize=0mm|Usage=FLASHONLY|Rotation=270.000|XOffset=0mm|YOffset=0mm|HoleType=Round|Shape=RoundedRectangle|*
%AMROUNDEDRECTD55*
21,1,2.3000,2.4800,0,0,270.0*
21,1,1.3800,3.4000,0,0,270.0*
1,1,0.9200,-1.2400,-0.6900*
1,1,0.9200,-1.2400,0.6900*
1,1,0.9200,1.2400,0.6900*
1,1,0.9200,1.2400,-0.6900*
%
%ADD55ROUNDEDRECTD55*%
%ADD56O,3.4000X2.3000*%
G04:AMPARAMS|DCode=57|XSize=2mm|YSize=2.8mm|CornerRadius=0.4mm|HoleSize=0mm|Usage=FLASHONLY|Rotation=90.000|XOffset=0mm|YOffset=0mm|HoleType=Round|Shape=RoundedRectangle|*
%AMROUNDEDRECTD57*
21,1,2.0000,2.0000,0,0,90.0*
21,1,1.2000,2.8000,0,0,90.0*
1,1,0.8000,1.0000,0.6000*
1,1,0.8000,1.0000,-0.6000*
1,1,0.8000,-1.0000,-0.6000*
1,1,0.8000,-1.0000,0.6000*
%
%ADD57ROUNDEDRECTD57*%
%ADD58O,2.8000X2.0000*%
%ADD59C,2.0000*%
%ADD60C,0.2000*%
%ADD61C,1.8000*%
%ADD62C,0.4500*%
%ADD63C,0.7000*%
G36*
X492429Y230731D02*
X492244Y230972D01*
X492029Y231187D01*
X491784Y231377D01*
X491508Y231542D01*
X491202Y231681D01*
X490865Y231795D01*
X490498Y231884D01*
X490101Y231947D01*
X490029Y231953D01*
X489582Y231923D01*
X489383Y231891D01*
X489211Y231852D01*
X489065Y231807D01*
X488946Y231757D01*
X488854Y231700D01*
Y235294D01*
X488946Y235238D01*
X489065Y235188D01*
X489211Y235143D01*
X489383Y235104D01*
X489582Y235072D01*
X489951Y235035D01*
X490099Y235048D01*
X490497Y235112D01*
X490864Y235201D01*
X491200Y235315D01*
X491507Y235455D01*
X491783Y235620D01*
X492028Y235811D01*
X492244Y236027D01*
X492429Y236269D01*
Y230731D01*
D02*
G37*
G36*
X526129Y235129D02*
X526094Y235152D01*
X526011Y235173D01*
X525878Y235191D01*
X525466Y235220D01*
X523579Y235250D01*
Y237750D01*
X526129Y237871D01*
Y235129D01*
D02*
G37*
G36*
X523446Y231741D02*
X523565Y231690D01*
X523711Y231646D01*
X523883Y231607D01*
X524082Y231574D01*
X524560Y231527D01*
X525145Y231503D01*
X525477Y231500D01*
Y228500D01*
X525145Y228497D01*
X524082Y228426D01*
X523883Y228393D01*
X523711Y228354D01*
X523565Y228310D01*
X523446Y228259D01*
X523354Y228203D01*
Y231797D01*
X523446Y231741D01*
D02*
G37*
G36*
X594286Y234174D02*
X594024Y234331D01*
X593731Y234471D01*
X593407Y234595D01*
X593052Y234703D01*
X592667Y234793D01*
X592251Y234868D01*
X591328Y234967D01*
X590820Y234992D01*
X590282Y235000D01*
X589732Y238000D01*
X590425Y238030D01*
X591031Y238120D01*
X591549Y238270D01*
X591980Y238480D01*
X592324Y238750D01*
X592580Y239080D01*
X592749Y239470D01*
X592831Y239920D01*
X592825Y240430D01*
X592732Y241000D01*
X594286Y234174D01*
D02*
G37*
G36*
X672000Y239000D02*
Y190000D01*
X572142D01*
X571813Y190429D01*
X571256Y192000D01*
X572012Y193131D01*
X572384Y195000D01*
X572012Y196869D01*
X571553Y197556D01*
X571545Y197587D01*
X571499Y197647D01*
X571395Y198477D01*
X571377Y198734D01*
X571248Y199211D01*
X571124Y199689D01*
X571116Y199698D01*
X571113Y199710D01*
X570812Y200101D01*
X570772Y200154D01*
X570718Y201061D01*
X570867Y201283D01*
X571099Y202450D01*
Y209099D01*
X575452Y213452D01*
X581550D01*
X581857Y213513D01*
X581317Y214019D01*
X580642Y214567D01*
X579978Y215019D01*
X579325Y215375D01*
X578683Y215635D01*
X578052Y215800D01*
X577432Y215868D01*
X576824Y215840D01*
X576226Y215716D01*
X575640Y215496D01*
X581871Y218371D01*
X581973Y218152D01*
X582102Y217917D01*
X582258Y217667D01*
X582654Y217122D01*
X582893Y216827D01*
X583776Y215851D01*
X583986Y215638D01*
X584048Y215950D01*
Y218050D01*
X585395Y219843D01*
X585558Y219931D01*
X588217D01*
X588326Y219825D01*
X588493Y219759D01*
X588639Y219652D01*
X588959Y219574D01*
X589265Y219453D01*
X590111Y218500D01*
X590502Y216534D01*
X591214Y215468D01*
X591233Y215415D01*
X591304Y215334D01*
X591446Y215121D01*
X591475Y215068D01*
X591490Y215056D01*
X591616Y214866D01*
X591865Y214700D01*
X591902Y214658D01*
X592065Y214534D01*
X592097Y214503D01*
X592131Y214461D01*
X592172Y214394D01*
X592221Y214292D01*
X592274Y214144D01*
X592324Y213946D01*
X592367Y213694D01*
X592396Y213388D01*
X592409Y212956D01*
X592509Y212521D01*
X592410Y212116D01*
X592396Y211782D01*
X592370Y211592D01*
X592333Y211434D01*
X592287Y211299D01*
X592231Y211180D01*
X592162Y211066D01*
X592076Y210952D01*
X591964Y210833D01*
X591819Y210706D01*
X591549Y210508D01*
X591500Y210455D01*
X591224Y210271D01*
X590940Y209845D01*
X590865Y209764D01*
X590841Y209696D01*
X590221Y208769D01*
X589869Y206998D01*
Y201998D01*
X590221Y200226D01*
X591224Y198724D01*
X592726Y197721D01*
X594497Y197369D01*
X598498D01*
X600269Y197721D01*
X601771Y198724D01*
X602774Y200226D01*
X602978Y201251D01*
X605017D01*
X605221Y200226D01*
X606224Y198724D01*
X607726Y197721D01*
X609497Y197369D01*
X613498D01*
X615269Y197721D01*
X616771Y198724D01*
X617774Y200226D01*
X618126Y201998D01*
Y205665D01*
X618215Y205789D01*
X618766Y206444D01*
X619505Y207222D01*
X619757Y207622D01*
X620019Y208015D01*
X620026Y208048D01*
X620044Y208077D01*
X620125Y208542D01*
X620133Y208587D01*
X621078Y209531D01*
X622654D01*
X622677Y209516D01*
X623046Y209248D01*
X623096Y209236D01*
X623139Y209207D01*
X623586Y209118D01*
X624028Y209012D01*
X624669Y208987D01*
X625086Y208932D01*
X625161Y208913D01*
X626046Y206776D01*
X628056Y204156D01*
X630676Y202146D01*
X633726Y200883D01*
X637000Y200452D01*
X645000D01*
X648274Y200883D01*
X651324Y202146D01*
X653944Y204156D01*
X655954Y206776D01*
X657217Y209826D01*
X657648Y213100D01*
X657217Y216374D01*
X655954Y219424D01*
X653944Y222044D01*
X651324Y224054D01*
X648274Y225317D01*
X645000Y225748D01*
X637000D01*
X633726Y225317D01*
X630676Y224054D01*
X628056Y222044D01*
X626046Y219424D01*
X625161Y217287D01*
X625086Y217268D01*
X624669Y217213D01*
X624028Y217188D01*
X623586Y217082D01*
X623139Y216993D01*
X623096Y216964D01*
X623046Y216952D01*
X622677Y216684D01*
X622654Y216669D01*
X619600D01*
X618234Y216397D01*
X617077Y215623D01*
X615087Y213633D01*
X615042Y213624D01*
X614576Y213544D01*
X614548Y213526D01*
X614515Y213519D01*
X614122Y213257D01*
X613722Y213004D01*
X612937Y212259D01*
X612274Y211700D01*
X612171Y211626D01*
X610374D01*
X609500Y212500D01*
X609500Y216546D01*
X609515Y216620D01*
X609889Y218500D01*
Y223500D01*
X609498Y225466D01*
X608384Y227134D01*
X606716Y228248D01*
X604750Y228639D01*
X595250D01*
X593975Y228385D01*
X593909Y228388D01*
X593876Y228377D01*
X593840Y228377D01*
X593740Y228338D01*
X593284Y228248D01*
X593019Y228071D01*
X592958Y228049D01*
X592798Y227953D01*
X592707Y227910D01*
X592567Y227857D01*
X592379Y227799D01*
X592142Y227743D01*
X591911Y227702D01*
X590689Y227596D01*
X590243Y227589D01*
X589994Y227536D01*
X589739Y227532D01*
X589505Y227431D01*
X589255Y227377D01*
X589045Y227232D01*
X588811Y227132D01*
X588750Y227069D01*
X585558D01*
X585395Y227157D01*
X584048Y228950D01*
Y231050D01*
X585395Y232843D01*
X585558Y232931D01*
X588750D01*
X588811Y232868D01*
X589045Y232768D01*
X589255Y232623D01*
X589504Y232569D01*
X589739Y232468D01*
X589994Y232464D01*
X590243Y232411D01*
X590737Y232403D01*
X591127Y232384D01*
X591885Y232303D01*
X592142Y232257D01*
X592379Y232201D01*
X592567Y232143D01*
X592707Y232090D01*
X592798Y232047D01*
X592958Y231951D01*
X593019Y231929D01*
X593284Y231752D01*
X593750Y231660D01*
X593851Y231621D01*
X593881Y231622D01*
X593909Y231612D01*
X593975Y231615D01*
X595250Y231361D01*
X604750D01*
X606716Y231752D01*
X608384Y232866D01*
X609498Y234534D01*
X609889Y236500D01*
Y241500D01*
X609500Y243454D01*
Y248000D01*
X610371Y248871D01*
X613498D01*
X614507Y249072D01*
X614537Y249069D01*
X614614Y249093D01*
X614696Y249109D01*
X614799Y249111D01*
X614885Y249147D01*
X615269Y249223D01*
X615458Y249350D01*
X615475Y249354D01*
X615528Y249365D01*
X617462Y249506D01*
X617951Y249510D01*
X618200Y249562D01*
X618454Y249564D01*
X618690Y249663D01*
X618941Y249715D01*
X619151Y249858D01*
X619385Y249957D01*
X619458Y250031D01*
X622526D01*
X622556Y250000D01*
X622784Y249896D01*
X622986Y249748D01*
X623239Y249688D01*
X623475Y249580D01*
X623725Y249571D01*
X623969Y249512D01*
X624577Y249488D01*
X624783Y247926D01*
X626046Y244876D01*
X628056Y242256D01*
X630676Y240246D01*
X633726Y238983D01*
X637000Y238552D01*
X645000D01*
X648274Y238983D01*
X651324Y240246D01*
X653944Y242256D01*
X655954Y244876D01*
X657217Y247926D01*
X657570Y250602D01*
X659474Y251526D01*
X672000Y239000D01*
D02*
G37*
G36*
X526129Y241629D02*
X526094Y241652D01*
X526011Y241672D01*
X525878Y241691D01*
X525466Y241720D01*
X523579Y241750D01*
Y244250D01*
X526129Y244371D01*
Y241629D01*
D02*
G37*
G36*
X509549Y235281D02*
X509314Y235021D01*
X509090Y234723D01*
X508878Y234387D01*
X508678Y234013D01*
X508490Y233600D01*
X508314Y233150D01*
X507996Y232136D01*
X507855Y231572D01*
X507725Y230969D01*
X503680Y236453D01*
X504001Y236108D01*
X504367Y235879D01*
X504780Y235765D01*
X505239Y235768D01*
X505743Y235887D01*
X506294Y236122D01*
X506890Y236473D01*
X507533Y236941D01*
X508221Y237524D01*
X508956Y238223D01*
X509549Y235281D01*
D02*
G37*
G36*
X570249Y245893D02*
X570340Y245600D01*
X570490Y245343D01*
X570700Y245119D01*
X570970Y244930D01*
X571300Y244775D01*
X571689Y244655D01*
X572140Y244569D01*
X572649Y244517D01*
X573219Y244500D01*
Y241500D01*
X572646Y241470D01*
X572132Y241380D01*
X571679Y241230D01*
X571286Y241020D01*
X570953Y240750D01*
X570680Y240420D01*
X570467Y240030D01*
X570314Y239580D01*
X570221Y239070D01*
X570189Y238500D01*
X570219Y246220D01*
X570249Y245893D01*
D02*
G37*
G36*
X592763Y219000D02*
X592853Y219570D01*
X592856Y220080D01*
X592771Y220530D01*
X592599Y220920D01*
X592340Y221250D01*
X591993Y221520D01*
X591559Y221730D01*
X591037Y221880D01*
X590428Y221970D01*
X589732Y222000D01*
X590282Y225000D01*
X590820Y225008D01*
X592251Y225132D01*
X592667Y225207D01*
X593052Y225297D01*
X593407Y225405D01*
X593731Y225529D01*
X594024Y225669D01*
X594286Y225826D01*
X592763Y219000D01*
D02*
G37*
G36*
X526129Y222129D02*
X526094Y222152D01*
X526011Y222173D01*
X525878Y222191D01*
X525466Y222220D01*
X523579Y222250D01*
Y224750D01*
X526129Y224871D01*
Y222129D01*
D02*
G37*
G36*
Y215629D02*
X526094Y215652D01*
X526011Y215672D01*
X525878Y215691D01*
X525466Y215720D01*
X523579Y215750D01*
Y218250D01*
X526129Y218371D01*
Y215629D01*
D02*
G37*
G36*
X600998Y216013D02*
X600428Y216033D01*
X599917Y215982D01*
X599468Y215858D01*
X599077Y215663D01*
X598747Y215396D01*
X598478Y215057D01*
X598268Y214646D01*
X598117Y214163D01*
X598027Y213609D01*
X597998Y212982D01*
X594997Y213032D01*
X594982Y213549D01*
X594936Y214033D01*
X594860Y214484D01*
X594753Y214902D01*
X594616Y215287D01*
X594447Y215640D01*
X594249Y215959D01*
X594020Y216245D01*
X593760Y216499D01*
X593470Y216720D01*
X600998Y216013D01*
D02*
G37*
G36*
X537811Y225500D02*
X537781Y226070D01*
X537690Y226580D01*
X537538Y227030D01*
X537326Y227420D01*
X537053Y227750D01*
X536720Y228020D01*
X536326Y228230D01*
X535872Y228380D01*
X535356Y228470D01*
X534781Y228500D01*
Y231500D01*
X535356Y231530D01*
X535872Y231620D01*
X536326Y231770D01*
X536720Y231980D01*
X537053Y232250D01*
X537326Y232580D01*
X537538Y232970D01*
X537690Y233420D01*
X537781Y233930D01*
X537811Y234500D01*
Y225500D01*
D02*
G37*
G36*
X570219Y233930D02*
X570310Y233420D01*
X570462Y232970D01*
X570674Y232580D01*
X570947Y232250D01*
X571280Y231980D01*
X571674Y231770D01*
X572128Y231620D01*
X572644Y231530D01*
X573219Y231500D01*
Y228500D01*
X572644Y228470D01*
X572128Y228380D01*
X571674Y228230D01*
X571280Y228020D01*
X570947Y227750D01*
X570674Y227420D01*
X570462Y227030D01*
X570310Y226580D01*
X570219Y226070D01*
X570189Y225500D01*
Y234500D01*
X570219Y233930D01*
D02*
G37*
G36*
X492429Y219729D02*
X492244Y219970D01*
X492029Y220186D01*
X491783Y220376D01*
X491507Y220541D01*
X491201Y220680D01*
X490864Y220795D01*
X490497Y220883D01*
X490100Y220947D01*
X490028Y220953D01*
X489582Y220923D01*
X489383Y220891D01*
X489211Y220852D01*
X489065Y220807D01*
X488946Y220757D01*
X488854Y220700D01*
Y224294D01*
X488946Y224238D01*
X489065Y224188D01*
X489211Y224143D01*
X489383Y224104D01*
X489582Y224072D01*
X489951Y224035D01*
X490100Y224048D01*
X490497Y224112D01*
X490864Y224200D01*
X491201Y224315D01*
X491507Y224454D01*
X491783Y224619D01*
X492029Y224809D01*
X492244Y225025D01*
X492429Y225266D01*
Y219729D01*
D02*
G37*
G36*
X509549Y224281D02*
X509314Y224021D01*
X509090Y223723D01*
X508879Y223387D01*
X508679Y223012D01*
X508490Y222600D01*
X508314Y222150D01*
X507996Y221134D01*
X507855Y220570D01*
X507725Y219967D01*
X503678Y225451D01*
X503998Y225105D01*
X504365Y224876D01*
X504778Y224763D01*
X505236Y224766D01*
X505741Y224885D01*
X506292Y225120D01*
X506888Y225471D01*
X507531Y225939D01*
X508219Y226522D01*
X508954Y227221D01*
X509549Y224281D01*
D02*
G37*
G36*
X598027Y246391D02*
X598117Y245837D01*
X598268Y245354D01*
X598478Y244943D01*
X598747Y244604D01*
X599077Y244337D01*
X599468Y244142D01*
X599917Y244018D01*
X600428Y243967D01*
X600998Y243987D01*
X593470Y243280D01*
X593760Y243501D01*
X594020Y243755D01*
X594249Y244041D01*
X594447Y244360D01*
X594616Y244713D01*
X594753Y245098D01*
X594860Y245516D01*
X594936Y245967D01*
X594982Y246451D01*
X594997Y246968D01*
X597998Y247018D01*
X598027Y246391D01*
D02*
G37*
G36*
X348839Y266786D02*
X349641Y266085D01*
X349805Y265968D01*
X349954Y265873D01*
X350088Y265802D01*
X350208Y265753D01*
X350313Y265728D01*
X347772Y263187D01*
X347747Y263292D01*
X347698Y263412D01*
X347627Y263546D01*
X347532Y263695D01*
X347415Y263859D01*
X347110Y264230D01*
X346714Y264661D01*
X346481Y264898D01*
X348602Y267019D01*
X348839Y266786D01*
D02*
G37*
G36*
X466852Y268077D02*
X467055Y267917D01*
X467271Y267774D01*
X467499Y267648D01*
X467738Y267539D01*
X467990Y267446D01*
X468254Y267371D01*
X468530Y267313D01*
X468817Y267271D01*
X469117Y267247D01*
X466808Y264492D01*
X466752Y264697D01*
X466680Y264903D01*
X466591Y265110D01*
X466485Y265318D01*
X466362Y265527D01*
X466223Y265737D01*
X465895Y266160D01*
X465705Y266373D01*
X465499Y266587D01*
X466660Y268254D01*
X466852Y268077D01*
D02*
G37*
G36*
X645259Y265741D02*
X644323Y263848D01*
X637000D01*
X633726Y263417D01*
X630676Y262154D01*
X628056Y260144D01*
X626320Y257880D01*
X626271Y257863D01*
X625873Y257775D01*
X625375Y257714D01*
X624684Y257688D01*
X624527Y257651D01*
X624366Y257656D01*
X624040Y257535D01*
X623701Y257454D01*
X623570Y257360D01*
X623420Y257304D01*
X623275Y257169D01*
X620025D01*
X619929Y257263D01*
X619754Y257334D01*
X619602Y257446D01*
X619290Y257523D01*
X618993Y257644D01*
X618126Y258500D01*
X617774Y260271D01*
X616771Y261773D01*
X615269Y262777D01*
X613498Y263129D01*
X609497D01*
X607726Y262777D01*
X606224Y261773D01*
X605221Y260271D01*
X605017Y259247D01*
X602978D01*
X602774Y260271D01*
X601771Y261773D01*
X600269Y262777D01*
X598498Y263129D01*
X594497D01*
X592726Y262777D01*
X591224Y261773D01*
X590221Y260271D01*
X589869Y258500D01*
Y253500D01*
X590221Y251729D01*
X590841Y250801D01*
X590865Y250734D01*
X590940Y250653D01*
X591224Y250227D01*
X591500Y250042D01*
X591549Y249990D01*
X591819Y249792D01*
X591964Y249665D01*
X592076Y249545D01*
X592162Y249431D01*
X592231Y249318D01*
X592287Y249198D01*
X592333Y249063D01*
X592370Y248905D01*
X592396Y248715D01*
X592410Y248382D01*
X592517Y247943D01*
X592557Y247743D01*
X592509Y247479D01*
X592409Y247044D01*
X592396Y246612D01*
X592367Y246306D01*
X592324Y246054D01*
X592274Y245856D01*
X592221Y245708D01*
X592172Y245606D01*
X592131Y245539D01*
X592097Y245497D01*
X592065Y245466D01*
X591902Y245342D01*
X591865Y245299D01*
X591616Y245134D01*
X591490Y244944D01*
X591475Y244932D01*
X591446Y244879D01*
X591304Y244666D01*
X591233Y244585D01*
X591214Y244532D01*
X590502Y243466D01*
X590111Y241500D01*
X589265Y240547D01*
X588959Y240426D01*
X588638Y240347D01*
X588493Y240241D01*
X588326Y240175D01*
X588217Y240069D01*
X585558D01*
X585395Y240157D01*
X584048Y241950D01*
Y244050D01*
X583986Y244362D01*
X583776Y244149D01*
X582654Y242878D01*
X582443Y242598D01*
X582102Y242083D01*
X581973Y241848D01*
X581871Y241629D01*
X575640Y244474D01*
X576224Y244258D01*
X576820Y244137D01*
X577427Y244113D01*
X578046Y244184D01*
X578677Y244351D01*
X579319Y244615D01*
X579973Y244974D01*
X580638Y245428D01*
X581315Y245979D01*
X581857Y246487D01*
X581550Y246548D01*
X577452D01*
X570548Y253452D01*
Y257550D01*
X570358Y258506D01*
X569816Y259316D01*
X569006Y259858D01*
X568050Y260048D01*
X565950D01*
X564994Y259858D01*
X563750Y259456D01*
X562506Y259858D01*
X561550Y260048D01*
X559996D01*
X558837Y261197D01*
X558467Y261892D01*
X558588Y262500D01*
Y264957D01*
X558600Y265265D01*
X558667Y265866D01*
X558759Y266401D01*
X558867Y266841D01*
X558984Y267184D01*
X559097Y267428D01*
X559191Y267577D01*
X559250Y267646D01*
X559420Y267784D01*
X559599Y267904D01*
X560511Y269268D01*
X560831Y270877D01*
Y272000D01*
X632000D01*
X634000Y274000D01*
Y274387D01*
X635848Y275152D01*
X645259Y265741D01*
D02*
G37*
G36*
X463064Y263534D02*
X463363Y262719D01*
X463471Y262487D01*
X463698Y262079D01*
X463818Y261903D01*
X463942Y261748D01*
X464071Y261611D01*
X460518Y261065D01*
X460663Y261353D01*
X460785Y261635D01*
X460884Y261912D01*
X460960Y262183D01*
X461013Y262447D01*
X461043Y262706D01*
X461051Y262959D01*
X461035Y263206D01*
X460996Y263447D01*
X460935Y263683D01*
X462973Y263844D01*
X463064Y263534D01*
D02*
G37*
G36*
X430751Y272132D02*
X430759Y271597D01*
X430830Y270550D01*
X430893Y270075D01*
X431071Y269221D01*
X431187Y268842D01*
X431320Y268495D01*
X431472Y268180D01*
X431642Y267897D01*
X430766D01*
X430769Y267264D01*
X427231D01*
X427235Y267318D01*
X427241Y267897D01*
X426358D01*
X426528Y268180D01*
X426679Y268495D01*
X426813Y268842D01*
X426929Y269221D01*
X427027Y269632D01*
X427107Y270075D01*
X427214Y271058D01*
X427241Y271597D01*
X427250Y272155D01*
X427250Y272283D01*
X430750D01*
X430751Y272132D01*
D02*
G37*
G36*
X396019Y272898D02*
X395786Y272661D01*
X395085Y271859D01*
X394968Y271695D01*
X394873Y271546D01*
X394802Y271412D01*
X394753Y271292D01*
X394728Y271187D01*
X392187Y273728D01*
X392292Y273753D01*
X392412Y273802D01*
X392546Y273873D01*
X392695Y273968D01*
X392859Y274085D01*
X393231Y274390D01*
X393661Y274786D01*
X393898Y275019D01*
X396019Y272898D01*
D02*
G37*
G36*
X450018Y267076D02*
X450071Y266864D01*
X450159Y266650D01*
X450283Y266433D01*
X450442Y266213D01*
X450637Y265990D01*
X450867Y265764D01*
X451132Y265536D01*
X451433Y265304D01*
X451769Y265069D01*
X446231D01*
X446567Y265304D01*
X447133Y265764D01*
X447363Y265990D01*
X447558Y266213D01*
X447717Y266433D01*
X447841Y266650D01*
X447929Y266864D01*
X447982Y267076D01*
X448000Y267284D01*
X450000D01*
X450018Y267076D01*
D02*
G37*
G36*
X546234Y268335D02*
X546769Y268245D01*
X547294Y268127D01*
X547784Y267986D01*
X548240Y267822D01*
X548665Y267638D01*
X548822Y267556D01*
X548903Y267428D01*
X549016Y267184D01*
X549132Y266841D01*
X549241Y266401D01*
X549328Y265893D01*
X549412Y264911D01*
Y262500D01*
X549533Y261892D01*
X549163Y261197D01*
X548976Y261012D01*
X549000Y260169D01*
X546000Y259184D01*
X545994Y259498D01*
X545955Y259949D01*
X545494Y259858D01*
X544250Y259456D01*
X543500Y259698D01*
Y254000D01*
X541000D01*
Y251500D01*
X537452D01*
Y250450D01*
X537492Y250250D01*
X537083Y249591D01*
X535750Y248250D01*
Y248250D01*
X533750Y247059D01*
X533550Y247099D01*
X526450D01*
X525660Y246942D01*
X523456Y246837D01*
X523024Y246729D01*
X522588Y246643D01*
X522536Y246608D01*
X522475Y246593D01*
X522117Y246328D01*
X522095Y246314D01*
X518328D01*
Y246337D01*
X515697Y245991D01*
X513246Y244975D01*
X511140Y243360D01*
X511157Y243343D01*
X508576Y240763D01*
X508444Y240762D01*
X508241Y240677D01*
X508023Y240640D01*
X507779Y240485D01*
X507511Y240373D01*
X507356Y240217D01*
X507170Y240099D01*
X506489Y239451D01*
X506080Y239104D01*
X502547D01*
X501264Y238849D01*
X500176Y238122D01*
X499819D01*
X498731Y238849D01*
X497447Y239104D01*
X492948D01*
X491664Y238849D01*
X491183Y238528D01*
X491132Y238510D01*
X491053Y238441D01*
X490575Y238122D01*
X489369Y238010D01*
X487500Y238381D01*
X485631Y238010D01*
X484047Y236951D01*
X482988Y235366D01*
X482616Y233498D01*
X482988Y231628D01*
X484047Y230044D01*
X485558Y229034D01*
X485631Y228559D01*
Y227436D01*
X485558Y226961D01*
X484047Y225951D01*
X482988Y224366D01*
X482616Y222498D01*
X482988Y220629D01*
X484047Y219044D01*
X484374Y218826D01*
X484468Y218182D01*
X484202Y216535D01*
X484184Y216523D01*
X484133Y216506D01*
X484054Y216437D01*
X483576Y216117D01*
X482369Y216012D01*
X480500Y216384D01*
X478631Y216012D01*
X477047Y214953D01*
X475988Y213369D01*
X475616Y211500D01*
X475988Y209631D01*
X477047Y208047D01*
X478558Y207037D01*
X478631Y206561D01*
Y205439D01*
X478558Y204963D01*
X477047Y203953D01*
X475988Y202369D01*
X475616Y200500D01*
X475988Y198631D01*
X477047Y197047D01*
X478631Y195988D01*
X480500Y195616D01*
X482369Y195988D01*
X483576Y195870D01*
X484052Y195552D01*
X484131Y195482D01*
X484182Y195465D01*
X484664Y195143D01*
X485947Y194888D01*
X490448D01*
X491731Y195143D01*
X492819Y195870D01*
X493176D01*
X494264Y195143D01*
X495547Y194888D01*
X500047D01*
X501331Y195143D01*
X501860Y195497D01*
X501933Y195524D01*
X502013Y195599D01*
X502419Y195870D01*
X502614Y196161D01*
X502671Y196215D01*
X502825Y196429D01*
X502915Y196538D01*
X502986Y196610D01*
X503035Y196652D01*
X503044Y196659D01*
X503142Y196664D01*
X503564Y196772D01*
X503991Y196857D01*
X504051Y196897D01*
X504120Y196915D01*
X504469Y197177D01*
X504831Y197419D01*
X504833Y197422D01*
X505109Y197458D01*
X507074Y198272D01*
X508761Y199567D01*
X508762Y199567D01*
X510172Y200985D01*
X522558Y213372D01*
X522570Y213369D01*
X522588Y213357D01*
X523063Y213263D01*
X523537Y213161D01*
X525288Y213132D01*
X526450Y212901D01*
X533550D01*
X533750Y212941D01*
X535750Y211750D01*
Y211750D01*
X537136Y210324D01*
X537492Y209750D01*
X537452Y209550D01*
Y208500D01*
X541000D01*
Y206000D01*
X543500D01*
Y200302D01*
X544250Y200544D01*
X545000Y200302D01*
Y206000D01*
X550000D01*
Y200301D01*
X550750Y200544D01*
X551994Y200142D01*
X552950Y199952D01*
X554378D01*
X554615Y199858D01*
X555094Y199501D01*
X555589Y198983D01*
X556071Y198116D01*
X556057Y197977D01*
X556006Y197659D01*
X556004Y197652D01*
X555955Y197587D01*
X555947Y197556D01*
X555488Y196869D01*
X555116Y195000D01*
X555488Y193131D01*
X556547Y191547D01*
X558131Y190488D01*
X560000Y190116D01*
X561869Y190488D01*
X562201Y190709D01*
X563750Y191412D01*
X564961Y190863D01*
X566000Y190000D01*
X566000D01*
X568000Y188000D01*
X591061D01*
X591827Y186152D01*
X588369Y182695D01*
X588257Y182527D01*
X588105Y182394D01*
X587454Y181546D01*
X586606Y180895D01*
X586473Y180743D01*
X586305Y180631D01*
X567837Y162163D01*
X567174Y161171D01*
X566941Y160000D01*
X566941Y160000D01*
Y96000D01*
Y87124D01*
X566981Y86926D01*
X566967Y86725D01*
X567096Y86346D01*
X567174Y85953D01*
X567286Y85786D01*
X567351Y85594D01*
X567615Y85294D01*
X567837Y84961D01*
X568005Y84849D01*
X568138Y84697D01*
X568454Y84454D01*
X569006Y83735D01*
X569353Y82898D01*
X569471Y82000D01*
X569353Y81102D01*
X569006Y80265D01*
X568454Y79546D01*
X567735Y78994D01*
X566898Y78647D01*
X566000Y78529D01*
X565102Y78647D01*
X564670Y78826D01*
X563500Y79059D01*
X562000D01*
X560830Y78826D01*
X559837Y78163D01*
X557837Y76163D01*
X557174Y75170D01*
X556941Y74000D01*
X556941Y74000D01*
Y56000D01*
X557174Y54830D01*
X557837Y53837D01*
X563837Y47837D01*
X563837Y47837D01*
X564829Y47174D01*
X566000Y46941D01*
X566000Y46941D01*
X579741D01*
X580242Y44941D01*
X578604Y44066D01*
X576314Y42186D01*
X574434Y39896D01*
X573038Y37283D01*
X572178Y34448D01*
X571887Y31500D01*
X572178Y28552D01*
X573038Y25717D01*
X574434Y23104D01*
X576314Y20814D01*
X578604Y18934D01*
X581217Y17538D01*
X584052Y16678D01*
X587000Y16387D01*
X589948Y16678D01*
X592783Y17538D01*
X595396Y18934D01*
X597686Y20814D01*
X599566Y23104D01*
X600962Y25717D01*
X601822Y28552D01*
X602113Y31500D01*
X601822Y34448D01*
X600962Y37283D01*
X599566Y39896D01*
X597686Y42186D01*
X595396Y44066D01*
X593759Y44941D01*
X594259Y46941D01*
X600000D01*
X601171Y47174D01*
X602163Y47837D01*
X602163Y47837D01*
X612163Y57837D01*
X612826Y58829D01*
X613059Y60000D01*
X613059Y60000D01*
Y78000D01*
X612826Y79170D01*
X612163Y80163D01*
X612163Y80163D01*
X603498Y88828D01*
X603595Y90294D01*
X605540Y91183D01*
X606229Y90723D01*
X608000Y90371D01*
X612000D01*
X613771Y90723D01*
X614592Y91271D01*
X614596Y91273D01*
X614609Y91283D01*
X614658Y91315D01*
X614704Y91331D01*
X614781Y91398D01*
X615273Y91727D01*
X616202Y92287D01*
X617793Y91628D01*
X619500Y91404D01*
X621207Y91628D01*
X622798Y92287D01*
X624343Y91280D01*
X624501Y91109D01*
X624795Y90567D01*
X625173Y89731D01*
X625219Y89666D01*
X625287Y89502D01*
X626336Y88136D01*
X627702Y87087D01*
X629293Y86428D01*
X631000Y86204D01*
X651000D01*
X652707Y86428D01*
X654298Y87087D01*
X655664Y88136D01*
X656713Y89502D01*
X657372Y91093D01*
X657596Y92800D01*
Y104800D01*
X657372Y106507D01*
X656713Y108098D01*
X655664Y109464D01*
X654298Y110513D01*
X652707Y111172D01*
X651000Y111396D01*
X631000D01*
X629293Y111172D01*
X627702Y110513D01*
X626336Y109464D01*
X625287Y108098D01*
X624628Y106507D01*
X624428Y104983D01*
X623446Y104218D01*
X622899Y103930D01*
X622511Y103832D01*
X621207Y104372D01*
X619500Y104596D01*
X617793Y104372D01*
X616202Y103713D01*
X615876Y103463D01*
X615702Y103493D01*
X615262Y103592D01*
X614892Y103700D01*
X614594Y103811D01*
X614369Y103917D01*
X614090Y104082D01*
X614031Y104103D01*
X613771Y104277D01*
X613573Y104316D01*
X613569Y104318D01*
X613552Y104320D01*
X613241Y104382D01*
X613138Y104419D01*
X613074Y104415D01*
X612000Y104629D01*
X608000D01*
X606229Y104277D01*
X604967Y103434D01*
X603887Y103807D01*
X603059Y104377D01*
Y130623D01*
X603887Y131193D01*
X604967Y131566D01*
X606229Y130723D01*
X608000Y130371D01*
X612000D01*
X613102Y130590D01*
X613177Y130587D01*
X613280Y130626D01*
X613552Y130680D01*
X613569Y130682D01*
X613573Y130684D01*
X613771Y130723D01*
X614054Y130912D01*
X614125Y130939D01*
X614524Y131184D01*
X614869Y131362D01*
X615247Y131525D01*
X615660Y131671D01*
X616111Y131799D01*
X616558Y131898D01*
X616702Y131787D01*
X618293Y131128D01*
X620000Y130904D01*
X621707Y131128D01*
X623298Y131787D01*
X623420Y131881D01*
X623539Y131842D01*
X624050Y131611D01*
X624606Y131291D01*
X625204Y130874D01*
X625808Y130380D01*
X627222Y128978D01*
X627693Y128430D01*
X628056Y127956D01*
X630676Y125946D01*
X633726Y124683D01*
X637000Y124252D01*
X645000D01*
X648274Y124683D01*
X651324Y125946D01*
X653944Y127956D01*
X655954Y130576D01*
X657217Y133626D01*
X657648Y136900D01*
X657217Y140174D01*
X655954Y143224D01*
X653944Y145844D01*
X651324Y147854D01*
X648274Y149117D01*
X645000Y149548D01*
X637000D01*
X633726Y149117D01*
X630676Y147854D01*
X628056Y145844D01*
X627715Y145399D01*
X627307Y144929D01*
X626708Y144321D01*
X626123Y143803D01*
X625554Y143372D01*
X625002Y143022D01*
X624468Y142749D01*
X624094Y142602D01*
X623298Y143213D01*
X621707Y143872D01*
X620000Y144096D01*
X618293Y143872D01*
X616702Y143213D01*
X615273Y143273D01*
X614729Y143637D01*
X614664Y143692D01*
X614632Y143701D01*
X614609Y143717D01*
X614596Y143727D01*
X614592Y143729D01*
X613771Y144277D01*
X612000Y144629D01*
X608000D01*
X606229Y144277D01*
X604967Y143434D01*
X603887Y143807D01*
X603059Y144377D01*
Y154733D01*
X603826Y155500D01*
X604048Y155833D01*
X604312Y156134D01*
X604377Y156325D01*
X604489Y156492D01*
X604498Y156537D01*
X604994Y157736D01*
X605546Y158454D01*
X606264Y159006D01*
X607463Y159502D01*
X607508Y159511D01*
X607675Y159623D01*
X607866Y159688D01*
X608167Y159952D01*
X608500Y160174D01*
X609267Y160941D01*
X654000D01*
X655171Y161174D01*
X656163Y161837D01*
X658163Y163837D01*
X658826Y164830D01*
X659059Y166000D01*
X659059Y166000D01*
Y184000D01*
X659059Y184000D01*
X658826Y185170D01*
X658272Y186000D01*
X658500Y186977D01*
X658924Y188000D01*
X672000D01*
Y46000D01*
X664837D01*
X664837Y46000D01*
X662272Y45874D01*
X657242Y44873D01*
X652504Y42911D01*
X648240Y40061D01*
X646337Y38337D01*
X633663Y25663D01*
X633663Y25663D01*
X631939Y23760D01*
X629089Y19496D01*
X627127Y14758D01*
X626126Y9728D01*
X626000Y7163D01*
Y2000D01*
X200000D01*
Y15737D01*
X202000Y16710D01*
X202729Y16223D01*
X204500Y15871D01*
X208500D01*
X210271Y16223D01*
X211773Y17227D01*
X212777Y18729D01*
X212980Y19753D01*
X215020D01*
X215223Y18729D01*
X216227Y17227D01*
X217729Y16223D01*
X219500Y15871D01*
X223500D01*
X225271Y16223D01*
X226773Y17227D01*
X227777Y18729D01*
X227916Y19431D01*
X241243D01*
X242608Y19703D01*
X243766Y20477D01*
X245523Y22234D01*
X246297Y23392D01*
X246569Y24757D01*
Y32183D01*
X246771Y32223D01*
X248273Y33227D01*
X249244Y34680D01*
X249974Y34804D01*
X250616Y34873D01*
X251329Y34794D01*
X252116Y33616D01*
X253439Y32732D01*
X255000Y32422D01*
X259000D01*
X260561Y32732D01*
X261884Y33616D01*
X262416Y34412D01*
X264585D01*
X265116Y33616D01*
X266439Y32732D01*
X268000Y32422D01*
X272000D01*
X273561Y32732D01*
X274884Y33616D01*
X275671Y34794D01*
X276384Y34873D01*
X277026Y34804D01*
X277756Y34680D01*
X278727Y33227D01*
X280229Y32223D01*
X280429Y32184D01*
Y24757D01*
X280700Y23392D01*
X281474Y22234D01*
X283232Y20477D01*
X284389Y19703D01*
X285755Y19431D01*
X299084D01*
X299223Y18729D01*
X300227Y17227D01*
X301729Y16223D01*
X303500Y15871D01*
X307500D01*
X309271Y16223D01*
X310773Y17227D01*
X311777Y18729D01*
X311980Y19753D01*
X314020D01*
X314223Y18729D01*
X315227Y17227D01*
X316729Y16223D01*
X318500Y15871D01*
X322500D01*
X324271Y16223D01*
X325773Y17227D01*
X326777Y18729D01*
X327129Y20500D01*
Y25261D01*
X329129Y25458D01*
X329232Y24939D01*
X330116Y23616D01*
X330412Y23419D01*
Y18033D01*
X329819Y17146D01*
X329392Y15000D01*
X329819Y12854D01*
X331035Y11035D01*
X332854Y9819D01*
X335000Y9392D01*
X337146Y9819D01*
X338965Y11035D01*
X340181Y12854D01*
X340608Y15000D01*
X340181Y17146D01*
X339588Y18033D01*
Y23419D01*
X339884Y23616D01*
X340671Y24794D01*
X341384Y24873D01*
X342026Y24804D01*
X342756Y24680D01*
X343727Y23227D01*
X345229Y22223D01*
X347000Y21871D01*
X351000D01*
X352771Y22223D01*
X352941Y22337D01*
X354941Y21268D01*
Y16000D01*
X355174Y14829D01*
X355837Y13837D01*
X357837Y11837D01*
X358829Y11174D01*
X360000Y10941D01*
X360000Y10941D01*
X461000Y10941D01*
X489157D01*
X489305Y10202D01*
X490465Y8465D01*
X492202Y7305D01*
X494250Y6897D01*
X498750D01*
X500798Y7305D01*
X502535Y8465D01*
X503074Y9272D01*
X505414Y9370D01*
X505797Y8797D01*
X507381Y7738D01*
X509250Y7366D01*
X513750D01*
X515619Y7738D01*
X517203Y8797D01*
X518262Y10381D01*
X518634Y12250D01*
Y14635D01*
X520634Y15510D01*
X521621Y14764D01*
Y12375D01*
X521983Y10555D01*
X523014Y9012D01*
X524557Y7981D01*
X526378Y7619D01*
X530628D01*
X532448Y7981D01*
X533991Y9012D01*
X535022Y10555D01*
X535258Y11743D01*
X537297D01*
X537492Y10766D01*
X538404Y9401D01*
X539768Y8489D01*
X541003Y8244D01*
Y15000D01*
Y21756D01*
X539768Y21511D01*
X538404Y20599D01*
X537492Y19234D01*
X537297Y18257D01*
X535258D01*
X535022Y19445D01*
X533991Y20988D01*
X533707Y21178D01*
X533541Y23364D01*
X533640Y23628D01*
X534616Y25088D01*
X534996Y27000D01*
Y27081D01*
X534746Y28338D01*
Y37000D01*
X534366Y38912D01*
X534216Y39137D01*
Y41450D01*
X533956Y42757D01*
X533215Y43865D01*
X532107Y44606D01*
X530800Y44866D01*
X528700D01*
X527393Y44606D01*
X526198Y45207D01*
X525792Y47450D01*
X527021Y48679D01*
X528192Y50432D01*
X528604Y52500D01*
Y53231D01*
X528669Y54522D01*
X530517Y55134D01*
X530800D01*
X532107Y55394D01*
X533215Y56135D01*
X533955Y57243D01*
X534216Y58550D01*
Y60834D01*
X534231Y60886D01*
X534261Y60932D01*
X535457Y61325D01*
X536197Y61486D01*
X536637Y61409D01*
X537072Y61311D01*
X537635Y61297D01*
X538111Y61262D01*
X538561Y61205D01*
X538988Y61127D01*
X539390Y61028D01*
X539772Y60910D01*
X540133Y60773D01*
X540477Y60618D01*
X540805Y60442D01*
X541190Y60203D01*
X541264Y60175D01*
X541555Y59981D01*
X541771Y59938D01*
X541784Y59931D01*
X541834Y59925D01*
X542033Y59886D01*
X542136Y59847D01*
X542207Y59638D01*
X541766Y57511D01*
X540401Y56599D01*
X539489Y55234D01*
X539244Y54000D01*
X552756D01*
X552511Y55234D01*
X551599Y56599D01*
X550234Y57511D01*
X549257Y57705D01*
Y59744D01*
X550445Y59981D01*
X551988Y61012D01*
X553019Y62555D01*
X553381Y64375D01*
Y68625D01*
X553019Y70445D01*
X552000Y72000D01*
Y150000D01*
X548000Y154000D01*
Y154000D01*
X546259Y154625D01*
X545442Y155442D01*
X544780Y155884D01*
X544000Y156039D01*
X465602D01*
X464000Y157000D01*
Y163000D01*
X464961Y163961D01*
X548000Y163961D01*
X548780Y164116D01*
X549442Y164558D01*
X551442Y166558D01*
X551884Y167220D01*
X552039Y168000D01*
Y172000D01*
X552039Y172000D01*
X551884Y172780D01*
X551442Y173442D01*
X551442Y173442D01*
X549442Y175442D01*
X548780Y175884D01*
X548000Y176039D01*
X468845D01*
X468039Y176845D01*
X468039Y225155D01*
X488845Y245961D01*
X502000D01*
X502780Y246116D01*
X503442Y246558D01*
X522845Y265961D01*
X530987D01*
X531281Y266019D01*
X531579Y266049D01*
X531668Y266096D01*
X531767Y266116D01*
X532016Y266282D01*
X532281Y266424D01*
X532345Y266502D01*
X532429Y266558D01*
X533763Y266992D01*
X534188Y266907D01*
X534232Y266891D01*
X534263Y266892D01*
X535373Y266672D01*
X540622D01*
X541732Y266892D01*
X541763Y266891D01*
X541807Y266907D01*
X542232Y266992D01*
X542480Y267157D01*
X542509Y267168D01*
X542939Y267433D01*
X543333Y267638D01*
X543757Y267822D01*
X544213Y267986D01*
X544703Y268127D01*
X545228Y268245D01*
X545764Y268335D01*
X545999Y268356D01*
X546234Y268335D01*
D02*
G37*
G36*
X568517Y248650D02*
X568569Y248139D01*
X568655Y247689D01*
X568775Y247299D01*
X568930Y246970D01*
X569119Y246700D01*
X569343Y246490D01*
X569600Y246339D01*
X569893Y246250D01*
X570219Y246220D01*
X556000D01*
X556570Y246250D01*
X557080Y246339D01*
X557530Y246490D01*
X557920Y246700D01*
X558250Y246970D01*
X558520Y247299D01*
X558730Y247689D01*
X558880Y248139D01*
X558970Y248650D01*
X559000Y249219D01*
X562000D01*
X562030Y248650D01*
X562120Y248139D01*
X562270Y247689D01*
X562480Y247299D01*
X562750Y246970D01*
X563080Y246700D01*
X563470Y246490D01*
X563750Y246396D01*
X564030Y246490D01*
X564420Y246700D01*
X564750Y246970D01*
X565020Y247299D01*
X565230Y247689D01*
X565380Y248139D01*
X565470Y248650D01*
X565500Y249219D01*
X568500D01*
X568517Y248650D01*
D02*
G37*
G36*
X451769Y249931D02*
X451392Y249661D01*
X451055Y249379D01*
X450758Y249086D01*
X450500Y248781D01*
X450282Y248465D01*
X450104Y248138D01*
X449965Y247800D01*
X449875Y247482D01*
X449889Y247223D01*
X449829Y247227D01*
X449807Y247089D01*
X449787Y246716D01*
X446787D01*
X446780Y247180D01*
X446757Y247446D01*
X446303Y247478D01*
X446395Y247600D01*
X446478Y247744D01*
X446550Y247911D01*
X446613Y248099D01*
X446666Y248310D01*
X446677Y248366D01*
X446673Y248413D01*
X446608Y248771D01*
X446530Y249103D01*
X446437Y249409D01*
X446329Y249689D01*
X446208Y249942D01*
X446072Y250169D01*
X451769Y249931D01*
D02*
G37*
G36*
X461008Y245538D02*
X461032Y245268D01*
X461072Y245004D01*
X461128Y244748D01*
X461199Y244498D01*
X461287Y244256D01*
X461390Y244020D01*
X461510Y243791D01*
X461646Y243569D01*
X461797Y243354D01*
X458203D01*
X458354Y243569D01*
X458490Y243791D01*
X458610Y244020D01*
X458713Y244256D01*
X458801Y244498D01*
X458872Y244748D01*
X458928Y245004D01*
X458968Y245268D01*
X458992Y245538D01*
X459000Y245816D01*
X461000D01*
X461008Y245538D01*
D02*
G37*
G36*
X549030Y248650D02*
X549120Y248139D01*
X549270Y247689D01*
X549480Y247299D01*
X549750Y246970D01*
X550080Y246700D01*
X550470Y246490D01*
X550920Y246339D01*
X551430Y246250D01*
X552000Y246220D01*
X537780D01*
X538107Y246250D01*
X538400Y246339D01*
X538657Y246490D01*
X538881Y246700D01*
X539070Y246970D01*
X539225Y247299D01*
X539345Y247689D01*
X539431Y248139D01*
X539483Y248650D01*
X539500Y249219D01*
X542500D01*
X542530Y248650D01*
X542620Y248139D01*
X542770Y247689D01*
X542980Y247299D01*
X543250Y246970D01*
X543580Y246700D01*
X543970Y246490D01*
X544250Y246396D01*
X544530Y246490D01*
X544920Y246700D01*
X545250Y246970D01*
X545520Y247299D01*
X545730Y247689D01*
X545880Y248139D01*
X545970Y248650D01*
X546000Y249219D01*
X549000D01*
X549030Y248650D01*
D02*
G37*
G36*
X615404Y257530D02*
X615416Y257020D01*
X615512Y256570D01*
X615690Y256180D01*
X615952Y255850D01*
X616296Y255580D01*
X616724Y255370D01*
X617235Y255220D01*
X617829Y255130D01*
X618506Y255100D01*
X617931Y252100D01*
X617357Y252096D01*
X615179Y251936D01*
X614882Y251877D01*
X614631Y251809D01*
X614425Y251731D01*
X614266Y251645D01*
X615475Y258100D01*
X615404Y257530D01*
D02*
G37*
G36*
X555718Y260632D02*
X555672Y260438D01*
X555632Y260149D01*
X555567Y259290D01*
X555500Y255500D01*
X552500D01*
X552231Y260733D01*
X555769D01*
X555718Y260632D01*
D02*
G37*
G36*
X599553Y251813D02*
X599226Y251526D01*
X598938Y251218D01*
X598689Y250890D01*
X598477Y250542D01*
X598305Y250173D01*
X598170Y249783D01*
X598074Y249373D01*
X598017Y248943D01*
X597998Y248492D01*
X594997D01*
X594978Y248943D01*
X594921Y249373D01*
X594825Y249783D01*
X594690Y250173D01*
X594518Y250542D01*
X594306Y250890D01*
X594057Y251218D01*
X593769Y251526D01*
X593442Y251813D01*
X593078Y252080D01*
X599917D01*
X599553Y251813D01*
D02*
G37*
G36*
X627248Y249109D02*
X627369Y249677D01*
X627392Y250186D01*
X627318Y250634D01*
X627146Y251023D01*
X626877Y251352D01*
X626511Y251621D01*
X626047Y251831D01*
X625486Y251980D01*
X624827Y252070D01*
X624071Y252100D01*
X624780Y255100D01*
X625580Y255130D01*
X626313Y255219D01*
X626980Y255368D01*
X627581Y255577D01*
X628115Y255845D01*
X628582Y256173D01*
X628984Y256560D01*
X629319Y257008D01*
X629587Y257514D01*
X629789Y258081D01*
X627248Y249109D01*
D02*
G37*
G36*
X63987Y73500D02*
X63106Y73482D01*
X61630Y73343D01*
X61035Y73221D01*
X60534Y73064D01*
X60129Y72872D01*
X59820Y72646D01*
X59605Y72384D01*
X59486Y72088D01*
X59461Y71757D01*
X58725Y82725D01*
X58671Y82873D01*
X58746Y83004D01*
X58949Y83120D01*
X59282Y83221D01*
X59744Y83306D01*
X60334Y83376D01*
X61903Y83469D01*
X63987Y83500D01*
Y73500D01*
D02*
G37*
G36*
X627533Y90798D02*
X627116Y91720D01*
X626668Y92545D01*
X626190Y93273D01*
X625682Y93903D01*
X625144Y94437D01*
X624575Y94874D01*
X623976Y95213D01*
X623346Y95456D01*
X622686Y95602D01*
X621996Y95650D01*
Y100650D01*
X622997Y100700D01*
X623890Y100850D01*
X624674Y101100D01*
X625351Y101449D01*
X625919Y101899D01*
X626379Y102449D01*
X626731Y103098D01*
X626975Y103848D01*
X627111Y104697D01*
X627138Y105646D01*
X627533Y90798D01*
D02*
G37*
G36*
X110318Y76614D02*
X110650Y76590D01*
X115251Y76513D01*
X120368Y76500D01*
X121492Y66500D01*
X109552Y66597D01*
X110183Y76641D01*
X110318Y76614D01*
D02*
G37*
G36*
X456677Y61323D02*
X456191Y60150D01*
X452500D01*
Y50000D01*
Y39850D01*
X464450D01*
X466440Y40246D01*
X468127Y41373D01*
X468546Y42000D01*
X475157D01*
X475836Y40730D01*
X475495Y40220D01*
X475263Y39051D01*
X475799Y39089D01*
X476260Y39158D01*
X476652Y39247D01*
X476974Y39356D01*
X477226Y39485D01*
X477410Y39633D01*
X477523Y39801D01*
X477567Y39989D01*
X477400Y36500D01*
X486502D01*
Y35000D01*
X488003D01*
Y28533D01*
X491500D01*
X490930Y28503D01*
X490420Y28412D01*
X489970Y28260D01*
X489580Y28048D01*
X489250Y27775D01*
X488980Y27442D01*
X488770Y27048D01*
X488622Y26601D01*
X492752D01*
X494723Y26993D01*
X494880Y27098D01*
X496000Y26499D01*
Y21879D01*
X494250D01*
X492670Y21565D01*
X491330Y20670D01*
X490435Y19330D01*
X490121Y17750D01*
Y17354D01*
X490396Y17432D01*
X490753Y17580D01*
X491098Y17770D01*
X491431Y18001D01*
X491753Y18275D01*
X492063Y18592D01*
X492362Y18950D01*
X492650Y19350D01*
X492137Y11654D01*
X492139Y12146D01*
X492077Y12586D01*
X491950Y12974D01*
X491759Y13311D01*
X491503Y13595D01*
X491183Y13828D01*
X490798Y14010D01*
X490349Y14139D01*
X490121Y14174D01*
Y14000D01*
X461000D01*
X360000Y14000D01*
X358000Y16000D01*
Y23109D01*
X359270Y23494D01*
X359760Y22760D01*
X361017Y21920D01*
X362500Y21626D01*
X363500D01*
Y27500D01*
X365000D01*
Y29000D01*
X368269D01*
Y31355D01*
X368439Y31288D01*
X368740Y31227D01*
X369170Y31174D01*
X370417Y31089D01*
X371015Y31079D01*
X370240Y32240D01*
X369506Y32730D01*
X369891Y34000D01*
X420000D01*
X424000Y38000D01*
X424000Y65000D01*
X427000Y68000D01*
X427500D01*
X428303Y67667D01*
X430000Y67444D01*
X431697Y67667D01*
X432500Y68000D01*
X437500D01*
X438303Y67667D01*
X440000Y67444D01*
X441697Y67667D01*
X442500Y68000D01*
X450000D01*
X456677Y61323D01*
D02*
G37*
G36*
X434000Y200000D02*
X450000Y200000D01*
X454000Y196000D01*
Y164000D01*
X464000Y154000D01*
X544000D01*
X546000Y152000D01*
Y128000D01*
X542000Y124000D01*
X480000D01*
X476000Y120000D01*
X436000D01*
X432000Y124000D01*
Y144000D01*
X412000Y164000D01*
Y204000D01*
X414000Y206000D01*
X428000D01*
X434000Y200000D01*
D02*
G37*
G36*
X629916Y129816D02*
X629118Y130744D01*
X627543Y132307D01*
X626766Y132942D01*
X625996Y133479D01*
X625232Y133919D01*
X624476Y134261D01*
X623727Y134505D01*
X622985Y134651D01*
X622249Y134700D01*
X622431Y139700D01*
X623221Y139743D01*
X624001Y139871D01*
X624772Y140085D01*
X625534Y140385D01*
X626287Y140771D01*
X627031Y141242D01*
X627766Y141799D01*
X628492Y142442D01*
X629209Y143170D01*
X629916Y143984D01*
Y129816D01*
D02*
G37*
G36*
X613154Y101626D02*
X613590Y101421D01*
X614076Y101241D01*
X614612Y101084D01*
X615198Y100951D01*
X615834Y100843D01*
X617256Y100698D01*
X618042Y100662D01*
X618879Y100650D01*
X619008Y95650D01*
X618195Y95629D01*
X617439Y95567D01*
X616739Y95464D01*
X616096Y95319D01*
X615508Y95133D01*
X614978Y94905D01*
X614504Y94636D01*
X614086Y94325D01*
X613725Y93973D01*
X613420Y93580D01*
X612769Y101855D01*
X613154Y101626D01*
D02*
G37*
G36*
X45530Y115762D02*
X44369Y115466D01*
X43345Y114973D01*
X42458Y114283D01*
X41707Y113396D01*
X41092Y112311D01*
X40614Y111029D01*
X40273Y109550D01*
X40068Y107874D01*
X40000Y106000D01*
X30000D01*
X29932Y107874D01*
X29727Y109550D01*
X29386Y111029D01*
X28908Y112311D01*
X28293Y113396D01*
X27542Y114283D01*
X26655Y114973D01*
X25631Y115466D01*
X24470Y115762D01*
X23173Y115861D01*
X46827D01*
X45530Y115762D01*
D02*
G37*
G36*
X505900Y30995D02*
X506784Y26700D01*
X506089Y26354D01*
X503721Y31425D01*
X505900Y30995D01*
D02*
G37*
G36*
X352000Y168000D02*
X352000Y142000D01*
X348000Y138000D01*
X326000Y138000D01*
X318000Y130000D01*
Y96000D01*
X328000Y86000D01*
X370000D01*
X374000Y82000D01*
Y40000D01*
X372815Y38815D01*
X372289Y38893D01*
X371330Y40276D01*
X371374Y40500D01*
Y41000D01*
X358626D01*
Y40500D01*
X358670Y40276D01*
X357711Y38893D01*
X357185Y38815D01*
X356000Y40000D01*
Y40738D01*
X356210Y41052D01*
X356598Y43003D01*
Y48003D01*
X356210Y49953D01*
X356000Y50268D01*
Y60000D01*
X352000Y64000D01*
X328000D01*
X324000Y68000D01*
X322276D01*
X321930Y68232D01*
X320125Y68591D01*
X319409D01*
X296000Y92000D01*
Y114876D01*
X296636Y115364D01*
X297678Y116722D01*
X298333Y118303D01*
X298556Y120000D01*
X298333Y121697D01*
X297678Y123278D01*
X296636Y124636D01*
X296000Y125124D01*
Y162000D01*
X306000Y172000D01*
X348000D01*
X352000Y168000D01*
D02*
G37*
G36*
X525401Y21604D02*
X526582Y20572D01*
X527098Y20189D01*
X527563Y19892D01*
X527977Y19684D01*
X528341Y19564D01*
X528656Y19532D01*
X528919Y19587D01*
X529132Y19730D01*
X524272Y14897D01*
X524417Y15109D01*
X524473Y15372D01*
X524442Y15685D01*
X524323Y16048D01*
X524116Y16461D01*
X523821Y16925D01*
X523439Y17438D01*
X522969Y18002D01*
X521765Y19281D01*
X524735Y22251D01*
X525401Y21604D01*
D02*
G37*
G36*
X518235Y19346D02*
X517684Y18781D01*
X516465Y17361D01*
X516203Y16978D01*
X516014Y16641D01*
X515898Y16350D01*
X515854Y16104D01*
X515882Y15904D01*
X515983Y15749D01*
X511587Y19983D01*
X511747Y19887D01*
X511953Y19865D01*
X512206Y19915D01*
X512504Y20039D01*
X512849Y20236D01*
X513240Y20506D01*
X513677Y20849D01*
X514689Y21754D01*
X515265Y22316D01*
X518235Y19346D01*
D02*
G37*
G36*
X542558Y62402D02*
X542100Y62687D01*
X541623Y62941D01*
X541128Y63166D01*
X540614Y63361D01*
X540081Y63526D01*
X539529Y63660D01*
X538959Y63765D01*
X538369Y63840D01*
X537761Y63885D01*
X537134Y63900D01*
X537039Y68100D01*
X537711Y68120D01*
X538341Y68181D01*
X538929Y68283D01*
X539475Y68426D01*
X539979Y68609D01*
X540440Y68833D01*
X540859Y69097D01*
X541237Y69402D01*
X541572Y69748D01*
X541865Y70135D01*
X542558Y62402D01*
D02*
G37*
G36*
X545000Y88000D02*
X528499Y71500D01*
X522000D01*
X521158Y70658D01*
X520893Y70606D01*
X519785Y69865D01*
X519044Y68757D01*
X518992Y68492D01*
X516750Y66250D01*
X514508Y68492D01*
X514456Y68757D01*
X513715Y69865D01*
X512607Y70606D01*
X512341Y70658D01*
X511500Y71500D01*
X506500Y71500D01*
X490000Y88000D01*
Y99000D01*
X545000D01*
Y88000D01*
D02*
G37*
G36*
X300130Y69571D02*
X299301Y67571D01*
X297875D01*
X296461Y67290D01*
X295261Y66488D01*
X294460Y65289D01*
X294179Y63875D01*
Y63750D01*
X299500D01*
Y61250D01*
X302000D01*
Y55103D01*
X302539Y55210D01*
X303738Y56012D01*
X304540Y57211D01*
X304821Y58625D01*
Y62051D01*
X306431Y62831D01*
X306821Y62911D01*
X307884Y62201D01*
X309250Y61929D01*
X312628D01*
Y58625D01*
X312952Y57000D01*
X313872Y55622D01*
X315250Y54702D01*
X316875Y54378D01*
X320125D01*
X321750Y54702D01*
X323128Y55622D01*
X324048Y57000D01*
X324372Y58625D01*
Y60705D01*
X326372Y61480D01*
X326829Y61174D01*
X328000Y60941D01*
X328000Y60941D01*
X350733D01*
X352941Y58733D01*
Y53814D01*
X351500Y52632D01*
X347500D01*
X345728Y52279D01*
X344227Y51276D01*
X343223Y49774D01*
X342871Y48003D01*
Y43003D01*
X343223Y41231D01*
X344227Y39729D01*
X344662Y39439D01*
Y35398D01*
X343727Y34773D01*
X342756Y33320D01*
X342026Y33196D01*
X341384Y33127D01*
X340671Y33205D01*
X339884Y34384D01*
X338561Y35268D01*
X337000Y35578D01*
X333000D01*
X331439Y35268D01*
X330116Y34384D01*
X329232Y33061D01*
X328922Y31500D01*
Y26739D01*
X326922Y26542D01*
X326777Y27271D01*
X325773Y28773D01*
X324271Y29777D01*
X324069Y29817D01*
Y36250D01*
X323797Y37616D01*
X323023Y38773D01*
X321266Y40531D01*
X320108Y41304D01*
X318743Y41576D01*
X314832D01*
X314548Y43000D01*
X313628Y44378D01*
X312250Y45298D01*
X310625Y45622D01*
X307375D01*
X305750Y45298D01*
X304372Y44378D01*
X303452Y43000D01*
X303128Y41375D01*
Y36125D01*
X303452Y34500D01*
X304372Y33122D01*
X305750Y32202D01*
X306115Y32129D01*
X305919Y30129D01*
X303500D01*
X301729Y29777D01*
X300227Y28773D01*
X299223Y27271D01*
X299084Y26569D01*
X287566D01*
Y32183D01*
X287771Y32223D01*
X289273Y33227D01*
X290277Y34729D01*
X290629Y36500D01*
Y41500D01*
X290277Y43271D01*
X289273Y44773D01*
X287771Y45777D01*
X286000Y46129D01*
X283454D01*
X283367Y46218D01*
X282678Y48129D01*
X283384Y48714D01*
X285000Y48392D01*
X287146Y48819D01*
X288965Y50035D01*
X290181Y51854D01*
X290608Y54000D01*
X290181Y56146D01*
X288965Y57965D01*
X287146Y59181D01*
X285000Y59608D01*
X282854Y59181D01*
X282798Y59143D01*
X281939Y59243D01*
X280867Y61018D01*
X280821Y61256D01*
X281069Y62500D01*
Y85804D01*
X283069Y86632D01*
X300130Y69571D01*
D02*
G37*
G36*
X531327Y68351D02*
X531530Y68299D01*
X531806Y68252D01*
X532579Y68178D01*
X534287Y68112D01*
X535792Y68100D01*
X536039Y63900D01*
X535182Y63858D01*
X534422Y63732D01*
X533758Y63522D01*
X533190Y63228D01*
X532719Y62850D01*
X532344Y62388D01*
X532066Y61842D01*
X531884Y61212D01*
X531798Y60498D01*
X531809Y59700D01*
X531198Y68410D01*
X531327Y68351D01*
D02*
G37*
G36*
X120368Y133000D02*
X110183Y132859D01*
X109552Y142903D01*
X109629Y142921D01*
X109955Y142938D01*
X121492Y143000D01*
X120368Y133000D01*
D02*
G37*
G36*
X598017Y211555D02*
X598074Y211124D01*
X598170Y210714D01*
X598305Y210325D01*
X598477Y209956D01*
X598689Y209607D01*
X598938Y209279D01*
X599226Y208971D01*
X599553Y208684D01*
X599917Y208417D01*
X593078D01*
X593442Y208684D01*
X593769Y208971D01*
X594057Y209279D01*
X594306Y209607D01*
X594518Y209956D01*
X594690Y210325D01*
X594825Y210714D01*
X594921Y211124D01*
X594978Y211555D01*
X594997Y212006D01*
X597998D01*
X598017Y211555D01*
D02*
G37*
G36*
X628128Y208614D02*
X628088Y209182D01*
X627968Y209689D01*
X627768Y210137D01*
X627488Y210525D01*
X627128Y210854D01*
X626689Y211122D01*
X626169Y211331D01*
X625569Y211481D01*
X624890Y211570D01*
X624130Y211600D01*
Y214600D01*
X624890Y214630D01*
X625569Y214719D01*
X626169Y214869D01*
X626689Y215078D01*
X627128Y215346D01*
X627488Y215675D01*
X627768Y216063D01*
X627968Y216511D01*
X628088Y217018D01*
X628128Y217586D01*
Y208614D01*
D02*
G37*
G36*
X485429Y197724D02*
X485243Y197966D01*
X485027Y198183D01*
X484781Y198375D01*
X484505Y198541D01*
X484199Y198681D01*
X483862Y198796D01*
X483495Y198885D01*
X483098Y198949D01*
X483025Y198955D01*
X482582Y198926D01*
X482383Y198893D01*
X482211Y198855D01*
X482065Y198810D01*
X481946Y198759D01*
X481854Y198703D01*
Y202297D01*
X481946Y202241D01*
X482065Y202190D01*
X482211Y202146D01*
X482383Y202107D01*
X482582Y202074D01*
X482953Y202037D01*
X483102Y202050D01*
X483499Y202113D01*
X483867Y202202D01*
X484204Y202315D01*
X484510Y202454D01*
X484785Y202618D01*
X485031Y202807D01*
X485245Y203022D01*
X485429Y203261D01*
Y197724D01*
D02*
G37*
G36*
X617627Y209006D02*
X616834Y208170D01*
X616169Y207379D01*
X615633Y206633D01*
X615225Y205930D01*
X614946Y205271D01*
X614795Y204657D01*
X614772Y204087D01*
X614878Y203561D01*
X615112Y203079D01*
X615475Y202642D01*
X609059Y208887D01*
X609507Y208536D01*
X609999Y208313D01*
X610535Y208217D01*
X611114Y208250D01*
X611737Y208410D01*
X612403Y208697D01*
X613113Y209113D01*
X613867Y209657D01*
X614664Y210328D01*
X615506Y211127D01*
X617627Y209006D01*
D02*
G37*
G36*
X485429Y208726D02*
X485243Y208968D01*
X485028Y209185D01*
X484782Y209376D01*
X484506Y209541D01*
X484199Y209682D01*
X483863Y209796D01*
X483496Y209885D01*
X483099Y209949D01*
X483026Y209956D01*
X482582Y209926D01*
X482383Y209893D01*
X482211Y209855D01*
X482065Y209810D01*
X481946Y209760D01*
X481854Y209703D01*
Y213297D01*
X481946Y213241D01*
X482065Y213190D01*
X482211Y213146D01*
X482383Y213107D01*
X482582Y213074D01*
X482952Y213037D01*
X483101Y213051D01*
X483499Y213114D01*
X483866Y213202D01*
X484203Y213316D01*
X484509Y213455D01*
X484785Y213619D01*
X485030Y213809D01*
X485245Y214024D01*
X485429Y214264D01*
Y208726D01*
D02*
G37*
G36*
X570221Y220930D02*
X570314Y220420D01*
X570467Y219970D01*
X570680Y219580D01*
X570953Y219250D01*
X571286Y218980D01*
X571679Y218770D01*
X572132Y218620D01*
X572646Y218530D01*
X573219Y218500D01*
Y215500D01*
X572649Y215483D01*
X572140Y215431D01*
X571689Y215345D01*
X571300Y215225D01*
X570970Y215070D01*
X570700Y214881D01*
X570490Y214657D01*
X570340Y214400D01*
X570249Y214107D01*
X570219Y213780D01*
X570189Y221500D01*
X570221Y220930D01*
D02*
G37*
G36*
X500775Y213976D02*
X500998Y213719D01*
X501235Y213492D01*
X501486Y213295D01*
X501751Y213128D01*
X502029Y212992D01*
X502321Y212886D01*
X502627Y212810D01*
X502947Y212765D01*
X503281Y212750D01*
Y210250D01*
X502948Y210235D01*
X502630Y210189D01*
X502324Y210113D01*
X502032Y210006D01*
X501754Y209869D01*
X501489Y209701D01*
X501238Y209503D01*
X501001Y209275D01*
X500777Y209016D01*
X500566Y208726D01*
Y214264D01*
X500775Y213976D01*
D02*
G37*
G36*
X551430Y213781D02*
X550920Y213690D01*
X550470Y213538D01*
X550080Y213326D01*
X549750Y213053D01*
X549480Y212720D01*
X549270Y212326D01*
X549120Y211871D01*
X549030Y211356D01*
X549000Y210781D01*
X546000D01*
X545970Y211356D01*
X545880Y211871D01*
X545730Y212326D01*
X545520Y212720D01*
X545250Y213053D01*
X544920Y213326D01*
X544530Y213538D01*
X544256Y213630D01*
X543970Y213533D01*
X543580Y213320D01*
X543250Y213047D01*
X542980Y212714D01*
X542770Y212321D01*
X542620Y211868D01*
X542530Y211354D01*
X542500Y210781D01*
X539500D01*
X539483Y211350D01*
X539431Y211861D01*
X539345Y212311D01*
X539225Y212701D01*
X539070Y213030D01*
X538881Y213300D01*
X538657Y213510D01*
X538400Y213661D01*
X538107Y213750D01*
X537780Y213780D01*
X543173Y213802D01*
X543000Y213811D01*
X552000D01*
X551430Y213781D01*
D02*
G37*
G36*
X48306Y184689D02*
X49420Y183957D01*
X50603Y183311D01*
X51856Y182751D01*
X53179Y182277D01*
X54573Y181889D01*
X56035Y181588D01*
X57568Y181372D01*
X59171Y181243D01*
X60843Y181200D01*
Y171200D01*
X59171Y171157D01*
X57568Y171028D01*
X56035Y170812D01*
X54573Y170511D01*
X53179Y170123D01*
X51856Y169649D01*
X50603Y169089D01*
X49420Y168443D01*
X48306Y167711D01*
X47263Y166892D01*
Y185508D01*
X48306Y184689D01*
D02*
G37*
G36*
X107040Y179960D02*
X107151Y178530D01*
X107338Y177201D01*
X107598Y175973D01*
X107933Y174845D01*
X108343Y173819D01*
X108827Y172894D01*
X109385Y172070D01*
X110018Y171347D01*
X110725Y170725D01*
X106991Y170598D01*
X107002Y168508D01*
X97002Y169632D01*
X96994Y170256D01*
X94859Y170184D01*
X95266Y170799D01*
X95631Y171529D01*
X95952Y172373D01*
X96231Y173331D01*
X96467Y174403D01*
X96659Y175590D01*
X96887Y177986D01*
X96861Y179817D01*
X96981Y179824D01*
X96981Y179833D01*
X97002Y181476D01*
X107002Y181492D01*
X107040Y179960D01*
D02*
G37*
G36*
X613683Y141093D02*
X614011Y140801D01*
X614406Y140543D01*
X614866Y140319D01*
X615392Y140130D01*
X615983Y139975D01*
X616641Y139855D01*
X617364Y139769D01*
X618153Y139717D01*
X619008Y139700D01*
X618948Y134700D01*
X618193Y134684D01*
X616774Y134560D01*
X616110Y134451D01*
X615477Y134311D01*
X614874Y134140D01*
X614302Y133938D01*
X613760Y133705D01*
X613249Y133440D01*
X612769Y133145D01*
X613420Y141420D01*
X613683Y141093D01*
D02*
G37*
G36*
X656000Y184000D02*
Y166000D01*
X654000Y164000D01*
X608000D01*
X606337Y162337D01*
X606303Y162333D01*
X604722Y161678D01*
X603364Y160636D01*
X602322Y159278D01*
X601667Y157697D01*
X601663Y157663D01*
X600000Y156000D01*
Y144093D01*
X598730Y143414D01*
X598483Y143580D01*
X597768Y143722D01*
X597988Y142724D01*
X598164Y142173D01*
X598367Y141663D01*
X598598Y141195D01*
X598855Y140768D01*
X596500D01*
Y137500D01*
Y134232D01*
X598855D01*
X598598Y133805D01*
X598367Y133337D01*
X598164Y132827D01*
X597988Y132276D01*
X597839Y131682D01*
X597761Y131277D01*
X598483Y131420D01*
X598730Y131586D01*
X600000Y130907D01*
Y104093D01*
X598730Y103414D01*
X598483Y103580D01*
X597768Y103722D01*
X597988Y102724D01*
X598164Y102173D01*
X598367Y101663D01*
X598598Y101195D01*
X598855Y100768D01*
X596500D01*
Y97500D01*
Y94232D01*
X598855D01*
X598598Y93805D01*
X598367Y93337D01*
X598164Y92827D01*
X597988Y92276D01*
X597839Y91682D01*
X597761Y91277D01*
X598483Y91420D01*
X598730Y91586D01*
X600000Y90907D01*
Y88000D01*
X610000Y78000D01*
Y60000D01*
X600000Y50000D01*
X566000Y50000D01*
X560000Y56000D01*
Y74000D01*
X562000Y76000D01*
X563500D01*
X564303Y75667D01*
X566000Y75444D01*
X567697Y75667D01*
X569278Y76322D01*
X570636Y77364D01*
X571678Y78722D01*
X572333Y80303D01*
X572556Y82000D01*
X572333Y83697D01*
X571678Y85278D01*
X570636Y86636D01*
X570000Y87124D01*
Y96000D01*
Y160000D01*
X588468Y178468D01*
X589636Y179364D01*
X590532Y180532D01*
X596000Y186000D01*
X654000D01*
X656000Y184000D01*
D02*
G37*
G36*
X568816Y198227D02*
X568949Y197171D01*
X568994Y196974D01*
X569042Y196804D01*
X569095Y196662D01*
X569153Y196546D01*
X569214Y196457D01*
X565627Y196246D01*
X565677Y196341D01*
X565721Y196463D01*
X565757Y196611D01*
X565785Y196785D01*
X565806Y196986D01*
X565826Y197466D01*
X565815Y198051D01*
X565798Y198383D01*
X568793Y198559D01*
X568816Y198227D01*
D02*
G37*
G36*
X500772Y202974D02*
X500987Y202717D01*
X501209Y202491D01*
X501440Y202294D01*
X501679Y202128D01*
X501927Y201992D01*
X502183Y201886D01*
X502447Y201810D01*
X502719Y201765D01*
X503000Y201750D01*
Y199250D01*
X502721Y199235D01*
X502450Y199189D01*
X502187Y199113D01*
X501932Y199006D01*
X501685Y198868D01*
X501445Y198701D01*
X501214Y198502D01*
X500990Y198273D01*
X500774Y198014D01*
X500566Y197724D01*
Y203261D01*
X500772Y202974D01*
D02*
G37*
G36*
X76555Y178597D02*
X76195Y178500D01*
X75752Y178293D01*
X75227Y177975D01*
X74619Y177547D01*
X73156Y176361D01*
X71362Y174733D01*
X69238Y172665D01*
X62167Y179736D01*
X63467Y181057D01*
X67084Y185184D01*
X67593Y185925D01*
X67942Y186551D01*
X68134Y187061D01*
X68167Y187454D01*
X68041Y187732D01*
X76555Y178597D01*
D02*
G37*
G36*
X561702Y198383D02*
X561685Y198051D01*
X561694Y196986D01*
X561715Y196785D01*
X561743Y196611D01*
X561779Y196463D01*
X561823Y196341D01*
X561873Y196246D01*
X558286Y196457D01*
X558347Y196546D01*
X558405Y196662D01*
X558458Y196804D01*
X558506Y196974D01*
X558551Y197171D01*
X558626Y197645D01*
X558684Y198227D01*
X558707Y198559D01*
X561702Y198383D01*
D02*
G37*
G36*
X443007Y274538D02*
X443031Y274268D01*
X443071Y274005D01*
X443127Y273749D01*
X443199Y273499D01*
X443287Y273256D01*
X443391Y273019D01*
X443511Y272790D01*
X443647Y272567D01*
X443799Y272350D01*
X440200D01*
X440352Y272567D01*
X440488Y272790D01*
X440607Y273019D01*
X440711Y273256D01*
X440799Y273499D01*
X440871Y273749D01*
X440927Y274005D01*
X440967Y274268D01*
X440991Y274538D01*
X440999Y274815D01*
X442999D01*
X443007Y274538D01*
D02*
G37*
G36*
X394543Y335123D02*
X394602Y335013D01*
X394879Y334350D01*
X394441Y333694D01*
X394403Y333503D01*
X396827D01*
X396875Y333522D01*
X397095Y333644D01*
Y333503D01*
X399495D01*
Y328658D01*
X401894D01*
Y333644D01*
X402115Y333522D01*
X402390Y333412D01*
X402720Y333316D01*
X403106Y333232D01*
X403546Y333161D01*
X404591Y333058D01*
X404787Y333050D01*
X406447Y333161D01*
X406887Y333232D01*
X407272Y333316D01*
X407602Y333412D01*
X407878Y333522D01*
X408098Y333644D01*
Y328361D01*
X407879Y328483D01*
X407605Y328591D01*
X407276Y328687D01*
X406891Y328770D01*
X406451Y328840D01*
X405406Y328942D01*
X405205Y328951D01*
X403541Y328840D01*
X403101Y328770D01*
X402717Y328687D01*
X402387Y328591D01*
X402159Y328501D01*
X402037Y328353D01*
X401911Y328139D01*
X401802Y327884D01*
X401710Y327588D01*
X401634Y327252D01*
X401576Y326875D01*
X401534Y326457D01*
X401500Y325500D01*
X401375D01*
X401515Y325202D01*
X401656Y324246D01*
X400366Y323384D01*
X399252Y321716D01*
X398861Y319750D01*
Y310250D01*
X399252Y308284D01*
X399316Y308188D01*
X398631Y306012D01*
X397047Y304953D01*
X395988Y303369D01*
X395616Y301500D01*
X395988Y299631D01*
X397047Y298047D01*
X398631Y296988D01*
X400500Y296616D01*
X400766Y296383D01*
X400825Y296105D01*
X399205Y294104D01*
X398450D01*
X397166Y293849D01*
X396078Y293122D01*
X395351Y292034D01*
X395096Y290750D01*
Y290043D01*
X394814Y289846D01*
X394419Y289581D01*
X394402Y289556D01*
X394376Y289538D01*
X394122Y289136D01*
X394002Y288957D01*
X393727Y288773D01*
X393479Y288526D01*
X393414Y288513D01*
X392928Y288421D01*
X392918Y288414D01*
X392907Y288412D01*
X392496Y288138D01*
X392083Y287867D01*
X391875Y287663D01*
X391531Y287345D01*
X391283Y287142D01*
X390631Y287012D01*
X389047Y285953D01*
X387988Y284369D01*
X387616Y282500D01*
X387988Y280631D01*
X389047Y279047D01*
X390475Y278092D01*
X390571Y277952D01*
X390631Y277561D01*
Y276439D01*
X390558Y275963D01*
X389047Y274953D01*
X387988Y273369D01*
X387616Y271500D01*
X387988Y269631D01*
X389047Y268047D01*
X390631Y266988D01*
X392500Y266616D01*
X394369Y266988D01*
X395953Y268047D01*
X397012Y269631D01*
X397140Y270275D01*
X397686Y270900D01*
X397867Y271083D01*
X397931Y271181D01*
X398396Y271199D01*
X398465Y271215D01*
X398535Y271207D01*
X398689Y271222D01*
X398775Y271247D01*
X398865Y271244D01*
X398966Y271260D01*
X399151Y271328D01*
X399163Y271329D01*
X399167Y271330D01*
X399296Y271340D01*
X399380Y271382D01*
X399489Y271401D01*
X399537Y271420D01*
X399735Y271545D01*
X399913Y271611D01*
X400007Y271698D01*
X400064Y271727D01*
X400087Y271737D01*
X400090Y271740D01*
X400198Y271795D01*
X400274Y271883D01*
X400337Y271896D01*
X402950D01*
X404234Y272151D01*
X405322Y272878D01*
X405678D01*
X406766Y272151D01*
X408050Y271896D01*
X412550D01*
X413834Y272151D01*
X414922Y272878D01*
X415649Y273966D01*
X415905Y275250D01*
Y278291D01*
X415970Y278369D01*
X416459Y278883D01*
X416643Y279174D01*
X416862Y279440D01*
X416910Y279597D01*
X416999Y279737D01*
X417057Y280076D01*
X417126Y280300D01*
X419757Y282931D01*
X421184Y284316D01*
X422621Y284912D01*
X424610Y284941D01*
X426000D01*
X426049Y284951D01*
X428101D01*
X429323Y284323D01*
X429951Y283101D01*
Y281049D01*
X429941Y281000D01*
Y280113D01*
X429537Y280032D01*
X428296Y279204D01*
X426296Y277204D01*
X425468Y275963D01*
X425177Y274500D01*
Y271181D01*
X425088Y270368D01*
X423244Y269611D01*
X423129Y269647D01*
X422812Y269804D01*
X422793Y269816D01*
X421692Y270552D01*
X421500Y270590D01*
Y265497D01*
X419000D01*
Y262997D01*
X414308D01*
X414446Y262306D01*
X415183Y261203D01*
X415192Y261189D01*
X415192Y258803D01*
X415183Y258790D01*
X414446Y257687D01*
X414308Y256995D01*
X419000D01*
Y251995D01*
X414272D01*
X413250Y250335D01*
X412885Y250039D01*
X392845D01*
X382039Y260845D01*
Y300000D01*
X382039Y300000D01*
X381884Y300780D01*
X381442Y301442D01*
X381442Y301442D01*
X373039Y309845D01*
Y320155D01*
X388845Y335961D01*
X393237D01*
X393350Y335983D01*
X393466Y335974D01*
X393738Y336060D01*
X394543Y335123D01*
D02*
G37*
G36*
X446020Y334584D02*
X446080Y334239D01*
X446180Y333934D01*
X446320Y333670D01*
X446500Y333447D01*
X446720Y333264D01*
X446980Y333122D01*
X447280Y333020D01*
X447620Y332959D01*
X448000Y332939D01*
X442000D01*
X442380Y332959D01*
X442720Y333020D01*
X443020Y333122D01*
X443280Y333264D01*
X443500Y333447D01*
X443680Y333670D01*
X443820Y333934D01*
X443920Y334239D01*
X443980Y334584D01*
X444000Y334969D01*
X446000D01*
X446020Y334584D01*
D02*
G37*
G36*
X484193Y337183D02*
X484152Y337039D01*
X484117Y336830D01*
X484086Y336557D01*
X484021Y335350D01*
X484014Y334732D01*
X484020Y334614D01*
X484080Y334263D01*
X484180Y333954D01*
X484320Y333688D01*
X484500Y333463D01*
X484720Y333281D01*
X484980Y333142D01*
X485280Y333045D01*
X485620Y332990D01*
X486000Y332978D01*
X480641Y332859D01*
X480899Y332982D01*
X481130Y333125D01*
X481334Y333289D01*
X481511Y333473D01*
X481660Y333678D01*
X481782Y333903D01*
X481878Y334149D01*
X481946Y334415D01*
X481973Y334607D01*
X481807Y337183D01*
X481762Y337263D01*
X484238D01*
X484193Y337183D01*
D02*
G37*
G36*
X432021Y340032D02*
X432628Y340004D01*
X433000Y340000D01*
Y338000D01*
X432628Y337996D01*
X432022Y337949D01*
X432022Y336000D01*
X432002Y336380D01*
X431941Y336720D01*
X431839Y337020D01*
X431697Y337280D01*
X431514Y337500D01*
X431291Y337680D01*
X431030Y337819D01*
X430997Y337811D01*
X430826Y337752D01*
X430682Y337687D01*
X430568Y337613D01*
Y337947D01*
X430378Y337980D01*
X429992Y338000D01*
Y340000D01*
X430377Y340020D01*
X430568Y340053D01*
Y340387D01*
X430682Y340313D01*
X430826Y340247D01*
X430997Y340190D01*
X431031Y340181D01*
X431290Y340318D01*
X431513Y340497D01*
X431696Y340716D01*
X431838Y340974D01*
X431939Y341273D01*
X432000Y341610D01*
X432020Y341988D01*
X432021Y340032D01*
D02*
G37*
G36*
X572940Y338766D02*
X572574Y338388D01*
X571971Y337687D01*
X571733Y337365D01*
X571538Y337061D01*
X571386Y336775D01*
X571276Y336508D01*
X571209Y336260D01*
X571186Y336030D01*
X571204Y335818D01*
X567889Y339133D01*
X568110Y339113D01*
X568348Y339134D01*
X568603Y339199D01*
X568875Y339306D01*
X569165Y339456D01*
X569472Y339649D01*
X569796Y339884D01*
X570137Y340162D01*
X570872Y340846D01*
X572940Y338766D01*
D02*
G37*
G36*
X401985Y343617D02*
X402171Y343593D01*
X402453Y343572D01*
X404090Y343535D01*
X408098Y343644D01*
Y338361D01*
X408008Y338388D01*
X407822Y338412D01*
X407540Y338433D01*
X405902Y338470D01*
X401894Y338361D01*
Y343644D01*
X401985Y343617D01*
D02*
G37*
G36*
X547382Y311996D02*
X547242Y312010D01*
X547091Y311997D01*
X546931Y311959D01*
X546762Y311895D01*
X546582Y311805D01*
X546393Y311688D01*
X546193Y311546D01*
X545984Y311378D01*
X545537Y310963D01*
X543463Y313037D01*
X543718Y313306D01*
X543932Y313560D01*
X544104Y313801D01*
X544234Y314027D01*
X544323Y314238D01*
X544370Y314436D01*
X544376Y314619D01*
X544340Y314788D01*
X544262Y314943D01*
X544143Y315083D01*
X547382Y311996D01*
D02*
G37*
G36*
X575433Y335567D02*
X632000Y279000D01*
Y276000D01*
X630000Y274000D01*
X560831D01*
Y275128D01*
X560511Y276737D01*
X559599Y278102D01*
X558234Y279013D01*
X556625Y279333D01*
X551375D01*
X550266Y279113D01*
X550234Y279114D01*
X550191Y279098D01*
X549766Y279013D01*
X549518Y278848D01*
X549488Y278837D01*
X549058Y278572D01*
X548665Y278367D01*
X548240Y278183D01*
X547785Y278020D01*
X547294Y277878D01*
X546769Y277760D01*
X546234Y277670D01*
X545999Y277649D01*
X545764Y277670D01*
X545228Y277760D01*
X544703Y277878D01*
X544213Y278019D01*
X543757Y278183D01*
X543333Y278367D01*
X542939Y278572D01*
X542509Y278837D01*
X542480Y278848D01*
X542232Y279013D01*
X541807Y279098D01*
X541763Y279114D01*
X541732Y279113D01*
X540622Y279333D01*
X537268D01*
X537085Y279672D01*
X538278Y281672D01*
X540622D01*
X542232Y281992D01*
X543596Y282904D01*
X544508Y284268D01*
X544754Y285503D01*
X537998D01*
X531241D01*
X531487Y284268D01*
X531640Y284039D01*
X530571Y282039D01*
X522000D01*
X521220Y281884D01*
X520558Y281442D01*
X500155Y261039D01*
X485520Y261039D01*
X484451Y263039D01*
X484512Y263131D01*
X484884Y265000D01*
X484512Y266869D01*
X483453Y268453D01*
X482913Y268814D01*
X482743Y270110D01*
X481735Y272543D01*
X481644Y272662D01*
X482772Y274477D01*
X483000Y274431D01*
X489866D01*
X490152Y274403D01*
X490228Y274390D01*
X490249Y274386D01*
X490257Y274382D01*
X490268Y274380D01*
X490842Y273997D01*
X492500Y273667D01*
X494158Y273997D01*
X495564Y274936D01*
X496503Y276342D01*
X496833Y278000D01*
X496503Y279658D01*
X496021Y280380D01*
X496226Y281619D01*
X496497Y282421D01*
X496691Y282703D01*
X497953Y283547D01*
X499012Y285131D01*
X499384Y287000D01*
X499301Y287417D01*
X500000Y288116D01*
X501869Y288488D01*
X503453Y289547D01*
X504512Y291131D01*
X504884Y293000D01*
X504512Y294869D01*
X503453Y296453D01*
X501869Y297512D01*
X500000Y297884D01*
X498131Y297512D01*
X497284Y296946D01*
X497250Y296936D01*
X497170Y296870D01*
X496808Y296628D01*
X496779Y296612D01*
X496765Y296599D01*
X496547Y296453D01*
X496511Y296401D01*
X496503Y296395D01*
X496431Y296355D01*
X496355Y296318D01*
X496273Y296285D01*
X496183Y296256D01*
X496083Y296231D01*
X495971Y296210D01*
X495772Y296184D01*
X495328Y296034D01*
X494880Y295898D01*
X494850Y295873D01*
X494814Y295861D01*
X494462Y295553D01*
X494416Y295516D01*
X491782Y295252D01*
X491485Y295223D01*
X491407Y295235D01*
X489585Y296476D01*
X489436Y297068D01*
X489355Y297475D01*
X489005Y298000D01*
X489355Y298524D01*
X489549Y299500D01*
Y300500D01*
X489355Y301475D01*
X489271Y301602D01*
X489838Y303665D01*
X491000Y304329D01*
X494402D01*
X494446Y304108D01*
X495192Y302992D01*
X496308Y302246D01*
X497625Y301984D01*
X501375D01*
X502692Y302246D01*
X503808Y302992D01*
X503905Y303137D01*
X504593Y303218D01*
X506183Y302946D01*
X506649Y302249D01*
X507773Y301497D01*
X509100Y301233D01*
X511900D01*
X513227Y301497D01*
X514351Y302249D01*
X516649D01*
X517773Y301497D01*
X519100Y301233D01*
X521900D01*
X523227Y301497D01*
X524351Y302249D01*
X524763Y302866D01*
X530980D01*
Y302824D01*
X535408Y303260D01*
X539665Y304552D01*
X543589Y306649D01*
X547028Y309471D01*
X547029D01*
X548699Y310187D01*
X549815Y310933D01*
X552467Y313585D01*
X553213Y314701D01*
X554106Y316020D01*
X555179Y316234D01*
X556088Y316841D01*
X559271Y320023D01*
X559878Y320933D01*
X559886Y320970D01*
X560610Y322290D01*
X561930Y323014D01*
X561967Y323022D01*
X562877Y323629D01*
X566059Y326811D01*
X566666Y327721D01*
X566679Y327786D01*
X567182Y329725D01*
X568499Y329987D01*
X569615Y330733D01*
X572267Y333385D01*
X573013Y334501D01*
X573122Y335050D01*
X574972Y335776D01*
X575433Y335567D01*
D02*
G37*
G36*
X477959Y314620D02*
X478020Y314280D01*
X478122Y313980D01*
X478264Y313720D01*
X478447Y313500D01*
X478670Y313320D01*
X478934Y313180D01*
X479239Y313080D01*
X479584Y313020D01*
X479969Y313000D01*
Y311000D01*
X479584Y310980D01*
X479239Y310920D01*
X478934Y310820D01*
X478670Y310680D01*
X478447Y310500D01*
X478264Y310280D01*
X478122Y310020D01*
X478020Y309720D01*
X477959Y309380D01*
X477939Y309000D01*
Y315000D01*
X477959Y314620D01*
D02*
G37*
G36*
X392817Y451573D02*
X393721Y450000D01*
X393522Y449000D01*
Y441500D01*
X399600D01*
Y439000D01*
X402100D01*
Y425021D01*
X403161Y425232D01*
X404399Y426059D01*
X404509Y426115D01*
X406828Y426025D01*
X407027Y425727D01*
X408529Y424723D01*
X410300Y424371D01*
X414300D01*
X416071Y424723D01*
X417573Y425727D01*
X417772Y426024D01*
X420090Y426115D01*
X420201Y426059D01*
X421439Y425232D01*
X422500Y425021D01*
Y439000D01*
X427500D01*
Y425021D01*
X428561Y425232D01*
X429884Y426116D01*
X430213Y426609D01*
X432487D01*
X432816Y426116D01*
X434139Y425232D01*
X434776Y425106D01*
X435268Y424656D01*
X435915Y423403D01*
X435984Y422922D01*
X435821Y422550D01*
X435631Y422512D01*
X434047Y421453D01*
X432988Y419869D01*
X432616Y418000D01*
X430934Y416217D01*
X430616Y416205D01*
X430099Y416390D01*
X428771Y417277D01*
X427000Y417629D01*
X423000D01*
X421229Y417277D01*
X419727Y416273D01*
X417573D01*
X416071Y417277D01*
X414300Y417629D01*
X410300D01*
X408529Y417277D01*
X407201Y416389D01*
X406672Y416202D01*
X405978Y416229D01*
X404384Y418000D01*
X404012Y419869D01*
X402953Y421453D01*
X401369Y422512D01*
X399500Y422884D01*
X397631Y422512D01*
X396047Y421453D01*
X394988Y419869D01*
X394616Y418000D01*
X394879Y416677D01*
X394650Y416509D01*
X394602Y416457D01*
X394327Y416273D01*
X394041Y415846D01*
X393967Y415765D01*
X393942Y415698D01*
X393323Y414771D01*
X392971Y413000D01*
Y393000D01*
X392983Y392939D01*
X392812Y392609D01*
X390874Y392010D01*
X381442Y401442D01*
X380780Y401884D01*
X380000Y402039D01*
X366000D01*
X365220Y401884D01*
X364558Y401442D01*
X364558Y401442D01*
X360558Y397442D01*
X360116Y396780D01*
X359961Y396000D01*
Y340845D01*
X350558Y331442D01*
X350116Y330780D01*
X349961Y330000D01*
Y300000D01*
X350116Y299220D01*
X350558Y298558D01*
X359961Y289155D01*
Y260845D01*
X355155Y256039D01*
X302000D01*
X302000Y256039D01*
X301220Y255884D01*
X300558Y255442D01*
X300558Y255442D01*
X296558Y251442D01*
X296116Y250780D01*
X295961Y250000D01*
Y240000D01*
X295961Y240000D01*
X296116Y239220D01*
X296558Y238558D01*
X296558Y238558D01*
X300558Y234558D01*
X301220Y234116D01*
X302000Y233961D01*
X355155D01*
X359961Y229155D01*
Y212000D01*
X359961Y212000D01*
X360116Y211220D01*
X360558Y210558D01*
X360558Y210558D01*
X364558Y206558D01*
X364558Y206558D01*
X365220Y206116D01*
X366000Y205961D01*
X408499D01*
X408849Y205706D01*
X409961Y204000D01*
Y164000D01*
X409961Y164000D01*
X410116Y163220D01*
X410558Y162558D01*
X410558Y162558D01*
X429961Y143155D01*
Y124000D01*
X430116Y123220D01*
X430558Y122558D01*
X434558Y118558D01*
X434558Y118558D01*
X435220Y118116D01*
X436000Y117961D01*
X476000D01*
X476000Y117961D01*
Y98000D01*
X488000Y86000D01*
Y86000D01*
X488941Y85059D01*
X490000Y84000D01*
X491513Y82824D01*
X504669Y69669D01*
X505509Y69107D01*
X506327Y68640D01*
X506090Y67450D01*
Y65500D01*
X510250D01*
Y60500D01*
X508771D01*
X511698Y57590D01*
X511813Y57586D01*
X511847Y57515D01*
X511801Y57376D01*
X511675Y57168D01*
X511467Y56892D01*
X511179Y56548D01*
X509832Y55107D01*
X509221Y54490D01*
X506393Y57319D01*
X506911Y57857D01*
X507723Y58825D01*
X508015Y59255D01*
X508233Y59648D01*
X508375Y60006D01*
X508442Y60328D01*
X508437Y60500D01*
X506090D01*
Y58550D01*
X506327Y57360D01*
X507001Y56351D01*
X507670Y55904D01*
X507499Y54330D01*
X507338Y53904D01*
X505025D01*
X504000Y54108D01*
X501854Y53681D01*
X500035Y52465D01*
X492192Y44622D01*
X480252D01*
X477814Y44137D01*
X477730Y44081D01*
X477320Y44163D01*
X477194Y44247D01*
X477098Y44365D01*
X476701Y44576D01*
X476328Y44826D01*
X476179Y44855D01*
X476045Y44927D01*
X475598Y44971D01*
X475157Y45059D01*
X473713D01*
X470873Y47898D01*
Y54950D01*
X470384Y57408D01*
X468992Y59492D01*
X466908Y60884D01*
X464450Y61373D01*
X459725D01*
X459503Y62494D01*
X458840Y63486D01*
X452163Y70163D01*
X451171Y70826D01*
X450000Y71059D01*
X450000Y71059D01*
X442500D01*
X441329Y70826D01*
X440898Y70647D01*
X440102Y70543D01*
X440000Y70556D01*
X439898Y70543D01*
X439102Y70647D01*
X438671Y70826D01*
X437500Y71059D01*
X432500D01*
X431329Y70826D01*
X430898Y70647D01*
X430102Y70543D01*
X430000Y70556D01*
X429898Y70543D01*
X429102Y70647D01*
X428671Y70826D01*
X427500Y71059D01*
X427000D01*
X425830Y70826D01*
X424837Y70163D01*
X424837Y70163D01*
X421837Y67163D01*
X421837Y67163D01*
X421174Y66171D01*
X420941Y65000D01*
X420941Y65000D01*
X420941Y39267D01*
X418733Y37059D01*
X378048D01*
X376996Y38583D01*
X376871Y39059D01*
X377059Y40000D01*
X377059Y40000D01*
Y82000D01*
X377059Y82000D01*
X376826Y83170D01*
X376163Y84163D01*
X376163Y84163D01*
X372163Y88163D01*
X371171Y88826D01*
X370000Y89059D01*
X370000Y89059D01*
X329267D01*
X321059Y97267D01*
Y103476D01*
X323059Y103607D01*
X323209Y102467D01*
X324418Y99548D01*
X326342Y97042D01*
X328848Y95118D01*
X331767Y93909D01*
X332400Y93826D01*
Y105600D01*
Y117374D01*
X331767Y117291D01*
X328848Y116082D01*
X326342Y114158D01*
X324418Y111652D01*
X323209Y108733D01*
X323059Y107593D01*
X321059Y107724D01*
Y128733D01*
X327267Y134941D01*
X348000Y134941D01*
X348000Y134941D01*
X349170Y135174D01*
X350163Y135837D01*
X354163Y139837D01*
X354163Y139837D01*
X354826Y140829D01*
X355059Y142000D01*
X355059Y142000D01*
X355059Y168000D01*
X355059Y168000D01*
X354826Y169170D01*
X354163Y170163D01*
X354163Y170163D01*
X350163Y174163D01*
X349170Y174826D01*
X348000Y175059D01*
X348000Y175059D01*
X306000D01*
X304830Y174826D01*
X303837Y174163D01*
X303837Y174163D01*
X293837Y164163D01*
X293174Y163171D01*
X292941Y162000D01*
X292941Y162000D01*
Y125124D01*
X292981Y124926D01*
X292967Y124725D01*
X293096Y124346D01*
X293174Y123953D01*
X293286Y123785D01*
X293351Y123594D01*
X293615Y123294D01*
X293837Y122961D01*
X294005Y122849D01*
X294138Y122697D01*
X294454Y122454D01*
X295006Y121735D01*
X295353Y120898D01*
X295471Y120000D01*
X295353Y119102D01*
X295006Y118265D01*
X294454Y117546D01*
X294138Y117303D01*
X294005Y117151D01*
X293837Y117039D01*
X293615Y116706D01*
X293351Y116406D01*
X293286Y116215D01*
X293174Y116047D01*
X293096Y115654D01*
X292967Y115275D01*
X292981Y115074D01*
X292941Y114876D01*
Y92000D01*
X293174Y90829D01*
X293837Y89837D01*
X311784Y71890D01*
X311072Y69774D01*
X310147Y69647D01*
X287569Y92226D01*
Y258522D01*
X302478Y273431D01*
X335022D01*
X343974Y264479D01*
X343987Y264414D01*
X344079Y263928D01*
X344086Y263918D01*
X344088Y263907D01*
X344363Y263496D01*
X344633Y263083D01*
X344837Y262875D01*
X345155Y262531D01*
X345358Y262283D01*
X345488Y261631D01*
X346547Y260047D01*
X348131Y258988D01*
X350000Y258616D01*
X351869Y258988D01*
X353453Y260047D01*
X354512Y261631D01*
X354884Y263500D01*
X354512Y265369D01*
X353453Y266953D01*
X351869Y268012D01*
X351225Y268140D01*
X351057Y268287D01*
X351295Y270005D01*
X351362Y270131D01*
X351587Y270432D01*
X351869Y270488D01*
X353453Y271547D01*
X354512Y273131D01*
X354884Y275000D01*
X354512Y276869D01*
X353453Y278453D01*
X351869Y279512D01*
X351225Y279640D01*
X350601Y280186D01*
X350417Y280367D01*
X350004Y280637D01*
X349593Y280912D01*
X349581Y280914D01*
X349572Y280921D01*
X349086Y281013D01*
X349021Y281026D01*
X339523Y290523D01*
X338366Y291297D01*
X337000Y291569D01*
X298000D01*
X296634Y291297D01*
X295477Y290523D01*
X274977Y270023D01*
X274203Y268866D01*
X273931Y267500D01*
Y63978D01*
X268772Y58819D01*
X233372D01*
Y63875D01*
X233048Y65500D01*
X232128Y66878D01*
X230750Y67798D01*
X229125Y68122D01*
X225875D01*
X224250Y67798D01*
X222872Y66878D01*
X221952Y65500D01*
X221628Y63875D01*
Y58625D01*
X221952Y57000D01*
X222872Y55622D01*
X224250Y54702D01*
X225875Y54378D01*
X226832D01*
X228484Y52727D01*
X229642Y51953D01*
X231007Y51681D01*
X269364D01*
X270193Y49681D01*
X268256Y47744D01*
X267261Y46256D01*
X267090Y45397D01*
X266439Y45268D01*
X265116Y44384D01*
X264585Y43588D01*
X262416D01*
X261884Y44384D01*
X260561Y45268D01*
X259000Y45578D01*
X255000D01*
X253439Y45268D01*
X252116Y44384D01*
X251329Y43206D01*
X250616Y43127D01*
X249974Y43196D01*
X249244Y43320D01*
X248273Y44773D01*
X246771Y45777D01*
X245000Y46129D01*
X241000D01*
X239229Y45777D01*
X237727Y44773D01*
X236723Y43271D01*
X236371Y41500D01*
Y36500D01*
X236723Y34729D01*
X237727Y33227D01*
X239229Y32223D01*
X239431Y32183D01*
Y26569D01*
X227916D01*
X227777Y27271D01*
X226773Y28773D01*
X225271Y29777D01*
X223500Y30129D01*
X221082D01*
X220884Y32129D01*
X221250Y32202D01*
X222628Y33122D01*
X223548Y34500D01*
X223872Y36125D01*
Y41375D01*
X223548Y43000D01*
X222628Y44378D01*
X221250Y45298D01*
X219625Y45622D01*
X216375D01*
X214750Y45298D01*
X213372Y44378D01*
X212452Y43000D01*
X212316Y42319D01*
X208750D01*
X207384Y42047D01*
X206227Y41273D01*
X203977Y39023D01*
X203203Y37866D01*
X202931Y36500D01*
Y31025D01*
X202000Y30457D01*
X200000Y31580D01*
Y60000D01*
X201331Y61331D01*
X203179Y60566D01*
Y58625D01*
X203460Y57211D01*
X204261Y56012D01*
X205461Y55210D01*
X206000Y55103D01*
Y61250D01*
X208500D01*
Y63750D01*
X213821D01*
Y63875D01*
X213540Y65289D01*
X212738Y66488D01*
X211539Y67290D01*
X210354Y67526D01*
X209686Y68631D01*
X209377Y69377D01*
X260000Y120000D01*
Y270000D01*
X330000Y340000D01*
Y450000D01*
X332000Y452000D01*
X392388D01*
X392817Y451573D01*
D02*
G37*
G36*
X503100Y324361D02*
X503083Y324360D01*
X503040Y324349D01*
X502761Y324262D01*
X501792Y323934D01*
X499995Y326937D01*
X500447Y327098D01*
X501758Y327661D01*
X501962Y327782D01*
X502117Y327896D01*
X502222Y328001D01*
X502278Y328099D01*
X502285Y328189D01*
X503100Y324361D01*
D02*
G37*
G36*
X560837Y350163D02*
X560837Y350127D01*
X560050Y348122D01*
X559501Y348013D01*
X558915Y347621D01*
X562232Y344303D01*
X560465Y342536D01*
X562232Y340768D01*
X558631Y337167D01*
X558794Y337058D01*
X559797Y335383D01*
X559903Y334891D01*
X559901Y334871D01*
X559636Y334443D01*
X558912Y333959D01*
X555729Y330777D01*
X555122Y329867D01*
X555114Y329830D01*
X554390Y328510D01*
X553070Y327786D01*
X553033Y327778D01*
X552123Y327170D01*
X548941Y323989D01*
X548334Y323079D01*
X548312Y322969D01*
X546404Y323089D01*
X546400Y323107D01*
X546142Y324406D01*
X546033Y324568D01*
X542433Y320968D01*
X538831Y317367D01*
X538994Y317258D01*
X540293Y317000D01*
X540311Y316996D01*
X541103Y316204D01*
X541164Y316088D01*
X541054Y313701D01*
X539648Y312548D01*
X536951Y311106D01*
X534024Y310218D01*
X531034Y309924D01*
X530980Y309934D01*
X524763D01*
X524351Y310551D01*
X523227Y311303D01*
X521900Y311567D01*
X519100D01*
X517773Y311303D01*
X516649Y310551D01*
X514351D01*
X513227Y311303D01*
X511900Y311567D01*
X511022D01*
X510500Y311670D01*
X505157D01*
X504262Y313671D01*
X504554Y314108D01*
X504592Y314300D01*
X499500D01*
Y319300D01*
X504592D01*
X504554Y319492D01*
X504458Y319636D01*
X505527Y321636D01*
X506375D01*
X507902Y321940D01*
X509198Y322805D01*
X509562Y322876D01*
X511656Y322884D01*
X512308Y322449D01*
X512500Y322410D01*
Y327503D01*
Y332595D01*
X512308Y332557D01*
X511656Y332121D01*
X509562Y332129D01*
X509254Y332189D01*
X508051Y333815D01*
X508395Y335543D01*
X508268Y336184D01*
X509718Y338168D01*
X509754Y338184D01*
X510875D01*
X512192Y338446D01*
X513308Y339192D01*
X514054Y340308D01*
X514192Y341000D01*
X509500D01*
Y343500D01*
X507000D01*
Y348592D01*
X506808Y348554D01*
X506141Y348109D01*
X505536Y348366D01*
X505367Y348456D01*
X504440Y349259D01*
X504526Y349532D01*
X504517Y349647D01*
X504539Y349759D01*
Y363500D01*
X504539Y363500D01*
X504384Y364280D01*
X503942Y364942D01*
X503942Y364942D01*
X483432Y385452D01*
X483546Y387442D01*
X484033Y387767D01*
X484640Y388677D01*
X484854Y389750D01*
Y394250D01*
X484640Y395323D01*
X484033Y396233D01*
X483123Y396840D01*
X482050Y397054D01*
X481908D01*
X481735Y397928D01*
X480961Y399086D01*
X471569Y408478D01*
Y420000D01*
X471297Y421366D01*
X470523Y422523D01*
X461523Y431523D01*
X460366Y432297D01*
X459000Y432569D01*
X456887D01*
X456576Y432616D01*
X456478Y432644D01*
Y449000D01*
X456306Y449866D01*
X457425Y451611D01*
X459090Y451910D01*
X560837Y350163D01*
D02*
G37*
G36*
X391100Y388900D02*
X465315D01*
X465360Y388677D01*
X465967Y387767D01*
X466877Y387160D01*
X467950Y386946D01*
X472450D01*
X473523Y387160D01*
X474161Y387586D01*
X475000Y387694D01*
X475839Y387586D01*
X476477Y387160D01*
X477550Y386946D01*
X479054D01*
X502500Y363500D01*
Y349759D01*
X502047Y349397D01*
X502141Y345900D01*
X502000D01*
Y343500D01*
X497975D01*
Y341519D01*
X497886Y341563D01*
X497740Y341602D01*
X497536Y341637D01*
X497275Y341667D01*
X497156Y341673D01*
Y340656D01*
X496997Y340864D01*
X496815Y341050D01*
X496609Y341214D01*
X496380Y341356D01*
X496126Y341476D01*
X495849Y341575D01*
X495547Y341651D01*
X495222Y341706D01*
X494873Y341739D01*
X494500Y341750D01*
Y345250D01*
X494873Y345261D01*
X495222Y345294D01*
X495547Y345349D01*
X495849Y345425D01*
X496126Y345524D01*
X496380Y345644D01*
X496609Y345786D01*
X496815Y345950D01*
X496890Y346027D01*
X496909Y346176D01*
X496931Y346458D01*
X496978Y348588D01*
X496808Y348554D01*
X495692Y347808D01*
X495647Y347741D01*
X494383Y347617D01*
X492000Y350000D01*
X489206D01*
X488527Y351270D01*
X488554Y351311D01*
X488692Y352002D01*
X484000D01*
Y354502D01*
X481500D01*
Y359595D01*
X481308Y359557D01*
X481270Y359531D01*
X480000Y360210D01*
Y364000D01*
X470000Y374000D01*
X468917D01*
X468646Y374181D01*
X466500Y374608D01*
X464354Y374181D01*
X464083Y374000D01*
X458917D01*
X458646Y374181D01*
X456500Y374608D01*
X454354Y374181D01*
X454083Y374000D01*
X442091D01*
X441500Y374118D01*
X440909Y374000D01*
X427793D01*
X427496Y374199D01*
X425740Y374548D01*
X393776D01*
X392021Y374199D01*
X391723Y374000D01*
X388000D01*
X382000Y368000D01*
Y348000D01*
X384000Y346000D01*
X394680D01*
X395039Y345158D01*
X395133Y344730D01*
X394441Y343694D01*
X394416Y343571D01*
X397095Y343644D01*
Y343503D01*
X399495D01*
Y338503D01*
X397095D01*
Y338361D01*
X397005Y338388D01*
X396819Y338412D01*
X396537Y338433D01*
X393692Y338497D01*
X393634Y338497D01*
X393237Y338000D01*
X388000D01*
X371000Y321000D01*
Y309000D01*
X380000Y300000D01*
Y260000D01*
X392000Y248000D01*
X420000D01*
X421378Y249378D01*
X421692Y249441D01*
X422808Y250187D01*
X423294Y250914D01*
X423405Y250952D01*
X424595D01*
X424700Y250916D01*
X424707Y250911D01*
X425192Y250187D01*
X426308Y249441D01*
X426431Y249416D01*
X426358Y252095D01*
X426500D01*
Y254495D01*
X429000D01*
Y256894D01*
X426358D01*
X426385Y256985D01*
X426409Y257171D01*
X426431Y257453D01*
X426467Y259090D01*
X426358Y263098D01*
X431642D01*
X431615Y263008D01*
X431590Y262822D01*
X431569Y262540D01*
X431533Y260902D01*
X431639Y256995D01*
X433692D01*
X433554Y257687D01*
X432857Y258730D01*
X432942Y259127D01*
X433303Y260000D01*
X436000D01*
X438000Y258000D01*
Y246000D01*
X444000Y240000D01*
X456225D01*
X456936Y238936D01*
X458342Y237997D01*
X460000Y237667D01*
X461658Y237997D01*
X463064Y238936D01*
X463775Y240000D01*
X464000D01*
X483000Y259000D01*
X501000Y259000D01*
X522000Y280000D01*
X532954D01*
X533339Y278730D01*
X532398Y278102D01*
X531487Y276737D01*
X531298Y275789D01*
X531799Y275902D01*
X532408Y276078D01*
X532989Y276286D01*
X533540Y276525D01*
X534062Y276797D01*
X534555Y277101D01*
Y275502D01*
X537997D01*
Y270502D01*
X534555D01*
Y268904D01*
X534062Y269208D01*
X533540Y269480D01*
X532989Y269720D01*
X532408Y269927D01*
X531799Y270103D01*
X531298Y270216D01*
X531487Y269268D01*
X531586Y269120D01*
X530987Y268000D01*
X522000D01*
X502000Y248000D01*
X488000D01*
X466000Y226000D01*
X466000Y176000D01*
X468000Y174000D01*
X548000D01*
X550000Y172000D01*
Y168000D01*
X548000Y166000D01*
X462495Y166000D01*
X458000Y170495D01*
Y198000D01*
X452000Y204000D01*
X451281D01*
X450475Y204982D01*
X450479Y205000D01*
X444000D01*
X437521D01*
X437525Y204982D01*
X436719Y204000D01*
X432884D01*
X429442Y207442D01*
X428780Y207884D01*
X428000Y208039D01*
X414000D01*
X414000Y208039D01*
X413803Y208000D01*
X366000D01*
X362000Y212000D01*
Y230000D01*
X356000Y236000D01*
X302000D01*
X298000Y240000D01*
Y250000D01*
X302000Y254000D01*
X356000D01*
X362000Y260000D01*
Y290000D01*
X352000Y300000D01*
Y330000D01*
X362000Y340000D01*
Y396000D01*
X366000Y400000D01*
X380000D01*
X391100Y388900D01*
D02*
G37*
G36*
X581648Y343327D02*
X581233Y343700D01*
X580818Y343989D01*
X580402Y344196D01*
X579986Y344319D01*
X579569Y344358D01*
X579152Y344314D01*
X578734Y344187D01*
X578316Y343977D01*
X577898Y343683D01*
X577479Y343305D01*
X575405Y345379D01*
X575783Y345798D01*
X576077Y346216D01*
X576287Y346634D01*
X576414Y347052D01*
X576458Y347469D01*
X576419Y347886D01*
X576296Y348302D01*
X576089Y348718D01*
X575800Y349133D01*
X575427Y349548D01*
X581648Y343327D01*
D02*
G37*
G36*
X393190Y363236D02*
X387228Y364587D01*
X387440Y364566D01*
X387631Y364604D01*
X387799Y364701D01*
X387944Y364856D01*
X388068Y365071D01*
X388168Y365345D01*
X388247Y365678D01*
X388303Y366070D01*
X388336Y366521D01*
X388348Y367031D01*
X393347D01*
X393190Y363236D01*
D02*
G37*
G36*
X420225Y372452D02*
X424381Y372183D01*
X424722Y372083D01*
X424900Y371967D01*
X424914Y371836D01*
X424766Y371690D01*
Y366310D01*
X424398Y366528D01*
X423982Y366724D01*
X423518Y366896D01*
X423006Y367046D01*
X422447Y367172D01*
X421839Y367276D01*
X420481Y367414D01*
X419730Y367448D01*
X418932Y367460D01*
X418904Y372460D01*
X420225Y372452D01*
D02*
G37*
G36*
X486344Y351658D02*
X486041Y351427D01*
X485770Y351161D01*
X485531Y350859D01*
X485324Y350522D01*
X485149Y350150D01*
X485005Y349742D01*
X484893Y349299D01*
X484814Y348820D01*
X484766Y348306D01*
X484750Y347757D01*
X481250D01*
X481358Y352103D01*
X486344Y351658D01*
D02*
G37*
G36*
X412006Y357445D02*
X411701Y356712D01*
X411612Y355983D01*
X411740Y355259D01*
X412086Y354539D01*
X412649Y353823D01*
X413430Y353111D01*
X414427Y352403D01*
X415642Y351699D01*
X417074Y351000D01*
X411895Y347246D01*
X410583Y347844D01*
X405765Y350361D01*
X405872Y350393D01*
X412529Y358182D01*
X412006Y357445D01*
D02*
G37*
G36*
X437916Y354512D02*
X445135Y353865D01*
X444824Y353612D01*
X444546Y353290D01*
X444301Y352900D01*
X444089Y352440D01*
X443909Y351912D01*
X443762Y351315D01*
X443647Y350650D01*
X443565Y349915D01*
X443500Y348239D01*
X438500Y348441D01*
X438489Y349307D01*
X438324Y351567D01*
X438226Y352207D01*
X437962Y353317D01*
X437797Y353787D01*
X437612Y354198D01*
X437528Y354309D01*
X437141Y354706D01*
X436703Y355056D01*
X436216Y355359D01*
X435678Y355616D01*
X435091Y355826D01*
X434453Y355990D01*
X433765Y356107D01*
X433027Y356177D01*
X432239Y356200D01*
X432241Y356254D01*
X429234Y356310D01*
Y361690D01*
X429422Y361597D01*
X429692Y361514D01*
X430044Y361440D01*
X430479Y361376D01*
X431595Y361278D01*
X433289Y361224D01*
X434639Y361326D01*
X435320Y361424D01*
X436561Y361703D01*
X437121Y361885D01*
X437640Y362095D01*
X438119Y362332D01*
X438558Y362598D01*
X437916Y354512D01*
D02*
G37*
G36*
X401070Y417516D02*
X401129Y417100D01*
X401227Y416702D01*
X401240Y416667D01*
X401314Y416668D01*
X401268Y416590D01*
X401365Y416323D01*
X401543Y415961D01*
X401759Y415617D01*
X402015Y415290D01*
X402311Y414982D01*
X402646Y414692D01*
X403020Y414420D01*
X396180D01*
X396535Y414680D01*
X396853Y414961D01*
X397134Y415262D01*
X397377Y415584D01*
X397583Y415927D01*
X397751Y416291D01*
X397810Y416465D01*
X397783Y416526D01*
X397720Y416624D01*
X397865Y416626D01*
X397882Y416674D01*
X397975Y417079D01*
X398031Y417504D01*
X398050Y417950D01*
X401050D01*
X401070Y417516D01*
D02*
G37*
G36*
X439120Y417482D02*
X439181Y417079D01*
X439282Y416692D01*
X439283Y416690D01*
X439330Y416691D01*
X439302Y416640D01*
X439423Y416321D01*
X439605Y415965D01*
X439827Y415625D01*
X440090Y415300D01*
X440393Y414991D01*
X440736Y414698D01*
X441120Y414420D01*
X434280D01*
X434626Y414674D01*
X434935Y414948D01*
X435208Y415244D01*
X435445Y415560D01*
X435645Y415898D01*
X435809Y416256D01*
X435855Y416395D01*
X435806Y416498D01*
X435737Y416602D01*
X435926Y416607D01*
X435936Y416636D01*
X436027Y417036D01*
X436082Y417458D01*
X436100Y417900D01*
X439100D01*
X439120Y417482D01*
D02*
G37*
G36*
X413180Y343475D02*
X413495Y343323D01*
X413842Y343189D01*
X414221Y343074D01*
X414632Y342975D01*
X415075Y342895D01*
X416058Y342788D01*
X416597Y342761D01*
X417155Y342753D01*
X417283Y342753D01*
Y339253D01*
X417132Y339252D01*
X416597Y339244D01*
X415550Y339172D01*
X415075Y339110D01*
X414221Y338932D01*
X413842Y338816D01*
X413495Y338682D01*
X413180Y338530D01*
X412897Y338361D01*
Y339236D01*
X412264Y339234D01*
Y342771D01*
X412318Y342768D01*
X412897Y342761D01*
Y343644D01*
X413180Y343475D01*
D02*
G37*
G36*
X467929Y372244D02*
X467969Y372228D01*
X468136Y372116D01*
X468333Y372077D01*
X468519Y372000D01*
X468720D01*
X468917Y371961D01*
X469155D01*
X477961Y363155D01*
Y361114D01*
X477600Y360671D01*
X476500Y359879D01*
Y354503D01*
Y349410D01*
X476692Y349448D01*
X477177Y349772D01*
X479120Y348941D01*
X479177Y348886D01*
Y346109D01*
X477500Y344549D01*
X476500D01*
X475525Y344355D01*
X475000Y344004D01*
X474475Y344355D01*
X473500Y344549D01*
X472500D01*
X471525Y344355D01*
X471000Y344004D01*
X470476Y344355D01*
X469500Y344549D01*
X468500D01*
X467525Y344355D01*
X467000Y344004D01*
X466475Y344355D01*
X465500Y344549D01*
X464500D01*
X463525Y344355D01*
X463000Y344004D01*
X462476Y344355D01*
X461500Y344549D01*
X460500D01*
X459525Y344355D01*
X459000Y344004D01*
X458475Y344355D01*
X457500Y344549D01*
X456500D01*
X455525Y344355D01*
X455000Y344004D01*
X454475Y344355D01*
X453500Y344549D01*
X452500D01*
X451525Y344355D01*
X451000Y344004D01*
X450476Y344355D01*
X449500Y344549D01*
X448500D01*
X447525Y344355D01*
X447000Y344004D01*
X446475Y344355D01*
X445449Y345508D01*
X445394Y346525D01*
X445549Y346738D01*
X445851Y347153D01*
X445851Y347155D01*
X445852Y347156D01*
X445968Y347638D01*
X446088Y348135D01*
X446087Y348137D01*
X446088Y348138D01*
X446150Y349721D01*
X446213Y350287D01*
X446298Y350785D01*
X446396Y351184D01*
X446496Y351477D01*
X446582Y351662D01*
X446635Y351746D01*
X446636Y351747D01*
X446770Y351856D01*
X446781Y351870D01*
X446796Y351878D01*
X446805Y351889D01*
X446988Y352012D01*
X447365Y352576D01*
X447414Y352635D01*
X447419Y352651D01*
X447430Y352664D01*
X447434Y352679D01*
X448019Y353555D01*
X448256Y354743D01*
X450295D01*
X450489Y353765D01*
X451401Y352401D01*
X452766Y351489D01*
X454000Y351244D01*
Y358000D01*
Y364756D01*
X452766Y364511D01*
X451401Y363599D01*
X450489Y362234D01*
X450295Y361257D01*
X448256D01*
X448019Y362445D01*
X446988Y363988D01*
X446931Y364335D01*
X447213Y364702D01*
X447872Y366293D01*
X448096Y368000D01*
X447872Y369707D01*
X447767Y369961D01*
X449103Y371961D01*
X454083D01*
X454280Y372000D01*
X454481D01*
X454667Y372077D01*
X454864Y372116D01*
X455031Y372228D01*
X455071Y372244D01*
X456500Y372529D01*
X457929Y372244D01*
X457969Y372228D01*
X458136Y372116D01*
X458333Y372077D01*
X458519Y372000D01*
X458720D01*
X458917Y371961D01*
X464083D01*
X464280Y372000D01*
X464481D01*
X464667Y372077D01*
X464864Y372116D01*
X465031Y372228D01*
X465071Y372244D01*
X466500Y372529D01*
X467929Y372244D01*
D02*
G37*
G36*
X467911Y396092D02*
X468570Y395538D01*
X469192Y395091D01*
X469778Y394750D01*
X470327Y394515D01*
X470841Y394387D01*
X471318Y394365D01*
X471758Y394449D01*
X472163Y394640D01*
X472531Y394936D01*
X467264Y389669D01*
X467560Y390037D01*
X467751Y390442D01*
X467835Y390882D01*
X467813Y391359D01*
X467685Y391872D01*
X467450Y392422D01*
X467109Y393008D01*
X466662Y393630D01*
X466108Y394289D01*
X465449Y394984D01*
X467216Y396751D01*
X467911Y396092D01*
D02*
G37*
G36*
X479946Y396249D02*
X479972Y395969D01*
X480016Y395724D01*
X480077Y395512D01*
X480155Y395334D01*
X480250Y395190D01*
X480363Y395080D01*
X480493Y395004D01*
X480641Y394962D01*
X480806Y394953D01*
X477031Y394769D01*
X477014Y394775D01*
X476998Y394821D01*
X476984Y394904D01*
X476971Y395026D01*
X476946Y395621D01*
X476938Y396562D01*
X479938D01*
X479946Y396249D01*
D02*
G37*
G36*
X419201Y310626D02*
X419370Y310330D01*
X419544Y310065D01*
X419725Y309830D01*
X419910Y309626D01*
X420102Y309454D01*
X420299Y309312D01*
X420502Y309200D01*
X420710Y309120D01*
X420925Y309070D01*
X419673Y307302D01*
X419309Y307405D01*
X417581Y307780D01*
X417452Y307785D01*
X417352Y307778D01*
X419038Y310954D01*
X419201Y310626D01*
D02*
G37*
G36*
X398598Y284858D02*
X398604Y284838D01*
X398556Y284819D01*
X398455Y284803D01*
X398300Y284789D01*
X397516Y284760D01*
X396250Y284750D01*
Y287750D01*
X396571Y287757D01*
X396855Y287780D01*
X397102Y287818D01*
X397311Y287870D01*
X397483Y287938D01*
X397618Y288021D01*
X397715Y288119D01*
X397775Y288232D01*
X397797Y288360D01*
X397782Y288503D01*
X398598Y284858D01*
D02*
G37*
G36*
X396019Y283898D02*
X395786Y283661D01*
X395085Y282859D01*
X394968Y282695D01*
X394873Y282546D01*
X394802Y282412D01*
X394753Y282292D01*
X394728Y282187D01*
X392187Y284728D01*
X392292Y284753D01*
X392412Y284802D01*
X392546Y284873D01*
X392695Y284968D01*
X392859Y285085D01*
X393231Y285390D01*
X393661Y285786D01*
X393898Y286019D01*
X396019Y283898D01*
D02*
G37*
G36*
X454305Y432930D02*
X454316Y432420D01*
X454411Y431970D01*
X454589Y431580D01*
X454850Y431250D01*
X455195Y430980D01*
X455623Y430770D01*
X456134Y430620D01*
X456730Y430530D01*
X457408Y430500D01*
X456700Y427500D01*
X456125Y427496D01*
X453710Y427326D01*
X453480Y427273D01*
X453299Y427212D01*
X453168Y427145D01*
X454378Y433500D01*
X454305Y432930D01*
D02*
G37*
G36*
X415060Y290441D02*
X414421Y290141D01*
X413884Y289841D01*
X413447Y289541D01*
X413111Y289242D01*
X412876Y288944D01*
X412741Y288646D01*
X412708Y288348D01*
X412775Y288051D01*
X412944Y287754D01*
X413213Y287458D01*
X409123Y291246D01*
X409657Y291255D01*
X411174Y291384D01*
X411651Y291462D01*
X412560Y291669D01*
X412992Y291799D01*
X413813Y292110D01*
X415060Y290441D01*
D02*
G37*
G36*
X451969Y417504D02*
X452025Y417079D01*
X452118Y416674D01*
X452135Y416626D01*
X452280Y416624D01*
X452217Y416526D01*
X452190Y416465D01*
X452249Y416291D01*
X452417Y415927D01*
X452623Y415584D01*
X452866Y415262D01*
X453147Y414961D01*
X453465Y414680D01*
X453820Y414420D01*
X446980D01*
X447354Y414692D01*
X447689Y414982D01*
X447985Y415290D01*
X448241Y415617D01*
X448457Y415961D01*
X448635Y416323D01*
X448732Y416590D01*
X448686Y416668D01*
X448760Y416667D01*
X448773Y416702D01*
X448871Y417100D01*
X448930Y417516D01*
X448950Y417950D01*
X451950D01*
X451969Y417504D01*
D02*
G37*
G36*
X440979Y419712D02*
X440765Y419489D01*
X440394Y419057D01*
X440239Y418848D01*
X440104Y418643D01*
X439989Y418443D01*
X439894Y418247D01*
X439819Y418056D01*
X439763Y417869D01*
X439728Y417687D01*
X437187Y420228D01*
X437369Y420263D01*
X437556Y420319D01*
X437747Y420394D01*
X437943Y420489D01*
X438143Y420604D01*
X438348Y420739D01*
X438557Y420895D01*
X438989Y421264D01*
X439212Y421479D01*
X440979Y419712D01*
D02*
G37*
G36*
X492820Y285503D02*
X492639Y285694D01*
X492448Y285870D01*
X492247Y286033D01*
X492036Y286180D01*
X491815Y286314D01*
X491584Y286433D01*
X491344Y286538D01*
X491093Y286629D01*
X490833Y286705D01*
X490562Y286768D01*
X490955Y288729D01*
X491228Y288682D01*
X491498Y288653D01*
X491764Y288640D01*
X492027Y288645D01*
X492285Y288666D01*
X492541Y288704D01*
X492792Y288760D01*
X493040Y288832D01*
X493284Y288921D01*
X493525Y289028D01*
X492820Y285503D01*
D02*
G37*
G36*
X550558Y269368D02*
X558135D01*
X557824Y269114D01*
X557547Y268793D01*
X557301Y268402D01*
X557089Y267943D01*
X556909Y267415D01*
X556762Y266818D01*
X556647Y266152D01*
X556565Y265417D01*
X556500Y263742D01*
X551500D01*
X551484Y264614D01*
X551353Y266152D01*
X551238Y266818D01*
X551091Y267415D01*
X550911Y267943D01*
X550699Y268402D01*
X550454Y268793D01*
X550176Y269114D01*
X550053Y269214D01*
X549543Y269480D01*
X548991Y269720D01*
X548411Y269927D01*
X547801Y270103D01*
X547162Y270247D01*
X546494Y270359D01*
X545999Y270403D01*
X545504Y270359D01*
X544835Y270247D01*
X544196Y270103D01*
X543587Y269927D01*
X543006Y269720D01*
X542455Y269480D01*
X541933Y269208D01*
X541440Y268904D01*
Y277101D01*
X541933Y276797D01*
X542455Y276525D01*
X543006Y276286D01*
X543587Y276078D01*
X544196Y275902D01*
X544835Y275758D01*
X545504Y275646D01*
X545999Y275602D01*
X546494Y275646D01*
X547162Y275758D01*
X547801Y275902D01*
X548411Y276078D01*
X548991Y276286D01*
X549543Y276525D01*
X550065Y276797D01*
X550558Y277101D01*
Y269368D01*
D02*
G37*
G36*
X348839Y278286D02*
X349641Y277585D01*
X349805Y277468D01*
X349954Y277373D01*
X350088Y277302D01*
X350208Y277253D01*
X350313Y277228D01*
X347772Y274687D01*
X347747Y274792D01*
X347698Y274912D01*
X347627Y275046D01*
X347532Y275195D01*
X347415Y275359D01*
X347110Y275730D01*
X346714Y276161D01*
X346481Y276398D01*
X348602Y278519D01*
X348839Y278286D01*
D02*
G37*
G36*
X398598Y273856D02*
X398604Y273835D01*
X398556Y273817D01*
X398455Y273801D01*
X398300Y273787D01*
X397514Y273757D01*
X396247Y273748D01*
Y276747D01*
X396570Y276755D01*
X396854Y276778D01*
X397101Y276815D01*
X397311Y276868D01*
X397483Y276936D01*
X397618Y277020D01*
X397715Y277118D01*
X397775Y277232D01*
X397797Y277360D01*
X397782Y277504D01*
X398598Y273856D01*
D02*
G37*
G36*
X491146Y276203D02*
X491054Y276259D01*
X490935Y276310D01*
X490789Y276355D01*
X490617Y276393D01*
X490418Y276426D01*
X489940Y276473D01*
X489355Y276497D01*
X489023Y276500D01*
Y279500D01*
X489355Y279503D01*
X490418Y279574D01*
X490617Y279607D01*
X490789Y279646D01*
X490935Y279690D01*
X491054Y279741D01*
X491146Y279797D01*
Y276203D01*
D02*
G37*
G36*
X477949Y280620D02*
X477972Y280280D01*
X478046Y279980D01*
X478172Y279720D01*
X478349Y279500D01*
X478578Y279320D01*
X478858Y279180D01*
X479190Y279080D01*
X479573Y279020D01*
X479666Y279016D01*
X481940Y279061D01*
Y276939D01*
X481898Y276950D01*
X481798Y276961D01*
X481421Y276978D01*
X478882Y277000D01*
Y277034D01*
X477533Y277123D01*
X477331Y277177D01*
X477227Y277241D01*
X477220Y277315D01*
X477311Y277398D01*
X477500Y277492D01*
X477978Y281000D01*
X477949Y280620D01*
D02*
G37*
G36*
X414582Y280668D02*
X414040Y280098D01*
X413588Y279562D01*
X413227Y279060D01*
X412955Y278593D01*
X412773Y278159D01*
X412681Y277759D01*
X412679Y277394D01*
X412767Y277062D01*
X412945Y276764D01*
X413213Y276501D01*
X408598Y280139D01*
X409230Y280272D01*
X411274Y280845D01*
X411664Y280999D01*
X412006Y281157D01*
X412300Y281320D01*
X412546Y281486D01*
X412743Y281658D01*
X414582Y280668D01*
D02*
G37*
G36*
X433114Y278386D02*
X433707Y277793D01*
X433539Y277619D01*
X433476Y277547D01*
X433500Y277492D01*
X433468Y277478D01*
X433410Y277435D01*
X433325Y277365D01*
X433293Y277335D01*
X433250Y277284D01*
X433129Y277124D01*
X433023Y276968D01*
X432934Y276816D01*
X432860Y276668D01*
X432802Y276526D01*
X432759Y276387D01*
X432733Y276253D01*
X432453Y276533D01*
X431992Y276078D01*
X430578Y277492D01*
X430959Y277893D01*
X431020Y277965D01*
X430753Y278232D01*
X430887Y278259D01*
X431026Y278302D01*
X431169Y278360D01*
X431316Y278433D01*
X431465Y278522D01*
X431565Y278657D01*
X431788Y279019D01*
X431959Y279368D01*
X432077Y279703D01*
X432143Y280026D01*
X432155Y280335D01*
X432115Y280631D01*
X432022Y280914D01*
X433114Y278386D01*
D02*
G37*
G36*
X404348Y302675D02*
X404134Y302596D01*
X403928Y302489D01*
X403731Y302356D01*
X403543Y302195D01*
X403363Y302008D01*
X403191Y301794D01*
X403028Y301554D01*
X402874Y301286D01*
X402729Y300991D01*
X402591Y300670D01*
X400719Y303739D01*
X400857Y303734D01*
X401016Y303744D01*
X401197Y303768D01*
X401399Y303806D01*
X401868Y303928D01*
X402422Y304107D01*
X403063Y304345D01*
X404348Y302675D01*
D02*
G37*
G36*
X498831Y291077D02*
X498602Y291206D01*
X498368Y291319D01*
X498129Y291415D01*
X497884Y291495D01*
X497633Y291558D01*
X497378Y291605D01*
X497117Y291635D01*
X496851Y291648D01*
X496580Y291645D01*
X496303Y291625D01*
X496104Y293615D01*
X496379Y293651D01*
X496646Y293702D01*
X496904Y293768D01*
X497154Y293848D01*
X497395Y293945D01*
X497628Y294056D01*
X497852Y294183D01*
X498068Y294324D01*
X498275Y294481D01*
X498474Y294653D01*
X498831Y291077D01*
D02*
G37*
G36*
X411203Y297512D02*
X410994Y297387D01*
X410796Y297242D01*
X410611Y297077D01*
X410438Y296892D01*
X410277Y296687D01*
X410129Y296462D01*
X409993Y296217D01*
X409869Y295951D01*
X409757Y295666D01*
X409657Y295360D01*
X407519Y298250D01*
X407709Y298257D01*
X407908Y298280D01*
X408118Y298320D01*
X408338Y298376D01*
X408569Y298449D01*
X409060Y298645D01*
X409321Y298768D01*
X409874Y299063D01*
X411203Y297512D01*
D02*
G37*
%LPC*%
G36*
X583916Y215287D02*
X582213Y213584D01*
X582506Y213642D01*
X583316Y214184D01*
X583858Y214994D01*
X583916Y215287D01*
D02*
G37*
G36*
X582213Y246416D02*
X583916Y244713D01*
X583858Y245006D01*
X583316Y245816D01*
X582506Y246358D01*
X582213Y246416D01*
D02*
G37*
G36*
X549833Y12500D02*
X546003D01*
Y8244D01*
X547237Y8489D01*
X548601Y9401D01*
X549513Y10766D01*
X549833Y12375D01*
Y12500D01*
D02*
G37*
G36*
X543500Y49000D02*
X539244D01*
X539489Y47765D01*
X540401Y46401D01*
X541766Y45489D01*
X543375Y45169D01*
X543500D01*
Y49000D01*
D02*
G37*
G36*
X546003Y21756D02*
Y17500D01*
X549833D01*
Y17625D01*
X549513Y19234D01*
X548601Y20599D01*
X547237Y21511D01*
X546003Y21756D01*
D02*
G37*
G36*
X552756Y49000D02*
X548500D01*
Y45169D01*
X548625D01*
X550234Y45489D01*
X551599Y46401D01*
X552511Y47765D01*
X552756Y49000D01*
D02*
G37*
G36*
X538500Y203500D02*
X537452D01*
Y202450D01*
X537642Y201494D01*
X538184Y200684D01*
X538500Y200472D01*
Y203500D01*
D02*
G37*
G36*
Y259528D02*
X538184Y259316D01*
X537642Y258506D01*
X537452Y257550D01*
Y256500D01*
X538500D01*
Y259528D01*
D02*
G37*
G36*
X449500Y48500D02*
X436077D01*
X440780Y41783D01*
X440667Y41825D01*
X440462Y41760D01*
X440166Y41586D01*
X439779Y41305D01*
X439300Y40917D01*
X438132Y39850D01*
X449500D01*
Y48500D01*
D02*
G37*
G36*
X485003Y33500D02*
X477256D01*
X477135Y30996D01*
X477113Y31187D01*
X477025Y31358D01*
X476873Y31508D01*
X476657Y31639D01*
X476376Y31749D01*
X476030Y31839D01*
X475619Y31910D01*
X475144Y31960D01*
X475104Y31961D01*
Y31750D01*
X475495Y29780D01*
X476612Y28109D01*
X478282Y26993D01*
X480252Y26601D01*
X485003D01*
Y27464D01*
X484750Y27775D01*
X484420Y28048D01*
X484030Y28260D01*
X483580Y28412D01*
X483070Y28503D01*
X482500Y28533D01*
X485003D01*
Y33500D01*
D02*
G37*
G36*
X449500Y60150D02*
X437550D01*
X435560Y59754D01*
X433873Y58627D01*
X432746Y56940D01*
X432350Y54950D01*
Y51500D01*
X449500D01*
Y60150D01*
D02*
G37*
G36*
X368269Y26000D02*
X366500D01*
Y21626D01*
X367500D01*
X368983Y21920D01*
X370240Y22760D01*
X370914Y23770D01*
X368269Y23645D01*
Y26000D01*
D02*
G37*
G36*
X474854Y132500D02*
X458500D01*
Y124646D01*
X469450D01*
X471518Y125057D01*
X473271Y126229D01*
X474442Y127982D01*
X474854Y130050D01*
Y132500D01*
D02*
G37*
G36*
X453500D02*
X437146D01*
Y130050D01*
X437557Y127982D01*
X438729Y126229D01*
X440482Y125057D01*
X442550Y124646D01*
X453500D01*
Y132500D01*
D02*
G37*
G36*
Y145354D02*
X442550D01*
X440482Y144943D01*
X438729Y143771D01*
X437557Y142018D01*
X437146Y139950D01*
Y137500D01*
X453500D01*
Y145354D01*
D02*
G37*
G36*
X469450D02*
X458500D01*
Y137500D01*
X474854D01*
Y139950D01*
X474442Y142018D01*
X473271Y143771D01*
X471518Y144943D01*
X469450Y145354D01*
D02*
G37*
G36*
X422500Y196603D02*
X421750D01*
X419701Y196195D01*
X417965Y195035D01*
X416805Y193298D01*
X416397Y191250D01*
Y187500D01*
X422500D01*
Y196603D01*
D02*
G37*
G36*
X446500Y198578D02*
D01*
Y195000D01*
X450479D01*
X450268Y196061D01*
X449384Y197384D01*
X448061Y198268D01*
X446500Y198578D01*
D02*
G37*
G36*
X441500D02*
X439939Y198268D01*
X438616Y197384D01*
X437732Y196061D01*
X437521Y195000D01*
X441500D01*
Y198578D01*
D02*
G37*
G36*
X428250Y196603D02*
X427500D01*
Y187500D01*
X433603D01*
Y191250D01*
X433195Y193298D01*
X432035Y195035D01*
X430298Y196195D01*
X428250Y196603D01*
D02*
G37*
G36*
X422500Y182500D02*
X416397D01*
Y178750D01*
X416805Y176702D01*
X417965Y174965D01*
X419701Y173805D01*
X421750Y173397D01*
X422500D01*
Y182500D01*
D02*
G37*
G36*
X450479Y190000D02*
X446500D01*
Y186422D01*
X448061Y186732D01*
X449384Y187616D01*
X450268Y188939D01*
X450479Y190000D01*
D02*
G37*
G36*
X441500D02*
X437521D01*
X437732Y188939D01*
X438616Y187616D01*
X439939Y186732D01*
X441500Y186422D01*
D01*
Y190000D01*
D02*
G37*
G36*
X433603Y182500D02*
X427500D01*
Y173397D01*
X428250D01*
X430298Y173805D01*
X432035Y174965D01*
X433195Y176702D01*
X433603Y178750D01*
Y182500D01*
D02*
G37*
G36*
X363500Y48375D02*
X362500D01*
X361017Y48080D01*
X359760Y47240D01*
X358921Y45983D01*
X358626Y44500D01*
Y44000D01*
X363500D01*
Y48375D01*
D02*
G37*
G36*
X367500D02*
X366500D01*
Y44000D01*
X371374D01*
Y44500D01*
X371079Y45983D01*
X370240Y47240D01*
X368983Y48080D01*
X367500Y48375D01*
D02*
G37*
G36*
X333400Y154900D02*
X328882D01*
Y148413D01*
X328062Y148981D01*
X327188Y149488D01*
X326260Y149937D01*
X325277Y150325D01*
X324549Y150555D01*
X324593Y150449D01*
X326484Y147984D01*
X328949Y146093D01*
X331820Y144904D01*
X333400Y144696D01*
Y154900D01*
D02*
G37*
G36*
X346604D02*
X336400D01*
Y144696D01*
X337980Y144904D01*
X340851Y146093D01*
X343316Y147984D01*
X345207Y150449D01*
X346396Y153320D01*
X346604Y154900D01*
D02*
G37*
G36*
X336400Y168104D02*
Y157900D01*
X346604D01*
X346396Y159480D01*
X345207Y162351D01*
X343316Y164816D01*
X340851Y166707D01*
X337980Y167896D01*
X336400Y168104D01*
D02*
G37*
G36*
X333400Y168104D02*
X331820Y167896D01*
X328949Y166707D01*
X326484Y164816D01*
X324593Y162351D01*
X324549Y162244D01*
X325277Y162475D01*
X326260Y162864D01*
X327188Y163312D01*
X328062Y163819D01*
X328882Y164387D01*
Y157900D01*
X333400D01*
Y168104D01*
D02*
G37*
G36*
X332000Y51982D02*
X330939Y51771D01*
X329616Y50886D01*
X328732Y49563D01*
X328422Y48003D01*
X332000D01*
Y51982D01*
D02*
G37*
G36*
X337000Y51982D02*
Y48003D01*
X340578D01*
X340268Y49563D01*
X339384Y50886D01*
X338061Y51771D01*
X337000Y51982D01*
D02*
G37*
G36*
X340578Y43003D02*
X337000D01*
Y39024D01*
X338061Y39235D01*
X339384Y40119D01*
X340268Y41442D01*
X340578Y43003D01*
Y43003D01*
D02*
G37*
G36*
X332000D02*
X328422D01*
Y43003D01*
X328732Y41442D01*
X329616Y40119D01*
X330939Y39235D01*
X332000Y39024D01*
Y43003D01*
D02*
G37*
G36*
X297000Y58750D02*
X294179D01*
Y58625D01*
X294460Y57211D01*
X295261Y56012D01*
X296461Y55210D01*
X297000Y55103D01*
Y58750D01*
D02*
G37*
G36*
X592239Y103723D02*
X591517Y103580D01*
X590260Y102740D01*
X589421Y101483D01*
X589126Y100000D01*
Y99000D01*
X593500D01*
Y100768D01*
X591145D01*
X591402Y101195D01*
X591633Y101663D01*
X591836Y102173D01*
X592012Y102724D01*
X592161Y103318D01*
X592239Y103723D01*
D02*
G37*
G36*
X593500Y96000D02*
X589126D01*
Y95000D01*
X589421Y93517D01*
X590260Y92260D01*
X591517Y91420D01*
X592232Y91278D01*
X592012Y92276D01*
X591836Y92827D01*
X591633Y93337D01*
X591402Y93805D01*
X591145Y94232D01*
X593500D01*
Y96000D01*
D02*
G37*
G36*
X593500Y136000D02*
X589126D01*
Y135000D01*
X589421Y133517D01*
X590260Y132260D01*
X591517Y131420D01*
X592232Y131278D01*
X592012Y132276D01*
X591836Y132827D01*
X591633Y133337D01*
X591402Y133805D01*
X591145Y134232D01*
X593500D01*
Y136000D01*
D02*
G37*
G36*
X592239Y143723D02*
X591517Y143580D01*
X590260Y142740D01*
X589421Y141483D01*
X589126Y140000D01*
Y139000D01*
X593500D01*
Y140768D01*
X591145D01*
X591402Y141195D01*
X591633Y141663D01*
X591836Y142173D01*
X592012Y142724D01*
X592161Y143318D01*
X592239Y143723D01*
D02*
G37*
G36*
X396826Y328503D02*
X394403D01*
X394441Y328311D01*
X395187Y327194D01*
X396303Y326448D01*
X397475Y326215D01*
X397424Y326872D01*
X397364Y327249D01*
X397288Y327585D01*
X397194Y327881D01*
X397084Y328136D01*
X396956Y328350D01*
X396832Y328500D01*
X396826Y328503D01*
D02*
G37*
G36*
X386000Y324338D02*
X384244Y323989D01*
X382756Y322994D01*
X381761Y321506D01*
X381412Y319750D01*
Y319213D01*
X381527Y319258D01*
X382173Y319591D01*
X382764Y319985D01*
X383303Y320439D01*
X383788Y320955D01*
X384220Y321530D01*
Y317500D01*
X386000D01*
Y324338D01*
D02*
G37*
G36*
X391000Y324338D02*
X391000D01*
Y317500D01*
X395588D01*
Y319750D01*
X395239Y321506D01*
X394244Y322994D01*
X392756Y323989D01*
X391000Y324338D01*
D02*
G37*
G36*
X416500Y270590D02*
X416308Y270552D01*
X415192Y269806D01*
X414446Y268689D01*
X414308Y267997D01*
X416500D01*
Y270590D01*
D02*
G37*
G36*
X395588Y312500D02*
X391000D01*
Y305662D01*
X391000D01*
X392756Y306011D01*
X394244Y307006D01*
X395239Y308494D01*
X395588Y310250D01*
Y312500D01*
D02*
G37*
G36*
X386000D02*
X384220D01*
Y308470D01*
X383788Y309045D01*
X383303Y309561D01*
X382764Y310015D01*
X382173Y310409D01*
X381527Y310742D01*
X381412Y310787D01*
Y310250D01*
X381761Y308494D01*
X382756Y307006D01*
X384244Y306011D01*
X386000Y305662D01*
Y312500D01*
D02*
G37*
G36*
X560756Y285503D02*
X556500D01*
Y281672D01*
X556625D01*
X558234Y281992D01*
X559599Y282904D01*
X560511Y284268D01*
X560756Y285503D01*
D02*
G37*
G36*
X535498Y294333D02*
X535373D01*
X533763Y294013D01*
X532398Y293102D01*
X531487Y291737D01*
X531241Y290502D01*
X535498D01*
Y294333D01*
D02*
G37*
G36*
X551500Y285503D02*
X547244D01*
X547489Y284268D01*
X548401Y282904D01*
X549766Y281992D01*
X551375Y281672D01*
X551500D01*
Y285503D01*
D02*
G37*
G36*
X540622Y294333D02*
X540497D01*
Y290502D01*
X544754D01*
X544508Y291737D01*
X543596Y293102D01*
X542232Y294013D01*
X540622Y294333D01*
D02*
G37*
G36*
X551500D02*
X551375D01*
X549766Y294013D01*
X548401Y293102D01*
X547489Y291737D01*
X547244Y290502D01*
X551500D01*
Y294333D01*
D02*
G37*
G36*
X556625D02*
X556500D01*
Y290502D01*
X560756D01*
X560511Y291737D01*
X559599Y293102D01*
X558234Y294013D01*
X556625Y294333D01*
D02*
G37*
G36*
X346674Y103100D02*
X337400D01*
Y93826D01*
X338033Y93909D01*
X340952Y95118D01*
X343459Y97042D01*
X345382Y99548D01*
X346591Y102467D01*
X346674Y103100D01*
D02*
G37*
G36*
X492752Y73603D02*
X489002D01*
Y67500D01*
X498105D01*
Y68250D01*
X497698Y70299D01*
X496538Y72035D01*
X494801Y73195D01*
X492752Y73603D01*
D02*
G37*
G36*
X396500Y47500D02*
X380146D01*
Y45050D01*
X380558Y42982D01*
X381729Y41229D01*
X383482Y40058D01*
X385550Y39646D01*
X396500D01*
Y47500D01*
D02*
G37*
G36*
X422854Y132500D02*
X406500D01*
Y124646D01*
X417450D01*
X419518Y125057D01*
X421271Y126229D01*
X422443Y127982D01*
X422854Y130050D01*
Y132500D01*
D02*
G37*
G36*
X417854Y47500D02*
X401500D01*
Y39646D01*
X412450D01*
X414518Y40058D01*
X416271Y41229D01*
X417443Y42982D01*
X417854Y45050D01*
Y47500D01*
D02*
G37*
G36*
X337400Y117374D02*
Y108100D01*
X346674D01*
X346591Y108733D01*
X345382Y111652D01*
X343459Y114158D01*
X340952Y116082D01*
X338033Y117291D01*
X337400Y117374D01*
D02*
G37*
G36*
X401500Y132500D02*
X385146D01*
Y130050D01*
X385558Y127982D01*
X386729Y126229D01*
X388482Y125057D01*
X390550Y124646D01*
X401500D01*
Y132500D01*
D02*
G37*
G36*
X484002Y73603D02*
X480252D01*
X478204Y73195D01*
X476468Y72035D01*
X475307Y70299D01*
X474900Y68250D01*
Y67500D01*
X484002D01*
Y73603D01*
D02*
G37*
G36*
X213821Y58750D02*
X211000D01*
Y55103D01*
X211539Y55210D01*
X212738Y56012D01*
X213540Y57211D01*
X213821Y58625D01*
Y58750D01*
D02*
G37*
G36*
X412450Y60354D02*
X401500D01*
Y52500D01*
X417854D01*
Y54950D01*
X417443Y57018D01*
X416271Y58771D01*
X414518Y59942D01*
X412450Y60354D01*
D02*
G37*
G36*
X396500D02*
X385550D01*
X383482Y59942D01*
X381729Y58771D01*
X380558Y57018D01*
X380146Y54950D01*
Y52500D01*
X396500D01*
Y60354D01*
D02*
G37*
G36*
X397100Y436500D02*
X393522D01*
Y429000D01*
X393832Y427439D01*
X394716Y426116D01*
X396039Y425232D01*
X397100Y425021D01*
Y436500D01*
D02*
G37*
G36*
X498105Y62500D02*
X489002D01*
Y56397D01*
X492752D01*
X494801Y56805D01*
X496538Y57965D01*
X497698Y59702D01*
X498105Y61750D01*
Y62500D01*
D02*
G37*
G36*
X484002D02*
X474900D01*
Y61750D01*
X475307Y59702D01*
X476468Y57965D01*
X478204Y56805D01*
X480252Y56397D01*
X484002D01*
Y62500D01*
D02*
G37*
G36*
X417450Y145354D02*
X406500D01*
Y137500D01*
X422854D01*
Y139950D01*
X422443Y142018D01*
X421271Y143771D01*
X419518Y144943D01*
X417450Y145354D01*
D02*
G37*
G36*
X401500D02*
X390550D01*
X388482Y144943D01*
X386729Y143771D01*
X385558Y142018D01*
X385146Y139950D01*
Y137500D01*
X401500D01*
Y145354D01*
D02*
G37*
G36*
X398250Y196603D02*
X397500D01*
Y187500D01*
X403603D01*
Y191250D01*
X403195Y193298D01*
X402035Y195035D01*
X400298Y196195D01*
X398250Y196603D01*
D02*
G37*
G36*
X392500D02*
X391750D01*
X389702Y196195D01*
X387965Y195035D01*
X386805Y193298D01*
X386397Y191250D01*
Y187500D01*
X392500D01*
Y196603D01*
D02*
G37*
G36*
X403603Y182500D02*
X397500D01*
Y173397D01*
X398250D01*
X400298Y173805D01*
X402035Y174965D01*
X403195Y176702D01*
X403603Y178750D01*
Y182500D01*
D02*
G37*
G36*
X392500D02*
X386397D01*
Y178750D01*
X386805Y176702D01*
X387965Y174965D01*
X389702Y173805D01*
X391750Y173397D01*
X392500D01*
Y182500D01*
D02*
G37*
G36*
X535579Y324286D02*
X535187Y323699D01*
X534925Y322382D01*
X535187Y321065D01*
X535296Y320902D01*
X537129Y322736D01*
X535579Y324286D01*
D02*
G37*
G36*
X519692Y325003D02*
X517500D01*
Y322410D01*
X517692Y322449D01*
X518808Y323194D01*
X519554Y324311D01*
X519692Y325003D01*
D02*
G37*
G36*
X541018Y328475D02*
X539701Y328213D01*
X539115Y327821D01*
X540665Y326271D01*
X542498Y328104D01*
X542335Y328213D01*
X541018Y328475D01*
D02*
G37*
G36*
X517500Y332595D02*
Y330003D01*
X519692D01*
X519554Y330695D01*
X518808Y331811D01*
X517692Y332557D01*
X517500Y332595D01*
D02*
G37*
G36*
X555379Y344085D02*
X554987Y343499D01*
X554725Y342182D01*
X554987Y340865D01*
X555096Y340703D01*
X556929Y342536D01*
X555379Y344085D01*
D02*
G37*
G36*
X512000Y348592D02*
Y346000D01*
X514192D01*
X514054Y346692D01*
X513308Y347808D01*
X512192Y348554D01*
X512000Y348592D01*
D02*
G37*
G36*
X486500Y359595D02*
Y357002D01*
X488692D01*
X488554Y357694D01*
X487808Y358811D01*
X486692Y359557D01*
X486500Y359595D01*
D02*
G37*
G36*
X431000Y234333D02*
X429342Y234003D01*
X427936Y233064D01*
X426997Y231658D01*
X426667Y230000D01*
X426997Y228342D01*
X427936Y226936D01*
X429342Y225997D01*
X431000Y225667D01*
X432658Y225997D01*
X434064Y226936D01*
X435003Y228342D01*
X435333Y230000D01*
X435003Y231658D01*
X434064Y233064D01*
X432658Y234003D01*
X431000Y234333D01*
D02*
G37*
G36*
X446500Y213578D02*
X446500D01*
Y210000D01*
X450479D01*
X450268Y211061D01*
X449384Y212384D01*
X448061Y213268D01*
X446500Y213578D01*
D02*
G37*
G36*
X441500D02*
X439939Y213268D01*
X438616Y212384D01*
X437732Y211061D01*
X437521Y210000D01*
X441500D01*
Y213578D01*
D02*
G37*
G36*
X433692Y251995D02*
X431613D01*
X431590Y251819D01*
X431569Y251537D01*
X431522Y249407D01*
X431692Y249441D01*
X432808Y250187D01*
X433554Y251303D01*
X433692Y251995D01*
D02*
G37*
G36*
X459000Y364756D02*
Y360500D01*
X462831D01*
Y360625D01*
X462511Y362234D01*
X461599Y363599D01*
X460234Y364511D01*
X459000Y364756D01*
D02*
G37*
G36*
X471500Y359595D02*
X471308Y359557D01*
X470192Y358811D01*
X469446Y357694D01*
X469308Y357003D01*
X471500D01*
Y359595D01*
D02*
G37*
G36*
Y352003D02*
X469308D01*
X469446Y351311D01*
X470192Y350194D01*
X471308Y349448D01*
X471500Y349410D01*
Y352003D01*
D02*
G37*
G36*
X462831Y355500D02*
X459000D01*
Y351244D01*
X460234Y351489D01*
X461599Y352401D01*
X462511Y353765D01*
X462831Y355375D01*
Y355500D01*
D02*
G37*
%LPD*%
D10*
X441500Y358000D02*
G03*
X441000Y356793I1207J-1207D01*
G01*
X484000Y354502D02*
G03*
X483000Y353503I0J-1000D01*
G01*
X494500Y343500D02*
G03*
X489500Y338500I0J-5000D01*
G01*
X422000Y340000D02*
G03*
X419580Y341003I-2420J-2420D01*
G01*
X422000Y340000D02*
G03*
X424414Y339000I2414J2414D01*
G01*
X420500Y332000D02*
G03*
X417500Y329000I0J-3000D01*
G01*
X502515Y325928D02*
G03*
X500894Y325436I176J-3496D01*
G01*
X483000Y338500D02*
Y353503D01*
X494500Y343500D02*
X499500D01*
X424414Y339000D02*
X429500D01*
X410498Y341003D02*
X419580D01*
X417500Y327000D02*
Y329000D01*
X500881Y325428D02*
X500894Y325436D01*
X502515Y325928D02*
X504000Y326003D01*
X505000Y327503D01*
X498504Y323992D02*
X500881Y325428D01*
X429000Y274500D02*
X431000Y276500D01*
X429000Y265497D02*
Y274500D01*
D11*
X417000Y310000D02*
G03*
X421828Y308000I4828J4828D01*
G01*
X417157Y300000D02*
G03*
X407500Y296000I0J-13657D01*
G01*
X487000Y332000D02*
G03*
X489500Y334500I0J2500D01*
G01*
X483000Y333000D02*
G03*
X484000Y332000I1000J0D01*
G01*
X406535Y304000D02*
G03*
X400500Y301500I0J-8536D01*
G01*
X456999Y261467D02*
G03*
X454500Y267500I-8532J0D01*
G01*
X453000Y271121D02*
G03*
X454500Y267500I5121J0D01*
G01*
X441999Y274849D02*
G03*
X441640Y275983I-2000J-10D01*
G01*
X441000Y278000D02*
G03*
X441640Y275983I3500J0D01*
G01*
X436933Y272378D02*
G03*
X437000Y272880I-1933J512D01*
G01*
Y269119D02*
G03*
X436933Y269622I-2000J-10D01*
G01*
X418403Y292000D02*
G03*
X410427Y288696I0J-11280D01*
G01*
X422621Y288000D02*
G03*
X419000Y286500I0J-5121D01*
G01*
X461000Y276035D02*
G03*
X463500Y270000I8535J0D01*
G01*
X468146Y265354D02*
G03*
X469000Y265000I854J854D01*
G01*
X474500Y260500D02*
G03*
X475000Y260000I500J0D01*
G01*
X465000Y277999D02*
G03*
X468758Y271500I7500J1D01*
G01*
X474500Y267447D02*
G03*
X472304Y270442I-3140J0D01*
G01*
X468758Y271500D02*
G03*
X471359Y270587I3742J6500D01*
G01*
X471359D02*
G03*
X471879Y270526I1141J7413D01*
G01*
X487001Y320000D02*
G03*
X493386Y321482I-1J14500D01*
G01*
X469000Y278000D02*
G03*
X472500Y274500I3500J0D01*
G01*
X480000Y267500D02*
G03*
X473000Y274500I-7000J0D01*
G01*
X489900Y292000D02*
G03*
X490099Y292010I-0J2000D01*
G01*
X489696Y287961D02*
G03*
X489302Y288000I-394J-1961D01*
G01*
X487000Y324000D02*
G03*
X493482Y326239I-0J10500D01*
G01*
X457000Y273121D02*
G03*
X458500Y269500I5121J0D01*
G01*
X462500Y260000D02*
G03*
X458611Y269389I-13278J0D01*
G01*
X437000Y342000D02*
G03*
X436300Y344100I-3500J0D01*
G01*
X487000Y328000D02*
G03*
X492200Y330600I-0J6500D01*
G01*
X411205Y278705D02*
G03*
X410498Y276998I1707J-1707D01*
G01*
X472304Y270442D02*
G03*
X471879Y270526I-597J-1909D01*
G01*
X436933Y272378D02*
G03*
X436773Y271500I5066J-1378D01*
G01*
D02*
G03*
X436933Y269622I5226J-501D01*
G01*
X421828Y308000D02*
X426000D01*
X417157Y300000D02*
X426000D01*
X489500Y334500D02*
Y338500D01*
X484000Y332000D02*
X487000D01*
X483000Y333000D02*
Y338500D01*
X406535Y304000D02*
X409000D01*
X453000Y271121D02*
Y281000D01*
X456999Y253072D02*
Y261467D01*
X441999Y274849D02*
Y274849D01*
X441000Y278000D02*
Y281000D01*
X441999Y271000D02*
Y274849D01*
X437000Y272880D02*
Y281000D01*
Y266000D02*
Y269119D01*
Y269119D01*
X420500Y332000D02*
X426000D01*
X420500D02*
X420500D01*
X418403Y292000D02*
X426000D01*
X422621Y288000D02*
X426000D01*
X411205Y278705D02*
X419000Y286500D01*
X463500Y270000D02*
X468146Y265354D01*
X461000Y276035D02*
Y281000D01*
X474500Y260500D02*
Y267447D01*
X471359Y270587D02*
X471359D01*
X465000Y278500D02*
X465000Y278000D01*
Y277999D02*
Y278000D01*
X493386Y321482D02*
X493500Y321538D01*
X472500Y274500D02*
X473000D01*
X469000Y278000D02*
Y281000D01*
X480000Y265000D02*
Y267500D01*
X490099Y292010D02*
X493500Y292350D01*
X484000Y288000D02*
X489302D01*
X489302Y288000D02*
Y288000D01*
X489302D02*
X489302D01*
X477000Y278000D02*
X483000D01*
X493482Y326239D02*
X493500Y326254D01*
X434500Y346500D02*
X436300Y344100D01*
X458500Y269500D02*
X458611Y269389D01*
X457000Y273121D02*
Y281000D01*
X429500Y339000D02*
X433000D01*
X429500Y339000D02*
X429500Y339000D01*
X441000D02*
Y347500D01*
X437000Y339000D02*
X437000Y342000D01*
X484000Y328000D02*
X487000D01*
X492200Y330600D02*
X493500Y332333D01*
X484000Y324000D02*
X487000D01*
X493500Y326254D02*
X496853Y328884D01*
X497052Y329064D02*
X499265Y331341D01*
X484000Y320000D02*
X487001D01*
X493500Y321538D02*
X498504Y323992D01*
X416500Y304000D02*
X426000D01*
X409000Y304000D02*
X416500Y304000D01*
X449000Y262300D02*
Y281000D01*
X469000Y281000D02*
Y281000D01*
X465000Y278500D02*
Y281000D01*
X436999Y266000D02*
X437000D01*
X431000Y276500D02*
X431000D01*
X433000Y278500D01*
Y281000D01*
X489696Y287961D02*
X493500Y287200D01*
X494500Y287000D01*
X484000Y292000D02*
X489900D01*
X493500Y292350D02*
X500000Y293000D01*
X494999Y334323D02*
Y334999D01*
X493500Y332824D02*
X494999Y334323D01*
X493500Y332333D02*
Y332824D01*
X503453Y335543D02*
X503511D01*
X499265Y331355D02*
X503453Y335543D01*
X499265Y331341D02*
Y331355D01*
X477000Y278000D02*
Y281000D01*
X460000Y242000D02*
Y250071D01*
X456999Y253072D02*
X460000Y250071D01*
X445000Y339000D02*
Y343722D01*
X447278Y346000D02*
X448000D01*
X445000Y343722D02*
X447278Y346000D01*
X445000Y320000D02*
Y339000D01*
Y320000D02*
X446000Y319000D01*
X455000Y310000D01*
X457000Y312000D01*
X484000D01*
X488450D02*
X491000Y314550D01*
X484000Y312000D02*
X488450D01*
X484000Y308000D02*
X491000D01*
D12*
X412590Y319797D02*
G03*
X413184Y319842I-86J4999D01*
G01*
X408097Y357505D02*
G03*
X417103Y348500I9005J0D01*
G01*
X413794Y319926D02*
G03*
X417500Y324600I-1094J4674D01*
G01*
X440800Y358700D02*
X441500Y358000D01*
X441000Y347500D02*
Y356793D01*
X610300Y137200D02*
X640700D01*
X610650Y98150D02*
X640350D01*
X486500Y253000D02*
X502000D01*
X413184Y319842D02*
X413794Y319926D01*
X409997Y319750D02*
X412590Y319797D01*
X372500Y382500D02*
X479800D01*
X371383Y383617D02*
X372500Y382500D01*
X417103Y348500D02*
X424000D01*
X576000Y70000D02*
X583000D01*
X566000D02*
X576000D01*
X537998Y273002D02*
X554000D01*
X522002D02*
X537998D01*
X388897Y357505D02*
X390848Y359455D01*
X427000Y359000D02*
X427300Y358700D01*
X440800D01*
X399495Y341003D02*
X410498D01*
X399495Y341003D02*
X399495Y341003D01*
X367500Y341003D02*
X399495D01*
X366500Y245000D02*
X367500Y246000D01*
X302500Y245000D02*
X366500D01*
X367500Y246000D02*
Y341003D01*
Y382500D01*
X372500D01*
X371000Y392500D02*
X371383Y392117D01*
Y383617D02*
Y392117D01*
X429000Y254495D02*
Y265497D01*
X610000Y97500D02*
X610650Y98150D01*
X640350D02*
X641000Y98800D01*
X610000Y137500D02*
X610300Y137200D01*
X640700D02*
X641000Y136900D01*
X595000Y137500D02*
X595000Y137500D01*
X595000Y97500D02*
Y137500D01*
X554000Y262500D02*
Y273002D01*
X595000Y137500D02*
Y167000D01*
X499500Y343500D02*
Y354502D01*
X457500Y232500D02*
X466000D01*
X476233Y170000D02*
X546000D01*
X457500Y210500D02*
Y232500D01*
X367500Y242929D02*
X370429Y240000D01*
X367500Y242929D02*
Y246000D01*
X370429Y240000D02*
X429000D01*
Y254495D01*
X583000Y70000D02*
X595000Y82000D01*
Y97500D01*
X479800Y382500D02*
X484000Y378300D01*
X606000Y178000D02*
X626571D01*
X626701Y177870D01*
X595000Y167000D02*
X606000Y178000D01*
X626701Y177870D02*
X638130D01*
X641000Y175000D01*
X502000Y253000D02*
X522002Y273002D01*
X466000Y232500D02*
X486500Y253000D01*
X425740Y369960D02*
X426700Y369000D01*
X390848Y367031D02*
X393776Y369960D01*
X426700Y369000D02*
X427000D01*
X393776Y369960D02*
X425740D01*
X390848Y359455D02*
Y367031D01*
X407497Y315000D02*
X409997Y319750D01*
X406500Y315000D02*
X407497D01*
X271500Y44500D02*
X280617Y53617D01*
X284617D01*
X285000Y54000D01*
X270000Y39000D02*
X271500Y40500D01*
Y44500D01*
X257000Y39000D02*
X270000D01*
X335000Y15000D02*
Y29000D01*
X349250Y45253D02*
X349500Y45503D01*
X349250Y29250D02*
Y45253D01*
X349000Y29000D02*
X349250Y29250D01*
X523200Y52500D02*
Y54500D01*
X519200Y48500D02*
X523200Y52500D01*
X488003Y36500D02*
X490039Y38537D01*
X504000Y48500D02*
X519200D01*
X493445Y38537D02*
X493908Y39000D01*
X494500D01*
X490039Y38537D02*
X493445D01*
X494500Y39000D02*
X504000Y48500D01*
D13*
X522914Y217000D02*
G03*
X520500Y216000I0J-3414D01*
G01*
X503000Y200500D02*
G03*
X506414Y201914I0J4828D01*
G01*
X521828Y223500D02*
G03*
X517000Y221500I0J-6828D01*
G01*
X504500Y211500D02*
G03*
X508768Y213268I0J6036D01*
G01*
X522121Y236500D02*
G03*
X518500Y235000I0J-5121D01*
G01*
X506845Y223345D02*
G03*
X506846Y223346I-2047J2050D01*
G01*
X504797Y222498D02*
G03*
X506845Y223345I0J2897D01*
G01*
X518328Y243000D02*
G03*
X513500Y241000I0J-6828D01*
G01*
X506849Y234349D02*
G03*
X506850Y234350I-2052J2054D01*
G01*
X504797Y233500D02*
G03*
X506849Y234349I0J2903D01*
G01*
X522914Y217000D02*
X530000D01*
X506414Y201914D02*
X520500Y216000D01*
X497805Y200500D02*
X503000D01*
X521828Y223500D02*
X530000D01*
X508768Y213268D02*
X517000Y221500D01*
X497803Y211500D02*
X504500D01*
X522121Y236500D02*
X530000D01*
X506846Y223346D02*
X518500Y235000D01*
X506845Y223345D02*
X506846Y223346D01*
X518328Y243000D02*
X530000D01*
X506850Y234350D02*
X513500Y241000D01*
X506849Y234349D02*
X506850Y234350D01*
X497798Y211495D02*
X497803Y211500D01*
X497798Y200492D02*
X497805Y200500D01*
X495195Y233498D02*
X495197Y233500D01*
X461000Y401200D02*
Y418000D01*
Y401200D02*
X470200Y392000D01*
X455250Y423750D02*
X461000Y418000D01*
X437500Y418000D02*
X443250Y423750D01*
X455250D01*
D14*
X434500Y346500D02*
G03*
X429672Y348500I-4828J-4828D01*
G01*
X424000D02*
X429672D01*
X486502Y65000D02*
X487503Y64000D01*
X410495Y331000D02*
X410498Y331003D01*
X417500Y324600D02*
Y327000D01*
X399500Y325500D02*
Y330998D01*
X399495Y331003D02*
X399497Y331000D01*
X399500Y330998D01*
X390000Y331000D02*
X399497D01*
X410495D01*
X500796Y55904D02*
X507807D01*
X510150Y58247D01*
Y62900D01*
X510250Y63000D01*
X500700Y56000D02*
X500796Y55904D01*
X425000Y422000D02*
Y439000D01*
X435700Y437000D02*
X437700Y439000D01*
X433357Y423000D02*
X435700Y425343D01*
Y437000D01*
X429500Y423000D02*
X433357D01*
D15*
X547433Y314933D02*
G03*
X547735Y315665I-733J731D01*
G01*
X547432Y314932D02*
G03*
X547433Y314933I-732J732D01*
G01*
X530980Y306400D02*
G03*
X544500Y312000I0J19120D01*
G01*
X560894Y328794D02*
X582716Y350616D01*
X547432Y314932D02*
X547433Y314933D01*
X544500Y312000D02*
X547432Y314932D01*
X520500Y306400D02*
X530980D01*
X547735Y315665D02*
X554077Y322006D01*
X554106D01*
X582716Y350616D02*
Y350716D01*
D16*
X551000Y195000D02*
G03*
X554000Y202243I-7243J7243D01*
G01*
X547500Y245692D02*
G03*
X554000Y230000I22192J0D01*
G01*
X541000Y254000D02*
G03*
X533000Y262000I-8000J0D01*
G01*
X441500Y358000D02*
X441500Y358000D01*
X448000Y246000D02*
X448287Y246287D01*
X400498Y287500D02*
Y288000D01*
X479800Y382500D02*
Y392000D01*
X441500Y358000D02*
Y368000D01*
X487500Y233498D02*
X495195D01*
X487500Y222498D02*
X495197D01*
X480500Y211500D02*
X488192D01*
X488198Y211495D01*
X480500Y200500D02*
X488190D01*
X488198Y200492D01*
X560500Y203500D02*
Y206000D01*
X560000Y195000D02*
X560500Y203500D01*
X567000D02*
X567500Y195000D01*
X567000Y203500D02*
Y206000D01*
X578000Y236500D02*
X597500D01*
X600000Y239000D01*
X578000Y223500D02*
X597500D01*
X600000Y221000D01*
X599921Y239000D02*
X600000D01*
X596497Y242424D02*
X599921Y239000D01*
X596497Y242424D02*
Y256000D01*
Y217576D02*
X599921Y221000D01*
X600000D01*
X596497Y204498D02*
Y217576D01*
X611497Y204498D02*
Y204998D01*
X619600Y213100D02*
X641000D01*
X611497Y204998D02*
X619600Y213100D01*
X611497Y256000D02*
X613898Y253600D01*
X638600D02*
X641000Y251200D01*
X613898Y253600D02*
X638600D01*
X554000Y262500D02*
X554000Y262500D01*
X554000Y254000D02*
Y262500D01*
X437600Y403100D02*
X437700Y403000D01*
X437500Y418000D02*
X437600Y417900D01*
Y403100D02*
Y417900D01*
X450400Y403000D02*
X450450Y403050D01*
Y417950D02*
X450500Y418000D01*
X450450Y403050D02*
Y417950D01*
X399550Y403050D02*
Y417950D01*
Y403050D02*
X399600Y403000D01*
X399500Y418000D02*
X399550Y417950D01*
X578000Y230000D02*
X635000D01*
X587000Y263000D02*
X591500Y267500D01*
X635000D01*
X580500Y217000D02*
X587000Y210500D01*
X578000Y217000D02*
X580500D01*
X587000Y198500D02*
X591000Y194500D01*
X623500D01*
X587000Y198500D02*
Y210500D01*
X567000Y243000D02*
Y254000D01*
X560500Y236500D02*
Y254000D01*
Y236500D02*
X567000Y243000D01*
X567000Y243000D01*
Y217000D02*
X578000D01*
X547500Y206000D02*
Y223500D01*
X541000Y206000D02*
Y217000D01*
X547500Y223500D01*
X554000Y202243D02*
Y206000D01*
X541000Y243000D02*
X554000Y230000D01*
X567000Y217000D01*
X547500Y223500D02*
X554000Y230000D01*
X554000Y230000D01*
X560500Y236500D01*
X554000Y230000D02*
X578000D01*
X541000Y254000D02*
Y254000D01*
Y243000D02*
Y254000D01*
X533000Y262000D02*
X533765Y261235D01*
X452862Y429000D02*
X459000D01*
X450400Y431462D02*
X452862Y429000D01*
X450400Y431462D02*
Y439000D01*
X459000Y429000D02*
X468000Y420000D01*
Y407000D02*
Y420000D01*
X478438Y393362D02*
Y396562D01*
X468000Y407000D02*
X478438Y396562D01*
Y393362D02*
X479800Y392000D01*
X392500Y282500D02*
Y282500D01*
X399248Y286250D02*
X400498Y287500D01*
X392500Y282500D02*
X396250Y286250D01*
X399248D01*
X392500Y271500D02*
Y271500D01*
X399248Y275247D02*
X400498Y276497D01*
Y276998D01*
X392500Y271500D02*
X396247Y275247D01*
X399248D01*
X483000Y278000D02*
X492500D01*
X448287Y246287D02*
Y251987D01*
X449000Y252700D01*
X486502Y35000D02*
X487000Y34502D01*
X495757Y15743D02*
X496500Y15000D01*
X487000Y18000D02*
X489257Y15743D01*
X487000Y18000D02*
Y34502D01*
X489257Y15743D02*
X495757D01*
X560500Y262500D02*
X562000Y264000D01*
X560500Y254000D02*
Y262500D01*
X567000Y254000D02*
Y261000D01*
X568000Y262000D01*
X584757Y249757D02*
X587243D01*
X578000Y243000D02*
X580500D01*
X584757Y247257D02*
Y249757D01*
X580500Y243000D02*
X584757Y247257D01*
X567000Y243000D02*
X578000D01*
X522000Y230000D02*
X530000D01*
X554000D01*
X491000Y314550D02*
X492000Y315550D01*
X498250D02*
X499500Y316800D01*
X492000Y315550D02*
X498250D01*
X547500Y245692D02*
Y262094D01*
X547000Y262594D02*
Y263000D01*
Y262594D02*
X547500Y262094D01*
X337000Y288000D02*
X350000Y275000D01*
X298000Y288000D02*
X337000D01*
X277500Y267500D02*
X298000Y288000D01*
X227500Y61250D02*
X229173Y59577D01*
X284000Y90747D02*
Y260000D01*
X301000Y277000D01*
X336500D01*
X350000Y263500D01*
X284000Y90747D02*
X309250Y65497D01*
X318500Y61250D02*
Y62182D01*
X315185Y65497D02*
X318500Y62182D01*
X309250Y65497D02*
X315185D01*
X270250Y55250D02*
X277500Y62500D01*
Y267500D01*
X229173Y57084D02*
X231007Y55250D01*
X229173Y57084D02*
Y59577D01*
X231007Y55250D02*
X270250D01*
X206500Y36500D02*
X208750Y38750D01*
X218000D01*
X206500Y23000D02*
Y36500D01*
X221500Y23000D02*
X241243D01*
X243000Y24757D01*
Y39000D01*
X285755Y23000D02*
X305500D01*
X283997Y24757D02*
X285755Y23000D01*
X283997Y24757D02*
Y38997D01*
X284000Y39000D01*
X309000Y38750D02*
X309743Y38007D01*
X318743D02*
X320500Y36250D01*
X309743Y38007D02*
X318743D01*
X320500Y23000D02*
Y36250D01*
D17*
X503000Y28000D02*
G03*
X510250Y35250I0J7250D01*
G01*
X529750Y66000D02*
X545500D01*
X523250Y54550D02*
Y63000D01*
X523200Y54500D02*
X523250Y54550D01*
X510250Y35250D02*
Y37000D01*
X528503Y15000D02*
Y15514D01*
X523250Y20766D02*
Y37000D01*
Y20766D02*
X528503Y15514D01*
X516750Y20831D02*
Y37000D01*
X511500Y15000D02*
Y15581D01*
X516750Y20831D01*
X529750Y63000D02*
Y66000D01*
X545500D02*
X546000Y66500D01*
X529750Y27331D02*
X530000Y27081D01*
X529750Y27331D02*
Y37000D01*
X530000Y27000D02*
Y27081D01*
X516750Y98250D02*
X517500Y99000D01*
X516750Y63000D02*
Y80698D01*
Y98250D01*
X502000Y81500D02*
X502536Y80964D01*
X509434D01*
X509700Y80698D02*
X516750D01*
X509434Y80964D02*
X509700Y80698D01*
D18*
X441500Y368000D02*
D03*
X420500Y213000D02*
D03*
X380500Y20000D02*
D03*
X364500Y59000D02*
D03*
X444000Y179500D02*
D03*
X530500Y79500D02*
D03*
X493000Y184000D02*
D03*
X127500Y57500D02*
D03*
X619500Y98000D02*
D03*
X620000Y137500D02*
D03*
X501500Y382000D02*
D03*
D19*
X400700Y277500D02*
D03*
X410300D02*
D03*
X400700Y288500D02*
D03*
X410300D02*
D03*
X497798Y200492D02*
D03*
X488198D02*
D03*
X497798Y211495D02*
D03*
X488198D02*
D03*
X495197Y222498D02*
D03*
X504797D02*
D03*
Y233500D02*
D03*
X495197D02*
D03*
X479800Y392000D02*
D03*
X470200D02*
D03*
D20*
X309000Y38750D02*
D03*
X318500Y61250D02*
D03*
X299500D02*
D03*
X208500D02*
D03*
X227500D02*
D03*
X218000Y38750D02*
D03*
D21*
X399600Y403000D02*
D03*
Y439000D02*
D03*
X412300Y403000D02*
D03*
Y439000D02*
D03*
X425000Y403000D02*
D03*
Y439000D02*
D03*
X437700Y403000D02*
D03*
Y439000D02*
D03*
X450400Y403000D02*
D03*
Y439000D02*
D03*
D22*
X578000Y217000D02*
D03*
Y223500D02*
D03*
Y230000D02*
D03*
Y236500D02*
D03*
Y243000D02*
D03*
X530000D02*
D03*
Y236500D02*
D03*
Y230000D02*
D03*
Y223500D02*
D03*
Y217000D02*
D03*
D23*
X567000Y254000D02*
D03*
X560500D02*
D03*
X554000D02*
D03*
X547500D02*
D03*
X541000D02*
D03*
Y206000D02*
D03*
X547500D02*
D03*
X554000D02*
D03*
X560500D02*
D03*
X567000D02*
D03*
D24*
X554000Y230000D02*
D03*
D25*
X516750Y37000D02*
D03*
X529750D02*
D03*
X523250D02*
D03*
X510250D02*
D03*
X529750Y63000D02*
D03*
X510250Y63000D02*
D03*
X516750D02*
D03*
X523250Y63000D02*
D03*
D26*
X611497Y256000D02*
D03*
X596497D02*
D03*
X611497Y204498D02*
D03*
X596497D02*
D03*
X221500Y23000D02*
D03*
X206500D02*
D03*
X305500D02*
D03*
X320500D02*
D03*
X595000Y137500D02*
D03*
X610000D02*
D03*
X595000Y97500D02*
D03*
X610000D02*
D03*
X349500Y45503D02*
D03*
X334500D02*
D03*
X257000Y39000D02*
D03*
X243000D02*
D03*
X284000D02*
D03*
X270000D02*
D03*
X335000Y29000D02*
D03*
X349000D02*
D03*
D27*
X560894Y328794D02*
D03*
X554106Y322006D02*
D03*
D28*
X449000Y252700D02*
D03*
Y262300D02*
D03*
D29*
X103000Y100250D02*
D03*
Y71750D02*
D03*
X103000Y166250D02*
D03*
Y137750D02*
D03*
D30*
X54250Y75000D02*
D03*
X25750D02*
D03*
X101753Y187000D02*
D03*
X73253D02*
D03*
D31*
X444000Y192500D02*
D03*
X444000Y207500D02*
D03*
X365000Y42500D02*
D03*
Y27500D02*
D03*
D32*
X496500Y15000D02*
D03*
X511500D02*
D03*
D33*
X427000Y369000D02*
D03*
Y359000D02*
D03*
D34*
X408097Y357505D02*
D03*
X388897D02*
D03*
D35*
X520500Y306400D02*
D03*
X510500D02*
D03*
D36*
X517500Y99000D02*
D03*
X517500Y141000D02*
D03*
D37*
X455000Y310000D02*
D03*
D38*
X433000Y339000D02*
D03*
X437000D02*
D03*
X441000D02*
D03*
X445000D02*
D03*
X449000D02*
D03*
X453000D02*
D03*
X457000D02*
D03*
X461000D02*
D03*
X465000D02*
D03*
X469000D02*
D03*
X473000D02*
D03*
X477000D02*
D03*
X477000Y281000D02*
D03*
X473000D02*
D03*
X469000D02*
D03*
X465000D02*
D03*
X461000D02*
D03*
X457000D02*
D03*
X453000D02*
D03*
X449000D02*
D03*
X445000D02*
D03*
X441000D02*
D03*
X437000D02*
D03*
X433000D02*
D03*
D39*
X484000Y332000D02*
D03*
Y328000D02*
D03*
Y324000D02*
D03*
Y320000D02*
D03*
Y316000D02*
D03*
Y312000D02*
D03*
Y308000D02*
D03*
Y304000D02*
D03*
Y300000D02*
D03*
Y296000D02*
D03*
Y292000D02*
D03*
Y288000D02*
D03*
X426000Y288000D02*
D03*
Y292000D02*
D03*
Y296000D02*
D03*
Y300000D02*
D03*
Y304000D02*
D03*
Y308000D02*
D03*
Y312000D02*
D03*
X426000Y316000D02*
D03*
X426000Y320000D02*
D03*
Y324000D02*
D03*
Y328000D02*
D03*
Y332000D02*
D03*
D40*
X537998Y273002D02*
D03*
X537998Y288002D02*
D03*
X554000D02*
D03*
Y273002D02*
D03*
X546000Y51500D02*
D03*
Y66500D02*
D03*
D41*
X600000Y239000D02*
D03*
Y221000D02*
D03*
D42*
X505000Y327503D02*
D03*
X515000D02*
D03*
X509500Y343500D02*
D03*
X499500D02*
D03*
X474000Y354502D02*
D03*
X484000D02*
D03*
X419000Y254495D02*
D03*
X429000D02*
D03*
X419000Y265497D02*
D03*
X429000D02*
D03*
D43*
X406500Y315000D02*
D03*
X388500D02*
D03*
D44*
X410498Y331003D02*
D03*
Y341003D02*
D03*
X399495Y331003D02*
D03*
Y341003D02*
D03*
X499500Y316800D02*
D03*
Y306800D02*
D03*
D45*
X441500Y358000D02*
D03*
X456500D02*
D03*
X543503Y15000D02*
D03*
X528503D02*
D03*
D46*
X560465Y342536D02*
D03*
X567536Y335465D02*
D03*
X540664Y322735D02*
D03*
X547735Y315665D02*
D03*
D47*
X404000Y135000D02*
D03*
X456000D02*
D03*
X399000Y50000D02*
D03*
X451000Y50000D02*
D03*
D48*
X425000Y185000D02*
D03*
X395000D02*
D03*
D49*
X486502Y65000D02*
D03*
X486502Y35000D02*
D03*
D50*
X639284Y407284D02*
D03*
D51*
X582716Y350716D02*
D03*
D52*
X128000Y31000D02*
Y65642D01*
X365000Y42500D02*
Y65142D01*
X446500Y46750D02*
X451000D01*
X103250Y71500D02*
X122142D01*
X128000Y65642D01*
X315400Y156400D02*
X334900D01*
X359142Y71000D02*
X365000Y65142D01*
X307000Y148000D02*
X315400Y156400D01*
X432000Y34500D02*
Y40892D01*
X425000Y27500D02*
X432000Y34500D01*
X451000Y50000D02*
X451000Y50000D01*
X432000Y40892D02*
X437858Y46750D01*
X451000D02*
Y50000D01*
X440000Y53250D02*
X446500Y46750D01*
X437858D02*
X446500D01*
X331000Y71000D02*
X359142D01*
X307000Y95000D02*
X331000Y71000D01*
X307000Y95000D02*
Y148000D01*
X35000Y106000D02*
Y125400D01*
X25750Y96750D02*
X35000Y106000D01*
X25750Y75000D02*
Y96750D01*
X54250Y75000D02*
Y78250D01*
X54500Y78500D01*
X63987D02*
X85737Y100250D01*
X54500Y78500D02*
X63987D01*
X85737Y100250D02*
X103000D01*
Y71750D02*
X103250Y71500D01*
X128000Y31000D02*
X137000Y22000D01*
X150000D01*
X35000Y176200D02*
X65703D01*
X73253Y183750D01*
Y187000D01*
X102002Y166500D02*
X102252Y166250D01*
X102002Y166500D02*
Y186750D01*
X101753Y187000D02*
X102002Y186750D01*
X102252Y166250D02*
X103000D01*
Y137750D02*
X103250Y138000D01*
X150000D01*
D53*
X485003Y36500D02*
X488003D01*
X484002Y35500D02*
X485003Y36500D01*
X365000Y27500D02*
X425000D01*
X451000Y50000D02*
X459500D01*
X474000Y35500D02*
X484002D01*
X459500Y50000D02*
X474000Y35500D01*
X377500Y315000D02*
X388500D01*
D54*
X499500Y308000D02*
X510500D01*
Y306400D02*
Y308000D01*
X499000Y306800D02*
X499500D01*
X497850Y307950D02*
X499000Y306800D01*
X491000Y308000D02*
X495975D01*
X496025Y307950D01*
X497850D01*
D55*
X35000Y328600D02*
D03*
D56*
Y227000D02*
D03*
Y277800D02*
D03*
Y176200D02*
D03*
Y125400D02*
D03*
D57*
X641000Y98800D02*
D03*
D58*
Y175000D02*
D03*
Y136900D02*
D03*
Y213100D02*
D03*
Y251200D02*
D03*
D59*
X157100Y410400D02*
D03*
Y359600D02*
D03*
Y105600D02*
D03*
X334900Y156400D02*
D03*
Y105600D02*
D03*
D60*
X446000Y319000D02*
D03*
X464000D02*
D03*
X446000Y300000D02*
D03*
X464000D02*
D03*
X549000Y235000D02*
D03*
X559000D02*
D03*
Y225000D02*
D03*
X549000D02*
D03*
D61*
X90000Y375000D02*
D03*
Y275000D02*
D03*
D62*
X448000Y246000D02*
D03*
X400500Y301500D02*
D03*
X407500Y296000D02*
D03*
X417000Y310000D02*
D03*
X392500Y282500D02*
D03*
Y271500D02*
D03*
X350000Y263500D02*
D03*
Y275000D02*
D03*
X462500Y260000D02*
D03*
X487500Y222498D02*
D03*
X480500Y211500D02*
D03*
Y200500D02*
D03*
X487500Y233498D02*
D03*
X560000Y195000D02*
D03*
X567500D02*
D03*
X480000Y265000D02*
D03*
X475000Y260000D02*
D03*
X469000Y265000D02*
D03*
X441999Y271000D02*
D03*
X436999Y266000D02*
D03*
X499500Y250500D02*
D03*
X546000Y170000D02*
D03*
X492500Y278000D02*
D03*
X494500Y287000D02*
D03*
X500000Y293000D02*
D03*
X437500Y418000D02*
D03*
X450500D02*
D03*
X399500D02*
D03*
X494999Y334999D02*
D03*
X503511Y335543D02*
D03*
X551000Y195000D02*
D03*
X530000Y27000D02*
D03*
X500700Y56000D02*
D03*
X507000Y317000D02*
D03*
X515000Y314000D02*
D03*
Y320000D02*
D03*
X521000Y314000D02*
D03*
X527000Y313000D02*
D03*
X535500Y328000D02*
D03*
X538000Y315000D02*
D03*
X547500Y326500D02*
D03*
X552000Y331000D02*
D03*
X556500Y335500D02*
D03*
X564000Y321000D02*
D03*
X568000Y325000D02*
D03*
X543500Y348500D02*
D03*
X536000Y341500D02*
D03*
X542500Y334500D02*
D03*
X556000Y313000D02*
D03*
X552000Y309000D02*
D03*
X548000Y305000D02*
D03*
X539000Y300000D02*
D03*
X533000D02*
D03*
X527000D02*
D03*
X521000Y299000D02*
D03*
X515000D02*
D03*
X503000Y300000D02*
D03*
X493000D02*
D03*
X509000Y299000D02*
D03*
X560000Y317000D02*
D03*
X544000Y302000D02*
D03*
X533000Y313000D02*
D03*
X522000Y327500D02*
D03*
X528500Y321500D02*
D03*
X515000Y334500D02*
D03*
X528500Y334000D02*
D03*
X550000Y342000D02*
D03*
X537500Y354000D02*
D03*
X531500Y360000D02*
D03*
X502000Y286000D02*
D03*
X509000D02*
D03*
X516000D02*
D03*
X529000D02*
D03*
X523000D02*
D03*
X431000Y230000D02*
D03*
X460000Y242000D02*
D03*
X524000Y382000D02*
D03*
X488000Y192000D02*
D03*
X539000Y263000D02*
D03*
X522000Y230000D02*
D03*
X487000Y269000D02*
D03*
X491000Y265000D02*
D03*
X525000Y5000D02*
D03*
X505000D02*
D03*
X490000D02*
D03*
X449000Y349000D02*
D03*
X547000Y263000D02*
D03*
D63*
X456500Y369000D02*
D03*
X466500Y354500D02*
D03*
Y369000D02*
D03*
X267000Y65000D02*
D03*
X292000D02*
D03*
X265000Y185000D02*
D03*
X348000Y57000D02*
D03*
X302500Y245000D02*
D03*
X335000Y420000D02*
D03*
X390000Y331000D02*
D03*
X377500Y315000D02*
D03*
X410500Y265500D02*
D03*
X371000Y392500D02*
D03*
X503000Y28000D02*
D03*
X545000Y27500D02*
D03*
Y40000D02*
D03*
X502000Y81500D02*
D03*
X532000Y196000D02*
D03*
X575000Y330000D02*
D03*
X582500Y322500D02*
D03*
X590000Y315000D02*
D03*
X597500Y307500D02*
D03*
X605000Y300000D02*
D03*
X612500Y292500D02*
D03*
X620000Y285000D02*
D03*
X627500Y277500D02*
D03*
X555000Y350000D02*
D03*
X547500Y357500D02*
D03*
X540000Y365000D02*
D03*
X532500Y372500D02*
D03*
X510000Y395000D02*
D03*
X502500Y402500D02*
D03*
X495000Y410000D02*
D03*
X487500Y417500D02*
D03*
X480000Y425000D02*
D03*
X472500Y432500D02*
D03*
X465000Y440000D02*
D03*
X612500Y277500D02*
D03*
X597500D02*
D03*
X582500D02*
D03*
X567500D02*
D03*
Y292500D02*
D03*
X582500D02*
D03*
X597511Y292316D02*
D03*
X567500Y307500D02*
D03*
X582500D02*
D03*
X560000Y300000D02*
D03*
X575000Y315000D02*
D03*
X422000Y280000D02*
D03*
X410500Y254500D02*
D03*
X470000Y160000D02*
D03*
X490000D02*
D03*
X510000D02*
D03*
X530000D02*
D03*
X550000D02*
D03*
X473000Y181000D02*
D03*
X335000Y15000D02*
D03*
X416000Y202000D02*
D03*
X405000Y150000D02*
D03*
Y120000D02*
D03*
X265000Y5000D02*
D03*
X285000D02*
D03*
X305000D02*
D03*
X325000D02*
D03*
X345000D02*
D03*
X365000D02*
D03*
X385000D02*
D03*
X405000D02*
D03*
X465000D02*
D03*
X445000D02*
D03*
X425000D02*
D03*
X605000D02*
D03*
X585000D02*
D03*
X565000D02*
D03*
X545000D02*
D03*
X620000D02*
D03*
X267000Y120000D02*
D03*
X292000D02*
D03*
X265000Y200000D02*
D03*
Y220000D02*
D03*
Y240000D02*
D03*
X335000Y448000D02*
D03*
X355000D02*
D03*
X375000D02*
D03*
X390000D02*
D03*
Y420000D02*
D03*
X389000Y401000D02*
D03*
X335000Y355000D02*
D03*
X351000D02*
D03*
X335000Y301000D02*
D03*
Y260000D02*
D03*
X304000D02*
D03*
X293000Y185000D02*
D03*
X350000Y220000D02*
D03*
X293000D02*
D03*
X320000D02*
D03*
Y185000D02*
D03*
X350000D02*
D03*
X430000Y74000D02*
D03*
X440000D02*
D03*
X560000Y90000D02*
D03*
X430000Y64000D02*
D03*
X440000D02*
D03*
X566000Y70000D02*
D03*
X576000D02*
D03*
X608000Y156000D02*
D03*
Y118000D02*
D03*
X560000Y130000D02*
D03*
X566000Y82000D02*
D03*
X624000Y156000D02*
D03*
Y118000D02*
D03*
X560000Y110000D02*
D03*
Y150000D02*
D03*
X624000Y70000D02*
D03*
X476000Y50000D02*
D03*
X510000Y181000D02*
D03*
X395000Y254500D02*
D03*
X380000Y185000D02*
D03*
X395000Y160000D02*
D03*
X267000Y90000D02*
D03*
X405000Y70000D02*
D03*
X395000Y80000D02*
D03*
Y110000D02*
D03*
X365000Y170000D02*
D03*
Y200000D02*
D03*
X385000Y70000D02*
D03*
Y120000D02*
D03*
X430000Y110000D02*
D03*
X440000D02*
D03*
X430000Y90000D02*
D03*
X440000D02*
D03*
X385000Y95000D02*
D03*
X405000D02*
D03*
X668000Y50000D02*
D03*
Y70000D02*
D03*
Y90000D02*
D03*
Y110000D02*
D03*
Y130000D02*
D03*
Y150000D02*
D03*
Y170000D02*
D03*
Y210000D02*
D03*
Y230000D02*
D03*
X628000Y24000D02*
D03*
X652000Y46000D02*
D03*
X638000Y38000D02*
D03*
X335000Y325000D02*
D03*
X355000Y420000D02*
D03*
X395000Y202000D02*
D03*
X520000Y255000D02*
D03*
X585000Y184000D02*
D03*
X150000Y22000D02*
D03*
Y138000D02*
D03*
X285000Y54000D02*
D03*
M02*
