G04 Layer_Color=16711935*
%FSLAX44Y44*%
%MOMM*%
G71*
G01*
G75*
%ADD74C,0.9200*%
G04:AMPARAMS|DCode=75|XSize=0.72mm|YSize=0.72mm|CornerRadius=0.135mm|HoleSize=0mm|Usage=FLASHONLY|Rotation=90.000|XOffset=0mm|YOffset=0mm|HoleType=Round|Shape=RoundedRectangle|*
%AMROUNDEDRECTD75*
21,1,0.7200,0.4500,0,0,90.0*
21,1,0.4500,0.7200,0,0,90.0*
1,1,0.2700,0.2250,0.2250*
1,1,0.2700,0.2250,-0.2250*
1,1,0.2700,-0.2250,-0.2250*
1,1,0.2700,-0.2250,0.2250*
%
%ADD75ROUNDEDRECTD75*%
G04:AMPARAMS|DCode=82|XSize=1.02mm|YSize=0.92mm|CornerRadius=0.26mm|HoleSize=0mm|Usage=FLASHONLY|Rotation=90.000|XOffset=0mm|YOffset=0mm|HoleType=Round|Shape=RoundedRectangle|*
%AMROUNDEDRECTD82*
21,1,1.0200,0.4000,0,0,90.0*
21,1,0.5000,0.9200,0,0,90.0*
1,1,0.5200,0.2000,0.2500*
1,1,0.5200,0.2000,-0.2500*
1,1,0.5200,-0.2000,-0.2500*
1,1,0.5200,-0.2000,0.2500*
%
%ADD82ROUNDEDRECTD82*%
G04:AMPARAMS|DCode=84|XSize=0.72mm|YSize=0.72mm|CornerRadius=0.135mm|HoleSize=0mm|Usage=FLASHONLY|Rotation=180.000|XOffset=0mm|YOffset=0mm|HoleType=Round|Shape=RoundedRectangle|*
%AMROUNDEDRECTD84*
21,1,0.7200,0.4500,0,0,180.0*
21,1,0.4500,0.7200,0,0,180.0*
1,1,0.2700,-0.2250,0.2250*
1,1,0.2700,0.2250,0.2250*
1,1,0.2700,0.2250,-0.2250*
1,1,0.2700,-0.2250,-0.2250*
%
%ADD84ROUNDEDRECTD84*%
G04:AMPARAMS|DCode=86|XSize=1.82mm|YSize=1.17mm|CornerRadius=0.3225mm|HoleSize=0mm|Usage=FLASHONLY|Rotation=90.000|XOffset=0mm|YOffset=0mm|HoleType=Round|Shape=RoundedRectangle|*
%AMROUNDEDRECTD86*
21,1,1.8200,0.5250,0,0,90.0*
21,1,1.1750,1.1700,0,0,90.0*
1,1,0.6450,0.2625,0.5875*
1,1,0.6450,0.2625,-0.5875*
1,1,0.6450,-0.2625,-0.5875*
1,1,0.6450,-0.2625,0.5875*
%
%ADD86ROUNDEDRECTD86*%
G04:AMPARAMS|DCode=87|XSize=1.02mm|YSize=0.92mm|CornerRadius=0.26mm|HoleSize=0mm|Usage=FLASHONLY|Rotation=180.000|XOffset=0mm|YOffset=0mm|HoleType=Round|Shape=RoundedRectangle|*
%AMROUNDEDRECTD87*
21,1,1.0200,0.4000,0,0,180.0*
21,1,0.5000,0.9200,0,0,180.0*
1,1,0.5200,-0.2500,0.2000*
1,1,0.5200,0.2500,0.2000*
1,1,0.5200,0.2500,-0.2000*
1,1,0.5200,-0.2500,-0.2000*
%
%ADD87ROUNDEDRECTD87*%
G04:AMPARAMS|DCode=96|XSize=1.07mm|YSize=0.97mm|CornerRadius=0.2725mm|HoleSize=0mm|Usage=FLASHONLY|Rotation=180.000|XOffset=0mm|YOffset=0mm|HoleType=Round|Shape=RoundedRectangle|*
%AMROUNDEDRECTD96*
21,1,1.0700,0.4250,0,0,180.0*
21,1,0.5250,0.9700,0,0,180.0*
1,1,0.5450,-0.2625,0.2125*
1,1,0.5450,0.2625,0.2125*
1,1,0.5450,0.2625,-0.2125*
1,1,0.5450,-0.2625,-0.2125*
%
%ADD96ROUNDEDRECTD96*%
G04:AMPARAMS|DCode=98|XSize=0.77mm|YSize=0.67mm|CornerRadius=0.1975mm|HoleSize=0mm|Usage=FLASHONLY|Rotation=90.000|XOffset=0mm|YOffset=0mm|HoleType=Round|Shape=RoundedRectangle|*
%AMROUNDEDRECTD98*
21,1,0.7700,0.2750,0,0,90.0*
21,1,0.3750,0.6700,0,0,90.0*
1,1,0.3950,0.1375,0.1875*
1,1,0.3950,0.1375,-0.1875*
1,1,0.3950,-0.1375,-0.1875*
1,1,0.3950,-0.1375,0.1875*
%
%ADD98ROUNDEDRECTD98*%
G04:AMPARAMS|DCode=105|XSize=2.02mm|YSize=1.42mm|CornerRadius=0.385mm|HoleSize=0mm|Usage=FLASHONLY|Rotation=180.000|XOffset=0mm|YOffset=0mm|HoleType=Round|Shape=RoundedRectangle|*
%AMROUNDEDRECTD105*
21,1,2.0200,0.6500,0,0,180.0*
21,1,1.2500,1.4200,0,0,180.0*
1,1,0.7700,-0.6250,0.3250*
1,1,0.7700,0.6250,0.3250*
1,1,0.7700,0.6250,-0.3250*
1,1,0.7700,-0.6250,-0.3250*
%
%ADD105ROUNDEDRECTD105*%
G04:AMPARAMS|DCode=108|XSize=2.42mm|YSize=3.52mm|CornerRadius=0.52mm|HoleSize=0mm|Usage=FLASHONLY|Rotation=270.000|XOffset=0mm|YOffset=0mm|HoleType=Round|Shape=RoundedRectangle|*
%AMROUNDEDRECTD108*
21,1,2.4200,2.4800,0,0,270.0*
21,1,1.3800,3.5200,0,0,270.0*
1,1,1.0400,-1.2400,-0.6900*
1,1,1.0400,-1.2400,0.6900*
1,1,1.0400,1.2400,0.6900*
1,1,1.0400,1.2400,-0.6900*
%
%ADD108ROUNDEDRECTD108*%
%ADD109O,3.5200X2.4200*%
G04:AMPARAMS|DCode=110|XSize=2.12mm|YSize=2.92mm|CornerRadius=0.46mm|HoleSize=0mm|Usage=FLASHONLY|Rotation=90.000|XOffset=0mm|YOffset=0mm|HoleType=Round|Shape=RoundedRectangle|*
%AMROUNDEDRECTD110*
21,1,2.1200,2.0000,0,0,90.0*
21,1,1.2000,2.9200,0,0,90.0*
1,1,0.9200,1.0000,0.6000*
1,1,0.9200,1.0000,-0.6000*
1,1,0.9200,-1.0000,-0.6000*
1,1,0.9200,-1.0000,0.6000*
%
%ADD110ROUNDEDRECTD110*%
%ADD111O,2.9200X2.1200*%
%ADD112C,2.1200*%
%ADD113C,1.9200*%
%ADD114C,0.1200*%
G04:AMPARAMS|DCode=116|XSize=0.77mm|YSize=0.97mm|CornerRadius=0.2225mm|HoleSize=0mm|Usage=FLASHONLY|Rotation=270.000|XOffset=0mm|YOffset=0mm|HoleType=Round|Shape=RoundedRectangle|*
%AMROUNDEDRECTD116*
21,1,0.7700,0.5250,0,0,270.0*
21,1,0.3250,0.9700,0,0,270.0*
1,1,0.4450,-0.2625,-0.1625*
1,1,0.4450,-0.2625,0.1625*
1,1,0.4450,0.2625,0.1625*
1,1,0.4450,0.2625,-0.1625*
%
%ADD116ROUNDEDRECTD116*%
G04:AMPARAMS|DCode=117|XSize=1.42mm|YSize=1.22mm|CornerRadius=0.1975mm|HoleSize=0mm|Usage=FLASHONLY|Rotation=180.000|XOffset=0mm|YOffset=0mm|HoleType=Round|Shape=RoundedRectangle|*
%AMROUNDEDRECTD117*
21,1,1.4200,0.8250,0,0,180.0*
21,1,1.0250,1.2200,0,0,180.0*
1,1,0.3950,-0.5125,0.4125*
1,1,0.3950,0.5125,0.4125*
1,1,0.3950,0.5125,-0.4125*
1,1,0.3950,-0.5125,-0.4125*
%
%ADD117ROUNDEDRECTD117*%
G04:AMPARAMS|DCode=118|XSize=1.8mm|YSize=1.85mm|CornerRadius=0.475mm|HoleSize=0mm|Usage=FLASHONLY|Rotation=90.000|XOffset=0mm|YOffset=0mm|HoleType=Round|Shape=RoundedRectangle|*
%AMROUNDEDRECTD118*
21,1,1.8000,0.9000,0,0,90.0*
21,1,0.8500,1.8500,0,0,90.0*
1,1,0.9500,0.4500,0.4250*
1,1,0.9500,0.4500,-0.4250*
1,1,0.9500,-0.4500,-0.4250*
1,1,0.9500,-0.4500,0.4250*
%
%ADD118ROUNDEDRECTD118*%
D74*
X359003Y363000D02*
D03*
X162000Y186500D02*
D03*
X158500Y138000D02*
D03*
X522500Y170000D02*
D03*
X285000Y149500D02*
D03*
X622000Y53500D02*
D03*
X162500Y71500D02*
D03*
X287500Y25500D02*
D03*
X543000Y117000D02*
D03*
Y147500D02*
D03*
X511500Y197000D02*
D03*
X473500Y307500D02*
D03*
X242500Y416000D02*
D03*
Y350500D02*
D03*
D75*
X475200Y278000D02*
D03*
X484800D02*
D03*
D82*
X302502Y137500D02*
D03*
X287502D02*
D03*
X529500Y15000D02*
D03*
X514500D02*
D03*
X486497D02*
D03*
X501497D02*
D03*
D84*
X422500Y240200D02*
D03*
Y249800D02*
D03*
X434500Y240200D02*
D03*
Y249800D02*
D03*
X499500Y266798D02*
D03*
Y257197D02*
D03*
D86*
X121748Y71000D02*
D03*
X150247D02*
D03*
X121250Y97000D02*
D03*
X92750D02*
D03*
X150247Y186000D02*
D03*
X121748D02*
D03*
X92750Y161000D02*
D03*
X121250D02*
D03*
X167750Y335000D02*
D03*
X196250D02*
D03*
X213750D02*
D03*
X242250D02*
D03*
X167750Y435000D02*
D03*
X196250D02*
D03*
X213750Y435000D02*
D03*
X242250D02*
D03*
D87*
X572500Y185000D02*
D03*
Y170000D02*
D03*
X555500Y185000D02*
D03*
Y170000D02*
D03*
X302500Y42500D02*
D03*
Y27500D02*
D03*
X359003Y392500D02*
D03*
Y377500D02*
D03*
X515000Y29500D02*
D03*
Y44500D02*
D03*
X492000Y30500D02*
D03*
Y45500D02*
D03*
D96*
Y66500D02*
D03*
Y81500D02*
D03*
D98*
X482914Y342778D02*
D03*
X492914D02*
D03*
X514914D02*
D03*
X504914D02*
D03*
X499500Y278000D02*
D03*
X509500D02*
D03*
D105*
X365000Y145000D02*
D03*
Y115000D02*
D03*
D108*
X35000Y328600D02*
D03*
D109*
Y227000D02*
D03*
Y277800D02*
D03*
Y176200D02*
D03*
Y125400D02*
D03*
D110*
X641000Y98800D02*
D03*
D111*
Y175000D02*
D03*
Y136900D02*
D03*
Y213100D02*
D03*
Y251200D02*
D03*
D112*
X157100Y410400D02*
D03*
Y359600D02*
D03*
Y105600D02*
D03*
X334900Y156400D02*
D03*
Y105600D02*
D03*
D113*
X90000Y375000D02*
D03*
Y275000D02*
D03*
D114*
X87000Y421500D02*
D03*
X587000Y31500D02*
D03*
X87000D02*
D03*
D116*
X586250Y147000D02*
D03*
Y128000D02*
D03*
X608750Y137500D02*
D03*
X586250Y107000D02*
D03*
Y88000D02*
D03*
X608750Y97500D02*
D03*
X196250Y81000D02*
D03*
X173750Y71500D02*
D03*
Y90500D02*
D03*
Y205500D02*
D03*
Y186500D02*
D03*
X196250Y196000D02*
D03*
D117*
X511414Y360778D02*
D03*
X488414Y360778D02*
D03*
Y378778D02*
D03*
X511414Y378778D02*
D03*
D118*
X266900Y21800D02*
D03*
Y47200D02*
D03*
X173100D02*
D03*
Y21800D02*
D03*
X266900Y137300D02*
D03*
Y162700D02*
D03*
X173100D02*
D03*
Y137300D02*
D03*
X336900Y372300D02*
D03*
Y397700D02*
D03*
X243100Y397700D02*
D03*
Y372300D02*
D03*
M02*
