G04*
G04 #@! TF.GenerationSoftware,Altium Limited,Altium Designer,22.6.1 (34)*
G04*
G04 Layer_Color=8388736*
%FSLAX44Y44*%
%MOMM*%
G71*
G04*
G04 #@! TF.SameCoordinates,A0D8632A-B648-4B75-ABCE-4127253DC59C*
G04*
G04*
G04 #@! TF.FilePolarity,Negative*
G04*
G01*
G75*
%ADD49C,0.9200*%
G04:AMPARAMS|DCode=50|XSize=0.72mm|YSize=0.72mm|CornerRadius=0.135mm|HoleSize=0mm|Usage=FLASHONLY|Rotation=90.000|XOffset=0mm|YOffset=0mm|HoleType=Round|Shape=RoundedRectangle|*
%AMROUNDEDRECTD50*
21,1,0.7200,0.4500,0,0,90.0*
21,1,0.4500,0.7200,0,0,90.0*
1,1,0.2700,0.2250,0.2250*
1,1,0.2700,0.2250,-0.2250*
1,1,0.2700,-0.2250,-0.2250*
1,1,0.2700,-0.2250,0.2250*
%
%ADD50ROUNDEDRECTD50*%
G04:AMPARAMS|DCode=51|XSize=0.77mm|YSize=0.97mm|CornerRadius=0.2225mm|HoleSize=0mm|Usage=FLASHONLY|Rotation=0.000|XOffset=0mm|YOffset=0mm|HoleType=Round|Shape=RoundedRectangle|*
%AMROUNDEDRECTD51*
21,1,0.7700,0.5250,0,0,0.0*
21,1,0.3250,0.9700,0,0,0.0*
1,1,0.4450,0.1625,-0.2625*
1,1,0.4450,-0.1625,-0.2625*
1,1,0.4450,-0.1625,0.2625*
1,1,0.4450,0.1625,0.2625*
%
%ADD51ROUNDEDRECTD51*%
G04:AMPARAMS|DCode=52|XSize=2.52mm|YSize=0.92mm|CornerRadius=0.26mm|HoleSize=0mm|Usage=FLASHONLY|Rotation=270.000|XOffset=0mm|YOffset=0mm|HoleType=Round|Shape=RoundedRectangle|*
%AMROUNDEDRECTD52*
21,1,2.5200,0.4000,0,0,270.0*
21,1,2.0000,0.9200,0,0,270.0*
1,1,0.5200,-0.2000,-1.0000*
1,1,0.5200,-0.2000,1.0000*
1,1,0.5200,0.2000,1.0000*
1,1,0.5200,0.2000,-1.0000*
%
%ADD52ROUNDEDRECTD52*%
G04:AMPARAMS|DCode=53|XSize=0.4mm|YSize=0.9mm|CornerRadius=0.095mm|HoleSize=0mm|Usage=FLASHONLY|Rotation=270.000|XOffset=0mm|YOffset=0mm|HoleType=Round|Shape=RoundedRectangle|*
%AMROUNDEDRECTD53*
21,1,0.4000,0.7100,0,0,270.0*
21,1,0.2100,0.9000,0,0,270.0*
1,1,0.1900,-0.3550,-0.1050*
1,1,0.1900,-0.3550,0.1050*
1,1,0.1900,0.3550,0.1050*
1,1,0.1900,0.3550,-0.1050*
%
%ADD53ROUNDEDRECTD53*%
G04:AMPARAMS|DCode=54|XSize=0.4mm|YSize=0.9mm|CornerRadius=0.095mm|HoleSize=0mm|Usage=FLASHONLY|Rotation=180.000|XOffset=0mm|YOffset=0mm|HoleType=Round|Shape=RoundedRectangle|*
%AMROUNDEDRECTD54*
21,1,0.4000,0.7100,0,0,180.0*
21,1,0.2100,0.9000,0,0,180.0*
1,1,0.1900,-0.1050,0.3550*
1,1,0.1900,0.1050,0.3550*
1,1,0.1900,0.1050,-0.3550*
1,1,0.1900,-0.1050,-0.3550*
%
%ADD54ROUNDEDRECTD54*%
%ADD55R,3.3500X3.3500*%
G04:AMPARAMS|DCode=56|XSize=0.48mm|YSize=1.16mm|CornerRadius=0.135mm|HoleSize=0mm|Usage=FLASHONLY|Rotation=0.000|XOffset=0mm|YOffset=0mm|HoleType=Round|Shape=RoundedRectangle|*
%AMROUNDEDRECTD56*
21,1,0.4800,0.8900,0,0,0.0*
21,1,0.2100,1.1600,0,0,0.0*
1,1,0.2700,0.1050,-0.4450*
1,1,0.2700,-0.1050,-0.4450*
1,1,0.2700,-0.1050,0.4450*
1,1,0.2700,0.1050,0.4450*
%
%ADD56ROUNDEDRECTD56*%
G04:AMPARAMS|DCode=57|XSize=1.02mm|YSize=0.92mm|CornerRadius=0.26mm|HoleSize=0mm|Usage=FLASHONLY|Rotation=90.000|XOffset=0mm|YOffset=0mm|HoleType=Round|Shape=RoundedRectangle|*
%AMROUNDEDRECTD57*
21,1,1.0200,0.4000,0,0,90.0*
21,1,0.5000,0.9200,0,0,90.0*
1,1,0.5200,0.2000,0.2500*
1,1,0.5200,0.2000,-0.2500*
1,1,0.5200,-0.2000,-0.2500*
1,1,0.5200,-0.2000,0.2500*
%
%ADD57ROUNDEDRECTD57*%
G04:AMPARAMS|DCode=58|XSize=0.72mm|YSize=0.72mm|CornerRadius=0.135mm|HoleSize=0mm|Usage=FLASHONLY|Rotation=135.000|XOffset=0mm|YOffset=0mm|HoleType=Round|Shape=RoundedRectangle|*
%AMROUNDEDRECTD58*
21,1,0.7200,0.4500,0,0,135.0*
21,1,0.4500,0.7200,0,0,135.0*
1,1,0.2700,0.0000,0.3182*
1,1,0.2700,0.3182,0.0000*
1,1,0.2700,0.0000,-0.3182*
1,1,0.2700,-0.3182,0.0000*
%
%ADD58ROUNDEDRECTD58*%
G04:AMPARAMS|DCode=59|XSize=0.72mm|YSize=0.72mm|CornerRadius=0.135mm|HoleSize=0mm|Usage=FLASHONLY|Rotation=180.000|XOffset=0mm|YOffset=0mm|HoleType=Round|Shape=RoundedRectangle|*
%AMROUNDEDRECTD59*
21,1,0.7200,0.4500,0,0,180.0*
21,1,0.4500,0.7200,0,0,180.0*
1,1,0.2700,-0.2250,0.2250*
1,1,0.2700,0.2250,0.2250*
1,1,0.2700,0.2250,-0.2250*
1,1,0.2700,-0.2250,-0.2250*
%
%ADD59ROUNDEDRECTD59*%
G04:AMPARAMS|DCode=60|XSize=1.82mm|YSize=1.17mm|CornerRadius=0.3225mm|HoleSize=0mm|Usage=FLASHONLY|Rotation=0.000|XOffset=0mm|YOffset=0mm|HoleType=Round|Shape=RoundedRectangle|*
%AMROUNDEDRECTD60*
21,1,1.8200,0.5250,0,0,0.0*
21,1,1.1750,1.1700,0,0,0.0*
1,1,0.6450,0.5875,-0.2625*
1,1,0.6450,-0.5875,-0.2625*
1,1,0.6450,-0.5875,0.2625*
1,1,0.6450,0.5875,0.2625*
%
%ADD60ROUNDEDRECTD60*%
G04:AMPARAMS|DCode=61|XSize=1.82mm|YSize=1.17mm|CornerRadius=0.3225mm|HoleSize=0mm|Usage=FLASHONLY|Rotation=90.000|XOffset=0mm|YOffset=0mm|HoleType=Round|Shape=RoundedRectangle|*
%AMROUNDEDRECTD61*
21,1,1.8200,0.5250,0,0,90.0*
21,1,1.1750,1.1700,0,0,90.0*
1,1,0.6450,0.2625,0.5875*
1,1,0.6450,0.2625,-0.5875*
1,1,0.6450,-0.2625,-0.5875*
1,1,0.6450,-0.2625,0.5875*
%
%ADD61ROUNDEDRECTD61*%
G04:AMPARAMS|DCode=62|XSize=1.02mm|YSize=0.92mm|CornerRadius=0.26mm|HoleSize=0mm|Usage=FLASHONLY|Rotation=180.000|XOffset=0mm|YOffset=0mm|HoleType=Round|Shape=RoundedRectangle|*
%AMROUNDEDRECTD62*
21,1,1.0200,0.4000,0,0,180.0*
21,1,0.5000,0.9200,0,0,180.0*
1,1,0.5200,-0.2500,0.2000*
1,1,0.5200,0.2500,0.2000*
1,1,0.5200,0.2500,-0.2000*
1,1,0.5200,-0.2500,-0.2000*
%
%ADD62ROUNDEDRECTD62*%
G04:AMPARAMS|DCode=63|XSize=1.12mm|YSize=1.02mm|CornerRadius=0.285mm|HoleSize=0mm|Usage=FLASHONLY|Rotation=90.000|XOffset=0mm|YOffset=0mm|HoleType=Round|Shape=RoundedRectangle|*
%AMROUNDEDRECTD63*
21,1,1.1200,0.4500,0,0,90.0*
21,1,0.5500,1.0200,0,0,90.0*
1,1,0.5700,0.2250,0.2750*
1,1,0.5700,0.2250,-0.2750*
1,1,0.5700,-0.2250,-0.2750*
1,1,0.5700,-0.2250,0.2750*
%
%ADD63ROUNDEDRECTD63*%
G04:AMPARAMS|DCode=64|XSize=0.74mm|YSize=0.68mm|CornerRadius=0.2mm|HoleSize=0mm|Usage=FLASHONLY|Rotation=0.000|XOffset=0mm|YOffset=0mm|HoleType=Round|Shape=RoundedRectangle|*
%AMROUNDEDRECTD64*
21,1,0.7400,0.2800,0,0,0.0*
21,1,0.3400,0.6800,0,0,0.0*
1,1,0.4000,0.1700,-0.1400*
1,1,0.4000,-0.1700,-0.1400*
1,1,0.4000,-0.1700,0.1400*
1,1,0.4000,0.1700,0.1400*
%
%ADD64ROUNDEDRECTD64*%
G04:AMPARAMS|DCode=65|XSize=1.54mm|YSize=1.01mm|CornerRadius=0.2825mm|HoleSize=0mm|Usage=FLASHONLY|Rotation=270.000|XOffset=0mm|YOffset=0mm|HoleType=Round|Shape=RoundedRectangle|*
%AMROUNDEDRECTD65*
21,1,1.5400,0.4450,0,0,270.0*
21,1,0.9750,1.0100,0,0,270.0*
1,1,0.5650,-0.2225,-0.4875*
1,1,0.5650,-0.2225,0.4875*
1,1,0.5650,0.2225,0.4875*
1,1,0.5650,0.2225,-0.4875*
%
%ADD65ROUNDEDRECTD65*%
G04:AMPARAMS|DCode=66|XSize=0.74mm|YSize=0.68mm|CornerRadius=0.2mm|HoleSize=0mm|Usage=FLASHONLY|Rotation=90.000|XOffset=0mm|YOffset=0mm|HoleType=Round|Shape=RoundedRectangle|*
%AMROUNDEDRECTD66*
21,1,0.7400,0.2800,0,0,90.0*
21,1,0.3400,0.6800,0,0,90.0*
1,1,0.4000,0.1400,0.1700*
1,1,0.4000,0.1400,-0.1700*
1,1,0.4000,-0.1400,-0.1700*
1,1,0.4000,-0.1400,0.1700*
%
%ADD66ROUNDEDRECTD66*%
G04:AMPARAMS|DCode=67|XSize=5.82mm|YSize=2.47mm|CornerRadius=0.3538mm|HoleSize=0mm|Usage=FLASHONLY|Rotation=180.000|XOffset=0mm|YOffset=0mm|HoleType=Round|Shape=RoundedRectangle|*
%AMROUNDEDRECTD67*
21,1,5.8200,1.7625,0,0,180.0*
21,1,5.1125,2.4700,0,0,180.0*
1,1,0.7075,-2.5563,0.8813*
1,1,0.7075,2.5563,0.8813*
1,1,0.7075,2.5563,-0.8813*
1,1,0.7075,-2.5563,-0.8813*
%
%ADD67ROUNDEDRECTD67*%
%ADD68R,4.7000X4.7000*%
G04:AMPARAMS|DCode=69|XSize=0.3mm|YSize=0.8mm|CornerRadius=0.1mm|HoleSize=0mm|Usage=FLASHONLY|Rotation=0.000|XOffset=0mm|YOffset=0mm|HoleType=Round|Shape=RoundedRectangle|*
%AMROUNDEDRECTD69*
21,1,0.3000,0.6000,0,0,0.0*
21,1,0.1000,0.8000,0,0,0.0*
1,1,0.2000,0.0500,-0.3000*
1,1,0.2000,-0.0500,-0.3000*
1,1,0.2000,-0.0500,0.3000*
1,1,0.2000,0.0500,0.3000*
%
%ADD69ROUNDEDRECTD69*%
G04:AMPARAMS|DCode=70|XSize=0.3mm|YSize=0.8mm|CornerRadius=0.1mm|HoleSize=0mm|Usage=FLASHONLY|Rotation=90.000|XOffset=0mm|YOffset=0mm|HoleType=Round|Shape=RoundedRectangle|*
%AMROUNDEDRECTD70*
21,1,0.3000,0.6000,0,0,90.0*
21,1,0.1000,0.8000,0,0,90.0*
1,1,0.2000,0.3000,0.0500*
1,1,0.2000,0.3000,-0.0500*
1,1,0.2000,-0.3000,-0.0500*
1,1,0.2000,-0.3000,0.0500*
%
%ADD70ROUNDEDRECTD70*%
G04:AMPARAMS|DCode=71|XSize=1.07mm|YSize=0.97mm|CornerRadius=0.2725mm|HoleSize=0mm|Usage=FLASHONLY|Rotation=180.000|XOffset=0mm|YOffset=0mm|HoleType=Round|Shape=RoundedRectangle|*
%AMROUNDEDRECTD71*
21,1,1.0700,0.4250,0,0,180.0*
21,1,0.5250,0.9700,0,0,180.0*
1,1,0.5450,-0.2625,0.2125*
1,1,0.5450,0.2625,0.2125*
1,1,0.5450,0.2625,-0.2125*
1,1,0.5450,-0.2625,-0.2125*
%
%ADD71ROUNDEDRECTD71*%
G04:AMPARAMS|DCode=72|XSize=1.57mm|YSize=1.12mm|CornerRadius=0.31mm|HoleSize=0mm|Usage=FLASHONLY|Rotation=180.000|XOffset=0mm|YOffset=0mm|HoleType=Round|Shape=RoundedRectangle|*
%AMROUNDEDRECTD72*
21,1,1.5700,0.5000,0,0,180.0*
21,1,0.9500,1.1200,0,0,180.0*
1,1,0.6200,-0.4750,0.2500*
1,1,0.6200,0.4750,0.2500*
1,1,0.6200,0.4750,-0.2500*
1,1,0.6200,-0.4750,-0.2500*
%
%ADD72ROUNDEDRECTD72*%
G04:AMPARAMS|DCode=73|XSize=0.77mm|YSize=0.67mm|CornerRadius=0.1975mm|HoleSize=0mm|Usage=FLASHONLY|Rotation=90.000|XOffset=0mm|YOffset=0mm|HoleType=Round|Shape=RoundedRectangle|*
%AMROUNDEDRECTD73*
21,1,0.7700,0.2750,0,0,90.0*
21,1,0.3750,0.6700,0,0,90.0*
1,1,0.3950,0.1375,0.1875*
1,1,0.3950,0.1375,-0.1875*
1,1,0.3950,-0.1375,-0.1875*
1,1,0.3950,-0.1375,0.1875*
%
%ADD73ROUNDEDRECTD73*%
G04:AMPARAMS|DCode=74|XSize=1.57mm|YSize=1.12mm|CornerRadius=0.31mm|HoleSize=0mm|Usage=FLASHONLY|Rotation=270.000|XOffset=0mm|YOffset=0mm|HoleType=Round|Shape=RoundedRectangle|*
%AMROUNDEDRECTD74*
21,1,1.5700,0.5000,0,0,270.0*
21,1,0.9500,1.1200,0,0,270.0*
1,1,0.6200,-0.2500,-0.4750*
1,1,0.6200,-0.2500,0.4750*
1,1,0.6200,0.2500,0.4750*
1,1,0.6200,0.2500,-0.4750*
%
%ADD74ROUNDEDRECTD74*%
G04:AMPARAMS|DCode=75|XSize=0.77mm|YSize=0.67mm|CornerRadius=0.1975mm|HoleSize=0mm|Usage=FLASHONLY|Rotation=0.000|XOffset=0mm|YOffset=0mm|HoleType=Round|Shape=RoundedRectangle|*
%AMROUNDEDRECTD75*
21,1,0.7700,0.2750,0,0,0.0*
21,1,0.3750,0.6700,0,0,0.0*
1,1,0.3950,0.1875,-0.1375*
1,1,0.3950,-0.1875,-0.1375*
1,1,0.3950,-0.1875,0.1375*
1,1,0.3950,0.1875,0.1375*
%
%ADD75ROUNDEDRECTD75*%
G04:AMPARAMS|DCode=76|XSize=1.07mm|YSize=0.97mm|CornerRadius=0.2725mm|HoleSize=0mm|Usage=FLASHONLY|Rotation=90.000|XOffset=0mm|YOffset=0mm|HoleType=Round|Shape=RoundedRectangle|*
%AMROUNDEDRECTD76*
21,1,1.0700,0.4250,0,0,90.0*
21,1,0.5250,0.9700,0,0,90.0*
1,1,0.5450,0.2125,0.2625*
1,1,0.5450,0.2125,-0.2625*
1,1,0.5450,-0.2125,-0.2625*
1,1,0.5450,-0.2125,0.2625*
%
%ADD76ROUNDEDRECTD76*%
G04:AMPARAMS|DCode=77|XSize=0.77mm|YSize=0.67mm|CornerRadius=0.1975mm|HoleSize=0mm|Usage=FLASHONLY|Rotation=225.000|XOffset=0mm|YOffset=0mm|HoleType=Round|Shape=RoundedRectangle|*
%AMROUNDEDRECTD77*
21,1,0.7700,0.2750,0,0,225.0*
21,1,0.3750,0.6700,0,0,225.0*
1,1,0.3950,-0.2298,-0.0354*
1,1,0.3950,0.0354,0.2298*
1,1,0.3950,0.2298,0.0354*
1,1,0.3950,-0.0354,-0.2298*
%
%ADD77ROUNDEDRECTD77*%
G04:AMPARAMS|DCode=78|XSize=1.77mm|YSize=3.47mm|CornerRadius=0.39mm|HoleSize=0mm|Usage=FLASHONLY|Rotation=270.000|XOffset=0mm|YOffset=0mm|HoleType=Round|Shape=RoundedRectangle|*
%AMROUNDEDRECTD78*
21,1,1.7700,2.6900,0,0,270.0*
21,1,0.9900,3.4700,0,0,270.0*
1,1,0.7800,-1.3450,-0.4950*
1,1,0.7800,-1.3450,0.4950*
1,1,0.7800,1.3450,0.4950*
1,1,0.7800,1.3450,-0.4950*
%
%ADD78ROUNDEDRECTD78*%
G04:AMPARAMS|DCode=79|XSize=2.02mm|YSize=1.42mm|CornerRadius=0.385mm|HoleSize=0mm|Usage=FLASHONLY|Rotation=270.000|XOffset=0mm|YOffset=0mm|HoleType=Round|Shape=RoundedRectangle|*
%AMROUNDEDRECTD79*
21,1,2.0200,0.6500,0,0,270.0*
21,1,1.2500,1.4200,0,0,270.0*
1,1,0.7700,-0.3250,-0.6250*
1,1,0.7700,-0.3250,0.6250*
1,1,0.7700,0.3250,0.6250*
1,1,0.7700,0.3250,-0.6250*
%
%ADD79ROUNDEDRECTD79*%
G04:AMPARAMS|DCode=80|XSize=2.02mm|YSize=1.42mm|CornerRadius=0.385mm|HoleSize=0mm|Usage=FLASHONLY|Rotation=180.000|XOffset=0mm|YOffset=0mm|HoleType=Round|Shape=RoundedRectangle|*
%AMROUNDEDRECTD80*
21,1,2.0200,0.6500,0,0,180.0*
21,1,1.2500,1.4200,0,0,180.0*
1,1,0.7700,-0.6250,0.3250*
1,1,0.7700,0.6250,0.3250*
1,1,0.7700,0.6250,-0.3250*
1,1,0.7700,-0.6250,-0.3250*
%
%ADD80ROUNDEDRECTD80*%
G04:AMPARAMS|DCode=81|XSize=1.3mm|YSize=1.6mm|CornerRadius=0.23mm|HoleSize=0mm|Usage=FLASHONLY|Rotation=225.000|XOffset=0mm|YOffset=0mm|HoleType=Round|Shape=RoundedRectangle|*
%AMROUNDEDRECTD81*
21,1,1.3000,1.1400,0,0,225.0*
21,1,0.8400,1.6000,0,0,225.0*
1,1,0.4600,-0.7000,0.1061*
1,1,0.4600,-0.1061,0.7000*
1,1,0.4600,0.7000,-0.1061*
1,1,0.4600,0.1061,-0.7000*
%
%ADD81ROUNDEDRECTD81*%
G04:AMPARAMS|DCode=82|XSize=1.3mm|YSize=1.5mm|CornerRadius=0.26mm|HoleSize=0mm|Usage=FLASHONLY|Rotation=225.000|XOffset=0mm|YOffset=0mm|HoleType=Round|Shape=RoundedRectangle|*
%AMROUNDEDRECTD82*
21,1,1.3000,0.9800,0,0,225.0*
21,1,0.7800,1.5000,0,0,225.0*
1,1,0.5200,-0.6223,0.0707*
1,1,0.5200,-0.0707,0.6223*
1,1,0.5200,0.6223,-0.0707*
1,1,0.5200,0.0707,-0.6223*
%
%ADD82ROUNDEDRECTD82*%
G04:AMPARAMS|DCode=83|XSize=2.42mm|YSize=3.52mm|CornerRadius=0.52mm|HoleSize=0mm|Usage=FLASHONLY|Rotation=270.000|XOffset=0mm|YOffset=0mm|HoleType=Round|Shape=RoundedRectangle|*
%AMROUNDEDRECTD83*
21,1,2.4200,2.4800,0,0,270.0*
21,1,1.3800,3.5200,0,0,270.0*
1,1,1.0400,-1.2400,-0.6900*
1,1,1.0400,-1.2400,0.6900*
1,1,1.0400,1.2400,0.6900*
1,1,1.0400,1.2400,-0.6900*
%
%ADD83ROUNDEDRECTD83*%
%ADD84O,3.5200X2.4200*%
G04:AMPARAMS|DCode=85|XSize=2.12mm|YSize=2.92mm|CornerRadius=0.46mm|HoleSize=0mm|Usage=FLASHONLY|Rotation=90.000|XOffset=0mm|YOffset=0mm|HoleType=Round|Shape=RoundedRectangle|*
%AMROUNDEDRECTD85*
21,1,2.1200,2.0000,0,0,90.0*
21,1,1.2000,2.9200,0,0,90.0*
1,1,0.9200,1.0000,0.6000*
1,1,0.9200,1.0000,-0.6000*
1,1,0.9200,-1.0000,-0.6000*
1,1,0.9200,-1.0000,0.6000*
%
%ADD85ROUNDEDRECTD85*%
%ADD86O,2.9200X2.1200*%
%ADD87C,2.1200*%
%ADD88C,1.9200*%
%ADD89C,0.1200*%
%ADD90C,0.5700*%
D49*
X442500Y369000D02*
D03*
X421500Y214000D02*
D03*
X381500Y21000D02*
D03*
X365500Y60000D02*
D03*
X445000Y180500D02*
D03*
X531500Y80500D02*
D03*
X494000Y185000D02*
D03*
X128500Y58500D02*
D03*
X620500Y99000D02*
D03*
X621000Y138500D02*
D03*
X502500Y383000D02*
D03*
D50*
X401700Y278500D02*
D03*
X411300D02*
D03*
X401700Y289500D02*
D03*
X411300D02*
D03*
X498797Y201493D02*
D03*
X489198D02*
D03*
X498797Y212495D02*
D03*
X489198D02*
D03*
X496198Y223498D02*
D03*
X505797D02*
D03*
Y234500D02*
D03*
X496198D02*
D03*
X480800Y393000D02*
D03*
X471200D02*
D03*
D51*
X310000Y39750D02*
D03*
X319500Y62250D02*
D03*
X300500D02*
D03*
X209500D02*
D03*
X228500D02*
D03*
X219000Y39750D02*
D03*
D52*
X400600Y404000D02*
D03*
Y440000D02*
D03*
X413300Y404000D02*
D03*
Y440000D02*
D03*
X426000Y404000D02*
D03*
Y440000D02*
D03*
X438700Y404000D02*
D03*
Y440000D02*
D03*
X451400Y404000D02*
D03*
Y440000D02*
D03*
D53*
X579000Y218000D02*
D03*
Y224500D02*
D03*
Y231000D02*
D03*
Y237500D02*
D03*
Y244000D02*
D03*
X531000D02*
D03*
Y237500D02*
D03*
Y231000D02*
D03*
Y224500D02*
D03*
Y218000D02*
D03*
D54*
X568000Y255000D02*
D03*
X561500D02*
D03*
X555000D02*
D03*
X548500D02*
D03*
X542000D02*
D03*
Y207000D02*
D03*
X548500D02*
D03*
X555000D02*
D03*
X561500D02*
D03*
X568000D02*
D03*
D55*
X555000Y231000D02*
D03*
D56*
X517750Y38000D02*
D03*
X530750D02*
D03*
X524250D02*
D03*
X511250D02*
D03*
X530750Y64000D02*
D03*
X511250Y64000D02*
D03*
X517750D02*
D03*
X524250Y64000D02*
D03*
D57*
X612497Y257000D02*
D03*
X597497D02*
D03*
X612497Y205497D02*
D03*
X597497D02*
D03*
X222500Y24000D02*
D03*
X207500D02*
D03*
X306500D02*
D03*
X321500D02*
D03*
X596000Y138500D02*
D03*
X611000D02*
D03*
X596000Y98500D02*
D03*
X611000D02*
D03*
X350500Y46503D02*
D03*
X335500D02*
D03*
X258000Y40000D02*
D03*
X244000D02*
D03*
X285000D02*
D03*
X271000D02*
D03*
X336000Y30000D02*
D03*
X350000D02*
D03*
D58*
X561894Y329794D02*
D03*
X555106Y323006D02*
D03*
D59*
X450000Y253700D02*
D03*
Y263300D02*
D03*
D60*
X104000Y101250D02*
D03*
Y72750D02*
D03*
X104000Y167250D02*
D03*
Y138750D02*
D03*
D61*
X55250Y76000D02*
D03*
X26750D02*
D03*
X102753Y188000D02*
D03*
X74253D02*
D03*
D62*
X445000Y193500D02*
D03*
X445000Y208500D02*
D03*
X366000Y43500D02*
D03*
Y28500D02*
D03*
D63*
X497500Y16000D02*
D03*
X512500D02*
D03*
D64*
X428000Y370000D02*
D03*
Y360000D02*
D03*
D65*
X409098Y358505D02*
D03*
X389897D02*
D03*
D66*
X521500Y307400D02*
D03*
X511500D02*
D03*
D67*
X518500Y100000D02*
D03*
X518500Y142000D02*
D03*
D68*
X456000Y311000D02*
D03*
D69*
X434000Y340000D02*
D03*
X438000D02*
D03*
X442000D02*
D03*
X446000D02*
D03*
X450000D02*
D03*
X454000D02*
D03*
X458000D02*
D03*
X462000D02*
D03*
X466000D02*
D03*
X470000D02*
D03*
X474000D02*
D03*
X478000D02*
D03*
X478000Y282000D02*
D03*
X474000D02*
D03*
X470000D02*
D03*
X466000D02*
D03*
X462000D02*
D03*
X458000D02*
D03*
X454000D02*
D03*
X450000D02*
D03*
X446000D02*
D03*
X442000D02*
D03*
X438000D02*
D03*
X434000D02*
D03*
D70*
X485000Y333000D02*
D03*
Y329000D02*
D03*
Y325000D02*
D03*
Y321000D02*
D03*
Y317000D02*
D03*
Y313000D02*
D03*
Y309000D02*
D03*
Y305000D02*
D03*
Y301000D02*
D03*
Y297000D02*
D03*
Y293000D02*
D03*
Y289000D02*
D03*
X427000Y289000D02*
D03*
Y293000D02*
D03*
Y297000D02*
D03*
Y301000D02*
D03*
Y305000D02*
D03*
Y309000D02*
D03*
Y313000D02*
D03*
X427000Y317000D02*
D03*
X427000Y321000D02*
D03*
Y325000D02*
D03*
Y329000D02*
D03*
Y333000D02*
D03*
D71*
X538997Y274002D02*
D03*
X538997Y289002D02*
D03*
X555000D02*
D03*
Y274002D02*
D03*
X547000Y52500D02*
D03*
Y67500D02*
D03*
D72*
X601000Y240000D02*
D03*
Y222000D02*
D03*
D73*
X506000Y328503D02*
D03*
X516000D02*
D03*
X510500Y344500D02*
D03*
X500500D02*
D03*
X475000Y355503D02*
D03*
X485000D02*
D03*
X420000Y255495D02*
D03*
X430000D02*
D03*
X420000Y266497D02*
D03*
X430000D02*
D03*
D74*
X407500Y316000D02*
D03*
X389500D02*
D03*
D75*
X411497Y332003D02*
D03*
Y342002D02*
D03*
X400495Y332003D02*
D03*
Y342003D02*
D03*
X500500Y317800D02*
D03*
Y307800D02*
D03*
D76*
X442500Y359000D02*
D03*
X457500D02*
D03*
X544502Y16000D02*
D03*
X529502D02*
D03*
D77*
X561465Y343536D02*
D03*
X568535Y336465D02*
D03*
X541665Y323736D02*
D03*
X548736Y316665D02*
D03*
D78*
X405000Y136000D02*
D03*
X457000D02*
D03*
X400000Y51000D02*
D03*
X452000Y51000D02*
D03*
D79*
X426000Y186000D02*
D03*
X396000D02*
D03*
D80*
X487503Y66000D02*
D03*
X487503Y36000D02*
D03*
D81*
X640284Y408284D02*
D03*
D82*
X583716Y351716D02*
D03*
D83*
X36000Y329600D02*
D03*
D84*
Y228000D02*
D03*
Y278800D02*
D03*
Y177200D02*
D03*
Y126400D02*
D03*
D85*
X642000Y99800D02*
D03*
D86*
Y176000D02*
D03*
Y137900D02*
D03*
Y214100D02*
D03*
Y252200D02*
D03*
D87*
X158100Y411400D02*
D03*
Y360600D02*
D03*
Y106600D02*
D03*
X335900Y157400D02*
D03*
Y106600D02*
D03*
D88*
X91000Y376000D02*
D03*
Y276000D02*
D03*
D89*
X88000Y422500D02*
D03*
X588000Y32500D02*
D03*
X88000D02*
D03*
D90*
X561000Y196000D02*
D03*
X568500D02*
D03*
M02*
