G04 Layer_Physical_Order=4*
G04 Layer_Color=16711680*
%FSLAX44Y44*%
%MOMM*%
G71*
G01*
G75*
%ADD11C,0.2000*%
%ADD12C,0.5000*%
%ADD16C,0.3000*%
%ADD17C,0.4200*%
%ADD18C,0.8000*%
G04:AMPARAMS|DCode=19|XSize=0.6mm|YSize=0.6mm|CornerRadius=0.075mm|HoleSize=0mm|Usage=FLASHONLY|Rotation=90.000|XOffset=0mm|YOffset=0mm|HoleType=Round|Shape=RoundedRectangle|*
%AMROUNDEDRECTD19*
21,1,0.6000,0.4500,0,0,90.0*
21,1,0.4500,0.6000,0,0,90.0*
1,1,0.1500,0.2250,0.2250*
1,1,0.1500,0.2250,-0.2250*
1,1,0.1500,-0.2250,-0.2250*
1,1,0.1500,-0.2250,0.2250*
%
%ADD19ROUNDEDRECTD19*%
G04:AMPARAMS|DCode=26|XSize=0.9mm|YSize=0.8mm|CornerRadius=0.2mm|HoleSize=0mm|Usage=FLASHONLY|Rotation=90.000|XOffset=0mm|YOffset=0mm|HoleType=Round|Shape=RoundedRectangle|*
%AMROUNDEDRECTD26*
21,1,0.9000,0.4000,0,0,90.0*
21,1,0.5000,0.8000,0,0,90.0*
1,1,0.4000,0.2000,0.2500*
1,1,0.4000,0.2000,-0.2500*
1,1,0.4000,-0.2000,-0.2500*
1,1,0.4000,-0.2000,0.2500*
%
%ADD26ROUNDEDRECTD26*%
G04:AMPARAMS|DCode=28|XSize=0.6mm|YSize=0.6mm|CornerRadius=0.075mm|HoleSize=0mm|Usage=FLASHONLY|Rotation=180.000|XOffset=0mm|YOffset=0mm|HoleType=Round|Shape=RoundedRectangle|*
%AMROUNDEDRECTD28*
21,1,0.6000,0.4500,0,0,180.0*
21,1,0.4500,0.6000,0,0,180.0*
1,1,0.1500,-0.2250,0.2250*
1,1,0.1500,0.2250,0.2250*
1,1,0.1500,0.2250,-0.2250*
1,1,0.1500,-0.2250,-0.2250*
%
%ADD28ROUNDEDRECTD28*%
G04:AMPARAMS|DCode=30|XSize=1.7mm|YSize=1.05mm|CornerRadius=0.2625mm|HoleSize=0mm|Usage=FLASHONLY|Rotation=90.000|XOffset=0mm|YOffset=0mm|HoleType=Round|Shape=RoundedRectangle|*
%AMROUNDEDRECTD30*
21,1,1.7000,0.5250,0,0,90.0*
21,1,1.1750,1.0500,0,0,90.0*
1,1,0.5250,0.2625,0.5875*
1,1,0.5250,0.2625,-0.5875*
1,1,0.5250,-0.2625,-0.5875*
1,1,0.5250,-0.2625,0.5875*
%
%ADD30ROUNDEDRECTD30*%
G04:AMPARAMS|DCode=31|XSize=0.9mm|YSize=0.8mm|CornerRadius=0.2mm|HoleSize=0mm|Usage=FLASHONLY|Rotation=180.000|XOffset=0mm|YOffset=0mm|HoleType=Round|Shape=RoundedRectangle|*
%AMROUNDEDRECTD31*
21,1,0.9000,0.4000,0,0,180.0*
21,1,0.5000,0.8000,0,0,180.0*
1,1,0.4000,-0.2500,0.2000*
1,1,0.4000,0.2500,0.2000*
1,1,0.4000,0.2500,-0.2000*
1,1,0.4000,-0.2500,-0.2000*
%
%ADD31ROUNDEDRECTD31*%
G04:AMPARAMS|DCode=40|XSize=0.95mm|YSize=0.85mm|CornerRadius=0.2125mm|HoleSize=0mm|Usage=FLASHONLY|Rotation=180.000|XOffset=0mm|YOffset=0mm|HoleType=Round|Shape=RoundedRectangle|*
%AMROUNDEDRECTD40*
21,1,0.9500,0.4250,0,0,180.0*
21,1,0.5250,0.8500,0,0,180.0*
1,1,0.4250,-0.2625,0.2125*
1,1,0.4250,0.2625,0.2125*
1,1,0.4250,0.2625,-0.2125*
1,1,0.4250,-0.2625,-0.2125*
%
%ADD40ROUNDEDRECTD40*%
G04:AMPARAMS|DCode=42|XSize=0.65mm|YSize=0.55mm|CornerRadius=0.1375mm|HoleSize=0mm|Usage=FLASHONLY|Rotation=90.000|XOffset=0mm|YOffset=0mm|HoleType=Round|Shape=RoundedRectangle|*
%AMROUNDEDRECTD42*
21,1,0.6500,0.2750,0,0,90.0*
21,1,0.3750,0.5500,0,0,90.0*
1,1,0.2750,0.1375,0.1875*
1,1,0.2750,0.1375,-0.1875*
1,1,0.2750,-0.1375,-0.1875*
1,1,0.2750,-0.1375,0.1875*
%
%ADD42ROUNDEDRECTD42*%
G04:AMPARAMS|DCode=49|XSize=1.9mm|YSize=1.3mm|CornerRadius=0.325mm|HoleSize=0mm|Usage=FLASHONLY|Rotation=180.000|XOffset=0mm|YOffset=0mm|HoleType=Round|Shape=RoundedRectangle|*
%AMROUNDEDRECTD49*
21,1,1.9000,0.6500,0,0,180.0*
21,1,1.2500,1.3000,0,0,180.0*
1,1,0.6500,-0.6250,0.3250*
1,1,0.6500,0.6250,0.3250*
1,1,0.6500,0.6250,-0.3250*
1,1,0.6500,-0.6250,-0.3250*
%
%ADD49ROUNDEDRECTD49*%
%ADD52C,1.0000*%
%ADD53C,0.7000*%
G04:AMPARAMS|DCode=55|XSize=2.3mm|YSize=3.4mm|CornerRadius=0.46mm|HoleSize=0mm|Usage=FLASHONLY|Rotation=270.000|XOffset=0mm|YOffset=0mm|HoleType=Round|Shape=RoundedRectangle|*
%AMROUNDEDRECTD55*
21,1,2.3000,2.4800,0,0,270.0*
21,1,1.3800,3.4000,0,0,270.0*
1,1,0.9200,-1.2400,-0.6900*
1,1,0.9200,-1.2400,0.6900*
1,1,0.9200,1.2400,0.6900*
1,1,0.9200,1.2400,-0.6900*
%
%ADD55ROUNDEDRECTD55*%
%ADD56O,3.4000X2.3000*%
G04:AMPARAMS|DCode=57|XSize=2mm|YSize=2.8mm|CornerRadius=0.4mm|HoleSize=0mm|Usage=FLASHONLY|Rotation=90.000|XOffset=0mm|YOffset=0mm|HoleType=Round|Shape=RoundedRectangle|*
%AMROUNDEDRECTD57*
21,1,2.0000,2.0000,0,0,90.0*
21,1,1.2000,2.8000,0,0,90.0*
1,1,0.8000,1.0000,0.6000*
1,1,0.8000,1.0000,-0.6000*
1,1,0.8000,-1.0000,-0.6000*
1,1,0.8000,-1.0000,0.6000*
%
%ADD57ROUNDEDRECTD57*%
%ADD58O,2.8000X2.0000*%
%ADD59C,2.0000*%
%ADD60C,0.2000*%
%ADD61C,1.8000*%
%ADD62C,0.4500*%
%ADD63C,0.7000*%
G04:AMPARAMS|DCode=64|XSize=0.65mm|YSize=0.85mm|CornerRadius=0.1625mm|HoleSize=0mm|Usage=FLASHONLY|Rotation=270.000|XOffset=0mm|YOffset=0mm|HoleType=Round|Shape=RoundedRectangle|*
%AMROUNDEDRECTD64*
21,1,0.6500,0.5250,0,0,270.0*
21,1,0.3250,0.8500,0,0,270.0*
1,1,0.3250,-0.2625,-0.1625*
1,1,0.3250,-0.2625,0.1625*
1,1,0.3250,0.2625,0.1625*
1,1,0.3250,0.2625,-0.1625*
%
%ADD64ROUNDEDRECTD64*%
G04:AMPARAMS|DCode=65|XSize=1.3mm|YSize=1.1mm|CornerRadius=0.1375mm|HoleSize=0mm|Usage=FLASHONLY|Rotation=180.000|XOffset=0mm|YOffset=0mm|HoleType=Round|Shape=RoundedRectangle|*
%AMROUNDEDRECTD65*
21,1,1.3000,0.8250,0,0,180.0*
21,1,1.0250,1.1000,0,0,180.0*
1,1,0.2750,-0.5125,0.4125*
1,1,0.2750,0.5125,0.4125*
1,1,0.2750,0.5125,-0.4125*
1,1,0.2750,-0.5125,-0.4125*
%
%ADD65ROUNDEDRECTD65*%
G04:AMPARAMS|DCode=66|XSize=1.7mm|YSize=1.75mm|CornerRadius=0.425mm|HoleSize=0mm|Usage=FLASHONLY|Rotation=90.000|XOffset=0mm|YOffset=0mm|HoleType=Round|Shape=RoundedRectangle|*
%AMROUNDEDRECTD66*
21,1,1.7000,0.9000,0,0,90.0*
21,1,0.8500,1.7500,0,0,90.0*
1,1,0.8500,0.4500,0.4250*
1,1,0.8500,0.4500,-0.4250*
1,1,0.8500,-0.4500,-0.4250*
1,1,0.8500,-0.4500,0.4250*
%
%ADD66ROUNDEDRECTD66*%
%ADD67C,0.6000*%
%ADD68C,0.4500*%
%ADD69C,2.0000*%
G36*
X569369Y193729D02*
X569352Y193649D01*
X569337Y193536D01*
X569313Y193213D01*
X569287Y191833D01*
X566287Y191305D01*
X566282Y191626D01*
X566210Y192458D01*
X566166Y192690D01*
X566113Y192901D01*
X566050Y193089D01*
X565978Y193256D01*
X565895Y193400D01*
X565803Y193522D01*
X569389Y193777D01*
X569369Y193729D01*
D02*
G37*
G36*
X558310Y190963D02*
X558344Y190562D01*
X558400Y190191D01*
X558479Y189850D01*
X558579Y189538D01*
X558703Y189255D01*
X558848Y189002D01*
X559016Y188778D01*
X559207Y188584D01*
X559420Y188420D01*
X553221Y188978D01*
X553616Y188968D01*
X553969Y189014D01*
X554281Y189116D01*
X554551Y189274D01*
X554780Y189488D01*
X554967Y189757D01*
X555112Y190083D01*
X555216Y190464D01*
X555278Y190901D01*
X555299Y191393D01*
X558299D01*
X558310Y190963D01*
D02*
G37*
G36*
X560471Y192800D02*
X560424Y192780D01*
X560354Y192735D01*
X560264Y192666D01*
X560018Y192454D01*
X559024Y191497D01*
X556530Y193245D01*
X556753Y193475D01*
X557290Y194114D01*
X557424Y194310D01*
X557535Y194496D01*
X557624Y194674D01*
X557690Y194843D01*
X557734Y195003D01*
X557755Y195154D01*
X560471Y192800D01*
D02*
G37*
G36*
X479339Y203786D02*
X480141Y203085D01*
X480305Y202968D01*
X480454Y202873D01*
X480588Y202802D01*
X480708Y202753D01*
X480813Y202728D01*
X478272Y200187D01*
X478247Y200292D01*
X478198Y200412D01*
X478127Y200546D01*
X478032Y200695D01*
X477915Y200859D01*
X477610Y201231D01*
X477214Y201661D01*
X476981Y201898D01*
X479102Y204019D01*
X479339Y203786D01*
D02*
G37*
G36*
X569003Y198145D02*
X569074Y197082D01*
X569107Y196883D01*
X569146Y196711D01*
X569190Y196565D01*
X569241Y196446D01*
X569297Y196354D01*
X565703D01*
X565759Y196446D01*
X565810Y196565D01*
X565854Y196711D01*
X565893Y196883D01*
X565926Y197082D01*
X565973Y197560D01*
X565997Y198145D01*
X566000Y198477D01*
X569000D01*
X569003Y198145D01*
D02*
G37*
G36*
X154914Y193639D02*
X155735Y193190D01*
X156644Y192794D01*
X157642Y192451D01*
X158729Y192160D01*
X159904Y191923D01*
X161168Y191738D01*
X163960Y191526D01*
X165489Y191500D01*
Y181500D01*
X164195Y181464D01*
X162937Y181354D01*
X161715Y181172D01*
X160530Y180917D01*
X159381Y180590D01*
X158268Y180189D01*
X157192Y179716D01*
X156152Y179170D01*
X155148Y178551D01*
X154181Y177859D01*
Y194141D01*
X154914Y193639D01*
D02*
G37*
G36*
X569231Y166145D02*
X568805Y166402D01*
X568337Y166633D01*
X567827Y166836D01*
X567276Y167012D01*
X566682Y167161D01*
X566048Y167283D01*
X564653Y167446D01*
X564017Y167480D01*
X562629Y167378D01*
X561953Y167283D01*
X560724Y167012D01*
X560173Y166836D01*
X559663Y166633D01*
X559195Y166402D01*
X558769Y166145D01*
Y173855D01*
X559195Y173598D01*
X559663Y173367D01*
X560173Y173164D01*
X560724Y172988D01*
X561318Y172839D01*
X561953Y172717D01*
X563347Y172554D01*
X563983Y172520D01*
X565371Y172622D01*
X566048Y172717D01*
X567276Y172988D01*
X567827Y173164D01*
X568337Y173367D01*
X568805Y173598D01*
X569231Y173855D01*
Y166145D01*
D02*
G37*
G36*
X551580Y181580D02*
X551313Y181945D01*
X551026Y182271D01*
X550718Y182559D01*
X550390Y182809D01*
X550042Y183020D01*
X549673Y183193D01*
X549283Y183327D01*
X548873Y183423D01*
X548443Y183481D01*
X547992Y183500D01*
Y186500D01*
X548443Y186519D01*
X548873Y186577D01*
X549283Y186673D01*
X549673Y186807D01*
X550042Y186980D01*
X550390Y187191D01*
X550718Y187441D01*
X551026Y187729D01*
X551313Y188055D01*
X551580Y188420D01*
Y181580D01*
D02*
G37*
G36*
X199782Y193017D02*
X199566Y192734D01*
X199375Y192375D01*
X199209Y191940D01*
X199069Y191430D01*
X198954Y190845D01*
X198865Y190184D01*
X198763Y188636D01*
X198750Y187749D01*
X193750D01*
X193737Y188636D01*
X193546Y190845D01*
X193431Y191430D01*
X193291Y191940D01*
X193125Y192375D01*
X192934Y192734D01*
X192718Y193017D01*
X192475Y193225D01*
X200025D01*
X199782Y193017D01*
D02*
G37*
G36*
X569286Y190347D02*
X570406Y189396D01*
X570715Y189188D01*
X570991Y189036D01*
X571234Y188939D01*
X571445Y188897D01*
X571624Y188910D01*
X571770Y188978D01*
X568022Y186230D01*
X568126Y186340D01*
X568178Y186479D01*
X568179Y186648D01*
X568127Y186846D01*
X568023Y187074D01*
X567868Y187331D01*
X567660Y187617D01*
X567401Y187933D01*
X566726Y188652D01*
X568848Y190774D01*
X569286Y190347D01*
D02*
G37*
G36*
X479339Y214786D02*
X480141Y214085D01*
X480305Y213968D01*
X480454Y213873D01*
X480588Y213802D01*
X480708Y213753D01*
X480813Y213728D01*
X478272Y211187D01*
X478247Y211292D01*
X478198Y211412D01*
X478127Y211546D01*
X478032Y211695D01*
X477915Y211859D01*
X477610Y212231D01*
X477214Y212661D01*
X476981Y212898D01*
X479102Y215019D01*
X479339Y214786D01*
D02*
G37*
G36*
X330885Y287431D02*
X309477Y266023D01*
X308703Y264866D01*
X308431Y263500D01*
Y249623D01*
X306465Y248965D01*
X304646Y250181D01*
X302500Y250608D01*
X300354Y250181D01*
X298535Y248965D01*
X297319Y247146D01*
X296892Y245000D01*
X297319Y242854D01*
X297838Y242078D01*
X297914Y240908D01*
Y145511D01*
X297769Y144263D01*
X297672Y143759D01*
X297553Y143284D01*
X297418Y142862D01*
X297270Y142492D01*
X297114Y142174D01*
X296902Y141823D01*
X296892Y141797D01*
X296735Y141561D01*
X296646Y141115D01*
X296631Y141074D01*
X296632Y141047D01*
X296424Y140000D01*
Y135000D01*
X296632Y133953D01*
X296631Y133926D01*
X296646Y133885D01*
X296735Y133439D01*
X296892Y133203D01*
X296901Y133178D01*
X297113Y132827D01*
X297270Y132509D01*
X297417Y132139D01*
X297543Y131746D01*
X297776Y130687D01*
X297851Y130156D01*
X297913Y129303D01*
Y50404D01*
X297596Y50137D01*
X295864Y49625D01*
X290389Y55100D01*
X290181Y56146D01*
X288965Y57965D01*
X287146Y59181D01*
X285000Y59608D01*
X282854Y59181D01*
X281035Y57965D01*
X279819Y56146D01*
X279392Y54000D01*
X279819Y51854D01*
X281035Y50035D01*
X282854Y48819D01*
X283900Y48611D01*
X292869Y39643D01*
X294357Y38648D01*
X296113Y38299D01*
X296660D01*
X297116Y37616D01*
X298439Y36732D01*
X300000Y36422D01*
X305000D01*
X305358Y36493D01*
X306668Y35267D01*
X305050Y34119D01*
X305000Y34129D01*
X300000D01*
X298229Y33777D01*
X296727Y32773D01*
X295723Y31271D01*
X295371Y29500D01*
Y29417D01*
X294879Y29396D01*
X294532Y29311D01*
X294177Y29267D01*
X294045Y29192D01*
X293898Y29156D01*
X293609Y28944D01*
X293491Y28877D01*
X293152D01*
X292164Y30164D01*
X290798Y31213D01*
X289207Y31872D01*
X287500Y32096D01*
X285793Y31872D01*
X284202Y31213D01*
X282836Y30164D01*
X281848Y28877D01*
X280040D01*
X279983Y28912D01*
X279659Y29152D01*
X279557Y29177D01*
X279467Y29233D01*
X279069Y29298D01*
X278678Y29395D01*
X278328Y29412D01*
X278118Y29443D01*
X277924Y29491D01*
X277735Y29560D01*
X277545Y29651D01*
X277349Y29770D01*
X277143Y29923D01*
X276926Y30115D01*
X276699Y30353D01*
X276408Y30706D01*
X276348Y30755D01*
X276243Y30893D01*
X276025Y31060D01*
X275954Y31138D01*
X275872Y31177D01*
X274824Y31981D01*
X273173Y32665D01*
X271400Y32899D01*
X262400D01*
X260806Y34290D01*
X260802Y35023D01*
X262147Y36331D01*
X262612Y36578D01*
X264400D01*
Y47200D01*
Y57822D01*
X262400D01*
X261546Y57653D01*
X260000Y58921D01*
Y120000D01*
Y124663D01*
X262000Y126254D01*
X262400Y126201D01*
X271400D01*
X273173Y126435D01*
X274824Y127119D01*
X276243Y128207D01*
X277331Y129626D01*
X278015Y131278D01*
X278249Y133050D01*
X280141Y133333D01*
X280520Y133199D01*
X281591Y132682D01*
X282229Y131727D01*
X283731Y130723D01*
X285502Y130371D01*
X289503D01*
X291274Y130723D01*
X292776Y131727D01*
X293779Y133229D01*
X294132Y135000D01*
Y140000D01*
X293779Y141771D01*
X292776Y143273D01*
X291593Y144064D01*
X290989Y145256D01*
X290823Y145822D01*
X290799Y146410D01*
X291372Y147793D01*
X291596Y149500D01*
X291372Y151207D01*
X290713Y152798D01*
X289664Y154164D01*
X288569Y155005D01*
Y250522D01*
X327478Y289431D01*
X330056D01*
X330885Y287431D01*
D02*
G37*
G36*
X305240Y242793D02*
X305191Y242644D01*
X305146Y242448D01*
X305108Y242205D01*
X305049Y241577D01*
X305005Y240280D01*
X305002Y239753D01*
X300002Y239748D01*
X300000Y240275D01*
X299857Y242444D01*
X299812Y242641D01*
X299762Y242790D01*
X299706Y242893D01*
X305296Y242895D01*
X305240Y242793D01*
D02*
G37*
G36*
X502170Y254327D02*
X502082Y254161D01*
X502004Y253930D01*
X501937Y253634D01*
X501880Y253273D01*
X501797Y252358D01*
X501755Y251184D01*
X501750Y250500D01*
X497250D01*
X497245Y251184D01*
X497063Y253634D01*
X496996Y253930D01*
X496918Y254161D01*
X496830Y254327D01*
X496731Y254429D01*
X502269D01*
X502170Y254327D01*
D02*
G37*
G36*
X464353Y258705D02*
X464331Y258618D01*
X464312Y258500D01*
X464281Y258169D01*
X464254Y257434D01*
X464249Y256785D01*
X461249Y256330D01*
X461245Y256653D01*
X461176Y257485D01*
X461134Y257717D01*
X461084Y257927D01*
X461024Y258114D01*
X460955Y258278D01*
X460877Y258419D01*
X460790Y258538D01*
X464377Y258759D01*
X464353Y258705D01*
D02*
G37*
G36*
X423518Y254576D02*
X423571Y254364D01*
X423659Y254150D01*
X423783Y253933D01*
X423942Y253713D01*
X424137Y253490D01*
X424367Y253264D01*
X424632Y253036D01*
X424933Y252804D01*
X425269Y252569D01*
X419731D01*
X420067Y252804D01*
X420633Y253264D01*
X420863Y253490D01*
X421058Y253713D01*
X421217Y253933D01*
X421341Y254150D01*
X421429Y254364D01*
X421482Y254576D01*
X421500Y254784D01*
X423500D01*
X423518Y254576D01*
D02*
G37*
G36*
X425028Y237246D02*
X424812Y237031D01*
X424622Y236786D01*
X424457Y236510D01*
X424317Y236204D01*
X424203Y235867D01*
X424114Y235500D01*
X424051Y235103D01*
X424013Y234675D01*
X424000Y234216D01*
X421000D01*
X420987Y234675D01*
X420949Y235103D01*
X420886Y235500D01*
X420797Y235867D01*
X420683Y236204D01*
X420543Y236510D01*
X420378Y236786D01*
X420188Y237031D01*
X419972Y237246D01*
X419731Y237431D01*
X425269D01*
X425028Y237246D01*
D02*
G37*
G36*
X486339Y225784D02*
X487141Y225083D01*
X487305Y224965D01*
X487454Y224871D01*
X487588Y224799D01*
X487708Y224751D01*
X487813Y224726D01*
X485272Y222184D01*
X485247Y222289D01*
X485198Y222409D01*
X485127Y222544D01*
X485032Y222693D01*
X484915Y222856D01*
X484610Y223228D01*
X484214Y223658D01*
X483981Y223895D01*
X486102Y226017D01*
X486339Y225784D01*
D02*
G37*
G36*
X489003Y236642D02*
X489074Y235579D01*
X489107Y235380D01*
X489146Y235208D01*
X489190Y235063D01*
X489241Y234944D01*
X489297Y234851D01*
X485703D01*
X485759Y234944D01*
X485810Y235063D01*
X485854Y235208D01*
X485893Y235380D01*
X485926Y235579D01*
X485973Y236057D01*
X485997Y236642D01*
X486000Y236975D01*
X489000D01*
X489003Y236642D01*
D02*
G37*
G36*
X461741Y240554D02*
X461690Y240435D01*
X461646Y240289D01*
X461607Y240117D01*
X461574Y239918D01*
X461527Y239440D01*
X461503Y238855D01*
X461500Y238523D01*
X458500D01*
X458497Y238855D01*
X458426Y239918D01*
X458393Y240117D01*
X458354Y240289D01*
X458310Y240435D01*
X458259Y240554D01*
X458203Y240646D01*
X461797D01*
X461741Y240554D01*
D02*
G37*
G36*
X436913Y240877D02*
X436929Y240709D01*
X437001Y240503D01*
X437128Y240259D01*
X437311Y239977D01*
X437549Y239658D01*
X438194Y238906D01*
X439061Y238003D01*
X436939Y235882D01*
X436570Y236242D01*
X435654Y237024D01*
X435412Y237185D01*
X435201Y237297D01*
X435023Y237359D01*
X434876Y237371D01*
X434761Y237334D01*
X434677Y237247D01*
X436953Y241008D01*
X436913Y240877D01*
D02*
G37*
G36*
X178750Y65541D02*
X178775Y63863D01*
X179156Y59471D01*
X179384Y58221D01*
X179663Y57078D01*
X179993Y56042D01*
X180373Y55114D01*
X180804Y54292D01*
X181286Y53578D01*
X164914D01*
X165643Y54599D01*
X166295Y55663D01*
X166870Y56769D01*
X167369Y57918D01*
X167791Y59109D01*
X168136Y60343D01*
X168405Y61620D01*
X168597Y62940D01*
X168712Y64301D01*
X168750Y65706D01*
X178750Y65541D01*
D02*
G37*
G36*
X305014Y50617D02*
X305128Y49057D01*
X305227Y48387D01*
X305355Y47791D01*
X305511Y47270D01*
X305696Y46821D01*
X305909Y46447D01*
X306150Y46147D01*
X306420Y45920D01*
X298580D01*
X298850Y46147D01*
X299091Y46447D01*
X299304Y46821D01*
X299489Y47270D01*
X299645Y47791D01*
X299773Y48387D01*
X299872Y49057D01*
X299986Y50617D01*
X300000Y51508D01*
X305000D01*
X305014Y50617D01*
D02*
G37*
G36*
X154914Y78639D02*
X155735Y78190D01*
X156644Y77794D01*
X157642Y77451D01*
X158729Y77160D01*
X159904Y76923D01*
X161168Y76738D01*
X163960Y76526D01*
X165489Y76500D01*
Y66500D01*
X164195Y66464D01*
X162937Y66354D01*
X161715Y66172D01*
X160530Y65917D01*
X159381Y65590D01*
X158268Y65189D01*
X157192Y64716D01*
X156152Y64170D01*
X155148Y63551D01*
X154181Y62859D01*
Y79141D01*
X154914Y78639D01*
D02*
G37*
G36*
X126250Y88690D02*
X126639Y78183D01*
X116595Y77552D01*
X116529Y77522D01*
X116471Y77764D01*
X116419Y78277D01*
X116336Y80121D01*
X116250Y89492D01*
X126250Y88690D01*
D02*
G37*
G36*
X199782Y78017D02*
X199566Y77734D01*
X199375Y77375D01*
X199209Y76940D01*
X199069Y76431D01*
X198954Y75845D01*
X198865Y75184D01*
X198763Y73636D01*
X198750Y72749D01*
X193750D01*
X193737Y73636D01*
X193546Y75845D01*
X193431Y76431D01*
X193291Y76940D01*
X193125Y77375D01*
X192934Y77734D01*
X192718Y78017D01*
X192475Y78225D01*
X200025D01*
X199782Y78017D01*
D02*
G37*
G36*
X274762Y28632D02*
X275128Y28249D01*
X275508Y27912D01*
X275902Y27619D01*
X276310Y27371D01*
X276731Y27169D01*
X277167Y27011D01*
X277616Y26899D01*
X278079Y26831D01*
X278556Y26809D01*
X278656Y23809D01*
X278001Y23779D01*
X277423Y23689D01*
X276925Y23539D01*
X276504Y23329D01*
X276162Y23059D01*
X275898Y22729D01*
X275713Y22339D01*
X275605Y21889D01*
X275576Y21379D01*
X275625Y20809D01*
X274409Y29059D01*
X274762Y28632D01*
D02*
G37*
G36*
X166472Y13864D02*
X165663Y14422D01*
X164767Y14921D01*
X163783Y15361D01*
X162711Y15743D01*
X161552Y16066D01*
X160305Y16330D01*
X158971Y16536D01*
X156040Y16771D01*
X154443Y16800D01*
Y26800D01*
X156040Y26829D01*
X158971Y27064D01*
X160305Y27270D01*
X161552Y27534D01*
X162711Y27857D01*
X163783Y28238D01*
X164767Y28679D01*
X165663Y29178D01*
X166472Y29736D01*
Y13864D01*
D02*
G37*
G36*
X299231Y23645D02*
X299155Y23676D01*
X299023Y23704D01*
X298836Y23728D01*
X298298Y23768D01*
X295986Y23809D01*
X294992Y26809D01*
X295680Y26839D01*
X296283Y26928D01*
X296803Y27078D01*
X297238Y27288D01*
X297589Y27557D01*
X297857Y27887D01*
X298039Y28276D01*
X298138Y28725D01*
X298153Y29234D01*
X298083Y29803D01*
X299231Y23645D01*
D02*
G37*
G36*
X181329Y28155D02*
X182705Y26632D01*
X183362Y26013D01*
X183997Y25490D01*
X184611Y25062D01*
X185204Y24728D01*
X185776Y24490D01*
X186326Y24348D01*
X186818Y24303D01*
X187430Y24300D01*
Y19300D01*
X186818Y19297D01*
X186326Y19252D01*
X185776Y19110D01*
X185204Y18872D01*
X184611Y18539D01*
X183997Y18110D01*
X183362Y17587D01*
X182705Y16968D01*
X182028Y16254D01*
X180609Y14541D01*
Y18961D01*
X178041Y18792D01*
X177398Y18636D01*
X176928Y18459D01*
X176633Y18262D01*
Y25338D01*
X176928Y25141D01*
X177398Y24964D01*
X178041Y24808D01*
X178860Y24674D01*
X180609Y24505D01*
Y29059D01*
X181329Y28155D01*
D02*
G37*
G36*
X306747Y30460D02*
X307081Y30049D01*
X307422Y29686D01*
X307770Y29371D01*
X308125Y29105D01*
X308488Y28887D01*
X308857Y28718D01*
X309234Y28597D01*
X309617Y28524D01*
X310008Y28500D01*
Y25500D01*
X309497Y25486D01*
X309020Y25443D01*
X308577Y25372D01*
X308167Y25273D01*
X307791Y25145D01*
X307449Y24989D01*
X307141Y24804D01*
X306867Y24591D01*
X306627Y24350D01*
X306420Y24080D01*
Y30920D01*
X306747Y30460D01*
D02*
G37*
G36*
X583003Y91127D02*
X582475Y85225D01*
X582086Y85785D01*
X581335Y86729D01*
X580974Y87112D01*
X580622Y87436D01*
X580279Y87701D01*
X579945Y87908D01*
X579620Y88055D01*
X579305Y88143D01*
X578999Y88173D01*
X580233Y91173D01*
X583003Y91127D01*
D02*
G37*
G36*
X95026Y177963D02*
X95238Y175170D01*
X95423Y173907D01*
X95660Y172732D01*
X95951Y171645D01*
X96294Y170647D01*
X96690Y169737D01*
X97139Y168916D01*
X97641Y168183D01*
X87597Y167552D01*
X87104Y166543D01*
X86662Y166023D01*
X86273Y165992D01*
X85935Y166450D01*
X85649Y167398D01*
X85416Y168835D01*
X85234Y170761D01*
X85026Y176081D01*
X85000Y179475D01*
X95000Y179492D01*
X95026Y177963D01*
D02*
G37*
G36*
X305016Y146107D02*
X305124Y144629D01*
X305219Y143953D01*
X305490Y142724D01*
X305667Y142173D01*
X305870Y141663D01*
X306100Y141195D01*
X306358Y140768D01*
X298647D01*
X298905Y141195D01*
X299135Y141663D01*
X299338Y142173D01*
X299515Y142724D01*
X299664Y143318D01*
X299786Y143953D01*
X299948Y145347D01*
X299989Y146107D01*
X300002Y146909D01*
X305002D01*
X305016Y146107D01*
D02*
G37*
G36*
X552231Y166145D02*
X551805Y166402D01*
X551337Y166633D01*
X550827Y166836D01*
X550276Y167012D01*
X549682Y167161D01*
X549048Y167283D01*
X547653Y167446D01*
X546893Y167486D01*
X546091Y167500D01*
X546091Y172500D01*
X546893Y172514D01*
X548371Y172622D01*
X549048Y172717D01*
X550276Y172988D01*
X550827Y173164D01*
X551337Y173367D01*
X551805Y173598D01*
X552231Y173855D01*
Y166145D01*
D02*
G37*
G36*
X178750Y181041D02*
X178775Y179363D01*
X179156Y174971D01*
X179384Y173721D01*
X179663Y172578D01*
X179993Y171542D01*
X180373Y170614D01*
X180804Y169792D01*
X181286Y169078D01*
X164914D01*
X165643Y170099D01*
X166295Y171163D01*
X166870Y172269D01*
X167369Y173418D01*
X167791Y174609D01*
X168136Y175844D01*
X168405Y177120D01*
X168597Y178440D01*
X168712Y179801D01*
X168750Y181206D01*
X178750Y181041D01*
D02*
G37*
G36*
X126639Y178817D02*
X126565Y178620D01*
X126499Y178234D01*
X126440Y177658D01*
X126312Y174791D01*
X126250Y168310D01*
X116250Y167508D01*
X116595Y179448D01*
X126639Y178817D01*
D02*
G37*
G36*
X306100Y133805D02*
X305869Y133336D01*
X305666Y132826D01*
X305490Y132275D01*
X305340Y131681D01*
X305218Y131047D01*
X305056Y129652D01*
X305015Y128892D01*
X305001Y128091D01*
X300001Y128092D01*
X299988Y128893D01*
X299879Y130372D01*
X299785Y131048D01*
X299514Y132276D01*
X299338Y132828D01*
X299135Y133337D01*
X298904Y133805D01*
X298647Y134232D01*
X306358D01*
X306100Y133805D01*
D02*
G37*
G36*
X583766Y132647D02*
X584507Y132033D01*
X585221Y131529D01*
X585908Y131136D01*
X586570Y130854D01*
X587204Y130681D01*
X587812Y130620D01*
X588394Y130669D01*
X588950Y130829D01*
X589478Y131100D01*
X581999Y126375D01*
X581979Y127109D01*
X581918Y127808D01*
X581816Y128473D01*
X581673Y129104D01*
X581490Y129700D01*
X581266Y130262D01*
X581001Y130790D01*
X580695Y131283D01*
X580349Y131742D01*
X579962Y132167D01*
X582999Y133372D01*
X583766Y132647D01*
D02*
G37*
G36*
X166472Y129364D02*
X165498Y130055D01*
X164471Y130673D01*
X163391Y131219D01*
X162258Y131691D01*
X161073Y132091D01*
X159834Y132418D01*
X158542Y132673D01*
X157198Y132855D01*
X155801Y132964D01*
X154351Y133000D01*
X154633Y143000D01*
X156358Y143022D01*
X160812Y143358D01*
X162056Y143559D01*
X163179Y143805D01*
X164183Y144095D01*
X165066Y144431D01*
X165829Y144811D01*
X166472Y145236D01*
Y129364D01*
D02*
G37*
G36*
X181232Y143788D02*
X181856Y143098D01*
X182480Y142489D01*
X183104Y141961D01*
X183728Y141515D01*
X184353Y141150D01*
X184978Y140865D01*
X185604Y140662D01*
X186230Y140541D01*
X186856Y140500D01*
Y135500D01*
X185711Y135450D01*
X184688Y135301D01*
X183789Y135052D01*
X183012Y134703D01*
X182359Y134255D01*
X181829Y133707D01*
X181421Y133059D01*
X181137Y132312D01*
X180976Y131465D01*
X180938Y130519D01*
X180828Y135222D01*
X177341Y134992D01*
X176698Y134836D01*
X176228Y134659D01*
X175933Y134462D01*
Y141538D01*
X176228Y141341D01*
X176698Y141164D01*
X177341Y141009D01*
X178160Y140874D01*
X180319Y140666D01*
X180701Y140653D01*
X180609Y144559D01*
X181232Y143788D01*
D02*
G37*
G36*
X275612Y141327D02*
X275706Y140817D01*
X275860Y140368D01*
X276076Y139979D01*
X276353Y139649D01*
X276691Y139379D01*
X277091Y139170D01*
X277551Y139020D01*
X278073Y138930D01*
X278656Y138900D01*
Y135900D01*
X278075Y135870D01*
X277555Y135780D01*
X277097Y135630D01*
X276700Y135421D01*
X276364Y135151D01*
X276090Y134821D01*
X275877Y134432D01*
X275725Y133983D01*
X275635Y133473D01*
X275606Y132904D01*
X275580Y141896D01*
X275612Y141327D01*
D02*
G37*
G36*
X73018Y343876D02*
X69273Y340102D01*
X51971Y320517D01*
X51392Y319396D01*
X21407Y339952D01*
X25766Y340624D01*
X33825Y342474D01*
X37525Y343652D01*
X41005Y344998D01*
X44265Y346512D01*
X47306Y348194D01*
X50126Y350045D01*
X52728Y352064D01*
X55109Y354251D01*
X73018Y343876D01*
D02*
G37*
G36*
X209816Y340076D02*
X211492Y340000D01*
Y330000D01*
X210080Y329969D01*
X209816Y329944D01*
Y326859D01*
X208967Y327456D01*
X208054Y327990D01*
X207079Y328461D01*
X206042Y328869D01*
X205000Y329197D01*
X203958Y328869D01*
X202920Y328461D01*
X201946Y327990D01*
X201033Y327456D01*
X200183Y326859D01*
Y329924D01*
X198508Y330000D01*
Y340000D01*
X199920Y340031D01*
X200183Y340056D01*
Y343141D01*
X201033Y342544D01*
X201946Y342010D01*
X202920Y341539D01*
X203958Y341131D01*
X205000Y340803D01*
X206042Y341131D01*
X207079Y341539D01*
X208054Y342010D01*
X208967Y342544D01*
X209816Y343141D01*
Y340076D01*
D02*
G37*
G36*
X250680Y365054D02*
X250139Y364111D01*
X249661Y363093D01*
X249247Y361999D01*
X248896Y360831D01*
X248610Y359587D01*
X248387Y358268D01*
X248227Y356874D01*
X248100Y353860D01*
X238100D01*
X238068Y355404D01*
X237813Y358268D01*
X237590Y359587D01*
X237304Y360831D01*
X236953Y361999D01*
X236539Y363093D01*
X236061Y364111D01*
X235520Y365054D01*
X234914Y365922D01*
X251286D01*
X250680Y365054D01*
D02*
G37*
G36*
X415839Y313286D02*
X416641Y312585D01*
X416805Y312468D01*
X416954Y312373D01*
X417088Y312302D01*
X417208Y312253D01*
X417313Y312228D01*
X414772Y309687D01*
X414747Y309792D01*
X414698Y309912D01*
X414627Y310046D01*
X414532Y310195D01*
X414415Y310359D01*
X414110Y310730D01*
X413714Y311161D01*
X413481Y311398D01*
X415602Y313519D01*
X415839Y313286D01*
D02*
G37*
G36*
X497156Y275156D02*
X501844D01*
X501684Y275020D01*
X501540Y274840D01*
X501414Y274615D01*
X501304Y274345D01*
X501211Y274029D01*
X501135Y273669D01*
X501076Y273264D01*
X501012Y272363D01*
X501013Y272323D01*
X501051Y271895D01*
X501114Y271497D01*
X501203Y271131D01*
X501317Y270794D01*
X501457Y270487D01*
X501622Y270212D01*
X501812Y269966D01*
X502028Y269751D01*
X502269Y269566D01*
X496731D01*
X496972Y269751D01*
X497188Y269966D01*
X497378Y270212D01*
X497543Y270487D01*
X497683Y270794D01*
X497797Y271131D01*
X497886Y271497D01*
X497949Y271895D01*
X497987Y272323D01*
X497988Y272363D01*
X497924Y273264D01*
X497865Y273669D01*
X497789Y274029D01*
X497696Y274345D01*
X497586Y274615D01*
X497460Y274840D01*
X497316Y275020D01*
X497156Y275156D01*
X496960Y275411D01*
X496732Y275640D01*
X496472Y275841D01*
X496180Y276016D01*
X495856Y276164D01*
X495500Y276285D01*
X495112Y276379D01*
X494749Y276437D01*
X494582Y276426D01*
X494383Y276393D01*
X494211Y276355D01*
X494065Y276310D01*
X493946Y276259D01*
X493854Y276203D01*
Y276497D01*
X493754Y276500D01*
Y279500D01*
X493854Y279503D01*
Y279797D01*
X493946Y279741D01*
X494065Y279690D01*
X494211Y279646D01*
X494383Y279607D01*
X494582Y279574D01*
X494728Y279560D01*
X495112Y279621D01*
X495500Y279715D01*
X495856Y279836D01*
X496180Y279984D01*
X496472Y280159D01*
X496732Y280360D01*
X496960Y280589D01*
X497156Y280844D01*
Y275156D01*
D02*
G37*
G36*
X493146Y285203D02*
X493054Y285259D01*
X492935Y285310D01*
X492789Y285354D01*
X492617Y285393D01*
X492418Y285426D01*
X491940Y285473D01*
X491355Y285497D01*
X491023Y285500D01*
Y288500D01*
X491355Y288503D01*
X492418Y288574D01*
X492617Y288607D01*
X492789Y288645D01*
X492935Y288690D01*
X493054Y288741D01*
X493146Y288797D01*
Y285203D01*
D02*
G37*
G36*
X498646Y291203D02*
X498554Y291259D01*
X498435Y291310D01*
X498289Y291355D01*
X498117Y291393D01*
X497918Y291426D01*
X497440Y291473D01*
X496855Y291497D01*
X496523Y291500D01*
Y294500D01*
X496855Y294503D01*
X497918Y294574D01*
X498117Y294607D01*
X498289Y294646D01*
X498435Y294690D01*
X498554Y294741D01*
X498646Y294797D01*
Y291203D01*
D02*
G37*
G36*
X437813Y415772D02*
X437708Y415747D01*
X437588Y415698D01*
X437454Y415627D01*
X437305Y415532D01*
X437141Y415415D01*
X436769Y415110D01*
X436339Y414714D01*
X436102Y414481D01*
X433981Y416602D01*
X434214Y416839D01*
X434915Y417641D01*
X435032Y417805D01*
X435127Y417954D01*
X435198Y418088D01*
X435247Y418208D01*
X435272Y418313D01*
X437813Y415772D01*
D02*
G37*
G36*
X452240Y416554D02*
X452190Y416435D01*
X452146Y416289D01*
X452107Y416117D01*
X452074Y415918D01*
X452027Y415440D01*
X452003Y414855D01*
X452000Y414523D01*
X449000D01*
X448997Y414855D01*
X448926Y415918D01*
X448893Y416117D01*
X448854Y416289D01*
X448810Y416435D01*
X448759Y416554D01*
X448703Y416646D01*
X452297D01*
X452240Y416554D01*
D02*
G37*
G36*
X201033Y442544D02*
X201946Y442010D01*
X202920Y441539D01*
X203958Y441131D01*
X205000Y440803D01*
X206042Y441131D01*
X207080Y441539D01*
X208054Y442010D01*
X208967Y442544D01*
X209816Y443141D01*
Y440076D01*
X211492Y440000D01*
Y430000D01*
X210080Y429969D01*
X209816Y429943D01*
Y426859D01*
X208967Y427455D01*
X208054Y427990D01*
X207079Y428461D01*
X206042Y428869D01*
X205000Y429197D01*
X203958Y428869D01*
X202920Y428461D01*
X201946Y427990D01*
X201033Y427456D01*
X200183Y426859D01*
Y429924D01*
X198508Y430000D01*
Y440000D01*
X199920Y440031D01*
X200183Y440056D01*
Y443141D01*
X201033Y442544D01*
D02*
G37*
G36*
X401753Y418208D02*
X401802Y418088D01*
X401873Y417954D01*
X401968Y417805D01*
X402085Y417641D01*
X402390Y417270D01*
X402786Y416839D01*
X403019Y416602D01*
X400898Y414481D01*
X400661Y414714D01*
X399859Y415415D01*
X399695Y415532D01*
X399546Y415627D01*
X399412Y415698D01*
X399292Y415747D01*
X399187Y415772D01*
X401728Y418313D01*
X401753Y418208D01*
D02*
G37*
G36*
X355083Y374080D02*
X362923D01*
X362463Y373753D01*
X362051Y373419D01*
X361688Y373078D01*
X361374Y372730D01*
X361108Y372374D01*
X360890Y372012D01*
X360720Y371643D01*
X360599Y371266D01*
X360527Y370883D01*
X360503Y370492D01*
X357503D01*
X357478Y370883D01*
X357406Y371266D01*
X357285Y371643D01*
X357115Y372012D01*
X356898Y372374D01*
X356631Y372730D01*
X356317Y373078D01*
X355954Y373419D01*
X355542Y373753D01*
X355083Y374080D01*
X354816Y374445D01*
X354529Y374771D01*
X354221Y375059D01*
X353893Y375309D01*
X353544Y375520D01*
X353175Y375693D01*
X352786Y375827D01*
X352376Y375923D01*
X351945Y375981D01*
X351494Y376000D01*
Y379000D01*
X351945Y379019D01*
X352376Y379077D01*
X352786Y379173D01*
X353175Y379307D01*
X353544Y379480D01*
X353893Y379691D01*
X354221Y379941D01*
X354529Y380229D01*
X354816Y380555D01*
X355083Y380920D01*
Y374080D01*
D02*
G37*
G36*
X343861Y380001D02*
X344216Y379791D01*
X344592Y379605D01*
X344991Y379445D01*
X345411Y379309D01*
X345853Y379198D01*
X346317Y379111D01*
X346802Y379049D01*
X347309Y379012D01*
X347839Y379000D01*
X348656Y376000D01*
X347924Y375970D01*
X347287Y375880D01*
X346745Y375730D01*
X346299Y375520D01*
X345948Y375250D01*
X345693Y374920D01*
X345533Y374530D01*
X345468Y374080D01*
X345499Y373570D01*
X345625Y373000D01*
X343528Y380236D01*
X343861Y380001D01*
D02*
G37*
G36*
X171035Y417722D02*
X170211Y416888D01*
X167448Y413768D01*
X167167Y413355D01*
X166977Y413012D01*
X166878Y412739D01*
X166869Y412537D01*
X158600Y420287D01*
X158788Y420312D01*
X159053Y420431D01*
X159396Y420645D01*
X159816Y420954D01*
X160889Y421855D01*
X163079Y423917D01*
X163965Y424793D01*
X171035Y417722D01*
D02*
G37*
G36*
X472431Y275231D02*
X472247Y275472D01*
X472031Y275688D01*
X471786Y275878D01*
X471510Y276043D01*
X471204Y276183D01*
X470867Y276297D01*
X470500Y276386D01*
X470103Y276449D01*
X469675Y276487D01*
X469216Y276500D01*
Y279500D01*
X469675Y279513D01*
X470103Y279551D01*
X470500Y279614D01*
X470867Y279703D01*
X471204Y279817D01*
X471510Y279957D01*
X471786Y280122D01*
X472031Y280312D01*
X472247Y280528D01*
X472431Y280769D01*
Y275231D01*
D02*
G37*
G36*
X487753Y280528D02*
X487969Y280312D01*
X488214Y280122D01*
X488490Y279957D01*
X488796Y279817D01*
X489133Y279703D01*
X489500Y279614D01*
X489897Y279551D01*
X489971Y279544D01*
X490418Y279574D01*
X490617Y279607D01*
X490789Y279646D01*
X490935Y279690D01*
X491054Y279741D01*
X491146Y279797D01*
Y276203D01*
X491054Y276259D01*
X490935Y276310D01*
X490789Y276355D01*
X490617Y276393D01*
X490418Y276426D01*
X490048Y276463D01*
X489897Y276449D01*
X489500Y276386D01*
X489133Y276297D01*
X488796Y276183D01*
X488490Y276043D01*
X488214Y275878D01*
X487969Y275688D01*
X487753Y275472D01*
X487569Y275231D01*
Y280769D01*
X487753Y280528D01*
D02*
G37*
G36*
X632000Y279000D02*
Y276000D01*
X630000Y274000D01*
X560000D01*
Y272000D01*
X632000D01*
X634000Y274000D01*
Y274387D01*
X635848Y275152D01*
X645259Y265741D01*
X644323Y263848D01*
X637000D01*
X633726Y263417D01*
X630676Y262154D01*
X628056Y260144D01*
X626046Y257524D01*
X624783Y254474D01*
X624352Y251200D01*
X624783Y247926D01*
X626046Y244876D01*
X628056Y242256D01*
X630676Y240246D01*
X633726Y238983D01*
X637000Y238552D01*
X645000D01*
X648274Y238983D01*
X651324Y240246D01*
X653944Y242256D01*
X655954Y244876D01*
X657217Y247926D01*
X657570Y250602D01*
X659474Y251526D01*
X672000Y239000D01*
Y190000D01*
X578456D01*
X578273Y190273D01*
X576771Y191277D01*
X575000Y191629D01*
X573824D01*
X572856Y192298D01*
X572111Y193629D01*
X572384Y195000D01*
X572012Y196869D01*
X571647Y197414D01*
X571592Y198243D01*
X571590Y198500D01*
X571489Y198983D01*
X571393Y199468D01*
X571386Y199478D01*
X571384Y199489D01*
X571105Y199898D01*
X571069Y199953D01*
Y202000D01*
X570797Y203366D01*
X570023Y204523D01*
X565523Y209023D01*
X564366Y209797D01*
X563000Y210069D01*
X521000D01*
X519634Y209797D01*
X518477Y209023D01*
X512869Y203416D01*
X511500Y203596D01*
X509793Y203372D01*
X508202Y202713D01*
X506836Y201664D01*
X505787Y200298D01*
X505128Y198707D01*
X504904Y197000D01*
X505084Y195631D01*
X498022Y188569D01*
X486478D01*
X481309Y193738D01*
X481967Y195908D01*
X482369Y195988D01*
X483953Y197047D01*
X485012Y198631D01*
X485384Y200500D01*
X485012Y202369D01*
X483953Y203953D01*
X482442Y204963D01*
X482369Y205439D01*
Y206561D01*
X482426Y206930D01*
X482528Y207095D01*
X483953Y208047D01*
X485012Y209631D01*
X485384Y211500D01*
X485012Y213369D01*
X483953Y214953D01*
X482369Y216012D01*
X481725Y216140D01*
X481101Y216686D01*
X480917Y216867D01*
X480504Y217138D01*
X480093Y217412D01*
X480081Y217414D01*
X480072Y217421D01*
X479586Y217513D01*
X479521Y217526D01*
X477569Y219478D01*
Y224769D01*
X479416Y225534D01*
X481474Y223477D01*
X481487Y223411D01*
X481579Y222926D01*
X481586Y222916D01*
X481588Y222904D01*
X481863Y222493D01*
X482133Y222081D01*
X482337Y221873D01*
X482655Y221528D01*
X482858Y221280D01*
X482988Y220629D01*
X484047Y219044D01*
X485631Y217985D01*
X487500Y217614D01*
X489369Y217985D01*
X490953Y219044D01*
X492012Y220629D01*
X492384Y222498D01*
X492012Y224366D01*
X490953Y225951D01*
X489442Y226961D01*
X489369Y227436D01*
Y228559D01*
X489426Y228927D01*
X489529Y229092D01*
X490953Y230044D01*
X492012Y231628D01*
X492384Y233498D01*
X492012Y235366D01*
X491647Y235912D01*
X491592Y236741D01*
X491590Y236998D01*
X491489Y237481D01*
X491393Y237966D01*
X491386Y237975D01*
X491384Y237987D01*
X491105Y238396D01*
X491069Y238451D01*
Y257500D01*
X490797Y258866D01*
X490023Y260023D01*
X486026Y264021D01*
X486013Y264086D01*
X485921Y264572D01*
X485914Y264582D01*
X485912Y264593D01*
X485637Y265004D01*
X485367Y265417D01*
X485163Y265625D01*
X484845Y265969D01*
X484642Y266217D01*
X484512Y266869D01*
X483453Y268453D01*
X481869Y269512D01*
X480000Y269884D01*
X478131Y269512D01*
X476547Y268453D01*
X475537Y266942D01*
X475061Y266869D01*
X473939D01*
X473463Y266942D01*
X472453Y268453D01*
X470869Y269512D01*
X469000Y269884D01*
X467131Y269512D01*
X465547Y268453D01*
X464488Y266869D01*
X464423Y266541D01*
X462500Y264884D01*
X460631Y264512D01*
X459047Y263453D01*
X457988Y261869D01*
X457616Y260000D01*
X457988Y258131D01*
X458454Y257433D01*
X458463Y257402D01*
X458567Y257265D01*
X458580Y257245D01*
X458590Y257221D01*
X458598Y257186D01*
X458605Y257150D01*
X458656Y256528D01*
X458660Y256293D01*
X458697Y256119D01*
X458689Y255942D01*
X458801Y255629D01*
X458871Y255305D01*
X458972Y255158D01*
X459032Y254991D01*
X459180Y254828D01*
Y250251D01*
X459452Y248885D01*
X459494Y248822D01*
X458584Y246602D01*
X458131Y246512D01*
X456547Y245453D01*
X455488Y243869D01*
X455116Y242000D01*
X455488Y240131D01*
X455853Y239585D01*
X455908Y238757D01*
X455910Y238500D01*
X456011Y238017D01*
X456107Y237532D01*
X456114Y237522D01*
X456116Y237511D01*
X456395Y237102D01*
X456431Y237047D01*
Y210000D01*
X456703Y208634D01*
X457477Y207477D01*
X482477Y182477D01*
X483634Y181703D01*
X485000Y181431D01*
X499500D01*
X500866Y181703D01*
X502023Y182477D01*
X510131Y190584D01*
X511500Y190404D01*
X513207Y190628D01*
X514798Y191287D01*
X516164Y192336D01*
X517213Y193702D01*
X517872Y195293D01*
X518096Y197000D01*
X517916Y198369D01*
X522478Y202931D01*
X561439D01*
X562828Y201472D01*
X562788Y200988D01*
X561186Y199648D01*
X560000Y199884D01*
X558131Y199512D01*
X556547Y198453D01*
X555488Y196869D01*
X555316Y196004D01*
X555298Y195973D01*
X555279Y195817D01*
X555267Y195757D01*
X555258Y195734D01*
X555241Y195707D01*
X555225Y195683D01*
X554830Y195212D01*
X554671Y195048D01*
X554558Y194874D01*
X554409Y194731D01*
X554287Y194454D01*
X554122Y194200D01*
X554085Y193996D01*
X554001Y193806D01*
X553996Y193577D01*
X553932Y193535D01*
X553547Y193300D01*
X553514Y193255D01*
X553468Y193225D01*
X553217Y192849D01*
X552950Y192484D01*
X552937Y192430D01*
X552906Y192384D01*
X552818Y191941D01*
X552729Y191575D01*
X551229Y191277D01*
X550301Y190657D01*
X550234Y190632D01*
X550153Y190558D01*
X549727Y190273D01*
X549542Y189997D01*
X549490Y189949D01*
X549292Y189678D01*
X549165Y189534D01*
X549045Y189422D01*
X548931Y189335D01*
X548818Y189267D01*
X548699Y189211D01*
X548563Y189164D01*
X548405Y189127D01*
X548215Y189102D01*
X547882Y189087D01*
X547443Y188981D01*
X547001Y188893D01*
X546954Y188862D01*
X546900Y188848D01*
X546536Y188582D01*
X546516Y188569D01*
X545000D01*
X543634Y188297D01*
X542477Y187523D01*
X529623Y174670D01*
X527164Y174664D01*
X525798Y175713D01*
X524207Y176372D01*
X522500Y176596D01*
X520793Y176372D01*
X519202Y175713D01*
X517836Y174664D01*
X516995Y173569D01*
X472478D01*
X462569Y183478D01*
Y191000D01*
X462297Y192366D01*
X461523Y193523D01*
X451569Y203478D01*
Y242719D01*
X452512Y244131D01*
X452884Y246000D01*
X452512Y247869D01*
X451453Y249453D01*
X449869Y250512D01*
X448000Y250884D01*
X446131Y250512D01*
X444547Y249453D01*
X443488Y247869D01*
X443116Y246000D01*
X443488Y244131D01*
X444431Y242719D01*
Y202000D01*
X444703Y200634D01*
X445477Y199477D01*
X455431Y189522D01*
Y182000D01*
X455703Y180634D01*
X456477Y179477D01*
X468477Y167477D01*
X469634Y166703D01*
X471000Y166431D01*
X516995D01*
X517836Y165336D01*
X519202Y164287D01*
X520793Y163628D01*
X522500Y163404D01*
X524207Y163628D01*
X525798Y164287D01*
X527164Y165336D01*
X528005Y166431D01*
X530000D01*
X531366Y166703D01*
X532523Y167477D01*
X535633Y170586D01*
X536047Y171000D01*
X538433Y171000D01*
X540000Y170000D01*
X541772Y168228D01*
X542756Y166756D01*
X544244Y165761D01*
X546000Y165412D01*
X547489D01*
X548737Y165266D01*
X549241Y165170D01*
X549716Y165050D01*
X550138Y164915D01*
X550508Y164768D01*
X550826Y164611D01*
X551178Y164399D01*
X551203Y164390D01*
X551439Y164232D01*
X551885Y164144D01*
X551926Y164129D01*
X551953Y164130D01*
X553000Y163922D01*
X558000D01*
X559047Y164130D01*
X559074Y164129D01*
X559115Y164144D01*
X559561Y164232D01*
X559797Y164390D01*
X559823Y164399D01*
X560174Y164611D01*
X560492Y164768D01*
X560862Y164915D01*
X561256Y165041D01*
X562314Y165275D01*
X562845Y165349D01*
X563699Y165412D01*
X564489D01*
X565737Y165266D01*
X566241Y165170D01*
X566716Y165050D01*
X567138Y164915D01*
X567508Y164768D01*
X567826Y164611D01*
X568177Y164399D01*
X568203Y164390D01*
X568439Y164232D01*
X568885Y164144D01*
X568926Y164129D01*
X568953Y164130D01*
X570000Y163922D01*
X575000D01*
X576561Y164232D01*
X577884Y165116D01*
X578768Y166439D01*
X579078Y168000D01*
Y172000D01*
X578768Y173561D01*
X577884Y174884D01*
X576561Y175768D01*
X575000Y176078D01*
X570000D01*
X568953Y175870D01*
X568926Y175871D01*
X568885Y175856D01*
X568439Y175768D01*
X568203Y175610D01*
X568177Y175601D01*
X567826Y175389D01*
X567508Y175232D01*
X567138Y175085D01*
X566744Y174959D01*
X565686Y174725D01*
X565155Y174651D01*
X564301Y174588D01*
X563511D01*
X562263Y174734D01*
X561759Y174830D01*
X561284Y174950D01*
X560862Y175085D01*
X560492Y175232D01*
X560174Y175389D01*
X559823Y175601D01*
X559797Y175610D01*
X559561Y175768D01*
X559115Y175856D01*
X559074Y175871D01*
X559047Y175870D01*
X558000Y176078D01*
X553000D01*
X551953Y175870D01*
X551926Y175871D01*
X551884Y175856D01*
X551439Y175768D01*
X551203Y175610D01*
X551177Y175601D01*
X550826Y175389D01*
X550508Y175232D01*
X550138Y175085D01*
X549744Y174959D01*
X548685Y174725D01*
X548155Y174651D01*
X547301Y174588D01*
X546000D01*
X544244Y174239D01*
X542756Y173244D01*
X542482Y172835D01*
X541508Y172343D01*
X539465Y172933D01*
X539198Y173115D01*
X538895Y173848D01*
X546478Y181431D01*
X546516D01*
X546536Y181418D01*
X546900Y181152D01*
X546954Y181138D01*
X547001Y181107D01*
X547443Y181019D01*
X547882Y180913D01*
X548215Y180898D01*
X548405Y180873D01*
X548563Y180836D01*
X548699Y180789D01*
X548818Y180733D01*
X548931Y180665D01*
X549045Y180578D01*
X549165Y180466D01*
X549292Y180322D01*
X549490Y180051D01*
X549542Y180003D01*
X549727Y179727D01*
X550153Y179442D01*
X550234Y179368D01*
X550301Y179343D01*
X551229Y178723D01*
X553000Y178371D01*
X558000D01*
X559771Y178723D01*
X561273Y179727D01*
X562277Y181229D01*
X562629Y183000D01*
Y185569D01*
X564463Y186260D01*
X565371Y185406D01*
Y183000D01*
X565723Y181229D01*
X566727Y179727D01*
X568229Y178723D01*
X570000Y178371D01*
X575000D01*
X576771Y178723D01*
X578273Y179727D01*
X579277Y181229D01*
X579629Y183000D01*
Y187000D01*
X580450Y188000D01*
X629442D01*
X629981Y186000D01*
X627728Y184272D01*
X625644Y181556D01*
X624335Y178394D01*
X623888Y175000D01*
X624335Y171606D01*
X625644Y168444D01*
X627728Y165728D01*
X630444Y163645D01*
X633606Y162335D01*
X637000Y161888D01*
X645000D01*
X648394Y162335D01*
X651556Y163645D01*
X654272Y165728D01*
X656356Y168444D01*
X657665Y171606D01*
X658112Y175000D01*
X657665Y178394D01*
X656356Y181556D01*
X654272Y184272D01*
X652019Y186000D01*
X652558Y188000D01*
X672000D01*
Y46000D01*
X664837D01*
X664837Y46000D01*
X662272Y45874D01*
X657242Y44873D01*
X652504Y42911D01*
X648240Y40061D01*
X646337Y38337D01*
X633663Y25663D01*
X633663Y25663D01*
X631938Y23760D01*
X629089Y19496D01*
X627127Y14758D01*
X626126Y9728D01*
X626000Y7163D01*
Y2000D01*
X260000D01*
Y9163D01*
X262000Y10754D01*
X262400Y10701D01*
X271400D01*
X273173Y10935D01*
X274824Y11619D01*
X276243Y12707D01*
X277331Y14126D01*
X278015Y15777D01*
X278249Y17550D01*
Y21196D01*
X278260Y21198D01*
X278774Y21222D01*
X279250Y21339D01*
X279726Y21450D01*
X279739Y21460D01*
X279755Y21464D01*
X280130Y21740D01*
X282142D01*
X282836Y20836D01*
X284202Y19787D01*
X285793Y19128D01*
X287500Y18904D01*
X289207Y19128D01*
X290798Y19787D01*
X292164Y20836D01*
X292586Y21384D01*
X294726Y21571D01*
X294824Y21494D01*
X294894Y21475D01*
X294953Y21434D01*
X295379Y21341D01*
X295798Y21226D01*
X295870Y21235D01*
X295940Y21219D01*
X298180Y21180D01*
X298573Y21151D01*
X298585Y21149D01*
X298619Y21142D01*
X298623Y21142D01*
X298696Y21111D01*
X298800Y21110D01*
X300000Y20871D01*
X305000D01*
X306771Y21223D01*
X307666Y21821D01*
X307717Y21838D01*
X307796Y21908D01*
X308273Y22227D01*
X308436Y22470D01*
X308476Y22505D01*
X308580Y22641D01*
X308586Y22647D01*
X308606Y22663D01*
X308657Y22693D01*
X308749Y22735D01*
X308891Y22784D01*
X309088Y22831D01*
X309340Y22872D01*
X309648Y22899D01*
X310080Y22911D01*
X310538Y23016D01*
X310999Y23107D01*
X311030Y23128D01*
X311065Y23136D01*
X311449Y23408D01*
X311839Y23669D01*
X311860Y23699D01*
X311889Y23720D01*
X312075Y24015D01*
X312766Y24477D01*
X314523Y26234D01*
X315297Y27392D01*
X315569Y28757D01*
Y262022D01*
X335978Y282431D01*
X375000D01*
X376366Y282703D01*
X377523Y283477D01*
X384478Y290431D01*
X405094D01*
X406460Y290703D01*
X407175Y291181D01*
X407500Y291116D01*
X409369Y291488D01*
X410953Y292547D01*
X412012Y294131D01*
X412384Y296000D01*
X412012Y297869D01*
X410953Y299453D01*
X409369Y300512D01*
X407500Y300884D01*
X407292Y300842D01*
X405409Y301492D01*
X405222Y302315D01*
X405012Y303369D01*
X403953Y304953D01*
X402369Y306012D01*
X400500Y306384D01*
X398631Y306012D01*
X397219Y305069D01*
X378500D01*
X377134Y304797D01*
X375977Y304023D01*
X368522Y296569D01*
X326000D01*
X324634Y296297D01*
X323477Y295523D01*
X282477Y254523D01*
X281703Y253366D01*
X281431Y252000D01*
Y155005D01*
X280336Y154164D01*
X279287Y152798D01*
X278628Y151207D01*
X278404Y149500D01*
X278628Y147793D01*
X279287Y146202D01*
X280336Y144836D01*
X281133Y144224D01*
X281139Y143312D01*
X279147Y142178D01*
X278081Y142821D01*
X278015Y143322D01*
X277331Y144974D01*
X276243Y146393D01*
X274824Y147481D01*
X273173Y148165D01*
X271400Y148399D01*
X262400D01*
X260806Y149790D01*
X260802Y150523D01*
X262147Y151831D01*
X262612Y152078D01*
X264400D01*
Y162700D01*
Y173322D01*
X262400D01*
X261546Y173153D01*
X260000Y174421D01*
X260000Y270000D01*
X330000Y340000D01*
Y359663D01*
X332000Y361254D01*
X332400Y361201D01*
X341400D01*
X343173Y361435D01*
X344824Y362119D01*
X346243Y363207D01*
X347331Y364626D01*
X348015Y366277D01*
X348249Y368050D01*
Y373391D01*
X348762Y373412D01*
X349045Y373481D01*
X349337Y373501D01*
X349532Y373599D01*
X349744Y373650D01*
X349980Y373822D01*
X350093Y373878D01*
X350402Y373652D01*
X350457Y373638D01*
X350503Y373607D01*
X350946Y373519D01*
X351384Y373413D01*
X351718Y373398D01*
X351908Y373373D01*
X352066Y373336D01*
X352201Y373289D01*
X352321Y373233D01*
X352434Y373165D01*
X352548Y373078D01*
X352667Y372966D01*
X352794Y372822D01*
X352992Y372551D01*
X353045Y372503D01*
X353229Y372227D01*
X353526Y372029D01*
X353582Y371969D01*
X353974Y371690D01*
X354249Y371468D01*
X354466Y371263D01*
X354630Y371082D01*
X354746Y370927D01*
X354821Y370802D01*
X354866Y370704D01*
X354891Y370627D01*
X354904Y370560D01*
X354918Y370332D01*
X355027Y369919D01*
X355110Y369501D01*
X355155Y369433D01*
X355176Y369355D01*
X355434Y369016D01*
Y368505D01*
X354338Y367664D01*
X353290Y366298D01*
X352631Y364707D01*
X352406Y363000D01*
X352631Y361293D01*
X353290Y359702D01*
X354338Y358336D01*
X355434Y357495D01*
Y346997D01*
X355706Y345632D01*
X356479Y344474D01*
X388477Y312477D01*
X389634Y311703D01*
X391000Y311431D01*
X410522D01*
X410974Y310979D01*
X410987Y310914D01*
X411079Y310428D01*
X411086Y310418D01*
X411088Y310407D01*
X411363Y309996D01*
X411633Y309583D01*
X411837Y309375D01*
X412155Y309031D01*
X412359Y308782D01*
X412363Y308776D01*
X412379Y308696D01*
X412549Y308441D01*
X412677Y308164D01*
X412827Y308025D01*
X412941Y307855D01*
X413195Y307686D01*
X413420Y307478D01*
X413611Y307407D01*
X413629Y307396D01*
X413936Y306936D01*
X415342Y305997D01*
X417000Y305667D01*
X418658Y305997D01*
X419431Y306513D01*
X421376Y305680D01*
X421431Y305627D01*
Y289500D01*
X421703Y288134D01*
X422477Y286977D01*
X433977Y275477D01*
X435134Y274703D01*
X436170Y274497D01*
X436848Y273659D01*
X437228Y272814D01*
X436423Y270829D01*
X435172Y270520D01*
X435130Y270511D01*
X434397Y270021D01*
X434154Y269914D01*
X434008Y269811D01*
X433932Y269765D01*
X433858Y269726D01*
X433782Y269692D01*
X433702Y269664D01*
X433618Y269639D01*
X433525Y269619D01*
X433423Y269604D01*
X433310Y269594D01*
X433109Y269588D01*
X432652Y269484D01*
X432192Y269392D01*
X432161Y269371D01*
X432124Y269363D01*
X431742Y269091D01*
X431693Y269058D01*
X430999D01*
X429829Y268825D01*
X428837Y268162D01*
X428837Y268162D01*
X420337Y259663D01*
X419674Y258671D01*
X419441Y257500D01*
X419441Y257500D01*
Y256276D01*
X419200Y255974D01*
X419169Y255867D01*
X419107Y255775D01*
X419030Y255385D01*
X419005Y255300D01*
X418977Y255268D01*
X418904Y255196D01*
X418506Y254872D01*
X418248Y254691D01*
X418188Y254629D01*
X417878Y254422D01*
X417622Y254039D01*
X417548Y253962D01*
X417517Y253881D01*
X417151Y253334D01*
X416895Y252050D01*
Y247550D01*
X417151Y246266D01*
X417878Y245178D01*
Y244822D01*
X417151Y243734D01*
X416895Y242450D01*
Y237950D01*
X417151Y236666D01*
X417472Y236186D01*
X417489Y236135D01*
X417559Y236056D01*
X417878Y235578D01*
X418121Y235416D01*
X418156Y235376D01*
X418245Y235308D01*
X418246Y235305D01*
X418272Y235249D01*
X418307Y235145D01*
X418345Y234990D01*
X418378Y234783D01*
X418401Y234524D01*
X418411Y234145D01*
X418516Y233687D01*
X418607Y233225D01*
X418628Y233195D01*
X418636Y233160D01*
X418908Y232776D01*
X418931Y232740D01*
Y224500D01*
X419203Y223134D01*
X419977Y221977D01*
X424431Y217522D01*
Y164000D01*
X424703Y162634D01*
X425477Y161477D01*
X447477Y139477D01*
X448634Y138703D01*
X450000Y138431D01*
X516522D01*
X536584Y118369D01*
X536404Y117000D01*
X536628Y115293D01*
X537287Y113702D01*
X538336Y112336D01*
X539702Y111287D01*
X541293Y110628D01*
X543000Y110404D01*
X544431Y108575D01*
Y106000D01*
X544703Y104634D01*
X545477Y103477D01*
X551477Y97477D01*
X552634Y96703D01*
X554000Y96431D01*
X566522D01*
X575804Y87149D01*
X576962Y86376D01*
X577179Y86333D01*
X577489Y86127D01*
X577783Y85886D01*
X577907Y85849D01*
X578014Y85778D01*
X578387Y85704D01*
X578751Y85595D01*
X578762Y85594D01*
X578802Y85570D01*
X578950Y85455D01*
X579153Y85268D01*
X579377Y85031D01*
X580008Y84238D01*
X580349Y83747D01*
X580413Y83686D01*
X580465Y83608D01*
X580489Y83565D01*
X580500Y83555D01*
X580622Y83372D01*
X581000Y83120D01*
X581076Y83046D01*
X581159Y83014D01*
X581237Y82962D01*
X581275Y82930D01*
X581289Y82926D01*
X582000Y82452D01*
X583625Y82128D01*
X588875D01*
X590500Y82452D01*
X591878Y83372D01*
X592798Y84750D01*
X593122Y86375D01*
Y89625D01*
X592798Y91250D01*
X591878Y92628D01*
X590500Y93548D01*
X588875Y93872D01*
X583625D01*
X582860Y93720D01*
X580276Y93762D01*
X580252Y93758D01*
X580227Y93763D01*
X579756Y93668D01*
X579437Y93610D01*
X570523Y102523D01*
X569366Y103297D01*
X568000Y103569D01*
X555478D01*
X551569Y107478D01*
Y112000D01*
X551297Y113366D01*
X550523Y114523D01*
X549416Y115631D01*
X549596Y117000D01*
X549372Y118707D01*
X548713Y120298D01*
X547664Y121664D01*
X546298Y122713D01*
X544707Y123372D01*
X543000Y123596D01*
X541631Y123416D01*
X520523Y144523D01*
X519366Y145297D01*
X518000Y145569D01*
X451478D01*
X431569Y165478D01*
Y219000D01*
X431297Y220366D01*
X430523Y221523D01*
X426069Y225978D01*
Y232740D01*
X426092Y232776D01*
X426364Y233160D01*
X426372Y233195D01*
X426393Y233225D01*
X426484Y233687D01*
X426589Y234145D01*
X426599Y234524D01*
X426622Y234783D01*
X426655Y234990D01*
X426693Y235145D01*
X426728Y235249D01*
X426754Y235305D01*
X426755Y235308D01*
X426844Y235376D01*
X426879Y235416D01*
X427122Y235578D01*
X427389Y235977D01*
X427458Y236005D01*
X427948Y236086D01*
X428347Y236110D01*
X429557Y235999D01*
X429611Y235977D01*
X429878Y235578D01*
X430966Y234851D01*
X432250Y234596D01*
X434431D01*
Y172000D01*
X434703Y170634D01*
X435477Y169477D01*
X455477Y149477D01*
X456634Y148703D01*
X458000Y148431D01*
X534509D01*
X536404Y147500D01*
X536628Y145793D01*
X537287Y144202D01*
X538336Y142836D01*
X539702Y141787D01*
X541293Y141128D01*
X543000Y140904D01*
X543928Y141026D01*
X547477Y137477D01*
X548634Y136703D01*
X550000Y136431D01*
X572772D01*
X577456Y131747D01*
X577526Y131287D01*
X577547Y131252D01*
X577554Y131212D01*
X577807Y130821D01*
X578048Y130422D01*
X578354Y130086D01*
X578556Y129819D01*
X578738Y129525D01*
X578901Y129200D01*
X579045Y128839D01*
X579169Y128437D01*
X579270Y127991D01*
X579345Y127499D01*
X579378Y127118D01*
Y126375D01*
X579449Y126019D01*
X579447Y125935D01*
X579486Y125834D01*
X579702Y124750D01*
X580622Y123372D01*
X582000Y122452D01*
X583625Y122128D01*
X588875D01*
X590500Y122452D01*
X591878Y123372D01*
X592798Y124750D01*
X593122Y126375D01*
Y129625D01*
X592798Y131250D01*
X591878Y132628D01*
X590500Y133548D01*
X588875Y133872D01*
X586393D01*
X586082Y134091D01*
X585484Y134587D01*
X584778Y135254D01*
X584397Y135494D01*
X584026Y135750D01*
X583971Y135761D01*
X583923Y135792D01*
X583479Y135867D01*
X583416Y135880D01*
X576773Y142523D01*
X575616Y143297D01*
X574250Y143569D01*
X551478D01*
X549337Y145709D01*
X549372Y145793D01*
X549596Y147500D01*
X549372Y149207D01*
X548713Y150798D01*
X547664Y152164D01*
X546298Y153213D01*
X544707Y153872D01*
X543000Y154096D01*
X541293Y153872D01*
X541209Y153837D01*
X540523Y154523D01*
X539366Y155297D01*
X538000Y155569D01*
X459478D01*
X441569Y173478D01*
Y236943D01*
X441504Y237267D01*
X441547Y237482D01*
X441650Y237951D01*
X441645Y237977D01*
X441650Y238003D01*
X441557Y238474D01*
X441473Y238946D01*
X441459Y238968D01*
X441453Y238994D01*
X441187Y239393D01*
X440929Y239797D01*
X440113Y240647D01*
X440104Y240656D01*
Y242450D01*
X439849Y243734D01*
X439122Y244822D01*
Y245178D01*
X439849Y246266D01*
X440104Y247550D01*
Y251279D01*
X441572Y252746D01*
X441572Y252746D01*
X444412Y255586D01*
X445075Y256579D01*
X445308Y257749D01*
X445308Y257749D01*
Y267449D01*
X445452Y267546D01*
X446511Y269130D01*
X446883Y271000D01*
X446598Y272431D01*
X447689Y274431D01*
X469772D01*
X469851Y274424D01*
X470099Y274385D01*
X470299Y274336D01*
X470452Y274285D01*
X470561Y274235D01*
X470634Y274191D01*
X470680Y274156D01*
X470709Y274126D01*
X470813Y273991D01*
X470826Y273980D01*
X470967Y273767D01*
X471385Y273488D01*
X471411Y273466D01*
X471427Y273460D01*
X471877Y273160D01*
X472950Y272946D01*
X477450D01*
X478523Y273160D01*
X478554Y273180D01*
X480000Y273602D01*
X481446Y273180D01*
X481477Y273160D01*
X482550Y272946D01*
X487050D01*
X488123Y273160D01*
X488573Y273460D01*
X488589Y273466D01*
X488615Y273488D01*
X489033Y273767D01*
X490842Y273997D01*
X492500Y273667D01*
X493042Y273775D01*
X493063Y273771D01*
X493248Y273685D01*
X493554Y273673D01*
X493854Y273613D01*
X494251Y273293D01*
X494878Y271419D01*
X494559Y270942D01*
X494489Y270863D01*
X494472Y270812D01*
X494151Y270331D01*
X493895Y269047D01*
Y264548D01*
X494151Y263264D01*
X494878Y262176D01*
X494660Y260520D01*
X494446Y259447D01*
Y254947D01*
X494660Y253874D01*
X495043Y253300D01*
X495167Y251633D01*
Y250500D01*
X495497Y248842D01*
X496436Y247436D01*
X497842Y246497D01*
X499500Y246167D01*
X501158Y246497D01*
X502564Y247436D01*
X503503Y248842D01*
X503833Y250500D01*
Y252237D01*
X503904Y253022D01*
X503940Y253247D01*
X503950Y253290D01*
X504340Y253874D01*
X504554Y254947D01*
Y259447D01*
X504340Y260520D01*
X504122Y262176D01*
X504849Y263264D01*
X505104Y264548D01*
Y269047D01*
X504849Y270331D01*
X504528Y270812D01*
X504511Y270863D01*
X504441Y270942D01*
X504180Y271332D01*
X504115Y271753D01*
X504102Y272370D01*
X504210Y272549D01*
X504396Y272799D01*
X504696Y273120D01*
X505116Y273475D01*
X505694Y273518D01*
X506156Y273382D01*
X506808Y272946D01*
X507000Y272908D01*
Y278000D01*
Y283092D01*
X506808Y283054D01*
X506156Y282618D01*
X504062Y282626D01*
X503698Y282698D01*
X502403Y283563D01*
X500875Y283867D01*
X500390D01*
X499158Y285867D01*
X499231Y286230D01*
X499617Y287177D01*
X501155Y288346D01*
X501869Y288488D01*
X503453Y289547D01*
X504512Y291131D01*
X504884Y293000D01*
X504512Y294869D01*
X503453Y296453D01*
X501869Y297512D01*
X500000Y297884D01*
X498131Y297512D01*
X497585Y297148D01*
X496757Y297092D01*
X496500Y297090D01*
X496017Y296989D01*
X495532Y296893D01*
X495522Y296886D01*
X495510Y296884D01*
X495102Y296605D01*
X495047Y296569D01*
X467590D01*
X467153Y297500D01*
X460847D01*
X460410Y296569D01*
X449590D01*
X449153Y297500D01*
X446000D01*
Y300000D01*
X443500D01*
Y301782D01*
X441569Y302368D01*
Y316632D01*
X443500Y317218D01*
Y319000D01*
Y320782D01*
X441569Y321368D01*
Y393522D01*
X453023Y404977D01*
X453797Y406134D01*
X454069Y407500D01*
Y413047D01*
X454105Y413102D01*
X454384Y413511D01*
X454386Y413522D01*
X454393Y413532D01*
X454489Y414016D01*
X454590Y414500D01*
X454592Y414791D01*
X454611Y415259D01*
X454643Y415579D01*
X455012Y416131D01*
X455384Y418000D01*
X455012Y419869D01*
X453953Y421453D01*
X452369Y422512D01*
X450500Y422884D01*
X448631Y422512D01*
X447047Y421453D01*
X445988Y419869D01*
X445616Y418000D01*
X445988Y416131D01*
X446353Y415586D01*
X446408Y414757D01*
X446410Y414500D01*
X446511Y414017D01*
X446607Y413532D01*
X446614Y413522D01*
X446616Y413511D01*
X446895Y413102D01*
X446931Y413047D01*
Y408978D01*
X436569Y398615D01*
X434569Y399444D01*
Y410022D01*
X436521Y411974D01*
X436586Y411987D01*
X437072Y412079D01*
X437081Y412086D01*
X437093Y412088D01*
X437504Y412363D01*
X437917Y412633D01*
X438125Y412837D01*
X438469Y413155D01*
X438717Y413358D01*
X439369Y413488D01*
X440953Y414547D01*
X442012Y416131D01*
X442384Y418000D01*
X442012Y419869D01*
X440953Y421453D01*
X439369Y422512D01*
X437500Y422884D01*
X435631Y422512D01*
X434047Y421453D01*
X432988Y419869D01*
X432860Y419225D01*
X432314Y418601D01*
X432133Y418417D01*
X431862Y418004D01*
X431588Y417593D01*
X431586Y417581D01*
X431579Y417572D01*
X431487Y417086D01*
X431474Y417021D01*
X428477Y414023D01*
X427703Y412866D01*
X427431Y411500D01*
Y397728D01*
X425584Y396963D01*
X405526Y417021D01*
X405513Y417086D01*
X405421Y417572D01*
X405414Y417581D01*
X405412Y417593D01*
X405137Y418004D01*
X404867Y418417D01*
X404663Y418625D01*
X404345Y418969D01*
X404142Y419217D01*
X404012Y419869D01*
X402953Y421453D01*
X401369Y422512D01*
X399500Y422884D01*
X397631Y422512D01*
X396047Y421453D01*
X394988Y419869D01*
X394616Y418000D01*
X394988Y416131D01*
X396047Y414547D01*
X397631Y413488D01*
X398275Y413360D01*
X398899Y412814D01*
X399083Y412633D01*
X399496Y412363D01*
X399907Y412088D01*
X399919Y412086D01*
X399928Y412079D01*
X400414Y411987D01*
X400479Y411974D01*
X421431Y391022D01*
Y314373D01*
X421363Y314307D01*
X420689Y313949D01*
X419878Y313693D01*
X419431Y313678D01*
X419314Y313805D01*
X419145Y314059D01*
X418975Y314173D01*
X418836Y314323D01*
X418559Y314451D01*
X418304Y314621D01*
X418231Y314635D01*
X417601Y315186D01*
X417417Y315367D01*
X417004Y315637D01*
X416593Y315912D01*
X416581Y315914D01*
X416572Y315921D01*
X416086Y316013D01*
X416021Y316026D01*
X414523Y317523D01*
X413366Y318297D01*
X412000Y318569D01*
X392478D01*
X362571Y348476D01*
Y357495D01*
X363667Y358336D01*
X364715Y359702D01*
X365374Y361293D01*
X365599Y363000D01*
X365374Y364707D01*
X364715Y366298D01*
X363667Y367664D01*
X362571Y368505D01*
Y369016D01*
X362829Y369355D01*
X362850Y369433D01*
X362895Y369501D01*
X362978Y369919D01*
X363087Y370332D01*
X363102Y370560D01*
X363114Y370627D01*
X363139Y370704D01*
X363184Y370802D01*
X363259Y370927D01*
X363375Y371082D01*
X363539Y371263D01*
X363756Y371468D01*
X364031Y371690D01*
X364423Y371969D01*
X364479Y372029D01*
X364776Y372227D01*
X365042Y372625D01*
X365117Y372705D01*
X365146Y372780D01*
X365779Y373729D01*
X366132Y375500D01*
Y379500D01*
X365779Y381271D01*
X364776Y382773D01*
X363274Y383777D01*
X361503Y384129D01*
X356503D01*
X354731Y383777D01*
X353804Y383157D01*
X353736Y383132D01*
X353655Y383058D01*
X353229Y382773D01*
X353045Y382497D01*
X352992Y382449D01*
X352795Y382178D01*
X352667Y382034D01*
X352548Y381922D01*
X352434Y381835D01*
X352321Y381767D01*
X352201Y381711D01*
X352066Y381664D01*
X351908Y381627D01*
X351718Y381602D01*
X351384Y381587D01*
X350946Y381481D01*
X350503Y381393D01*
X350457Y381362D01*
X350402Y381348D01*
X350038Y381082D01*
X350019Y381069D01*
X349331D01*
X349124Y381248D01*
X348996Y381291D01*
X348885Y381369D01*
X348521Y381450D01*
X348166Y381569D01*
X348031Y381560D01*
X347899Y381589D01*
X347434Y381600D01*
X347060Y381627D01*
X346718Y381671D01*
X346407Y381729D01*
X346126Y381799D01*
X345874Y381881D01*
X345650Y381971D01*
X345449Y382070D01*
X345269Y382177D01*
X345020Y382352D01*
X344954Y382382D01*
X344824Y382481D01*
X344786Y382497D01*
X344777Y382504D01*
X344739Y382517D01*
X343173Y383165D01*
X341400Y383399D01*
X332400D01*
X330806Y384790D01*
X330802Y385523D01*
X332147Y386831D01*
X332612Y387078D01*
X334400D01*
Y397700D01*
Y408322D01*
X332400D01*
X331546Y408153D01*
X330000Y409421D01*
Y452000D01*
X459000Y452000D01*
X632000Y279000D01*
D02*
G37*
G36*
X44685Y288563D02*
X45666Y288403D01*
X46997Y288262D01*
X53095Y287951D01*
X66133Y287800D01*
Y267800D01*
X44055Y266858D01*
Y288742D01*
X44685Y288563D01*
D02*
G37*
G36*
X477253Y260208D02*
X477302Y260088D01*
X477373Y259954D01*
X477468Y259805D01*
X477585Y259641D01*
X477890Y259270D01*
X478286Y258839D01*
X478519Y258602D01*
X476398Y256481D01*
X476161Y256714D01*
X475359Y257415D01*
X475195Y257532D01*
X475046Y257627D01*
X474912Y257698D01*
X474792Y257747D01*
X474687Y257772D01*
X477228Y260313D01*
X477253Y260208D01*
D02*
G37*
G36*
X482253Y265208D02*
X482302Y265088D01*
X482373Y264954D01*
X482468Y264805D01*
X482585Y264641D01*
X482890Y264270D01*
X483286Y263839D01*
X483519Y263602D01*
X481398Y261481D01*
X481161Y261714D01*
X480359Y262415D01*
X480195Y262532D01*
X480046Y262627D01*
X479912Y262698D01*
X479792Y262747D01*
X479687Y262772D01*
X482228Y265313D01*
X482253Y265208D01*
D02*
G37*
G36*
X435645Y264202D02*
X435430Y264354D01*
X435208Y264489D01*
X434979Y264609D01*
X434744Y264713D01*
X434501Y264800D01*
X434251Y264872D01*
X433995Y264928D01*
X433731Y264968D01*
X433461Y264991D01*
X433184Y265000D01*
Y266999D01*
X433461Y267007D01*
X433731Y267031D01*
X433995Y267071D01*
X434251Y267127D01*
X434501Y267199D01*
X434744Y267286D01*
X434979Y267390D01*
X435208Y267509D01*
X435430Y267645D01*
X435645Y267796D01*
Y264202D01*
D02*
G37*
%LPC*%
G36*
X277772Y44700D02*
X269400D01*
Y36578D01*
X271400D01*
X273839Y37063D01*
X275906Y38444D01*
X277287Y40511D01*
X277772Y42950D01*
Y44700D01*
D02*
G37*
G36*
X271400Y57822D02*
X269400D01*
Y49700D01*
X277772D01*
Y51450D01*
X277287Y53889D01*
X275906Y55956D01*
X273839Y57337D01*
X271400Y57822D01*
D02*
G37*
G36*
X583750Y104500D02*
X580103D01*
X580210Y103961D01*
X581012Y102761D01*
X582211Y101960D01*
X583625Y101679D01*
X583750D01*
Y104500D01*
D02*
G37*
G36*
X592397D02*
X588750D01*
Y101679D01*
X588875D01*
X590289Y101960D01*
X591488Y102761D01*
X592290Y103961D01*
X592397Y104500D01*
D02*
G37*
G36*
X332400Y103100D02*
X323126D01*
X323209Y102467D01*
X324418Y99548D01*
X326342Y97042D01*
X328848Y95118D01*
X331767Y93909D01*
X332400Y93826D01*
Y103100D01*
D02*
G37*
G36*
X346674D02*
X337400D01*
Y93826D01*
X338033Y93909D01*
X340952Y95118D01*
X343459Y97042D01*
X345382Y99548D01*
X346591Y102467D01*
X346674Y103100D01*
D02*
G37*
G36*
X362500Y112500D02*
X356259D01*
X356454Y109454D01*
X356536Y109273D01*
X356490Y109110D01*
X356315Y108967D01*
X356012Y108843D01*
X355581Y108738D01*
X355022Y108653D01*
X354537Y108606D01*
X354965Y107965D01*
X356702Y106805D01*
X358750Y106397D01*
X362500D01*
Y112500D01*
D02*
G37*
G36*
X583750Y112321D02*
X583625D01*
X582211Y112040D01*
X581012Y111238D01*
X580210Y110039D01*
X580103Y109500D01*
X583750D01*
Y112321D01*
D02*
G37*
G36*
X588875D02*
X588750D01*
Y109500D01*
X592397D01*
X592290Y110039D01*
X591488Y111238D01*
X590289Y112040D01*
X588875Y112321D01*
D02*
G37*
G36*
X337400Y117374D02*
Y108100D01*
X346674D01*
X346591Y108733D01*
X345382Y111652D01*
X343459Y114158D01*
X340952Y116082D01*
X338033Y117291D01*
X337400Y117374D01*
D02*
G37*
G36*
X376603Y112500D02*
X367500D01*
Y106397D01*
X371250D01*
X373298Y106805D01*
X375035Y107965D01*
X376195Y109702D01*
X376603Y111750D01*
Y112500D01*
D02*
G37*
G36*
X332400Y117374D02*
X331767Y117291D01*
X328848Y116082D01*
X326342Y114158D01*
X324418Y111652D01*
X323209Y108733D01*
X323126Y108100D01*
X332400D01*
Y117374D01*
D02*
G37*
G36*
X651000Y111396D02*
X631000D01*
X629293Y111172D01*
X627702Y110513D01*
X626336Y109464D01*
X626285Y109398D01*
X626257Y109378D01*
X626229Y109332D01*
X626187Y109299D01*
X625445Y108417D01*
X624736Y107719D01*
X623982Y107110D01*
X623181Y106585D01*
X622324Y106139D01*
X621406Y105770D01*
X620419Y105478D01*
X619357Y105266D01*
X618216Y105136D01*
X616902Y105088D01*
X616450Y104981D01*
X615996Y104889D01*
X615960Y104865D01*
X615919Y104855D01*
X615542Y104583D01*
X615508Y104560D01*
X608750D01*
X606923Y104320D01*
X605220Y103615D01*
X604362Y102956D01*
X603122Y102128D01*
X602202Y100750D01*
X601878Y99125D01*
Y98934D01*
X601690Y97500D01*
X601878Y96066D01*
Y95875D01*
X602202Y94250D01*
X603122Y92872D01*
X604362Y92044D01*
X605220Y91385D01*
X606923Y90680D01*
X608750Y90440D01*
X615547D01*
X615584Y90415D01*
X615944Y90152D01*
X616003Y90137D01*
X616054Y90104D01*
X616492Y90018D01*
X616926Y89913D01*
X619818Y89790D01*
X621039Y89650D01*
X622202Y89453D01*
X623278Y89204D01*
X624270Y88906D01*
X625176Y88562D01*
X626000Y88174D01*
X626747Y87746D01*
X627516Y87209D01*
X627580Y87181D01*
X627702Y87087D01*
X628022Y86955D01*
X628116Y86898D01*
X628185Y86887D01*
X629293Y86428D01*
X631000Y86204D01*
X651000D01*
X652707Y86428D01*
X654298Y87087D01*
X655664Y88136D01*
X656713Y89502D01*
X657372Y91093D01*
X657596Y92800D01*
Y104800D01*
X657372Y106507D01*
X656713Y108098D01*
X655664Y109464D01*
X654298Y110513D01*
X652707Y111172D01*
X651000Y111396D01*
D02*
G37*
G36*
X521479Y42000D02*
X517500D01*
Y38422D01*
X519061Y38732D01*
X520384Y39616D01*
X521268Y40939D01*
X521479Y42000D01*
D02*
G37*
G36*
X341400Y408322D02*
X339400D01*
Y400200D01*
X347772D01*
Y401950D01*
X347287Y404389D01*
X345906Y406456D01*
X343839Y407837D01*
X341400Y408322D01*
D02*
G37*
G36*
X512500Y42000D02*
X508521D01*
X508732Y40939D01*
X509616Y39616D01*
X510939Y38732D01*
X512500Y38422D01*
X512500D01*
Y42000D01*
D02*
G37*
G36*
X416000Y207608D02*
X413854Y207181D01*
X412035Y205965D01*
X410819Y204146D01*
X410392Y202000D01*
Y37982D01*
X410292Y35704D01*
X409801Y32363D01*
X409002Y29484D01*
X407913Y27060D01*
X406553Y25065D01*
X404919Y23460D01*
X402984Y22210D01*
X400706Y21299D01*
X398048Y20736D01*
X396021Y20608D01*
X335000D01*
X332854Y20181D01*
X331035Y18965D01*
X329819Y17146D01*
X329392Y15000D01*
X329819Y12854D01*
X331035Y11035D01*
X332854Y9819D01*
X335000Y9392D01*
X478866D01*
X480098Y9330D01*
X481559Y9172D01*
X482058Y9084D01*
X482423Y8995D01*
X482606Y8931D01*
X482759Y8851D01*
X482937Y8732D01*
X484497Y8422D01*
X488498D01*
X490058Y8732D01*
X491381Y9616D01*
X492265Y10939D01*
X492576Y12500D01*
Y17500D01*
X492265Y19061D01*
X491381Y20384D01*
X490058Y21268D01*
X488498Y21578D01*
X484497D01*
X482937Y21268D01*
X482759Y21149D01*
X482606Y21069D01*
X482423Y21005D01*
X482058Y20916D01*
X481604Y20836D01*
X477966Y20608D01*
X435979D01*
X433952Y20736D01*
X431294Y21298D01*
X429016Y22210D01*
X427081Y23460D01*
X425447Y25065D01*
X424087Y27060D01*
X422999Y29484D01*
X422199Y32363D01*
X421708Y35704D01*
X421608Y37982D01*
Y47238D01*
X423608Y48067D01*
X423837Y47837D01*
X424829Y47174D01*
X426000Y46941D01*
X426000Y46941D01*
X462000D01*
X463171Y47174D01*
X464163Y47837D01*
X474163Y57837D01*
X474163Y57837D01*
X474826Y58829D01*
X475059Y60000D01*
X475059Y60000D01*
Y86733D01*
X483267Y94941D01*
X504733D01*
X551837Y47837D01*
X552830Y47174D01*
X554000Y46941D01*
X554000Y46941D01*
X579741D01*
X580242Y44941D01*
X578604Y44066D01*
X576314Y42186D01*
X574434Y39896D01*
X573038Y37283D01*
X572178Y34448D01*
X571887Y31500D01*
X572178Y28552D01*
X573038Y25717D01*
X574434Y23104D01*
X576314Y20814D01*
X578604Y18934D01*
X581217Y17538D01*
X584052Y16678D01*
X587000Y16387D01*
X589948Y16678D01*
X592783Y17538D01*
X595396Y18934D01*
X597686Y20814D01*
X599566Y23104D01*
X600962Y25717D01*
X601822Y28552D01*
X602113Y31500D01*
X601822Y34448D01*
X600962Y37283D01*
X599566Y39896D01*
X597686Y42186D01*
X595396Y44066D01*
X592783Y45462D01*
X589948Y46322D01*
X587698Y46544D01*
X586916Y48260D01*
X586900Y48574D01*
X588163Y49837D01*
X588826Y50830D01*
X589059Y52000D01*
X589059Y52000D01*
Y74000D01*
X589059Y74000D01*
X588826Y75170D01*
X588163Y76163D01*
X588163Y76163D01*
X586163Y78163D01*
X585171Y78826D01*
X584000Y79059D01*
X584000Y79059D01*
X568500D01*
X567329Y78826D01*
X566898Y78647D01*
X566000Y78529D01*
X565102Y78647D01*
X564264Y78994D01*
X563546Y79546D01*
X562994Y80265D01*
X562498Y81463D01*
X562489Y81508D01*
X562377Y81675D01*
X562312Y81866D01*
X562048Y82167D01*
X561826Y82500D01*
X522163Y122163D01*
X521171Y122826D01*
X520000Y123059D01*
X520000Y123059D01*
X470000D01*
X468829Y122826D01*
X467837Y122163D01*
X447837Y102163D01*
X447174Y101171D01*
X446941Y100000D01*
X446941Y100000D01*
Y73267D01*
X444733Y71059D01*
X442500D01*
X441329Y70826D01*
X440898Y70647D01*
X440205Y70556D01*
X440000D01*
X439898Y70543D01*
X439102Y70647D01*
X438671Y70826D01*
X437500Y71059D01*
X432500D01*
X431329Y70826D01*
X430898Y70647D01*
X430102Y70543D01*
X430000Y70556D01*
X429898Y70543D01*
X429102Y70647D01*
X428671Y70826D01*
X427500Y71059D01*
X426000D01*
X426000Y71059D01*
X424829Y70826D01*
X423837Y70163D01*
X423837Y70163D01*
X423608Y69934D01*
X421608Y70762D01*
Y202000D01*
X421181Y204146D01*
X419965Y205965D01*
X418146Y207181D01*
X416000Y207608D01*
D02*
G37*
G36*
X512500Y50578D02*
X512500D01*
X510939Y50268D01*
X509616Y49384D01*
X508732Y48061D01*
X508521Y47000D01*
X512500D01*
Y50578D01*
D02*
G37*
G36*
X361503Y398578D02*
X356503D01*
X354942Y398268D01*
X353619Y397384D01*
X352735Y396061D01*
X352424Y394500D01*
Y390500D01*
X352735Y388939D01*
X353619Y387616D01*
X354942Y386732D01*
X356503Y386422D01*
X361503D01*
X362550Y386630D01*
X362577Y386629D01*
X362618Y386643D01*
X363063Y386732D01*
X363299Y386890D01*
X363325Y386899D01*
X363677Y387111D01*
X363995Y387268D01*
X364364Y387415D01*
X364758Y387541D01*
X365817Y387775D01*
X366348Y387849D01*
X367202Y387912D01*
X367497D01*
X367948Y387869D01*
X368056Y387853D01*
X368854Y387319D01*
X371000Y386892D01*
X373146Y387319D01*
X374965Y388535D01*
X376181Y390354D01*
X376608Y392500D01*
X376181Y394646D01*
X374965Y396465D01*
X373146Y397681D01*
X371000Y398108D01*
X368854Y397681D01*
X368081Y397164D01*
X366978Y397092D01*
X365766Y397234D01*
X365261Y397331D01*
X364786Y397450D01*
X364364Y397585D01*
X363995Y397732D01*
X363676Y397889D01*
X363325Y398101D01*
X363299Y398110D01*
X363063Y398268D01*
X362618Y398357D01*
X362577Y398371D01*
X362550Y398370D01*
X361503Y398578D01*
D02*
G37*
G36*
X494625Y88381D02*
X489375D01*
X487555Y88019D01*
X486012Y86988D01*
X484981Y85445D01*
X484619Y83625D01*
Y79375D01*
X484981Y77555D01*
X486012Y76012D01*
X487465Y75041D01*
X487555Y74415D01*
Y73585D01*
X487465Y72959D01*
X486012Y71988D01*
X484981Y70445D01*
X484619Y68625D01*
Y64375D01*
X484981Y62555D01*
X485578Y61661D01*
X485586Y61635D01*
X485635Y61576D01*
X486012Y61012D01*
X486213Y60877D01*
X486230Y60856D01*
X486365Y60747D01*
X486365Y60746D01*
X486418Y60662D01*
X486504Y60476D01*
X486604Y60184D01*
X486702Y59785D01*
X486782Y59320D01*
X486896Y57977D01*
X486911Y57191D01*
X487014Y56720D01*
X487107Y56248D01*
X487121Y56228D01*
X487126Y56204D01*
X487356Y55873D01*
X487123Y55537D01*
X487119Y55517D01*
X487107Y55499D01*
X487013Y55023D01*
X486911Y54549D01*
X486898Y53732D01*
X486796Y52341D01*
X486723Y51849D01*
X486634Y51435D01*
X486545Y51136D01*
X486472Y50960D01*
X486464Y50944D01*
X486414Y50903D01*
X486407Y50893D01*
X486227Y50773D01*
X485809Y50148D01*
X485782Y50114D01*
X485779Y50103D01*
X485223Y49271D01*
X484871Y47500D01*
Y43500D01*
X485223Y41729D01*
X486227Y40227D01*
X487729Y39223D01*
X488753Y39020D01*
Y36980D01*
X487729Y36777D01*
X486227Y35773D01*
X485223Y34271D01*
X484871Y32500D01*
Y28500D01*
X485223Y26729D01*
X486227Y25227D01*
X487729Y24223D01*
X489500Y23871D01*
X494500D01*
X495666Y24103D01*
X498035Y23791D01*
X498035Y23773D01*
X497959Y21823D01*
X497726Y21777D01*
X496224Y20773D01*
X495221Y19271D01*
X494869Y17500D01*
Y12500D01*
X495221Y10729D01*
X496224Y9227D01*
X497726Y8223D01*
X499497Y7871D01*
X503498D01*
X505269Y8223D01*
X506100Y8779D01*
X506112Y8782D01*
X506145Y8809D01*
X506771Y9227D01*
X506891Y9406D01*
X506900Y9414D01*
X506942Y9463D01*
X506957Y9472D01*
X507133Y9545D01*
X507433Y9635D01*
X507847Y9723D01*
X507999Y9746D01*
X508151Y9723D01*
X508565Y9635D01*
X508864Y9545D01*
X509040Y9472D01*
X509056Y9463D01*
X509097Y9414D01*
X509107Y9406D01*
X509227Y9227D01*
X509852Y8809D01*
X509886Y8782D01*
X509897Y8779D01*
X510729Y8223D01*
X512500Y7871D01*
X516500D01*
X518271Y8223D01*
X519773Y9227D01*
X520777Y10729D01*
X520980Y11753D01*
X523020D01*
X523223Y10729D01*
X524227Y9227D01*
X525729Y8223D01*
X527500Y7871D01*
X531500D01*
X533271Y8223D01*
X534773Y9227D01*
X535777Y10729D01*
X536129Y12500D01*
Y17500D01*
X535924Y18532D01*
X535927Y18575D01*
X535897Y18666D01*
X535832Y18993D01*
X535827Y19042D01*
X535820Y19055D01*
X535777Y19271D01*
X535627Y19495D01*
X535614Y19535D01*
X535531Y19684D01*
X535491Y19780D01*
X535425Y20001D01*
X535350Y20333D01*
X535288Y20698D01*
X535097Y23408D01*
X535090Y24225D01*
X535005Y24631D01*
X534949Y25043D01*
X534902Y25123D01*
X534883Y25214D01*
X534649Y25557D01*
X534588Y25662D01*
Y26744D01*
X534639Y27000D01*
X534286Y28775D01*
X533280Y30280D01*
X531775Y31286D01*
X530000Y31639D01*
X528225Y31286D01*
X526720Y30280D01*
X525714Y28775D01*
X525361Y27000D01*
X525412Y26744D01*
Y25958D01*
X525173Y25644D01*
X525158Y25586D01*
X525123Y25537D01*
X525029Y25100D01*
X524915Y24667D01*
X524923Y24608D01*
X524911Y24549D01*
X524898Y23732D01*
X524796Y22341D01*
X524723Y21849D01*
X524635Y21435D01*
X524545Y21136D01*
X524472Y20960D01*
X524464Y20944D01*
X524414Y20903D01*
X524407Y20893D01*
X524227Y20773D01*
X523817Y20159D01*
X523785Y20120D01*
X523784Y20117D01*
X523782Y20114D01*
X523779Y20103D01*
X523223Y19271D01*
X521060Y18625D01*
X520916Y18657D01*
X520878Y18761D01*
X520777Y19271D01*
X520596Y19542D01*
X520572Y19607D01*
X520372Y19938D01*
X520236Y20216D01*
X520103Y20548D01*
X519991Y20899D01*
X519767Y21912D01*
X519716Y22282D01*
X519727Y22367D01*
X519822Y22825D01*
X519930Y23195D01*
X520043Y23477D01*
X520150Y23677D01*
X520240Y23804D01*
X520309Y23878D01*
X520521Y24044D01*
X520555Y24085D01*
X520602Y24111D01*
X520883Y24467D01*
X521178Y24812D01*
X521194Y24862D01*
X521227Y24904D01*
X521351Y25341D01*
X521467Y25697D01*
X521550Y25822D01*
X521884Y27500D01*
Y31500D01*
X521550Y33178D01*
X520600Y34600D01*
X519178Y35550D01*
X517500Y35884D01*
X512500D01*
X510822Y35550D01*
X509400Y34600D01*
X508624Y33440D01*
X508287Y33145D01*
X506326Y32753D01*
X505263Y33463D01*
X503000Y33914D01*
X500967Y33509D01*
X500543Y33543D01*
X498777Y34271D01*
X497773Y35773D01*
X496271Y36777D01*
X495247Y36980D01*
Y39020D01*
X496271Y39223D01*
X497773Y40227D01*
X498777Y41729D01*
X499129Y43500D01*
Y47500D01*
X498777Y49271D01*
X498221Y50103D01*
X498218Y50114D01*
X498191Y50148D01*
X497773Y50773D01*
X497593Y50893D01*
X497586Y50903D01*
X497537Y50944D01*
X497528Y50960D01*
X497455Y51136D01*
X497365Y51435D01*
X497277Y51849D01*
X497204Y52341D01*
X497103Y53732D01*
X497089Y54549D01*
X496987Y55023D01*
X496893Y55499D01*
X496881Y55517D01*
X496876Y55537D01*
X496646Y55871D01*
X496852Y56156D01*
X496864Y56206D01*
X496893Y56248D01*
X496982Y56696D01*
X497088Y57138D01*
X497150Y58721D01*
X497212Y59286D01*
X497298Y59785D01*
X497396Y60184D01*
X497496Y60476D01*
X497582Y60662D01*
X497635Y60746D01*
X497636Y60747D01*
X497770Y60856D01*
X497787Y60877D01*
X497988Y61012D01*
X498365Y61576D01*
X498414Y61635D01*
X498422Y61661D01*
X499019Y62555D01*
X499381Y64375D01*
Y68625D01*
X499019Y70445D01*
X497988Y71988D01*
X496535Y72959D01*
X496445Y73585D01*
Y74415D01*
X496535Y75041D01*
X497809Y75892D01*
X499521D01*
X499643Y75810D01*
X502000Y75342D01*
X504357Y75810D01*
X506355Y77145D01*
X507690Y79143D01*
X508158Y81500D01*
X507690Y83857D01*
X506355Y85855D01*
X504357Y87190D01*
X502000Y87658D01*
X499643Y87190D01*
X499521Y87108D01*
X497809D01*
X496445Y88019D01*
X494625Y88381D01*
D02*
G37*
G36*
X347772Y395200D02*
X339400D01*
Y387078D01*
X341400D01*
X343839Y387563D01*
X345906Y388944D01*
X347287Y391011D01*
X347772Y393450D01*
Y395200D01*
D02*
G37*
G36*
X517500Y50578D02*
Y47000D01*
X521479D01*
X521268Y48061D01*
X520384Y49384D01*
X519061Y50268D01*
X517500Y50578D01*
D02*
G37*
G36*
X362500Y123603D02*
X358750D01*
X356702Y123195D01*
X354965Y122035D01*
X353805Y120299D01*
X353466Y118596D01*
X354291Y118659D01*
X354766Y118748D01*
X355153Y118857D01*
X355451Y118986D01*
X355661Y119135D01*
X355781Y119304D01*
X355813Y119492D01*
X355940Y117500D01*
X362500D01*
Y123603D01*
D02*
G37*
G36*
X645000Y225748D02*
X637000D01*
X633726Y225317D01*
X630676Y224054D01*
X628056Y222044D01*
X626046Y219424D01*
X624783Y216374D01*
X624352Y213100D01*
X624783Y209826D01*
X626046Y206776D01*
X628056Y204156D01*
X630676Y202146D01*
X633726Y200883D01*
X637000Y200452D01*
X645000D01*
X648274Y200883D01*
X651324Y202146D01*
X653944Y204156D01*
X655954Y206776D01*
X657217Y209826D01*
X657648Y213100D01*
X657217Y216374D01*
X655954Y219424D01*
X653944Y222044D01*
X651324Y224054D01*
X648274Y225317D01*
X645000Y225748D01*
D02*
G37*
G36*
X592397Y144500D02*
X588750D01*
Y141679D01*
X588875D01*
X590289Y141960D01*
X591488Y142761D01*
X592290Y143961D01*
X592397Y144500D01*
D02*
G37*
G36*
X392500Y287384D02*
X390631Y287012D01*
X389047Y285953D01*
X387988Y284369D01*
X387860Y283725D01*
X387314Y283100D01*
X387133Y282917D01*
X386862Y282504D01*
X386588Y282093D01*
X386586Y282082D01*
X386579Y282072D01*
X386487Y281586D01*
X386474Y281521D01*
X383522Y278569D01*
X354953D01*
X354898Y278605D01*
X354490Y278884D01*
X354478Y278886D01*
X354468Y278893D01*
X353983Y278989D01*
X353500Y279090D01*
X353209Y279092D01*
X352741Y279111D01*
X352421Y279143D01*
X351869Y279512D01*
X350000Y279884D01*
X348131Y279512D01*
X346547Y278453D01*
X345488Y276869D01*
X345116Y275000D01*
X345488Y273131D01*
X346547Y271547D01*
X348131Y270488D01*
X348806Y270354D01*
X349229Y270270D01*
Y268230D01*
X348806Y268146D01*
X348131Y268012D01*
X346547Y266953D01*
X345488Y265369D01*
X345116Y263500D01*
X345488Y261631D01*
X346547Y260047D01*
X348131Y258988D01*
X350000Y258616D01*
X351869Y258988D01*
X352415Y259352D01*
X353243Y259408D01*
X353500Y259410D01*
X353983Y259511D01*
X354468Y259607D01*
X354478Y259614D01*
X354490Y259616D01*
X354898Y259895D01*
X354953Y259931D01*
X384500D01*
X385866Y260203D01*
X387023Y260977D01*
X391521Y265474D01*
X391586Y265487D01*
X392072Y265579D01*
X392081Y265586D01*
X392093Y265588D01*
X392504Y265863D01*
X392917Y266133D01*
X393125Y266337D01*
X393469Y266655D01*
X393717Y266858D01*
X394369Y266988D01*
X395953Y268047D01*
X397012Y269631D01*
X397384Y271500D01*
X397012Y273369D01*
X395953Y274953D01*
X394525Y275908D01*
X394429Y276048D01*
X394369Y276439D01*
Y277561D01*
X394442Y278037D01*
X395953Y279047D01*
X397012Y280631D01*
X397384Y282500D01*
X397012Y284369D01*
X395953Y285953D01*
X394369Y287012D01*
X392500Y287384D01*
D02*
G37*
G36*
X583750Y144500D02*
X580103D01*
X580210Y143961D01*
X581012Y142761D01*
X582211Y141960D01*
X583625Y141679D01*
X583750D01*
Y144500D01*
D02*
G37*
G36*
Y152321D02*
X583625D01*
X582211Y152040D01*
X581012Y151238D01*
X580210Y150039D01*
X580103Y149500D01*
X583750D01*
Y152321D01*
D02*
G37*
G36*
X277772Y160200D02*
X269400D01*
Y152078D01*
X271400D01*
X273839Y152563D01*
X275906Y153944D01*
X277287Y156011D01*
X277772Y158450D01*
Y160200D01*
D02*
G37*
G36*
X271400Y173322D02*
X269400D01*
Y165200D01*
X277772D01*
Y166950D01*
X277287Y169389D01*
X275906Y171456D01*
X273839Y172837D01*
X271400Y173322D01*
D02*
G37*
G36*
X588875Y152321D02*
X588750D01*
Y149500D01*
X592397D01*
X592290Y150039D01*
X591488Y151238D01*
X590289Y152040D01*
X588875Y152321D01*
D02*
G37*
G36*
X508000Y394000D02*
X478000D01*
X472000Y388000D01*
Y368000D01*
X478000Y362000D01*
X478000Y346000D01*
X478000Y346000D01*
X478000D01*
X478036Y345278D01*
X482914D01*
Y342778D01*
X485414D01*
Y337686D01*
X485606Y337724D01*
X486342Y338216D01*
X486885Y338362D01*
X487102Y338392D01*
X488838Y338035D01*
X488909Y337947D01*
X488993Y337901D01*
X489059Y337831D01*
X489379Y337600D01*
X489580Y337432D01*
X489736Y337279D01*
X489850Y337143D01*
X489931Y337026D01*
X489986Y336925D01*
X490023Y336834D01*
X490049Y336745D01*
X490065Y336647D01*
X490078Y336395D01*
X490186Y335971D01*
X490247Y335663D01*
X490115Y334999D01*
X490487Y333130D01*
X491546Y331546D01*
X493130Y330487D01*
X494999Y330116D01*
X496868Y330487D01*
X498150Y331344D01*
X500058Y332089D01*
X501642Y331031D01*
X503511Y330659D01*
X505380Y331031D01*
X506965Y332089D01*
X508023Y333674D01*
X508395Y335543D01*
X508770Y336000D01*
X518000Y336000D01*
X528000Y346000D01*
Y374000D01*
X519980Y382020D01*
Y382903D01*
X519718Y384220D01*
X518972Y385336D01*
X517856Y386082D01*
X516539Y386344D01*
X515656D01*
X508000Y394000D01*
D02*
G37*
G36*
X512000Y283092D02*
Y280500D01*
X514192D01*
X514054Y281192D01*
X513308Y282308D01*
X512192Y283054D01*
X512000Y283092D01*
D02*
G37*
G36*
X645000Y149548D02*
X637000D01*
X633726Y149117D01*
X630676Y147854D01*
X630099Y147411D01*
X629914Y147326D01*
X629235Y146834D01*
X628564Y146451D01*
X627764Y146093D01*
X626831Y145766D01*
X625767Y145479D01*
X624572Y145237D01*
X623277Y145049D01*
X620197Y144818D01*
X618485Y144789D01*
X618052Y144696D01*
X617615Y144623D01*
X617560Y144589D01*
X617497Y144576D01*
X617133Y144323D01*
X617032Y144260D01*
X609050D01*
X607223Y144020D01*
X605520Y143315D01*
X605409Y143229D01*
X604500Y143048D01*
X603122Y142128D01*
X602202Y140750D01*
X601878Y139125D01*
Y135875D01*
X602202Y134250D01*
X603122Y132872D01*
X603995Y132289D01*
X604058Y132208D01*
X605520Y131086D01*
X607223Y130380D01*
X609050Y130140D01*
X616722D01*
X617114Y129853D01*
X617128Y129849D01*
X617141Y129840D01*
X617620Y129729D01*
X618096Y129613D01*
X621346Y129472D01*
X622721Y129310D01*
X624026Y129082D01*
X625229Y128794D01*
X626331Y128450D01*
X627335Y128053D01*
X628243Y127605D01*
X629059Y127109D01*
X629890Y126492D01*
X630087Y126398D01*
X630676Y125946D01*
X633726Y124683D01*
X637000Y124252D01*
X645000D01*
X648274Y124683D01*
X651324Y125946D01*
X653944Y127956D01*
X655954Y130576D01*
X657217Y133626D01*
X657648Y136900D01*
X657217Y140174D01*
X655954Y143224D01*
X653944Y145844D01*
X651324Y147854D01*
X648274Y149117D01*
X645000Y149548D01*
D02*
G37*
G36*
X514192Y275500D02*
X512000D01*
Y272908D01*
X512192Y272946D01*
X513308Y273692D01*
X514054Y274808D01*
X514192Y275500D01*
D02*
G37*
G36*
X371250Y123603D02*
X367500D01*
Y117500D01*
X376603D01*
Y118250D01*
X376195Y120299D01*
X375035Y122035D01*
X373298Y123195D01*
X371250Y123603D01*
D02*
G37*
G36*
X334900Y169512D02*
X331506Y169065D01*
X328344Y167756D01*
X325628Y165672D01*
X323545Y162956D01*
X322235Y159794D01*
X321788Y156400D01*
X322235Y153006D01*
X323545Y149844D01*
X325628Y147128D01*
X328344Y145044D01*
X331506Y143735D01*
X334900Y143288D01*
X335235Y143332D01*
X335245Y143331D01*
X335404Y143294D01*
X335714Y143178D01*
X336152Y142960D01*
X336698Y142632D01*
X337279Y142229D01*
X339729Y140150D01*
X340085Y139803D01*
X340594Y139294D01*
X342266Y138012D01*
X344212Y137206D01*
X346300Y136931D01*
X347114D01*
X349667Y136900D01*
X352345Y136778D01*
X354332Y136583D01*
X354973Y136478D01*
X355396Y136379D01*
X355504Y136341D01*
X355622Y136274D01*
X355766Y136227D01*
X356311Y135863D01*
X358750Y135378D01*
X371250D01*
X373689Y135863D01*
X375756Y137244D01*
X377137Y139311D01*
X377622Y141750D01*
Y148250D01*
X377137Y150689D01*
X375756Y152756D01*
X373689Y154137D01*
X371250Y154622D01*
X358750D01*
X356311Y154137D01*
X355766Y153773D01*
X355622Y153726D01*
X355504Y153659D01*
X355396Y153621D01*
X355114Y153555D01*
X349723Y153187D01*
X349647Y153273D01*
X349109Y153966D01*
X348668Y154602D01*
X348340Y155148D01*
X348122Y155586D01*
X348006Y155896D01*
X347969Y156055D01*
X347968Y156065D01*
X348012Y156400D01*
X347565Y159794D01*
X346255Y162956D01*
X344172Y165672D01*
X341456Y167756D01*
X338294Y169065D01*
X334900Y169512D01*
D02*
G37*
%LPD*%
G36*
X628998Y89333D02*
X628135Y89934D01*
X627199Y90473D01*
X626188Y90948D01*
X625103Y91360D01*
X623943Y91708D01*
X622710Y91993D01*
X621403Y92215D01*
X620021Y92373D01*
X617036Y92500D01*
X616996Y102500D01*
X618410Y102551D01*
X619758Y102705D01*
X621041Y102962D01*
X622257Y103321D01*
X623407Y103783D01*
X624491Y104347D01*
X625510Y105014D01*
X626462Y105784D01*
X627349Y106656D01*
X628169Y107631D01*
X628998Y89333D01*
D02*
G37*
G36*
X483729Y10645D02*
X483419Y10807D01*
X483002Y10953D01*
X482478Y11081D01*
X481846Y11192D01*
X480259Y11363D01*
X478243Y11466D01*
X475797Y11500D01*
Y18500D01*
X477074Y18508D01*
X481846Y18808D01*
X482478Y18919D01*
X483002Y19047D01*
X483419Y19193D01*
X483729Y19355D01*
Y10645D01*
D02*
G37*
G36*
X419675Y35510D02*
X420200Y31940D01*
X421075Y28790D01*
X422300Y26060D01*
X423875Y23750D01*
X425800Y21860D01*
X428075Y20390D01*
X430700Y19340D01*
X433675Y18710D01*
X437000Y18500D01*
X416000Y11500D01*
X395000Y18500D01*
X398325Y18710D01*
X401300Y19340D01*
X403925Y20390D01*
X406200Y21860D01*
X408125Y23750D01*
X409700Y26060D01*
X410925Y28790D01*
X411800Y31940D01*
X412325Y35510D01*
X412500Y39500D01*
X419500D01*
X419675Y35510D01*
D02*
G37*
G36*
X559663Y80337D02*
X559667Y80303D01*
X560322Y78722D01*
X561364Y77364D01*
X562722Y76322D01*
X564303Y75667D01*
X566000Y75444D01*
X567697Y75667D01*
X568500Y76000D01*
X584000D01*
X586000Y74000D01*
Y52000D01*
X584000Y50000D01*
X554000D01*
X506000Y98000D01*
X482000D01*
X472000Y88000D01*
Y60000D01*
X462000Y50000D01*
X426000D01*
X424000Y52000D01*
Y66000D01*
X426000Y68000D01*
X427500D01*
X428303Y67667D01*
X430000Y67444D01*
X431697Y67667D01*
X432500Y68000D01*
X437500D01*
X438303Y67667D01*
X440000Y67444D01*
X441697Y67667D01*
X442500Y68000D01*
X446000D01*
X450000Y72000D01*
Y100000D01*
X470000Y120000D01*
X520000D01*
X559663Y80337D01*
D02*
G37*
G36*
X362697Y396098D02*
X363166Y395867D01*
X363675Y395664D01*
X364227Y395488D01*
X364820Y395339D01*
X365455Y395217D01*
X366850Y395054D01*
X366966Y395048D01*
X368446Y395145D01*
X368643Y395189D01*
X368792Y395239D01*
X368894Y395295D01*
Y389705D01*
X368792Y389761D01*
X368643Y389811D01*
X368446Y389855D01*
X368203Y389894D01*
X367574Y389953D01*
X367285Y389963D01*
X366132Y389878D01*
X365455Y389783D01*
X364227Y389512D01*
X363675Y389336D01*
X363166Y389133D01*
X362697Y388902D01*
X362271Y388645D01*
Y396355D01*
X362697Y396098D01*
D02*
G37*
G36*
X518920Y26080D02*
X518555Y25793D01*
X518229Y25446D01*
X517941Y25038D01*
X517691Y24570D01*
X517480Y24042D01*
X517307Y23453D01*
X517173Y22803D01*
X517108Y22322D01*
X517122Y22129D01*
X517217Y21453D01*
X517488Y20224D01*
X517664Y19673D01*
X517867Y19163D01*
X518098Y18695D01*
X518355Y18269D01*
X511080D01*
Y11080D01*
X510853Y11350D01*
X510553Y11591D01*
X510179Y11804D01*
X509731Y11989D01*
X509209Y12145D01*
X508613Y12273D01*
X507999Y12364D01*
X507385Y12273D01*
X506789Y12145D01*
X506267Y11989D01*
X505819Y11804D01*
X505445Y11591D01*
X505144Y11350D01*
X504917Y11080D01*
Y18920D01*
X505144Y18650D01*
X505445Y18409D01*
X505819Y18196D01*
X506267Y18011D01*
X506789Y17855D01*
X507385Y17727D01*
X507999Y17636D01*
X508613Y17727D01*
X509209Y17855D01*
X509731Y18011D01*
X510179Y18196D01*
X510553Y18409D01*
X510853Y18650D01*
X510918Y18727D01*
X511133Y19163D01*
X511336Y19673D01*
X511512Y20224D01*
X511661Y20818D01*
X511783Y21453D01*
X511905Y22500D01*
X511878Y22871D01*
X511783Y23548D01*
X511512Y24776D01*
X511336Y25327D01*
X511133Y25837D01*
X510902Y26305D01*
X510645Y26732D01*
X518920Y26080D01*
D02*
G37*
G36*
X532500Y24200D02*
X532509Y23304D01*
X532714Y20391D01*
X532808Y19832D01*
X532919Y19340D01*
X533047Y18915D01*
X533193Y18558D01*
X533355Y18269D01*
X526080Y18920D01*
X526350Y19147D01*
X526591Y19447D01*
X526804Y19821D01*
X526989Y20269D01*
X527145Y20791D01*
X527273Y21387D01*
X527372Y22057D01*
X527486Y23617D01*
X527500Y24508D01*
X532500Y24200D01*
D02*
G37*
G36*
X494514Y53617D02*
X494628Y52057D01*
X494727Y51387D01*
X494855Y50791D01*
X495011Y50269D01*
X495196Y49821D01*
X495409Y49447D01*
X495650Y49147D01*
X495920Y48920D01*
X488080D01*
X488350Y49147D01*
X488591Y49447D01*
X488804Y49821D01*
X488989Y50269D01*
X489145Y50791D01*
X489273Y51387D01*
X489372Y52057D01*
X489486Y53617D01*
X489500Y54508D01*
X494500D01*
X494514Y53617D01*
D02*
G37*
G36*
X495824Y62612D02*
X495546Y62290D01*
X495301Y61900D01*
X495089Y61440D01*
X494909Y60912D01*
X494762Y60315D01*
X494647Y59650D01*
X494565Y58915D01*
X494500Y57239D01*
X489500D01*
X489484Y58112D01*
X489353Y59650D01*
X489238Y60315D01*
X489091Y60912D01*
X488911Y61440D01*
X488699Y61900D01*
X488454Y62290D01*
X488176Y62612D01*
X487865Y62865D01*
X496135D01*
X495824Y62612D01*
D02*
G37*
G36*
X351446Y276741D02*
X351565Y276690D01*
X351711Y276646D01*
X351883Y276607D01*
X352082Y276574D01*
X352560Y276527D01*
X353145Y276503D01*
X353477Y276500D01*
Y273500D01*
X353145Y273497D01*
X352082Y273426D01*
X351883Y273393D01*
X351711Y273354D01*
X351565Y273310D01*
X351446Y273259D01*
X351354Y273203D01*
Y276797D01*
X351446Y276741D01*
D02*
G37*
G36*
Y265241D02*
X351565Y265190D01*
X351711Y265145D01*
X351883Y265107D01*
X352082Y265074D01*
X352560Y265027D01*
X353145Y265003D01*
X353477Y265000D01*
Y262000D01*
X353145Y261997D01*
X352082Y261926D01*
X351883Y261893D01*
X351711Y261854D01*
X351565Y261810D01*
X351446Y261759D01*
X351354Y261703D01*
Y265297D01*
X351446Y265241D01*
D02*
G37*
G36*
X392813Y280272D02*
X392708Y280247D01*
X392588Y280198D01*
X392454Y280127D01*
X392305Y280032D01*
X392141Y279915D01*
X391769Y279610D01*
X391339Y279214D01*
X391102Y278981D01*
X388981Y281102D01*
X389214Y281339D01*
X389915Y282141D01*
X390032Y282305D01*
X390127Y282454D01*
X390198Y282588D01*
X390247Y282708D01*
X390272Y282813D01*
X392813Y280272D01*
D02*
G37*
G36*
Y269272D02*
X392708Y269247D01*
X392588Y269198D01*
X392454Y269127D01*
X392305Y269032D01*
X392141Y268915D01*
X391769Y268610D01*
X391339Y268214D01*
X391102Y267981D01*
X388981Y270102D01*
X389214Y270339D01*
X389915Y271141D01*
X390032Y271305D01*
X390127Y271454D01*
X390198Y271588D01*
X390247Y271708D01*
X390272Y271813D01*
X392813Y269272D01*
D02*
G37*
G36*
X495576Y340369D02*
X495595Y340277D01*
X495611Y340101D01*
X495647Y339072D01*
X495648Y338948D01*
X495664Y338949D01*
X495672Y338648D01*
X495696Y338363D01*
X495737Y338096D01*
X495794Y337846D01*
X495867Y337612D01*
X495956Y337396D01*
X496061Y337196D01*
X496182Y337014D01*
X496320Y336848D01*
X496473Y336699D01*
X492957Y335944D01*
X492898Y336532D01*
X492664D01*
X492643Y336927D01*
X492580Y337309D01*
X492476Y337679D01*
X492329Y338037D01*
X492141Y338384D01*
X491910Y338718D01*
X491638Y339040D01*
X491324Y339350D01*
X490968Y339648D01*
X490570Y339934D01*
X495556Y340378D01*
X495576Y340369D01*
D02*
G37*
G36*
X521903Y345524D02*
X521112Y344726D01*
X518030Y341260D01*
X517793Y340903D01*
X517635Y340609D01*
X517556Y340378D01*
X513015Y345920D01*
X513245Y345999D01*
X513539Y346157D01*
X513896Y346394D01*
X514316Y346710D01*
X515345Y347580D01*
X517362Y349476D01*
X518160Y350267D01*
X521903Y345524D01*
D02*
G37*
G36*
X507258Y339934D02*
X506886Y339664D01*
X506553Y339379D01*
X506259Y339077D01*
X506004Y338761D01*
X505788Y338428D01*
X505612Y338080D01*
X505475Y337717D01*
X505377Y337338D01*
X505372Y337305D01*
X505400Y336765D01*
X505310Y336772D01*
X505298Y336532D01*
X504086Y336859D01*
X501815Y337021D01*
X501907Y337143D01*
X501989Y337287D01*
X502061Y337453D01*
X502124Y337642D01*
X502177Y337852D01*
X502221Y338085D01*
X502255Y338340D01*
X502286Y338805D01*
X502273Y340378D01*
X507258Y339934D01*
D02*
G37*
G36*
X497490Y345232D02*
X497080Y344815D01*
X495938Y343491D01*
X495777Y343246D01*
X495665Y343036D01*
X495604Y342861D01*
X495592Y342720D01*
X495630Y342614D01*
X493250Y345993D01*
X493327Y345927D01*
X493435Y345905D01*
X493572Y345929D01*
X493739Y345998D01*
X493936Y346111D01*
X494163Y346269D01*
X494419Y346473D01*
X495022Y347015D01*
X495368Y347354D01*
X497490Y345232D01*
D02*
G37*
G36*
X507612Y355313D02*
X507470Y355766D01*
X507333Y356095D01*
X507201Y356301D01*
X507074Y356383D01*
X506951Y356342D01*
X506834Y356176D01*
X506721Y355887D01*
X506614Y355475D01*
X506512Y354938D01*
X506414Y354278D01*
X503659Y356244D01*
X504918Y364903D01*
X507612Y355313D01*
D02*
G37*
G36*
X518089Y382123D02*
X518757Y379736D01*
X519142Y378653D01*
X520011Y376709D01*
X520496Y375848D01*
X521015Y375061D01*
X521567Y374347D01*
X522153Y373708D01*
X518335Y369040D01*
X517795Y369498D01*
X517095Y369951D01*
X516236Y370399D01*
X515218Y370842D01*
X514040Y371279D01*
X511208Y372138D01*
X507738Y372976D01*
X505765Y373387D01*
X517806Y383428D01*
X518089Y382123D01*
D02*
G37*
G36*
X482337Y368990D02*
X483873Y367708D01*
X485333Y366670D01*
X486719Y365877D01*
X488029Y365327D01*
X489264Y365022D01*
X490424Y364961D01*
X491509Y365144D01*
X492519Y365572D01*
X493454Y366244D01*
X482023Y356129D01*
X481752Y357274D01*
X481399Y358410D01*
X480963Y359538D01*
X480443Y360656D01*
X479841Y361765D01*
X479156Y362865D01*
X478387Y363955D01*
X477536Y365037D01*
X475584Y367173D01*
X480726Y370517D01*
X482337Y368990D01*
D02*
G37*
G36*
X506423Y348459D02*
X506490Y347514D01*
X506549Y347109D01*
X506625Y346749D01*
X506718Y346434D01*
X506828Y346163D01*
X506954Y345938D01*
X507098Y345758D01*
X507258Y345622D01*
X502570D01*
X502730Y345758D01*
X502874Y345938D01*
X503000Y346163D01*
X503110Y346434D01*
X503203Y346749D01*
X503279Y347109D01*
X503338Y347514D01*
X503406Y348459D01*
X503414Y348999D01*
X506414D01*
X506423Y348459D01*
D02*
G37*
G36*
X494462Y378264D02*
X494184Y377826D01*
X494045Y377332D01*
X494047Y376783D01*
X494188Y376179D01*
X494469Y375519D01*
X494889Y374803D01*
X495450Y374032D01*
X496150Y373206D01*
X496990Y372324D01*
X493910Y371161D01*
X493140Y371889D01*
X492399Y372503D01*
X491689Y373003D01*
X491008Y373390D01*
X490356Y373662D01*
X489735Y373820D01*
X489143Y373864D01*
X488581Y373794D01*
X488049Y373610D01*
X487546Y373313D01*
X494879Y378646D01*
X494462Y378264D01*
D02*
G37*
G36*
X631434Y128570D02*
X630506Y129260D01*
X629490Y129877D01*
X628387Y130422D01*
X627195Y130893D01*
X625916Y131293D01*
X624550Y131619D01*
X623096Y131873D01*
X621554Y132055D01*
X618208Y132200D01*
X618529Y142200D01*
X620316Y142230D01*
X623560Y142473D01*
X625017Y142685D01*
X626362Y142957D01*
X627598Y143291D01*
X628722Y143684D01*
X629737Y144139D01*
X630641Y144654D01*
X631434Y145230D01*
Y128570D01*
D02*
G37*
G36*
X344934Y155599D02*
X345073Y155006D01*
X345313Y154366D01*
X345655Y153677D01*
X346098Y152940D01*
X346643Y152156D01*
X347289Y151323D01*
X348427Y150032D01*
X355571Y150520D01*
X356250Y150680D01*
X356769Y150860D01*
X357126Y151062D01*
Y138938D01*
X356769Y139140D01*
X356250Y139320D01*
X355571Y139480D01*
X354730Y139618D01*
X352564Y139830D01*
X349754Y139958D01*
X346300Y140000D01*
Y145000D01*
X342764Y141465D01*
X341787Y142415D01*
X339145Y144657D01*
X338360Y145202D01*
X337623Y145645D01*
X336934Y145987D01*
X336294Y146227D01*
X335701Y146366D01*
X335157Y146403D01*
X344897Y156143D01*
X344934Y155599D01*
D02*
G37*
D11*
X434300Y249800D02*
X439409Y254909D01*
X439409D01*
X434000Y249800D02*
X434300D01*
X442249Y257749D02*
Y270749D01*
X439409Y254909D02*
X442249Y257749D01*
X422500Y257500D02*
X430999Y266000D01*
X436999D01*
X422500Y249800D02*
Y257500D01*
X441999Y271000D02*
X442249Y270749D01*
D12*
X172400Y138000D02*
X191000D01*
X502000Y81500D02*
X502000Y81500D01*
X530000Y15000D02*
Y27000D01*
X514500Y15000D02*
Y29500D01*
X302501Y137499D02*
X302502Y137500D01*
X302501Y42501D02*
Y137499D01*
X302500Y42500D02*
X302501Y42501D01*
X359003Y392500D02*
X371000D01*
X608750Y137500D02*
X609050Y137200D01*
X640700D02*
X641000Y136900D01*
X572500Y170000D02*
X572500Y170000D01*
X555500D02*
X555500Y170000D01*
X546000Y170000D02*
X555500D01*
X555500Y170000D02*
X572500D01*
X492000Y45500D02*
Y66500D01*
X501497Y15000D02*
X514500D01*
Y29500D02*
X515000D01*
X529500Y15000D02*
X530000D01*
X302502Y137500D02*
Y244998D01*
X191000Y138000D02*
X196250Y143250D01*
Y196000D01*
X189800Y21800D02*
X196250Y28250D01*
Y81000D01*
X173100Y21800D02*
X189800D01*
X302113Y42887D02*
X302500Y42500D01*
X285000Y54000D02*
X296113Y42887D01*
X302113D01*
D16*
X499000Y364000D02*
G03*
X496036Y371157I-10121J0D01*
G01*
X496429Y346293D02*
G03*
X499000Y352500I-6207J6207D01*
G01*
X511414Y360778D02*
G03*
X504914Y354278I0J-6500D01*
G01*
X538000Y152000D02*
X550000Y140000D01*
X434000Y240200D02*
X435500Y238700D01*
X336900Y377500D02*
X359003D01*
X270409Y25309D02*
X300309D01*
X499500Y185000D02*
X521000Y206500D01*
X448000Y202000D02*
Y246000D01*
X485000Y185000D02*
X499500D01*
X521000Y206500D02*
X563000D01*
X543000Y117000D02*
X548000Y112000D01*
X518000Y142000D02*
X543000Y117000D01*
X554000Y100000D02*
X568000D01*
X285000Y149500D02*
Y252000D01*
Y142257D02*
Y149500D01*
Y142257D02*
X285311Y141946D01*
X285000Y252000D02*
X326000Y293000D01*
X448000Y202000D02*
X459000Y191000D01*
Y182000D02*
Y191000D01*
X522500Y170000D02*
X530000D01*
X471000D02*
X522500D01*
X422500Y224500D02*
Y240200D01*
X370000Y293000D02*
X378500Y301500D01*
X326000Y293000D02*
X370000D01*
X378500Y301500D02*
X400493D01*
X359003Y363000D02*
Y377500D01*
Y346997D02*
Y363000D01*
X499000Y352500D02*
Y364000D01*
X492914Y342778D02*
X496429Y346293D01*
X504914Y342778D02*
Y354278D01*
X266900Y137300D02*
X267000Y137400D01*
X287402D02*
X287502Y137500D01*
X267000Y137400D02*
X287402D01*
X302500Y27500D02*
X303000Y27000D01*
X266900Y21800D02*
X270409Y25309D01*
X300309D02*
X302500Y27500D01*
X336900Y372300D02*
Y377500D01*
X310243Y27000D02*
X312000Y28757D01*
X303000Y27000D02*
X310243D01*
X312000Y28757D02*
Y263500D01*
X384500D02*
X392500Y271500D01*
X350000Y263500D02*
X384500D01*
X385000Y275000D02*
X392500Y282500D01*
X350000Y275000D02*
X385000D01*
X480000Y229998D02*
X487500Y222498D01*
X474000Y218000D02*
X480500Y211500D01*
X487500Y233498D02*
Y257500D01*
X480000Y265000D02*
X487500Y257500D01*
X480000Y229998D02*
Y255000D01*
X475000Y260000D02*
X480000Y255000D01*
X468000Y213000D02*
X480500Y200500D01*
X474000Y218000D02*
Y249000D01*
X469000Y254000D02*
Y265000D01*
Y254000D02*
X474000Y249000D01*
X462500Y260000D02*
X462749Y259751D01*
X567500Y195000D02*
Y202000D01*
X563000Y206500D02*
X567500Y202000D01*
X560000Y194594D02*
Y195000D01*
X567787Y189713D02*
Y194713D01*
X569809Y187462D02*
Y187691D01*
Y187462D02*
X572271Y185000D01*
X572500D01*
X567500Y195000D02*
X567787Y194713D01*
Y189713D02*
X569809Y187691D01*
X556799Y186299D02*
Y191393D01*
X560000Y194594D01*
X499500Y266798D02*
Y278000D01*
X499500Y278000D01*
X492500D02*
X499500D01*
X436500D02*
X475200D01*
X438500Y287000D02*
X494500D01*
X443000Y293000D02*
X500000D01*
X450500Y407500D02*
Y418000D01*
X503798Y341662D02*
X504914Y342778D01*
X503798Y335830D02*
Y341662D01*
X503511Y335543D02*
X503798Y335830D01*
X492914Y342778D02*
X494164Y341528D01*
Y336240D02*
Y341528D01*
Y336240D02*
X494999Y335405D01*
Y334999D02*
Y335405D01*
X484800Y278000D02*
X492500D01*
X428000Y164000D02*
Y219000D01*
X422500Y224500D02*
X428000Y219000D01*
Y164000D02*
X450000Y142000D01*
X438000Y172000D02*
X458000Y152000D01*
X438000Y172000D02*
Y236943D01*
X435500Y238700D02*
X436243D01*
X438000Y236943D01*
X460000Y210000D02*
Y242000D01*
X462749Y250251D02*
X468000Y245000D01*
Y213000D02*
Y245000D01*
X462749Y250251D02*
Y259751D01*
X555500Y185000D02*
X556799Y186299D01*
X545000Y185000D02*
X555500D01*
X412000Y315000D02*
X417000Y310000D01*
X425000Y289500D02*
X436500Y278000D01*
X425000Y289500D02*
Y392500D01*
X399500Y418000D02*
X425000Y392500D01*
X431000Y294500D02*
X438500Y287000D01*
X431000Y411500D02*
X437500Y418000D01*
X431000Y294500D02*
Y411500D01*
X438000Y395000D02*
X450500Y407500D01*
X438000Y298000D02*
X443000Y293000D01*
X438000Y298000D02*
Y395000D01*
X359003Y346997D02*
X391000Y315000D01*
X412000D01*
X312000Y263500D02*
X334500Y286000D01*
X375000D01*
X407094Y296000D02*
X407500D01*
X375000Y286000D02*
X383000Y294000D01*
X405094D01*
X407094Y296000D01*
X584577Y89673D02*
X586250Y88000D01*
X578327Y89673D02*
X584577D01*
X568000Y100000D02*
X578327Y89673D01*
X574250Y140000D02*
X586250Y128000D01*
X450000Y142000D02*
X518000D01*
X550000Y140000D02*
X574250D01*
X458000Y152000D02*
X538000D01*
X548000Y106000D02*
Y112000D01*
Y106000D02*
X554000Y100000D01*
X285311Y139691D02*
Y141946D01*
Y139691D02*
X287502Y137500D01*
X459000Y182000D02*
X471000Y170000D01*
X530000D02*
X545000Y185000D01*
X460000Y210000D02*
X485000Y185000D01*
X488414Y378778D02*
X496036Y371157D01*
D17*
X492000Y30500D02*
G03*
X498036Y28000I6036J6036D01*
G01*
X503000D01*
D18*
X359003Y363000D02*
D03*
X162000Y186500D02*
D03*
X158500Y138000D02*
D03*
X522500Y170000D02*
D03*
X285000Y149500D02*
D03*
X622000Y53500D02*
D03*
X162500Y71500D02*
D03*
X287500Y25500D02*
D03*
X543000Y117000D02*
D03*
Y147500D02*
D03*
X511500Y197000D02*
D03*
X473500Y307500D02*
D03*
X242500Y416000D02*
D03*
Y350500D02*
D03*
D19*
X475200Y278000D02*
D03*
X484800D02*
D03*
D26*
X302502Y137500D02*
D03*
X287502D02*
D03*
X529500Y15000D02*
D03*
X514500D02*
D03*
X486497D02*
D03*
X501497D02*
D03*
D28*
X422500Y240200D02*
D03*
Y249800D02*
D03*
X434500Y240200D02*
D03*
Y249800D02*
D03*
X499500Y266798D02*
D03*
Y257197D02*
D03*
D30*
X121748Y71000D02*
D03*
X150247D02*
D03*
X121250Y97000D02*
D03*
X92750D02*
D03*
X150247Y186000D02*
D03*
X121748D02*
D03*
X92750Y161000D02*
D03*
X121250D02*
D03*
X167750Y335000D02*
D03*
X196250D02*
D03*
X213750D02*
D03*
X242250D02*
D03*
X167750Y435000D02*
D03*
X196250D02*
D03*
X213750Y435000D02*
D03*
X242250D02*
D03*
D31*
X572500Y185000D02*
D03*
Y170000D02*
D03*
X555500Y185000D02*
D03*
Y170000D02*
D03*
X302500Y42500D02*
D03*
Y27500D02*
D03*
X359003Y392500D02*
D03*
Y377500D02*
D03*
X515000Y29500D02*
D03*
Y44500D02*
D03*
X492000Y30500D02*
D03*
Y45500D02*
D03*
D40*
Y66500D02*
D03*
Y81500D02*
D03*
D42*
X482914Y342778D02*
D03*
X492914D02*
D03*
X514914D02*
D03*
X504914D02*
D03*
X499500Y278000D02*
D03*
X509500D02*
D03*
D49*
X365000Y145000D02*
D03*
Y115000D02*
D03*
D52*
X242500Y398300D02*
Y434750D01*
X150497Y71500D02*
X173750D01*
X243100Y348800D02*
Y372300D01*
X150497Y186500D02*
X173750D01*
X242500Y398300D02*
X243100Y397700D01*
X242250Y435000D02*
X242500Y434750D01*
X150247Y71250D02*
X150497Y71500D01*
X158500Y138000D02*
X172400D01*
X150000D02*
X158500D01*
X609050Y137200D02*
X640700D01*
X334900Y156400D02*
X346300Y145000D01*
X365000D01*
X639700Y97500D02*
X641000Y98800D01*
X608750Y97500D02*
X639700D01*
X351500Y113500D02*
X363500D01*
X345513Y107513D02*
X351500Y113500D01*
X334900Y105600D02*
X336813Y107513D01*
X363500Y113500D02*
X365000Y115000D01*
X336813Y107513D02*
X345513D01*
X173750Y163350D02*
Y186500D01*
X173100Y162700D02*
X173750Y163350D01*
X150247Y186250D02*
X150497Y186500D01*
X150247Y186000D02*
Y186250D01*
X121497Y185750D02*
X121748Y186000D01*
X121250Y161000D02*
Y181752D01*
X121497Y182000D01*
Y185750D01*
X121748Y71000D02*
Y74250D01*
X121250Y74748D02*
Y97000D01*
Y74748D02*
X121748Y74250D01*
X150247Y71000D02*
Y71250D01*
X173750Y47850D02*
Y71500D01*
X173100Y47200D02*
X173750Y47850D01*
X92750Y97000D02*
Y161000D01*
X90000Y167000D02*
Y265000D01*
X92750Y161000D02*
Y164250D01*
X90000Y167000D02*
X92750Y164250D01*
X150200Y21800D02*
X173100D01*
X150000Y22000D02*
X150200Y21800D01*
X158400Y359600D02*
X167500Y350500D01*
X157100Y359600D02*
X158400D01*
X167500Y335250D02*
Y350500D01*
Y335250D02*
X167750Y335000D01*
X196250D02*
X213750D01*
X196250Y435000D02*
X213750D01*
X213750Y435000D01*
X196250Y435000D02*
Y435000D01*
X167500Y434750D02*
X167750Y435000D01*
X157100Y410400D02*
Y410858D01*
X167500Y421258D02*
Y434750D01*
X157100Y410858D02*
X167500Y421258D01*
X242500Y335250D02*
Y348200D01*
X243100Y348800D01*
X242250Y335000D02*
X242500Y335250D01*
D53*
X492000Y81500D02*
X502000D01*
X335000Y15000D02*
X416000D01*
Y202000D01*
Y15000D02*
X486497D01*
X455900Y64000D02*
X460000Y68101D01*
X440000Y64000D02*
X455900D01*
X460000Y91000D02*
X471000Y102000D01*
X460000Y68101D02*
Y91000D01*
X471000Y102000D02*
X524000D01*
X556000Y70000D01*
X566000D01*
D55*
X35000Y328600D02*
D03*
D56*
Y227000D02*
D03*
Y277800D02*
D03*
Y176200D02*
D03*
Y125400D02*
D03*
D57*
X641000Y98800D02*
D03*
D58*
Y175000D02*
D03*
Y136900D02*
D03*
Y213100D02*
D03*
Y251200D02*
D03*
D59*
X157100Y410400D02*
D03*
Y359600D02*
D03*
Y105600D02*
D03*
X334900Y156400D02*
D03*
Y105600D02*
D03*
D60*
X446000Y319000D02*
D03*
X464000D02*
D03*
X446000Y300000D02*
D03*
X464000D02*
D03*
X549000Y235000D02*
D03*
X559000D02*
D03*
Y225000D02*
D03*
X549000D02*
D03*
D61*
X90000Y375000D02*
D03*
Y275000D02*
D03*
D62*
X448000Y246000D02*
D03*
X400500Y301500D02*
D03*
X407500Y296000D02*
D03*
X417000Y310000D02*
D03*
X392500Y282500D02*
D03*
Y271500D02*
D03*
X350000Y263500D02*
D03*
Y275000D02*
D03*
X462500Y260000D02*
D03*
X487500Y222498D02*
D03*
X480500Y211500D02*
D03*
Y200500D02*
D03*
X487500Y233498D02*
D03*
X560000Y195000D02*
D03*
X567500D02*
D03*
X480000Y265000D02*
D03*
X475000Y260000D02*
D03*
X469000Y265000D02*
D03*
X441999Y271000D02*
D03*
X436999Y266000D02*
D03*
X499500Y250500D02*
D03*
X546000Y170000D02*
D03*
X492500Y278000D02*
D03*
X494500Y287000D02*
D03*
X500000Y293000D02*
D03*
X437500Y418000D02*
D03*
X450500D02*
D03*
X399500D02*
D03*
X494999Y334999D02*
D03*
X503511Y335543D02*
D03*
X551000Y195000D02*
D03*
X530000Y27000D02*
D03*
X500700Y56000D02*
D03*
X507000Y317000D02*
D03*
X515000Y314000D02*
D03*
Y320000D02*
D03*
X521000Y314000D02*
D03*
X527000Y313000D02*
D03*
X535500Y328000D02*
D03*
X538000Y315000D02*
D03*
X547500Y326500D02*
D03*
X552000Y331000D02*
D03*
X556500Y335500D02*
D03*
X564000Y321000D02*
D03*
X568000Y325000D02*
D03*
X543500Y348500D02*
D03*
X536000Y341500D02*
D03*
X542500Y334500D02*
D03*
X556000Y313000D02*
D03*
X552000Y309000D02*
D03*
X548000Y305000D02*
D03*
X539000Y300000D02*
D03*
X533000D02*
D03*
X527000D02*
D03*
X521000Y299000D02*
D03*
X515000D02*
D03*
X503000Y300000D02*
D03*
X493000D02*
D03*
X509000Y299000D02*
D03*
X560000Y317000D02*
D03*
X544000Y302000D02*
D03*
X533000Y313000D02*
D03*
X522000Y327500D02*
D03*
X528500Y321500D02*
D03*
X515000Y334500D02*
D03*
X528500Y334000D02*
D03*
X550000Y342000D02*
D03*
X537500Y354000D02*
D03*
X531500Y360000D02*
D03*
X502000Y286000D02*
D03*
X509000D02*
D03*
X516000D02*
D03*
X529000D02*
D03*
X523000D02*
D03*
X431000Y230000D02*
D03*
X460000Y242000D02*
D03*
X524000Y382000D02*
D03*
X488000Y192000D02*
D03*
X539000Y263000D02*
D03*
X522000Y230000D02*
D03*
X487000Y269000D02*
D03*
X491000Y265000D02*
D03*
X525000Y5000D02*
D03*
X505000D02*
D03*
X490000D02*
D03*
X449000Y349000D02*
D03*
X547000Y263000D02*
D03*
D63*
X456500Y369000D02*
D03*
X466500Y354500D02*
D03*
Y369000D02*
D03*
X267000Y65000D02*
D03*
X292000D02*
D03*
X265000Y185000D02*
D03*
X348000Y57000D02*
D03*
X302500Y245000D02*
D03*
X335000Y420000D02*
D03*
X390000Y331000D02*
D03*
X377500Y315000D02*
D03*
X410500Y265500D02*
D03*
X371000Y392500D02*
D03*
X503000Y28000D02*
D03*
X545000Y27500D02*
D03*
Y40000D02*
D03*
X502000Y81500D02*
D03*
X532000Y196000D02*
D03*
X575000Y330000D02*
D03*
X582500Y322500D02*
D03*
X590000Y315000D02*
D03*
X597500Y307500D02*
D03*
X605000Y300000D02*
D03*
X612500Y292500D02*
D03*
X620000Y285000D02*
D03*
X627500Y277500D02*
D03*
X555000Y350000D02*
D03*
X547500Y357500D02*
D03*
X540000Y365000D02*
D03*
X532500Y372500D02*
D03*
X510000Y395000D02*
D03*
X502500Y402500D02*
D03*
X495000Y410000D02*
D03*
X487500Y417500D02*
D03*
X480000Y425000D02*
D03*
X472500Y432500D02*
D03*
X465000Y440000D02*
D03*
X612500Y277500D02*
D03*
X597500D02*
D03*
X582500D02*
D03*
X567500D02*
D03*
Y292500D02*
D03*
X582500D02*
D03*
X597511Y292316D02*
D03*
X567500Y307500D02*
D03*
X582500D02*
D03*
X560000Y300000D02*
D03*
X575000Y315000D02*
D03*
X422000Y280000D02*
D03*
X410500Y254500D02*
D03*
X470000Y160000D02*
D03*
X490000D02*
D03*
X510000D02*
D03*
X530000D02*
D03*
X550000D02*
D03*
X473000Y181000D02*
D03*
X335000Y15000D02*
D03*
X416000Y202000D02*
D03*
X405000Y150000D02*
D03*
Y120000D02*
D03*
X265000Y5000D02*
D03*
X285000D02*
D03*
X305000D02*
D03*
X325000D02*
D03*
X345000D02*
D03*
X365000D02*
D03*
X385000D02*
D03*
X405000D02*
D03*
X465000D02*
D03*
X445000D02*
D03*
X425000D02*
D03*
X605000D02*
D03*
X585000D02*
D03*
X565000D02*
D03*
X545000D02*
D03*
X620000D02*
D03*
X267000Y120000D02*
D03*
X292000D02*
D03*
X265000Y200000D02*
D03*
Y220000D02*
D03*
Y240000D02*
D03*
X335000Y448000D02*
D03*
X355000D02*
D03*
X375000D02*
D03*
X390000D02*
D03*
Y420000D02*
D03*
X389000Y401000D02*
D03*
X335000Y355000D02*
D03*
X351000D02*
D03*
X335000Y301000D02*
D03*
Y260000D02*
D03*
X304000D02*
D03*
X293000Y185000D02*
D03*
X350000Y220000D02*
D03*
X293000D02*
D03*
X320000D02*
D03*
Y185000D02*
D03*
X350000D02*
D03*
X430000Y74000D02*
D03*
X440000D02*
D03*
X560000Y90000D02*
D03*
X430000Y64000D02*
D03*
X440000D02*
D03*
X566000Y70000D02*
D03*
X576000D02*
D03*
X608000Y156000D02*
D03*
Y118000D02*
D03*
X560000Y130000D02*
D03*
X566000Y82000D02*
D03*
X624000Y156000D02*
D03*
Y118000D02*
D03*
X560000Y110000D02*
D03*
Y150000D02*
D03*
X624000Y70000D02*
D03*
X476000Y50000D02*
D03*
X510000Y181000D02*
D03*
X395000Y254500D02*
D03*
X380000Y185000D02*
D03*
X395000Y160000D02*
D03*
X267000Y90000D02*
D03*
X405000Y70000D02*
D03*
X395000Y80000D02*
D03*
Y110000D02*
D03*
X365000Y170000D02*
D03*
Y200000D02*
D03*
X385000Y70000D02*
D03*
Y120000D02*
D03*
X430000Y110000D02*
D03*
X440000D02*
D03*
X430000Y90000D02*
D03*
X440000D02*
D03*
X385000Y95000D02*
D03*
X405000D02*
D03*
X668000Y50000D02*
D03*
Y70000D02*
D03*
Y90000D02*
D03*
Y110000D02*
D03*
Y130000D02*
D03*
Y150000D02*
D03*
Y170000D02*
D03*
Y210000D02*
D03*
Y230000D02*
D03*
X628000Y24000D02*
D03*
X652000Y46000D02*
D03*
X638000Y38000D02*
D03*
X335000Y325000D02*
D03*
X355000Y420000D02*
D03*
X395000Y202000D02*
D03*
X520000Y255000D02*
D03*
X585000Y184000D02*
D03*
X150000Y22000D02*
D03*
Y138000D02*
D03*
X285000Y54000D02*
D03*
D64*
X586250Y147000D02*
D03*
Y128000D02*
D03*
X608750Y137500D02*
D03*
X586250Y107000D02*
D03*
Y88000D02*
D03*
X608750Y97500D02*
D03*
X196250Y81000D02*
D03*
X173750Y71500D02*
D03*
Y90500D02*
D03*
Y205500D02*
D03*
Y186500D02*
D03*
X196250Y196000D02*
D03*
D65*
X511414Y360778D02*
D03*
X488414Y360778D02*
D03*
Y378778D02*
D03*
X511414Y378778D02*
D03*
D66*
X266900Y21800D02*
D03*
Y47200D02*
D03*
X173100D02*
D03*
Y21800D02*
D03*
X266900Y137300D02*
D03*
Y162700D02*
D03*
X173100D02*
D03*
Y137300D02*
D03*
X336900Y372300D02*
D03*
Y397700D02*
D03*
X243100Y397700D02*
D03*
Y372300D02*
D03*
D67*
X515164Y343028D02*
X523500Y351364D01*
X507914Y381278D02*
X510414Y378778D01*
X507914Y381278D02*
Y384485D01*
X480648Y389278D02*
X503121D01*
X507914Y384485D01*
X476500Y385130D02*
X480648Y389278D01*
X464000Y319000D02*
Y323864D01*
X482914Y342778D01*
X485914Y363278D02*
X488414Y360778D01*
X476500Y370500D02*
Y385130D01*
Y370500D02*
X483722Y363278D01*
X485914D01*
X484914Y353414D02*
Y358278D01*
X487414Y360778D02*
X488414D01*
X482914Y342778D02*
Y351414D01*
X484914Y358278D02*
X487414Y360778D01*
X482914Y351414D02*
X484914Y353414D01*
X510414Y378778D02*
X511414D01*
X513914Y376278D01*
X523500Y351364D02*
Y368118D01*
X515340Y376278D02*
X523500Y368118D01*
X513914Y376278D02*
X515340D01*
D68*
X499500Y250500D02*
Y257197D01*
D69*
X125400Y410400D02*
X157100D01*
X35000Y328600D02*
X36500Y330100D01*
X45100D01*
X87200Y277800D02*
X90000Y275000D01*
X35000Y277800D02*
X87200D01*
X125620Y310620D02*
Y328120D01*
X90000Y275000D02*
X125620Y310620D01*
Y328120D02*
X157100Y359600D01*
X90000Y375000D02*
X125400Y410400D01*
X45100Y330100D02*
X90000Y375000D01*
M02*
