G04 Layer_Color=255*
%FSLAX44Y44*%
%MOMM*%
G71*
G01*
G75*
%ADD18C,0.8000*%
G04:AMPARAMS|DCode=19|XSize=0.6mm|YSize=0.6mm|CornerRadius=0.075mm|HoleSize=0mm|Usage=FLASHONLY|Rotation=90.000|XOffset=0mm|YOffset=0mm|HoleType=Round|Shape=RoundedRectangle|*
%AMROUNDEDRECTD19*
21,1,0.6000,0.4500,0,0,90.0*
21,1,0.4500,0.6000,0,0,90.0*
1,1,0.1500,0.2250,0.2250*
1,1,0.1500,0.2250,-0.2250*
1,1,0.1500,-0.2250,-0.2250*
1,1,0.1500,-0.2250,0.2250*
%
%ADD19ROUNDEDRECTD19*%
G04:AMPARAMS|DCode=20|XSize=0.65mm|YSize=0.85mm|CornerRadius=0.1625mm|HoleSize=0mm|Usage=FLASHONLY|Rotation=0.000|XOffset=0mm|YOffset=0mm|HoleType=Round|Shape=RoundedRectangle|*
%AMROUNDEDRECTD20*
21,1,0.6500,0.5250,0,0,0.0*
21,1,0.3250,0.8500,0,0,0.0*
1,1,0.3250,0.1625,-0.2625*
1,1,0.3250,-0.1625,-0.2625*
1,1,0.3250,-0.1625,0.2625*
1,1,0.3250,0.1625,0.2625*
%
%ADD20ROUNDEDRECTD20*%
G04:AMPARAMS|DCode=21|XSize=2.4mm|YSize=0.8mm|CornerRadius=0.2mm|HoleSize=0mm|Usage=FLASHONLY|Rotation=270.000|XOffset=0mm|YOffset=0mm|HoleType=Round|Shape=RoundedRectangle|*
%AMROUNDEDRECTD21*
21,1,2.4000,0.4000,0,0,270.0*
21,1,2.0000,0.8000,0,0,270.0*
1,1,0.4000,-0.2000,-1.0000*
1,1,0.4000,-0.2000,1.0000*
1,1,0.4000,0.2000,1.0000*
1,1,0.4000,0.2000,-1.0000*
%
%ADD21ROUNDEDRECTD21*%
G04:AMPARAMS|DCode=22|XSize=0.3mm|YSize=0.8mm|CornerRadius=0.045mm|HoleSize=0mm|Usage=FLASHONLY|Rotation=270.000|XOffset=0mm|YOffset=0mm|HoleType=Round|Shape=RoundedRectangle|*
%AMROUNDEDRECTD22*
21,1,0.3000,0.7100,0,0,270.0*
21,1,0.2100,0.8000,0,0,270.0*
1,1,0.0900,-0.3550,-0.1050*
1,1,0.0900,-0.3550,0.1050*
1,1,0.0900,0.3550,0.1050*
1,1,0.0900,0.3550,-0.1050*
%
%ADD22ROUNDEDRECTD22*%
G04:AMPARAMS|DCode=23|XSize=0.3mm|YSize=0.8mm|CornerRadius=0.045mm|HoleSize=0mm|Usage=FLASHONLY|Rotation=180.000|XOffset=0mm|YOffset=0mm|HoleType=Round|Shape=RoundedRectangle|*
%AMROUNDEDRECTD23*
21,1,0.3000,0.7100,0,0,180.0*
21,1,0.2100,0.8000,0,0,180.0*
1,1,0.0900,-0.1050,0.3550*
1,1,0.0900,0.1050,0.3550*
1,1,0.0900,0.1050,-0.3550*
1,1,0.0900,-0.1050,-0.3550*
%
%ADD23ROUNDEDRECTD23*%
%ADD24R,3.2500X3.2500*%
G04:AMPARAMS|DCode=25|XSize=0.42mm|YSize=1.1mm|CornerRadius=0.105mm|HoleSize=0mm|Usage=FLASHONLY|Rotation=0.000|XOffset=0mm|YOffset=0mm|HoleType=Round|Shape=RoundedRectangle|*
%AMROUNDEDRECTD25*
21,1,0.4200,0.8900,0,0,0.0*
21,1,0.2100,1.1000,0,0,0.0*
1,1,0.2100,0.1050,-0.4450*
1,1,0.2100,-0.1050,-0.4450*
1,1,0.2100,-0.1050,0.4450*
1,1,0.2100,0.1050,0.4450*
%
%ADD25ROUNDEDRECTD25*%
G04:AMPARAMS|DCode=26|XSize=0.9mm|YSize=0.8mm|CornerRadius=0.2mm|HoleSize=0mm|Usage=FLASHONLY|Rotation=90.000|XOffset=0mm|YOffset=0mm|HoleType=Round|Shape=RoundedRectangle|*
%AMROUNDEDRECTD26*
21,1,0.9000,0.4000,0,0,90.0*
21,1,0.5000,0.8000,0,0,90.0*
1,1,0.4000,0.2000,0.2500*
1,1,0.4000,0.2000,-0.2500*
1,1,0.4000,-0.2000,-0.2500*
1,1,0.4000,-0.2000,0.2500*
%
%ADD26ROUNDEDRECTD26*%
G04:AMPARAMS|DCode=27|XSize=0.6mm|YSize=0.6mm|CornerRadius=0.075mm|HoleSize=0mm|Usage=FLASHONLY|Rotation=135.000|XOffset=0mm|YOffset=0mm|HoleType=Round|Shape=RoundedRectangle|*
%AMROUNDEDRECTD27*
21,1,0.6000,0.4500,0,0,135.0*
21,1,0.4500,0.6000,0,0,135.0*
1,1,0.1500,0.0000,0.3182*
1,1,0.1500,0.3182,0.0000*
1,1,0.1500,0.0000,-0.3182*
1,1,0.1500,-0.3182,0.0000*
%
%ADD27ROUNDEDRECTD27*%
G04:AMPARAMS|DCode=28|XSize=0.6mm|YSize=0.6mm|CornerRadius=0.075mm|HoleSize=0mm|Usage=FLASHONLY|Rotation=180.000|XOffset=0mm|YOffset=0mm|HoleType=Round|Shape=RoundedRectangle|*
%AMROUNDEDRECTD28*
21,1,0.6000,0.4500,0,0,180.0*
21,1,0.4500,0.6000,0,0,180.0*
1,1,0.1500,-0.2250,0.2250*
1,1,0.1500,0.2250,0.2250*
1,1,0.1500,0.2250,-0.2250*
1,1,0.1500,-0.2250,-0.2250*
%
%ADD28ROUNDEDRECTD28*%
G04:AMPARAMS|DCode=29|XSize=1.7mm|YSize=1.05mm|CornerRadius=0.2625mm|HoleSize=0mm|Usage=FLASHONLY|Rotation=0.000|XOffset=0mm|YOffset=0mm|HoleType=Round|Shape=RoundedRectangle|*
%AMROUNDEDRECTD29*
21,1,1.7000,0.5250,0,0,0.0*
21,1,1.1750,1.0500,0,0,0.0*
1,1,0.5250,0.5875,-0.2625*
1,1,0.5250,-0.5875,-0.2625*
1,1,0.5250,-0.5875,0.2625*
1,1,0.5250,0.5875,0.2625*
%
%ADD29ROUNDEDRECTD29*%
G04:AMPARAMS|DCode=30|XSize=1.7mm|YSize=1.05mm|CornerRadius=0.2625mm|HoleSize=0mm|Usage=FLASHONLY|Rotation=90.000|XOffset=0mm|YOffset=0mm|HoleType=Round|Shape=RoundedRectangle|*
%AMROUNDEDRECTD30*
21,1,1.7000,0.5250,0,0,90.0*
21,1,1.1750,1.0500,0,0,90.0*
1,1,0.5250,0.2625,0.5875*
1,1,0.5250,0.2625,-0.5875*
1,1,0.5250,-0.2625,-0.5875*
1,1,0.5250,-0.2625,0.5875*
%
%ADD30ROUNDEDRECTD30*%
G04:AMPARAMS|DCode=31|XSize=0.9mm|YSize=0.8mm|CornerRadius=0.2mm|HoleSize=0mm|Usage=FLASHONLY|Rotation=180.000|XOffset=0mm|YOffset=0mm|HoleType=Round|Shape=RoundedRectangle|*
%AMROUNDEDRECTD31*
21,1,0.9000,0.4000,0,0,180.0*
21,1,0.5000,0.8000,0,0,180.0*
1,1,0.4000,-0.2500,0.2000*
1,1,0.4000,0.2500,0.2000*
1,1,0.4000,0.2500,-0.2000*
1,1,0.4000,-0.2500,-0.2000*
%
%ADD31ROUNDEDRECTD31*%
G04:AMPARAMS|DCode=32|XSize=1mm|YSize=0.9mm|CornerRadius=0.225mm|HoleSize=0mm|Usage=FLASHONLY|Rotation=90.000|XOffset=0mm|YOffset=0mm|HoleType=Round|Shape=RoundedRectangle|*
%AMROUNDEDRECTD32*
21,1,1.0000,0.4500,0,0,90.0*
21,1,0.5500,0.9000,0,0,90.0*
1,1,0.4500,0.2250,0.2750*
1,1,0.4500,0.2250,-0.2750*
1,1,0.4500,-0.2250,-0.2750*
1,1,0.4500,-0.2250,0.2750*
%
%ADD32ROUNDEDRECTD32*%
G04:AMPARAMS|DCode=33|XSize=0.62mm|YSize=0.56mm|CornerRadius=0.14mm|HoleSize=0mm|Usage=FLASHONLY|Rotation=0.000|XOffset=0mm|YOffset=0mm|HoleType=Round|Shape=RoundedRectangle|*
%AMROUNDEDRECTD33*
21,1,0.6200,0.2800,0,0,0.0*
21,1,0.3400,0.5600,0,0,0.0*
1,1,0.2800,0.1700,-0.1400*
1,1,0.2800,-0.1700,-0.1400*
1,1,0.2800,-0.1700,0.1400*
1,1,0.2800,0.1700,0.1400*
%
%ADD33ROUNDEDRECTD33*%
G04:AMPARAMS|DCode=34|XSize=1.42mm|YSize=0.89mm|CornerRadius=0.2225mm|HoleSize=0mm|Usage=FLASHONLY|Rotation=270.000|XOffset=0mm|YOffset=0mm|HoleType=Round|Shape=RoundedRectangle|*
%AMROUNDEDRECTD34*
21,1,1.4200,0.4450,0,0,270.0*
21,1,0.9750,0.8900,0,0,270.0*
1,1,0.4450,-0.2225,-0.4875*
1,1,0.4450,-0.2225,0.4875*
1,1,0.4450,0.2225,0.4875*
1,1,0.4450,0.2225,-0.4875*
%
%ADD34ROUNDEDRECTD34*%
G04:AMPARAMS|DCode=35|XSize=0.62mm|YSize=0.56mm|CornerRadius=0.14mm|HoleSize=0mm|Usage=FLASHONLY|Rotation=90.000|XOffset=0mm|YOffset=0mm|HoleType=Round|Shape=RoundedRectangle|*
%AMROUNDEDRECTD35*
21,1,0.6200,0.2800,0,0,90.0*
21,1,0.3400,0.5600,0,0,90.0*
1,1,0.2800,0.1400,0.1700*
1,1,0.2800,0.1400,-0.1700*
1,1,0.2800,-0.1400,-0.1700*
1,1,0.2800,-0.1400,0.1700*
%
%ADD35ROUNDEDRECTD35*%
G04:AMPARAMS|DCode=36|XSize=5.7mm|YSize=2.35mm|CornerRadius=0.2938mm|HoleSize=0mm|Usage=FLASHONLY|Rotation=180.000|XOffset=0mm|YOffset=0mm|HoleType=Round|Shape=RoundedRectangle|*
%AMROUNDEDRECTD36*
21,1,5.7000,1.7625,0,0,180.0*
21,1,5.1125,2.3500,0,0,180.0*
1,1,0.5875,-2.5562,0.8812*
1,1,0.5875,2.5562,0.8812*
1,1,0.5875,2.5562,-0.8812*
1,1,0.5875,-2.5562,-0.8812*
%
%ADD36ROUNDEDRECTD36*%
%ADD37R,4.6000X4.6000*%
G04:AMPARAMS|DCode=38|XSize=0.2mm|YSize=0.7mm|CornerRadius=0.05mm|HoleSize=0mm|Usage=FLASHONLY|Rotation=0.000|XOffset=0mm|YOffset=0mm|HoleType=Round|Shape=RoundedRectangle|*
%AMROUNDEDRECTD38*
21,1,0.2000,0.6000,0,0,0.0*
21,1,0.1000,0.7000,0,0,0.0*
1,1,0.1000,0.0500,-0.3000*
1,1,0.1000,-0.0500,-0.3000*
1,1,0.1000,-0.0500,0.3000*
1,1,0.1000,0.0500,0.3000*
%
%ADD38ROUNDEDRECTD38*%
G04:AMPARAMS|DCode=39|XSize=0.2mm|YSize=0.7mm|CornerRadius=0.05mm|HoleSize=0mm|Usage=FLASHONLY|Rotation=90.000|XOffset=0mm|YOffset=0mm|HoleType=Round|Shape=RoundedRectangle|*
%AMROUNDEDRECTD39*
21,1,0.2000,0.6000,0,0,90.0*
21,1,0.1000,0.7000,0,0,90.0*
1,1,0.1000,0.3000,0.0500*
1,1,0.1000,0.3000,-0.0500*
1,1,0.1000,-0.3000,-0.0500*
1,1,0.1000,-0.3000,0.0500*
%
%ADD39ROUNDEDRECTD39*%
G04:AMPARAMS|DCode=40|XSize=0.95mm|YSize=0.85mm|CornerRadius=0.2125mm|HoleSize=0mm|Usage=FLASHONLY|Rotation=180.000|XOffset=0mm|YOffset=0mm|HoleType=Round|Shape=RoundedRectangle|*
%AMROUNDEDRECTD40*
21,1,0.9500,0.4250,0,0,180.0*
21,1,0.5250,0.8500,0,0,180.0*
1,1,0.4250,-0.2625,0.2125*
1,1,0.4250,0.2625,0.2125*
1,1,0.4250,0.2625,-0.2125*
1,1,0.4250,-0.2625,-0.2125*
%
%ADD40ROUNDEDRECTD40*%
G04:AMPARAMS|DCode=41|XSize=1.45mm|YSize=1mm|CornerRadius=0.25mm|HoleSize=0mm|Usage=FLASHONLY|Rotation=180.000|XOffset=0mm|YOffset=0mm|HoleType=Round|Shape=RoundedRectangle|*
%AMROUNDEDRECTD41*
21,1,1.4500,0.5000,0,0,180.0*
21,1,0.9500,1.0000,0,0,180.0*
1,1,0.5000,-0.4750,0.2500*
1,1,0.5000,0.4750,0.2500*
1,1,0.5000,0.4750,-0.2500*
1,1,0.5000,-0.4750,-0.2500*
%
%ADD41ROUNDEDRECTD41*%
G04:AMPARAMS|DCode=42|XSize=0.65mm|YSize=0.55mm|CornerRadius=0.1375mm|HoleSize=0mm|Usage=FLASHONLY|Rotation=90.000|XOffset=0mm|YOffset=0mm|HoleType=Round|Shape=RoundedRectangle|*
%AMROUNDEDRECTD42*
21,1,0.6500,0.2750,0,0,90.0*
21,1,0.3750,0.5500,0,0,90.0*
1,1,0.2750,0.1375,0.1875*
1,1,0.2750,0.1375,-0.1875*
1,1,0.2750,-0.1375,-0.1875*
1,1,0.2750,-0.1375,0.1875*
%
%ADD42ROUNDEDRECTD42*%
G04:AMPARAMS|DCode=43|XSize=1.45mm|YSize=1mm|CornerRadius=0.25mm|HoleSize=0mm|Usage=FLASHONLY|Rotation=270.000|XOffset=0mm|YOffset=0mm|HoleType=Round|Shape=RoundedRectangle|*
%AMROUNDEDRECTD43*
21,1,1.4500,0.5000,0,0,270.0*
21,1,0.9500,1.0000,0,0,270.0*
1,1,0.5000,-0.2500,-0.4750*
1,1,0.5000,-0.2500,0.4750*
1,1,0.5000,0.2500,0.4750*
1,1,0.5000,0.2500,-0.4750*
%
%ADD43ROUNDEDRECTD43*%
G04:AMPARAMS|DCode=44|XSize=0.65mm|YSize=0.55mm|CornerRadius=0.1375mm|HoleSize=0mm|Usage=FLASHONLY|Rotation=0.000|XOffset=0mm|YOffset=0mm|HoleType=Round|Shape=RoundedRectangle|*
%AMROUNDEDRECTD44*
21,1,0.6500,0.2750,0,0,0.0*
21,1,0.3750,0.5500,0,0,0.0*
1,1,0.2750,0.1875,-0.1375*
1,1,0.2750,-0.1875,-0.1375*
1,1,0.2750,-0.1875,0.1375*
1,1,0.2750,0.1875,0.1375*
%
%ADD44ROUNDEDRECTD44*%
G04:AMPARAMS|DCode=45|XSize=0.95mm|YSize=0.85mm|CornerRadius=0.2125mm|HoleSize=0mm|Usage=FLASHONLY|Rotation=90.000|XOffset=0mm|YOffset=0mm|HoleType=Round|Shape=RoundedRectangle|*
%AMROUNDEDRECTD45*
21,1,0.9500,0.4250,0,0,90.0*
21,1,0.5250,0.8500,0,0,90.0*
1,1,0.4250,0.2125,0.2625*
1,1,0.4250,0.2125,-0.2625*
1,1,0.4250,-0.2125,-0.2625*
1,1,0.4250,-0.2125,0.2625*
%
%ADD45ROUNDEDRECTD45*%
G04:AMPARAMS|DCode=46|XSize=0.65mm|YSize=0.55mm|CornerRadius=0.1375mm|HoleSize=0mm|Usage=FLASHONLY|Rotation=225.000|XOffset=0mm|YOffset=0mm|HoleType=Round|Shape=RoundedRectangle|*
%AMROUNDEDRECTD46*
21,1,0.6500,0.2750,0,0,225.0*
21,1,0.3750,0.5500,0,0,225.0*
1,1,0.2750,-0.2298,-0.0353*
1,1,0.2750,0.0353,0.2298*
1,1,0.2750,0.2298,0.0353*
1,1,0.2750,-0.0353,-0.2298*
%
%ADD46ROUNDEDRECTD46*%
G04:AMPARAMS|DCode=47|XSize=1.65mm|YSize=3.35mm|CornerRadius=0.33mm|HoleSize=0mm|Usage=FLASHONLY|Rotation=270.000|XOffset=0mm|YOffset=0mm|HoleType=Round|Shape=RoundedRectangle|*
%AMROUNDEDRECTD47*
21,1,1.6500,2.6900,0,0,270.0*
21,1,0.9900,3.3500,0,0,270.0*
1,1,0.6600,-1.3450,-0.4950*
1,1,0.6600,-1.3450,0.4950*
1,1,0.6600,1.3450,0.4950*
1,1,0.6600,1.3450,-0.4950*
%
%ADD47ROUNDEDRECTD47*%
G04:AMPARAMS|DCode=48|XSize=1.9mm|YSize=1.3mm|CornerRadius=0.325mm|HoleSize=0mm|Usage=FLASHONLY|Rotation=270.000|XOffset=0mm|YOffset=0mm|HoleType=Round|Shape=RoundedRectangle|*
%AMROUNDEDRECTD48*
21,1,1.9000,0.6500,0,0,270.0*
21,1,1.2500,1.3000,0,0,270.0*
1,1,0.6500,-0.3250,-0.6250*
1,1,0.6500,-0.3250,0.6250*
1,1,0.6500,0.3250,0.6250*
1,1,0.6500,0.3250,-0.6250*
%
%ADD48ROUNDEDRECTD48*%
G04:AMPARAMS|DCode=49|XSize=1.9mm|YSize=1.3mm|CornerRadius=0.325mm|HoleSize=0mm|Usage=FLASHONLY|Rotation=180.000|XOffset=0mm|YOffset=0mm|HoleType=Round|Shape=RoundedRectangle|*
%AMROUNDEDRECTD49*
21,1,1.9000,0.6500,0,0,180.0*
21,1,1.2500,1.3000,0,0,180.0*
1,1,0.6500,-0.6250,0.3250*
1,1,0.6500,0.6250,0.3250*
1,1,0.6500,0.6250,-0.3250*
1,1,0.6500,-0.6250,-0.3250*
%
%ADD49ROUNDEDRECTD49*%
G04:AMPARAMS|DCode=50|XSize=1.2mm|YSize=1.5mm|CornerRadius=0.18mm|HoleSize=0mm|Usage=FLASHONLY|Rotation=225.000|XOffset=0mm|YOffset=0mm|HoleType=Round|Shape=RoundedRectangle|*
%AMROUNDEDRECTD50*
21,1,1.2000,1.1400,0,0,225.0*
21,1,0.8400,1.5000,0,0,225.0*
1,1,0.3600,-0.7000,0.1061*
1,1,0.3600,-0.1061,0.7000*
1,1,0.3600,0.7000,-0.1061*
1,1,0.3600,0.1061,-0.7000*
%
%ADD50ROUNDEDRECTD50*%
G04:AMPARAMS|DCode=51|XSize=1.2mm|YSize=1.4mm|CornerRadius=0.21mm|HoleSize=0mm|Usage=FLASHONLY|Rotation=225.000|XOffset=0mm|YOffset=0mm|HoleType=Round|Shape=RoundedRectangle|*
%AMROUNDEDRECTD51*
21,1,1.2000,0.9800,0,0,225.0*
21,1,0.7800,1.4000,0,0,225.0*
1,1,0.4200,-0.6223,0.0707*
1,1,0.4200,-0.0707,0.6223*
1,1,0.4200,0.6223,-0.0707*
1,1,0.4200,0.0707,-0.6223*
%
%ADD51ROUNDEDRECTD51*%
G04:AMPARAMS|DCode=55|XSize=2.3mm|YSize=3.4mm|CornerRadius=0.46mm|HoleSize=0mm|Usage=FLASHONLY|Rotation=270.000|XOffset=0mm|YOffset=0mm|HoleType=Round|Shape=RoundedRectangle|*
%AMROUNDEDRECTD55*
21,1,2.3000,2.4800,0,0,270.0*
21,1,1.3800,3.4000,0,0,270.0*
1,1,0.9200,-1.2400,-0.6900*
1,1,0.9200,-1.2400,0.6900*
1,1,0.9200,1.2400,0.6900*
1,1,0.9200,1.2400,-0.6900*
%
%ADD55ROUNDEDRECTD55*%
%ADD56O,3.4000X2.3000*%
G04:AMPARAMS|DCode=57|XSize=2mm|YSize=2.8mm|CornerRadius=0.4mm|HoleSize=0mm|Usage=FLASHONLY|Rotation=90.000|XOffset=0mm|YOffset=0mm|HoleType=Round|Shape=RoundedRectangle|*
%AMROUNDEDRECTD57*
21,1,2.0000,2.0000,0,0,90.0*
21,1,1.2000,2.8000,0,0,90.0*
1,1,0.8000,1.0000,0.6000*
1,1,0.8000,1.0000,-0.6000*
1,1,0.8000,-1.0000,-0.6000*
1,1,0.8000,-1.0000,0.6000*
%
%ADD57ROUNDEDRECTD57*%
%ADD58O,2.8000X2.0000*%
%ADD59C,2.0000*%
%ADD60C,0.2000*%
%ADD61C,1.8000*%
D18*
X441500Y368000D02*
D03*
X420500Y213000D02*
D03*
X380500Y20000D02*
D03*
X364500Y59000D02*
D03*
X444000Y179500D02*
D03*
X530500Y79500D02*
D03*
X493000Y184000D02*
D03*
X127500Y57500D02*
D03*
X619500Y98000D02*
D03*
X620000Y137500D02*
D03*
X501500Y382000D02*
D03*
D19*
X400700Y277500D02*
D03*
X410300D02*
D03*
X400700Y288500D02*
D03*
X410300D02*
D03*
X497798Y200492D02*
D03*
X488198D02*
D03*
X497798Y211495D02*
D03*
X488198D02*
D03*
X495197Y222498D02*
D03*
X504797D02*
D03*
Y233500D02*
D03*
X495197D02*
D03*
X479800Y392000D02*
D03*
X470200D02*
D03*
D20*
X309000Y38750D02*
D03*
X318500Y61250D02*
D03*
X299500D02*
D03*
X208500D02*
D03*
X227500D02*
D03*
X218000Y38750D02*
D03*
D21*
X399600Y403000D02*
D03*
Y439000D02*
D03*
X412300Y403000D02*
D03*
Y439000D02*
D03*
X425000Y403000D02*
D03*
Y439000D02*
D03*
X437700Y403000D02*
D03*
Y439000D02*
D03*
X450400Y403000D02*
D03*
Y439000D02*
D03*
D22*
X578000Y217000D02*
D03*
Y223500D02*
D03*
Y230000D02*
D03*
Y236500D02*
D03*
Y243000D02*
D03*
X530000D02*
D03*
Y236500D02*
D03*
Y230000D02*
D03*
Y223500D02*
D03*
Y217000D02*
D03*
D23*
X567000Y254000D02*
D03*
X560500D02*
D03*
X554000D02*
D03*
X547500D02*
D03*
X541000D02*
D03*
Y206000D02*
D03*
X547500D02*
D03*
X554000D02*
D03*
X560500D02*
D03*
X567000D02*
D03*
D24*
X554000Y230000D02*
D03*
D25*
X516750Y37000D02*
D03*
X529750D02*
D03*
X523250D02*
D03*
X510250D02*
D03*
X529750Y63000D02*
D03*
X510250Y63000D02*
D03*
X516750D02*
D03*
X523250Y63000D02*
D03*
D26*
X611497Y256000D02*
D03*
X596497D02*
D03*
X611497Y204498D02*
D03*
X596497D02*
D03*
X221500Y23000D02*
D03*
X206500D02*
D03*
X305500D02*
D03*
X320500D02*
D03*
X595000Y137500D02*
D03*
X610000D02*
D03*
X595000Y97500D02*
D03*
X610000D02*
D03*
X349500Y45503D02*
D03*
X334500D02*
D03*
X257000Y39000D02*
D03*
X243000D02*
D03*
X284000D02*
D03*
X270000D02*
D03*
X335000Y29000D02*
D03*
X349000D02*
D03*
D27*
X560894Y328794D02*
D03*
X554106Y322006D02*
D03*
D28*
X449000Y252700D02*
D03*
Y262300D02*
D03*
D29*
X103000Y100250D02*
D03*
Y71750D02*
D03*
X103000Y166250D02*
D03*
Y137750D02*
D03*
D30*
X54250Y75000D02*
D03*
X25750D02*
D03*
X101753Y187000D02*
D03*
X73253D02*
D03*
D31*
X444000Y192500D02*
D03*
X444000Y207500D02*
D03*
X365000Y42500D02*
D03*
Y27500D02*
D03*
D32*
X496500Y15000D02*
D03*
X511500D02*
D03*
D33*
X427000Y369000D02*
D03*
Y359000D02*
D03*
D34*
X408097Y357505D02*
D03*
X388897D02*
D03*
D35*
X520500Y306400D02*
D03*
X510500D02*
D03*
D36*
X517500Y99000D02*
D03*
X517500Y141000D02*
D03*
D37*
X455000Y310000D02*
D03*
D38*
X433000Y339000D02*
D03*
X437000D02*
D03*
X441000D02*
D03*
X445000D02*
D03*
X449000D02*
D03*
X453000D02*
D03*
X457000D02*
D03*
X461000D02*
D03*
X465000D02*
D03*
X469000D02*
D03*
X473000D02*
D03*
X477000D02*
D03*
X477000Y281000D02*
D03*
X473000D02*
D03*
X469000D02*
D03*
X465000D02*
D03*
X461000D02*
D03*
X457000D02*
D03*
X453000D02*
D03*
X449000D02*
D03*
X445000D02*
D03*
X441000D02*
D03*
X437000D02*
D03*
X433000D02*
D03*
D39*
X484000Y332000D02*
D03*
Y328000D02*
D03*
Y324000D02*
D03*
Y320000D02*
D03*
Y316000D02*
D03*
Y312000D02*
D03*
Y308000D02*
D03*
Y304000D02*
D03*
Y300000D02*
D03*
Y296000D02*
D03*
Y292000D02*
D03*
Y288000D02*
D03*
X426000Y288000D02*
D03*
Y292000D02*
D03*
Y296000D02*
D03*
Y300000D02*
D03*
Y304000D02*
D03*
Y308000D02*
D03*
Y312000D02*
D03*
X426000Y316000D02*
D03*
X426000Y320000D02*
D03*
Y324000D02*
D03*
Y328000D02*
D03*
Y332000D02*
D03*
D40*
X537998Y273002D02*
D03*
X537998Y288002D02*
D03*
X554000D02*
D03*
Y273002D02*
D03*
X546000Y51500D02*
D03*
Y66500D02*
D03*
D41*
X600000Y239000D02*
D03*
Y221000D02*
D03*
D42*
X505000Y327503D02*
D03*
X515000D02*
D03*
X509500Y343500D02*
D03*
X499500D02*
D03*
X474000Y354502D02*
D03*
X484000D02*
D03*
X419000Y254495D02*
D03*
X429000D02*
D03*
X419000Y265497D02*
D03*
X429000D02*
D03*
D43*
X406500Y315000D02*
D03*
X388500D02*
D03*
D44*
X410498Y331003D02*
D03*
Y341003D02*
D03*
X399495Y331003D02*
D03*
Y341003D02*
D03*
X499500Y316800D02*
D03*
Y306800D02*
D03*
D45*
X441500Y358000D02*
D03*
X456500D02*
D03*
X543503Y15000D02*
D03*
X528503D02*
D03*
D46*
X560465Y342536D02*
D03*
X567536Y335465D02*
D03*
X540664Y322735D02*
D03*
X547735Y315665D02*
D03*
D47*
X404000Y135000D02*
D03*
X456000D02*
D03*
X399000Y50000D02*
D03*
X451000Y50000D02*
D03*
D48*
X425000Y185000D02*
D03*
X395000D02*
D03*
D49*
X486502Y65000D02*
D03*
X486502Y35000D02*
D03*
D50*
X639284Y407284D02*
D03*
D51*
X582716Y350716D02*
D03*
D55*
X35000Y328600D02*
D03*
D56*
Y227000D02*
D03*
Y277800D02*
D03*
Y176200D02*
D03*
Y125400D02*
D03*
D57*
X641000Y98800D02*
D03*
D58*
Y175000D02*
D03*
Y136900D02*
D03*
Y213100D02*
D03*
Y251200D02*
D03*
D59*
X157100Y410400D02*
D03*
Y359600D02*
D03*
Y105600D02*
D03*
X334900Y156400D02*
D03*
Y105600D02*
D03*
D60*
X446000Y319000D02*
D03*
X464000D02*
D03*
X446000Y300000D02*
D03*
X464000D02*
D03*
D61*
X90000Y375000D02*
D03*
Y275000D02*
D03*
M02*
