M48
;Layer_Color=9474304
;FILE_FORMAT=4:4
METRIC,TZ
;TYPE=PLATED
T1F00S00C0.2000
T2F00S00C0.3000
T3F00S00C0.9000
T4F00S00C1.3000
T5F00S00C1.6000
T6F00S00C2.5000
%
T01
X491000Y6000
X506000
X526000
X531000Y28000
X501700Y57000
X489000Y193000
X481500Y201500
Y212500
X488500Y223498
Y234498
X500500Y251500
X492000Y266000
X488000Y270000
X481000Y266000
X476000Y261000
X470000Y266000
X463500Y261000
X461000Y243000
X449000Y247000
X442999Y271999
X437999Y266999
X432000Y231000
X393500Y272500
Y283500
X401500Y302500
X408500Y297000
X418000Y311000
X447000Y320000
X465000
X465000Y301000
X447000
X494000Y301000
X504000
X510000Y300000
X516000
X522000
X528000Y301000
X534000
X540000
X545000Y303000
X549000Y306000
X553000Y310000
X557000Y314000
X561000Y318000
X565000Y322000
X569000Y326000
X557500Y336500
X553000Y332000
X548500Y327500
X543500Y335500
X536500Y329000
X529500Y335000
Y322500
X528000Y314000
X534000
X539000Y316000
X522000Y315000
X516000
Y321000
X508000Y318000
X504511Y336543
X495999Y335999
X516000Y335500
X523000Y328500
X537000Y342500
X538500Y355000
X544500Y349500
X551000Y343000
X532500Y361000
X525000Y383000
X524000Y287000
X530000
X517000
X510000
X503000
X495500Y288000
X493500Y279000
X501000Y294000
X540000Y264000
X548000
X550000Y236000
X560000
Y226000
X550000
X523000Y231000
X552000Y196000
X561000
X568500
X547000Y171000
X450000Y350000
X451500Y419000
X438500
X400500
X351000Y276000
Y264500
T02
X653000Y47000
X669000Y51000
Y71000
Y91000
Y111000
Y131000
X625000Y119000
X609000
X561000Y111000
Y131000
Y91000
X567000Y83000
Y71000
X577000
X625000
X639000Y39000
X629000Y25000
X621000Y6000
X606000
X586000
X566000
X546000
X546000Y28500
Y41000
X504000Y29000
X477000Y51000
X441000Y65000
Y75000
X431000
Y65000
Y91000
X441000
Y111000
X431000
X406000Y121000
X396000Y111000
X386000Y121000
Y96000
X406000
Y71000
X396000Y81000
X386000Y71000
X349000Y58000
X336000Y16000
X326000Y6000
X346000
X366000
X386000
X406000
X426000
X446000
X466000
X503000Y82500
X293000Y66000
X286000Y55000
X268000Y66000
Y91000
Y121000
X293000
X286000Y6000
X266000
X306000
X151000Y23000
Y139000
X266000Y186000
Y201000
Y221000
Y241000
X303500Y246000
X305000Y261000
X336000
Y302000
Y326000
Y356000
X352000
X372000Y393500
X390000Y402000
X391000Y421000
Y449000
X376000
X356000
X336000
Y421000
X356000
X391000Y332000
X378500Y316000
X396000Y255500
X411500
Y266500
X423000Y281000
X417000Y203000
X396000
X381000Y186000
X351000
X366000Y201000
Y171000
X396000Y161000
X406000Y151000
X471000Y161000
X491000
X511000
X531000
X551000
X561000Y151000
X609000Y157000
X625000
X586000Y185000
X533000Y197000
X511000Y182000
X474000
X521000Y256000
X568500Y278500
X583500
X598500
X598511Y293316
X613500Y293500
X606000Y301000
X598500Y308500
X583500
Y323500
X591000Y316000
X576000
Y331000
X568500Y308500
Y293500
X583500
X561000Y301000
X556000Y351000
X548500Y358500
X541000Y366000
X533500Y373500
X511000Y396000
X503500Y403500
X496000Y411000
X488500Y418500
X481000Y426000
X473500Y433500
X466000Y441000
X467500Y370000
X457500
X467500Y355500
X613500Y278500
X621000Y286000
X628500Y278500
X351000Y221000
X321000
X294000
Y186000
X321000
X669000Y171000
Y151000
Y211000
Y231000
T03
X335900Y106600
X158100
X91000Y276000
Y376000
X158100Y360600
Y411400
X335900Y157400
T04
X642000Y99800
Y137900
Y176000
Y214100
Y252200
T05
X36000Y126400
Y177200
Y228000
Y278800
Y329600
T06
X588000Y32500
X88000
Y422500
M30
