G04 Layer_Color=65535*
%FSLAX44Y44*%
%MOMM*%
G71*
G01*
G75*
%ADD11C,0.2000*%
%ADD13C,0.2500*%
%ADD14C,0.4000*%
%ADD16C,0.3000*%
%ADD70C,0.2200*%
%ADD71C,0.1600*%
G36*
X534291Y436537D02*
X540734D01*
Y434371D01*
X531698D01*
Y447092D01*
X534291D01*
Y436537D01*
D02*
G37*
G36*
X524681Y447166D02*
X525051Y447147D01*
X525421Y447129D01*
X525773Y447092D01*
X526088Y447055D01*
X526125D01*
X526217Y447036D01*
X526347Y446999D01*
X526532Y446944D01*
X526736Y446870D01*
X526958Y446777D01*
X527199Y446666D01*
X527421Y446518D01*
X527440Y446499D01*
X527514Y446444D01*
X527625Y446351D01*
X527773Y446240D01*
X527921Y446073D01*
X528088Y445888D01*
X528254Y445685D01*
X528402Y445444D01*
X528421Y445407D01*
X528458Y445333D01*
X528532Y445185D01*
X528606Y444999D01*
X528680Y444777D01*
X528754Y444537D01*
X528791Y444240D01*
X528810Y443944D01*
Y443925D01*
Y443907D01*
Y443796D01*
X528791Y443629D01*
X528754Y443407D01*
X528680Y443148D01*
X528606Y442870D01*
X528476Y442592D01*
X528310Y442296D01*
X528291Y442259D01*
X528217Y442166D01*
X528106Y442037D01*
X527977Y441870D01*
X527791Y441703D01*
X527569Y441500D01*
X527310Y441333D01*
X527014Y441166D01*
X527032D01*
X527069Y441148D01*
X527125Y441129D01*
X527199Y441111D01*
X527421Y441018D01*
X527680Y440889D01*
X527958Y440741D01*
X528273Y440537D01*
X528551Y440296D01*
X528810Y440000D01*
X528828Y439963D01*
X528902Y439852D01*
X529013Y439685D01*
X529125Y439463D01*
X529236Y439167D01*
X529347Y438852D01*
X529421Y438481D01*
X529439Y438074D01*
Y438056D01*
Y438037D01*
Y437926D01*
X529421Y437759D01*
X529384Y437537D01*
X529347Y437278D01*
X529273Y436982D01*
X529162Y436685D01*
X529032Y436371D01*
X529013Y436334D01*
X528958Y436241D01*
X528865Y436093D01*
X528736Y435908D01*
X528588Y435686D01*
X528384Y435482D01*
X528180Y435260D01*
X527921Y435056D01*
X527884Y435037D01*
X527791Y434982D01*
X527643Y434889D01*
X527440Y434797D01*
X527180Y434686D01*
X526884Y434593D01*
X526551Y434501D01*
X526180Y434445D01*
X526106D01*
X526032Y434426D01*
X525847D01*
X525718Y434408D01*
X525366D01*
X525144Y434389D01*
X524588D01*
X524273Y434371D01*
X518718D01*
Y447184D01*
X524347D01*
X524681Y447166D01*
D02*
G37*
G36*
X552085Y445018D02*
X545178D01*
Y442185D01*
X551604D01*
Y440018D01*
X545178D01*
Y436537D01*
X552326D01*
Y434371D01*
X542586D01*
Y447184D01*
X552085D01*
Y445018D01*
D02*
G37*
G36*
X180316Y15527D02*
X180464Y15509D01*
X180650Y15490D01*
X180853Y15453D01*
X181057Y15416D01*
X181538Y15286D01*
X182020Y15101D01*
X182260Y14990D01*
X182501Y14861D01*
X182723Y14694D01*
X182927Y14509D01*
X182946Y14490D01*
X182983Y14472D01*
X183020Y14398D01*
X183094Y14324D01*
X183186Y14231D01*
X183279Y14101D01*
X183372Y13972D01*
X183483Y13805D01*
X183668Y13453D01*
X183853Y13009D01*
X183927Y12787D01*
X183964Y12527D01*
X184001Y12268D01*
X184020Y11990D01*
Y11953D01*
Y11861D01*
X184001Y11713D01*
X183983Y11509D01*
X183946Y11287D01*
X183871Y11028D01*
X183797Y10750D01*
X183686Y10472D01*
X183668Y10435D01*
X183631Y10342D01*
X183557Y10194D01*
X183445Y9991D01*
X183297Y9768D01*
X183112Y9491D01*
X182890Y9213D01*
X182631Y8898D01*
X182594Y8861D01*
X182501Y8750D01*
X182409Y8657D01*
X182316Y8565D01*
X182205Y8454D01*
X182057Y8306D01*
X181909Y8158D01*
X181723Y7991D01*
X181538Y7806D01*
X181316Y7602D01*
X181075Y7398D01*
X180816Y7158D01*
X180520Y6917D01*
X180224Y6658D01*
X180205Y6639D01*
X180168Y6602D01*
X180094Y6546D01*
X180001Y6472D01*
X179890Y6361D01*
X179761Y6250D01*
X179464Y6010D01*
X179150Y5732D01*
X178853Y5454D01*
X178594Y5213D01*
X178483Y5121D01*
X178391Y5028D01*
X178372Y5010D01*
X178316Y4954D01*
X178242Y4880D01*
X178150Y4769D01*
X178057Y4639D01*
X177946Y4510D01*
X177724Y4195D01*
X184038D01*
Y2677D01*
X175539D01*
Y2695D01*
Y2769D01*
Y2880D01*
X175557Y3028D01*
X175576Y3195D01*
X175613Y3380D01*
X175650Y3565D01*
X175724Y3769D01*
Y3788D01*
X175743Y3806D01*
X175780Y3917D01*
X175854Y4084D01*
X175965Y4306D01*
X176113Y4565D01*
X176298Y4861D01*
X176502Y5158D01*
X176761Y5473D01*
Y5491D01*
X176798Y5510D01*
X176891Y5621D01*
X177057Y5787D01*
X177298Y6028D01*
X177576Y6306D01*
X177928Y6639D01*
X178354Y7010D01*
X178816Y7398D01*
X178835Y7417D01*
X178909Y7472D01*
X179020Y7565D01*
X179150Y7676D01*
X179316Y7824D01*
X179520Y7991D01*
X179724Y8176D01*
X179964Y8380D01*
X180427Y8824D01*
X180890Y9269D01*
X181112Y9491D01*
X181316Y9713D01*
X181501Y9917D01*
X181649Y10120D01*
Y10139D01*
X181686Y10157D01*
X181723Y10213D01*
X181761Y10287D01*
X181890Y10491D01*
X182038Y10731D01*
X182168Y11028D01*
X182297Y11342D01*
X182372Y11694D01*
X182409Y12027D01*
Y12046D01*
Y12064D01*
X182390Y12176D01*
X182372Y12361D01*
X182316Y12564D01*
X182242Y12824D01*
X182112Y13083D01*
X181946Y13342D01*
X181723Y13601D01*
X181686Y13638D01*
X181594Y13713D01*
X181464Y13805D01*
X181261Y13935D01*
X181001Y14046D01*
X180705Y14157D01*
X180353Y14231D01*
X179964Y14250D01*
X179853D01*
X179779Y14231D01*
X179557Y14212D01*
X179298Y14157D01*
X179020Y14083D01*
X178705Y13953D01*
X178409Y13786D01*
X178131Y13564D01*
X178094Y13527D01*
X178020Y13435D01*
X177909Y13287D01*
X177798Y13064D01*
X177668Y12805D01*
X177557Y12472D01*
X177483Y12102D01*
X177446Y11676D01*
X175835Y11842D01*
Y11861D01*
X175854Y11916D01*
Y12009D01*
X175872Y12139D01*
X175909Y12287D01*
X175946Y12453D01*
X176002Y12657D01*
X176057Y12861D01*
X176206Y13305D01*
X176428Y13750D01*
X176557Y13972D01*
X176724Y14194D01*
X176891Y14398D01*
X177076Y14583D01*
X177094Y14601D01*
X177131Y14620D01*
X177187Y14675D01*
X177279Y14731D01*
X177391Y14805D01*
X177520Y14879D01*
X177668Y14972D01*
X177854Y15064D01*
X178057Y15157D01*
X178279Y15249D01*
X178520Y15323D01*
X178779Y15397D01*
X179057Y15453D01*
X179353Y15509D01*
X179668Y15527D01*
X180001Y15546D01*
X180187D01*
X180316Y15527D01*
D02*
G37*
G36*
X190278D02*
X190426Y15509D01*
X190611Y15490D01*
X190815Y15453D01*
X191019Y15416D01*
X191500Y15286D01*
X191982Y15101D01*
X192222Y14990D01*
X192463Y14861D01*
X192685Y14694D01*
X192889Y14509D01*
X192908Y14490D01*
X192945Y14472D01*
X192982Y14398D01*
X193056Y14324D01*
X193148Y14231D01*
X193241Y14101D01*
X193333Y13972D01*
X193444Y13805D01*
X193630Y13453D01*
X193815Y13009D01*
X193889Y12787D01*
X193926Y12527D01*
X193963Y12268D01*
X193981Y11990D01*
Y11953D01*
Y11861D01*
X193963Y11713D01*
X193944Y11509D01*
X193907Y11287D01*
X193833Y11028D01*
X193759Y10750D01*
X193648Y10472D01*
X193630Y10435D01*
X193593Y10342D01*
X193519Y10194D01*
X193407Y9991D01*
X193259Y9768D01*
X193074Y9491D01*
X192852Y9213D01*
X192593Y8898D01*
X192556Y8861D01*
X192463Y8750D01*
X192370Y8657D01*
X192278Y8565D01*
X192167Y8454D01*
X192019Y8306D01*
X191871Y8158D01*
X191685Y7991D01*
X191500Y7806D01*
X191278Y7602D01*
X191037Y7398D01*
X190778Y7158D01*
X190482Y6917D01*
X190186Y6658D01*
X190167Y6639D01*
X190130Y6602D01*
X190056Y6546D01*
X189963Y6472D01*
X189852Y6361D01*
X189723Y6250D01*
X189426Y6010D01*
X189112Y5732D01*
X188815Y5454D01*
X188556Y5213D01*
X188445Y5121D01*
X188352Y5028D01*
X188334Y5010D01*
X188278Y4954D01*
X188204Y4880D01*
X188112Y4769D01*
X188019Y4639D01*
X187908Y4510D01*
X187686Y4195D01*
X194000D01*
Y2677D01*
X185501D01*
Y2695D01*
Y2769D01*
Y2880D01*
X185519Y3028D01*
X185538Y3195D01*
X185575Y3380D01*
X185612Y3565D01*
X185686Y3769D01*
Y3788D01*
X185705Y3806D01*
X185742Y3917D01*
X185816Y4084D01*
X185927Y4306D01*
X186075Y4565D01*
X186260Y4861D01*
X186464Y5158D01*
X186723Y5473D01*
Y5491D01*
X186760Y5510D01*
X186853Y5621D01*
X187019Y5787D01*
X187260Y6028D01*
X187538Y6306D01*
X187889Y6639D01*
X188315Y7010D01*
X188778Y7398D01*
X188797Y7417D01*
X188871Y7472D01*
X188982Y7565D01*
X189112Y7676D01*
X189278Y7824D01*
X189482Y7991D01*
X189686Y8176D01*
X189926Y8380D01*
X190389Y8824D01*
X190852Y9269D01*
X191074Y9491D01*
X191278Y9713D01*
X191463Y9917D01*
X191611Y10120D01*
Y10139D01*
X191648Y10157D01*
X191685Y10213D01*
X191723Y10287D01*
X191852Y10491D01*
X192000Y10731D01*
X192130Y11028D01*
X192259Y11342D01*
X192334Y11694D01*
X192370Y12027D01*
Y12046D01*
Y12064D01*
X192352Y12176D01*
X192334Y12361D01*
X192278Y12564D01*
X192204Y12824D01*
X192074Y13083D01*
X191908Y13342D01*
X191685Y13601D01*
X191648Y13638D01*
X191556Y13713D01*
X191426Y13805D01*
X191222Y13935D01*
X190963Y14046D01*
X190667Y14157D01*
X190315Y14231D01*
X189926Y14250D01*
X189815D01*
X189741Y14231D01*
X189519Y14212D01*
X189260Y14157D01*
X188982Y14083D01*
X188667Y13953D01*
X188371Y13786D01*
X188093Y13564D01*
X188056Y13527D01*
X187982Y13435D01*
X187871Y13287D01*
X187760Y13064D01*
X187630Y12805D01*
X187519Y12472D01*
X187445Y12102D01*
X187408Y11676D01*
X185797Y11842D01*
Y11861D01*
X185816Y11916D01*
Y12009D01*
X185834Y12139D01*
X185871Y12287D01*
X185908Y12453D01*
X185964Y12657D01*
X186019Y12861D01*
X186168Y13305D01*
X186390Y13750D01*
X186519Y13972D01*
X186686Y14194D01*
X186853Y14398D01*
X187038Y14583D01*
X187056Y14601D01*
X187093Y14620D01*
X187149Y14675D01*
X187241Y14731D01*
X187353Y14805D01*
X187482Y14879D01*
X187630Y14972D01*
X187815Y15064D01*
X188019Y15157D01*
X188241Y15249D01*
X188482Y15323D01*
X188741Y15397D01*
X189019Y15453D01*
X189315Y15509D01*
X189630Y15527D01*
X189963Y15546D01*
X190149D01*
X190278Y15527D01*
D02*
G37*
G36*
X616819Y443851D02*
X617004Y443833D01*
X617208Y443796D01*
X617449Y443759D01*
X617690Y443703D01*
X617967Y443629D01*
X618245Y443537D01*
X618523Y443425D01*
X618819Y443296D01*
X619115Y443129D01*
X619393Y442944D01*
X619671Y442740D01*
X619930Y442500D01*
X619949Y442481D01*
X619986Y442444D01*
X620060Y442351D01*
X620134Y442259D01*
X620245Y442111D01*
X620356Y441963D01*
X620485Y441759D01*
X620615Y441555D01*
X620726Y441315D01*
X620856Y441055D01*
X620967Y440759D01*
X621078Y440463D01*
X621152Y440130D01*
X621226Y439796D01*
X621263Y439426D01*
X621282Y439037D01*
Y439019D01*
Y438945D01*
Y438833D01*
X621263Y438685D01*
X621245Y438500D01*
X621208Y438296D01*
X621171Y438056D01*
X621115Y437815D01*
X621041Y437537D01*
X620948Y437259D01*
X620837Y436963D01*
X620708Y436667D01*
X620541Y436371D01*
X620356Y436093D01*
X620152Y435815D01*
X619911Y435537D01*
X619893Y435519D01*
X619856Y435482D01*
X619782Y435408D01*
X619671Y435315D01*
X619541Y435223D01*
X619375Y435112D01*
X619189Y434982D01*
X618986Y434852D01*
X618745Y434723D01*
X618486Y434593D01*
X618208Y434482D01*
X617893Y434389D01*
X617578Y434297D01*
X617227Y434223D01*
X616875Y434186D01*
X616486Y434167D01*
X616356D01*
X616264Y434186D01*
X616153D01*
X616023Y434204D01*
X615708Y434241D01*
X615319Y434315D01*
X614912Y434408D01*
X614486Y434556D01*
X614042Y434741D01*
X614023D01*
X613986Y434760D01*
X613931Y434797D01*
X613857Y434852D01*
X613653Y434982D01*
X613394Y435167D01*
X613116Y435408D01*
X612820Y435704D01*
X612542Y436037D01*
X612283Y436426D01*
Y436445D01*
X612264Y436482D01*
X612227Y436537D01*
X612190Y436630D01*
X612153Y436741D01*
X612098Y436871D01*
X612042Y437019D01*
X611986Y437185D01*
X611931Y437371D01*
X611875Y437574D01*
X611783Y438037D01*
X611709Y438574D01*
X611690Y439148D01*
Y439167D01*
Y439204D01*
Y439278D01*
X611709Y439352D01*
Y439463D01*
X611727Y439593D01*
X611764Y439907D01*
X611838Y440259D01*
X611949Y440648D01*
X612079Y441074D01*
X612283Y441500D01*
Y441518D01*
X612320Y441555D01*
X612338Y441611D01*
X612394Y441685D01*
X612542Y441889D01*
X612727Y442148D01*
X612968Y442426D01*
X613264Y442722D01*
X613597Y443000D01*
X613986Y443259D01*
X614005D01*
X614042Y443277D01*
X614097Y443314D01*
X614190Y443351D01*
X614282Y443407D01*
X614412Y443444D01*
X614560Y443499D01*
X614708Y443574D01*
X615079Y443685D01*
X615504Y443777D01*
X615967Y443851D01*
X616467Y443870D01*
X616671D01*
X616819Y443851D01*
D02*
G37*
G36*
X185679Y17677D02*
X183883D01*
Y19473D01*
X185679D01*
Y17677D01*
D02*
G37*
G36*
X193900D02*
X192326D01*
Y27694D01*
X192307Y27675D01*
X192215Y27601D01*
X192104Y27490D01*
X191919Y27361D01*
X191715Y27194D01*
X191456Y27009D01*
X191159Y26805D01*
X190826Y26602D01*
X190808D01*
X190789Y26583D01*
X190678Y26509D01*
X190493Y26416D01*
X190271Y26305D01*
X190012Y26176D01*
X189734Y26046D01*
X189456Y25917D01*
X189178Y25805D01*
Y27324D01*
X189197D01*
X189234Y27361D01*
X189308Y27379D01*
X189400Y27435D01*
X189512Y27490D01*
X189641Y27564D01*
X189956Y27750D01*
X190326Y27953D01*
X190697Y28212D01*
X191085Y28509D01*
X191474Y28824D01*
X191493Y28842D01*
X191511Y28861D01*
X191567Y28916D01*
X191641Y28972D01*
X191808Y29157D01*
X192030Y29379D01*
X192252Y29638D01*
X192493Y29935D01*
X192696Y30231D01*
X192882Y30546D01*
X193900D01*
Y17677D01*
D02*
G37*
G36*
X177587Y30527D02*
X177828Y30490D01*
X178105Y30435D01*
X178402Y30360D01*
X178716Y30268D01*
X179013Y30120D01*
X179031D01*
X179050Y30101D01*
X179142Y30046D01*
X179290Y29953D01*
X179475Y29824D01*
X179679Y29638D01*
X179901Y29435D01*
X180105Y29194D01*
X180309Y28916D01*
X180327Y28879D01*
X180401Y28786D01*
X180475Y28620D01*
X180605Y28379D01*
X180716Y28101D01*
X180864Y27787D01*
X180994Y27416D01*
X181105Y27009D01*
Y26990D01*
X181124Y26953D01*
X181142Y26898D01*
X181161Y26805D01*
X181179Y26694D01*
X181198Y26565D01*
X181235Y26398D01*
X181253Y26213D01*
X181290Y26009D01*
X181309Y25787D01*
X181327Y25528D01*
X181364Y25268D01*
X181383Y24972D01*
Y24676D01*
X181401Y24343D01*
Y23991D01*
Y23972D01*
Y23898D01*
Y23768D01*
Y23620D01*
X181383Y23417D01*
Y23194D01*
X181364Y22954D01*
X181346Y22695D01*
X181290Y22102D01*
X181198Y21491D01*
X181087Y20898D01*
X181012Y20621D01*
X180920Y20343D01*
Y20324D01*
X180901Y20287D01*
X180864Y20213D01*
X180827Y20121D01*
X180790Y19991D01*
X180716Y19862D01*
X180568Y19547D01*
X180383Y19213D01*
X180142Y18843D01*
X179864Y18510D01*
X179531Y18195D01*
X179513D01*
X179494Y18158D01*
X179438Y18121D01*
X179364Y18084D01*
X179272Y18028D01*
X179179Y17954D01*
X178902Y17825D01*
X178568Y17695D01*
X178179Y17565D01*
X177717Y17491D01*
X177216Y17454D01*
X177031D01*
X176902Y17473D01*
X176754Y17491D01*
X176568Y17528D01*
X176365Y17565D01*
X176143Y17621D01*
X175920Y17695D01*
X175680Y17769D01*
X175439Y17880D01*
X175198Y18010D01*
X174958Y18158D01*
X174717Y18343D01*
X174495Y18547D01*
X174291Y18769D01*
X174272Y18788D01*
X174235Y18843D01*
X174180Y18936D01*
X174087Y19084D01*
X173995Y19251D01*
X173902Y19473D01*
X173772Y19732D01*
X173661Y20028D01*
X173550Y20361D01*
X173439Y20750D01*
X173328Y21176D01*
X173235Y21658D01*
X173143Y22176D01*
X173087Y22732D01*
X173050Y23343D01*
X173032Y23991D01*
Y24009D01*
Y24083D01*
Y24213D01*
Y24361D01*
X173050Y24565D01*
Y24787D01*
X173069Y25028D01*
X173087Y25305D01*
X173143Y25879D01*
X173235Y26490D01*
X173347Y27102D01*
X173421Y27379D01*
X173495Y27657D01*
Y27675D01*
X173513Y27713D01*
X173550Y27787D01*
X173587Y27879D01*
X173624Y28009D01*
X173698Y28138D01*
X173846Y28453D01*
X174032Y28786D01*
X174272Y29138D01*
X174550Y29490D01*
X174883Y29786D01*
X174902D01*
X174921Y29824D01*
X174976Y29860D01*
X175050Y29897D01*
X175143Y29972D01*
X175254Y30027D01*
X175532Y30175D01*
X175865Y30305D01*
X176254Y30435D01*
X176717Y30509D01*
X177216Y30546D01*
X177383D01*
X177587Y30527D01*
D02*
G37*
G36*
X596210Y443851D02*
X596377Y443833D01*
X596581Y443796D01*
X596803Y443759D01*
X597043Y443703D01*
X597303Y443629D01*
X597562Y443537D01*
X597840Y443425D01*
X598117Y443277D01*
X598377Y443129D01*
X598636Y442944D01*
X598895Y442722D01*
X599117Y442481D01*
X599136Y442463D01*
X599173Y442426D01*
X599228Y442333D01*
X599302Y442222D01*
X599395Y442074D01*
X599488Y441907D01*
X599599Y441685D01*
X599710Y441444D01*
X599821Y441166D01*
X599932Y440852D01*
X600025Y440518D01*
X600117Y440130D01*
X600191Y439722D01*
X600247Y439278D01*
X600284Y438815D01*
Y438296D01*
X594136D01*
Y438278D01*
Y438241D01*
Y438185D01*
X594155Y438111D01*
X594173Y437926D01*
X594210Y437667D01*
X594285Y437408D01*
X594396Y437111D01*
X594525Y436834D01*
X594710Y436593D01*
X594729Y436574D01*
X594822Y436500D01*
X594933Y436408D01*
X595099Y436297D01*
X595303Y436185D01*
X595562Y436093D01*
X595840Y436019D01*
X596136Y436000D01*
X596229D01*
X596340Y436019D01*
X596469Y436037D01*
X596618Y436074D01*
X596784Y436130D01*
X596951Y436204D01*
X597099Y436315D01*
X597118Y436334D01*
X597173Y436371D01*
X597247Y436445D01*
X597321Y436556D01*
X597432Y436704D01*
X597525Y436871D01*
X597617Y437093D01*
X597710Y437333D01*
X600154Y436926D01*
Y436908D01*
X600136Y436871D01*
X600099Y436796D01*
X600062Y436704D01*
X600006Y436593D01*
X599951Y436463D01*
X599784Y436167D01*
X599580Y435834D01*
X599321Y435482D01*
X599006Y435167D01*
X598654Y434871D01*
X598636D01*
X598617Y434834D01*
X598543Y434815D01*
X598469Y434760D01*
X598377Y434704D01*
X598247Y434649D01*
X598117Y434593D01*
X597951Y434519D01*
X597580Y434389D01*
X597155Y434278D01*
X596655Y434204D01*
X596118Y434167D01*
X596007D01*
X595896Y434186D01*
X595729D01*
X595525Y434223D01*
X595284Y434260D01*
X595025Y434297D01*
X594766Y434371D01*
X594470Y434445D01*
X594173Y434556D01*
X593877Y434686D01*
X593581Y434834D01*
X593285Y435019D01*
X593007Y435223D01*
X592766Y435463D01*
X592525Y435741D01*
X592507Y435760D01*
X592488Y435797D01*
X592451Y435871D01*
X592377Y435963D01*
X592322Y436093D01*
X592248Y436241D01*
X592155Y436408D01*
X592081Y436611D01*
X591988Y436834D01*
X591914Y437074D01*
X591822Y437333D01*
X591766Y437630D01*
X591711Y437926D01*
X591655Y438241D01*
X591637Y438593D01*
X591618Y438945D01*
Y438963D01*
Y439037D01*
Y439167D01*
X591637Y439333D01*
X591655Y439519D01*
X591674Y439741D01*
X591711Y439981D01*
X591766Y440259D01*
X591914Y440833D01*
X592007Y441129D01*
X592118Y441444D01*
X592266Y441740D01*
X592433Y442018D01*
X592618Y442296D01*
X592822Y442555D01*
X592840Y442574D01*
X592877Y442611D01*
X592951Y442685D01*
X593044Y442759D01*
X593155Y442851D01*
X593303Y442963D01*
X593470Y443092D01*
X593655Y443222D01*
X593859Y443333D01*
X594099Y443462D01*
X594340Y443574D01*
X594618Y443666D01*
X594896Y443740D01*
X595210Y443814D01*
X595525Y443851D01*
X595858Y443870D01*
X596062D01*
X596210Y443851D01*
D02*
G37*
G36*
X359500Y0D02*
X324500D01*
Y20000D01*
X359500D01*
Y0D01*
D02*
G37*
G36*
X589952Y443851D02*
X590155Y443814D01*
X590415Y443759D01*
X590692Y443666D01*
X590970Y443555D01*
X591266Y443388D01*
X590489Y441259D01*
X590470Y441278D01*
X590378Y441315D01*
X590266Y441389D01*
X590118Y441463D01*
X589933Y441537D01*
X589748Y441611D01*
X589544Y441648D01*
X589341Y441666D01*
X589267D01*
X589155Y441648D01*
X589044Y441629D01*
X588915Y441592D01*
X588767Y441537D01*
X588618Y441463D01*
X588470Y441370D01*
X588452Y441352D01*
X588415Y441315D01*
X588341Y441241D01*
X588267Y441129D01*
X588174Y441000D01*
X588082Y440815D01*
X587989Y440592D01*
X587915Y440333D01*
Y440296D01*
X587896Y440241D01*
X587878Y440185D01*
Y440093D01*
X587859Y439981D01*
X587841Y439833D01*
X587822Y439667D01*
X587804Y439481D01*
X587785Y439241D01*
X587767Y439000D01*
Y438704D01*
X587748Y438389D01*
X587730Y438037D01*
Y437648D01*
Y437222D01*
Y434371D01*
X585267D01*
Y443666D01*
X587545D01*
Y442351D01*
X587563Y442370D01*
X587637Y442481D01*
X587748Y442648D01*
X587896Y442851D01*
X588044Y443055D01*
X588230Y443259D01*
X588396Y443444D01*
X588581Y443574D01*
X588600Y443592D01*
X588656Y443629D01*
X588767Y443666D01*
X588896Y443722D01*
X589044Y443777D01*
X589230Y443833D01*
X589415Y443851D01*
X589637Y443870D01*
X589785D01*
X589952Y443851D01*
D02*
G37*
G36*
X579823D02*
X579953Y443833D01*
X580119Y443796D01*
X580304Y443759D01*
X580490Y443703D01*
X580712Y443648D01*
X580915Y443555D01*
X581156Y443462D01*
X581378Y443333D01*
X581619Y443185D01*
X581841Y443018D01*
X582064Y442814D01*
X582286Y442592D01*
X582304Y442574D01*
X582341Y442537D01*
X582397Y442463D01*
X582471Y442351D01*
X582545Y442240D01*
X582638Y442074D01*
X582749Y441889D01*
X582860Y441685D01*
X582952Y441444D01*
X583064Y441185D01*
X583156Y440889D01*
X583249Y440574D01*
X583304Y440222D01*
X583360Y439870D01*
X583397Y439463D01*
X583415Y439056D01*
Y439037D01*
Y438963D01*
Y438833D01*
X583397Y438667D01*
X583378Y438481D01*
X583360Y438259D01*
X583323Y438000D01*
X583267Y437741D01*
X583138Y437148D01*
X583045Y436852D01*
X582934Y436556D01*
X582804Y436260D01*
X582638Y435982D01*
X582471Y435704D01*
X582267Y435445D01*
X582249Y435426D01*
X582212Y435389D01*
X582156Y435334D01*
X582064Y435241D01*
X581953Y435149D01*
X581823Y435037D01*
X581675Y434926D01*
X581508Y434815D01*
X581304Y434686D01*
X581101Y434575D01*
X580638Y434371D01*
X580378Y434278D01*
X580101Y434223D01*
X579823Y434186D01*
X579527Y434167D01*
X579397D01*
X579249Y434186D01*
X579064Y434204D01*
X578842Y434241D01*
X578601Y434297D01*
X578360Y434371D01*
X578120Y434463D01*
X578101Y434482D01*
X578008Y434519D01*
X577897Y434612D01*
X577731Y434723D01*
X577527Y434852D01*
X577323Y435037D01*
X577083Y435260D01*
X576823Y435519D01*
Y430998D01*
X622000D01*
Y413002D01*
X554000D01*
Y430998D01*
X574361D01*
Y443666D01*
X576657D01*
Y442296D01*
X576675Y442333D01*
X576731Y442407D01*
X576842Y442537D01*
X576972Y442703D01*
X577138Y442888D01*
X577360Y443074D01*
X577583Y443259D01*
X577860Y443425D01*
X577897Y443444D01*
X577990Y443499D01*
X578157Y443574D01*
X578360Y443648D01*
X578601Y443722D01*
X578897Y443796D01*
X579212Y443851D01*
X579545Y443870D01*
X579693D01*
X579823Y443851D01*
D02*
G37*
G36*
X146664Y17677D02*
X144998D01*
X142313Y27435D01*
Y27453D01*
X142294Y27490D01*
X142276Y27546D01*
X142257Y27638D01*
X142202Y27842D01*
X142146Y28083D01*
X142072Y28342D01*
X141998Y28583D01*
X141942Y28786D01*
X141924Y28879D01*
X141905Y28935D01*
Y28916D01*
X141887Y28898D01*
X141868Y28786D01*
X141831Y28620D01*
X141776Y28416D01*
X141720Y28194D01*
X141646Y27935D01*
X141591Y27675D01*
X141517Y27435D01*
X138813Y17677D01*
X137036D01*
X133684Y30490D01*
X135443D01*
X137350Y22083D01*
Y22065D01*
X137369Y22028D01*
X137387Y21954D01*
X137406Y21861D01*
X137424Y21732D01*
X137461Y21602D01*
X137498Y21435D01*
X137535Y21250D01*
X137628Y20861D01*
X137721Y20417D01*
X137813Y19936D01*
X137906Y19454D01*
Y19473D01*
X137924Y19547D01*
X137961Y19639D01*
X137980Y19787D01*
X138017Y19936D01*
X138072Y20121D01*
X138165Y20528D01*
X138276Y20935D01*
X138313Y21139D01*
X138369Y21324D01*
X138406Y21491D01*
X138443Y21639D01*
X138480Y21750D01*
X138498Y21824D01*
X140924Y30490D01*
X142979D01*
X144794Y23991D01*
Y23972D01*
X144831Y23880D01*
X144868Y23750D01*
X144905Y23583D01*
X144961Y23361D01*
X145035Y23121D01*
X145109Y22843D01*
X145183Y22528D01*
X145275Y22176D01*
X145349Y21824D01*
X145516Y21065D01*
X145683Y20269D01*
X145812Y19454D01*
Y19473D01*
X145831Y19510D01*
Y19584D01*
X145868Y19676D01*
X145886Y19787D01*
X145924Y19917D01*
X145942Y20084D01*
X145997Y20269D01*
X146090Y20676D01*
X146201Y21158D01*
X146312Y21676D01*
X146460Y22250D01*
X148460Y30490D01*
X150182D01*
X146664Y17677D01*
D02*
G37*
G36*
X167143D02*
X165366D01*
X160403Y30490D01*
X162255D01*
X165588Y21176D01*
Y21158D01*
X165607Y21121D01*
X165625Y21065D01*
X165662Y20991D01*
X165681Y20880D01*
X165718Y20769D01*
X165810Y20491D01*
X165921Y20176D01*
X166033Y19825D01*
X166255Y19084D01*
Y19102D01*
X166273Y19139D01*
X166292Y19195D01*
X166310Y19269D01*
X166366Y19473D01*
X166458Y19750D01*
X166551Y20065D01*
X166662Y20417D01*
X166792Y20787D01*
X166940Y21176D01*
X170421Y30490D01*
X172143D01*
X167143Y17677D01*
D02*
G37*
G36*
X534255Y430984D02*
X534486Y430891D01*
X534648Y430845D01*
X534914Y430787D01*
X534949Y430752D01*
X534995Y430729D01*
X535088Y430637D01*
X535204Y430590D01*
X535320Y430521D01*
X535389Y430451D01*
X535435Y430428D01*
X535597Y430336D01*
X535724Y430232D01*
X535759Y430197D01*
X535806Y430174D01*
X535968Y430081D01*
X536060Y429988D01*
X536106Y429965D01*
X536315Y429850D01*
X536349Y429815D01*
X536361Y429780D01*
X536407Y429757D01*
X536569Y429664D01*
X536708Y429525D01*
X536963Y429387D01*
X537032Y429317D01*
X537079Y429294D01*
X537241Y429201D01*
X537333Y429109D01*
X537380Y429086D01*
X537542Y428993D01*
X537669Y428889D01*
X537704Y428854D01*
X537912Y428738D01*
X538028Y428623D01*
X538236Y428507D01*
X538306Y428438D01*
X538352Y428414D01*
X538560Y428299D01*
X538618Y428241D01*
X538630Y428206D01*
X538676Y428183D01*
X538838Y428090D01*
X538965Y427986D01*
X539000Y427951D01*
X539116Y427905D01*
X539243Y427801D01*
X539301Y427743D01*
X539509Y427627D01*
X539602Y427535D01*
X539856Y427396D01*
X539972Y427280D01*
X540065Y427257D01*
X540111Y427211D01*
X540157Y427188D01*
X540215Y427107D01*
X540412Y427002D01*
X540539Y426898D01*
X540574Y426863D01*
X540690Y426817D01*
X540736Y426794D01*
X540794Y426759D01*
X540817Y426713D01*
X540875Y426655D01*
X540921Y426632D01*
X541083Y426539D01*
X541130Y426493D01*
X541164Y426482D01*
X541176Y426447D01*
X541222Y426424D01*
X541431Y426308D01*
X541546Y426192D01*
X541755Y426076D01*
X541847Y425984D01*
X541894Y425961D01*
X542102Y425845D01*
X542194Y425752D01*
X542241Y425729D01*
X542461Y425579D01*
X542519Y425521D01*
X542565Y425498D01*
X542785Y425347D01*
X542843Y425289D01*
X542935Y425266D01*
X543063Y425162D01*
X543120Y425104D01*
X543167Y425081D01*
X543375Y424965D01*
X543491Y424850D01*
X543653Y424757D01*
X543711Y424722D01*
X543734Y424676D01*
X544023Y424502D01*
X544093Y424433D01*
X544139Y424410D01*
X544347Y424294D01*
X544405Y424213D01*
X544556Y424132D01*
X544602Y424109D01*
X544648Y424062D01*
X544694Y424039D01*
X544764Y423970D01*
X544972Y423854D01*
X545007Y423819D01*
X545019Y423785D01*
X545065Y423762D01*
X545262Y423611D01*
X545285Y423565D01*
X545319Y423530D01*
X545366Y423507D01*
X545447Y423426D01*
X545470Y423380D01*
X545516Y423333D01*
X545528Y423299D01*
X545574Y423275D01*
X545632Y423218D01*
X545678Y423102D01*
X545701Y423009D01*
X545863Y422755D01*
X545945Y422350D01*
X545968Y422211D01*
X545991Y422095D01*
X546002Y421667D01*
X545979Y421597D01*
X545945Y421447D01*
X545898Y421215D01*
X545875Y421076D01*
X545829Y420961D01*
X545771Y420880D01*
X545701Y420764D01*
X545644Y420613D01*
X545586Y420532D01*
X545470Y420417D01*
X545447Y420370D01*
X545343Y420243D01*
X545065Y419965D01*
X545019Y419942D01*
X544556Y419479D01*
X544509Y419456D01*
X544463Y419410D01*
X544417Y419387D01*
X544382Y419352D01*
X544359Y419306D01*
X544278Y419225D01*
X544231Y419201D01*
X544127Y419097D01*
X544116Y419062D01*
X544069Y419039D01*
X544000Y418970D01*
X543954Y418947D01*
X543896Y418866D01*
X543815Y418785D01*
X543769Y418762D01*
X543688Y418680D01*
X543664Y418634D01*
X543630Y418600D01*
X543583Y418576D01*
X543537Y418530D01*
X543491Y418507D01*
X543433Y418426D01*
X543352Y418345D01*
X543306Y418322D01*
X543248Y418264D01*
X543224Y418218D01*
X543120Y418113D01*
X543074Y418090D01*
X543016Y418032D01*
X542993Y417986D01*
X542935Y417928D01*
X542889Y417905D01*
X542762Y417801D01*
X542727Y417743D01*
X542681Y417720D01*
X542611Y417650D01*
X542576Y417639D01*
X542553Y417593D01*
X542449Y417488D01*
X542403Y417465D01*
X542322Y417384D01*
X542299Y417338D01*
X542241Y417280D01*
X542194Y417257D01*
X541986Y417049D01*
X541940Y417025D01*
X541836Y416921D01*
X541813Y416875D01*
X541731Y416817D01*
X541500Y416586D01*
X541454Y416562D01*
X541396Y416505D01*
X541373Y416458D01*
X541338Y416424D01*
X541292Y416400D01*
X541060Y416169D01*
X541014Y416146D01*
X540736Y415868D01*
X540690Y415845D01*
X540296Y415451D01*
X540250Y415428D01*
X539995Y415174D01*
X539961Y415162D01*
X539938Y415116D01*
X539833Y415012D01*
X539787Y414988D01*
X539683Y414884D01*
X539660Y414838D01*
X539579Y414780D01*
X539532Y414734D01*
X539498Y414722D01*
X539474Y414676D01*
X539370Y414572D01*
X539324Y414549D01*
X539220Y414444D01*
X539197Y414398D01*
X539162Y414363D01*
X539116Y414340D01*
X538907Y414132D01*
X538861Y414109D01*
X538780Y414028D01*
X538757Y413982D01*
X538699Y413924D01*
X538653Y413900D01*
X538444Y413692D01*
X538398Y413669D01*
X538317Y413588D01*
X538294Y413542D01*
X538236Y413484D01*
X538190Y413461D01*
X538005Y413275D01*
X537958Y413252D01*
X537877Y413171D01*
X537854Y413125D01*
X537796Y413067D01*
X537750Y413044D01*
X537519Y412812D01*
X537472Y412789D01*
X537391Y412708D01*
X537368Y412662D01*
X537333Y412627D01*
X537287Y412604D01*
X537125Y412442D01*
X537079Y412419D01*
X536998Y412338D01*
X536974Y412245D01*
X537044Y412130D01*
X537125Y412049D01*
X537171Y412025D01*
X537542Y411655D01*
X537588Y411632D01*
X537704Y411493D01*
X537831Y411389D01*
X538213Y411007D01*
X538259Y410984D01*
X538317Y410926D01*
X538340Y410880D01*
X538398Y410822D01*
X538444Y410799D01*
X538549Y410695D01*
X538572Y410648D01*
X538630Y410590D01*
X538676Y410567D01*
X538757Y410509D01*
X538780Y410463D01*
X538884Y410359D01*
X538931Y410336D01*
X538988Y410278D01*
X539012Y410232D01*
X539093Y410150D01*
X539139Y410127D01*
X539220Y410046D01*
X539243Y410000D01*
X539301Y409942D01*
X539347Y409919D01*
X539579Y409688D01*
X539625Y409664D01*
X539660Y409630D01*
X539683Y409583D01*
X539764Y409502D01*
X539810Y409479D01*
X539914Y409375D01*
X539938Y409329D01*
X539972Y409294D01*
X540019Y409271D01*
X540169Y409120D01*
X540181Y409086D01*
X540227Y409062D01*
X540354Y408958D01*
X540377Y408912D01*
X540435Y408854D01*
X540481Y408831D01*
X540609Y408704D01*
X540620Y408669D01*
X540667Y408646D01*
X540840Y408472D01*
X540852Y408438D01*
X540898Y408414D01*
X541153Y408160D01*
X541199Y408137D01*
X541234Y408102D01*
X541257Y408055D01*
X541361Y407951D01*
X541407Y407928D01*
X541512Y407824D01*
X541535Y407778D01*
X541616Y407720D01*
X541847Y407488D01*
X541894Y407465D01*
X541951Y407407D01*
X541974Y407361D01*
X542009Y407326D01*
X542056Y407303D01*
X542183Y407176D01*
X542194Y407141D01*
X542241Y407118D01*
X542542Y406817D01*
X542588Y406794D01*
X543051Y406331D01*
X543097Y406308D01*
X543201Y406204D01*
X543213Y406169D01*
X543259Y406146D01*
X543537Y405868D01*
X543583Y405845D01*
X543618Y405810D01*
X543641Y405764D01*
X543722Y405683D01*
X543769Y405660D01*
X544023Y405405D01*
X544058Y405393D01*
X544081Y405347D01*
X544231Y405197D01*
X544266Y405185D01*
X544289Y405139D01*
X544417Y405012D01*
X544463Y404988D01*
X544567Y404884D01*
X544590Y404838D01*
X544671Y404780D01*
X544903Y404549D01*
X544949Y404525D01*
X545007Y404445D01*
X545088Y404363D01*
X545134Y404340D01*
X545215Y404259D01*
X545238Y404213D01*
X545319Y404132D01*
X545366Y404109D01*
X545424Y404051D01*
X545516Y403889D01*
X545609Y403796D01*
X545655Y403680D01*
X545724Y403495D01*
X545817Y403357D01*
X545863Y403194D01*
X545887Y403032D01*
X545910Y402940D01*
X545933Y402361D01*
X545910Y402292D01*
X545887Y401921D01*
X545863Y401852D01*
X545806Y401701D01*
X545748Y401643D01*
X545701Y401528D01*
X545678Y401435D01*
X545655Y401389D01*
Y401366D01*
X545586Y401250D01*
X545470Y401134D01*
X545447Y401088D01*
X545343Y400961D01*
X545134Y400752D01*
X545088Y400729D01*
X544949Y400590D01*
X544787Y400498D01*
X544694Y400405D01*
X544486Y400289D01*
X544370Y400174D01*
X544255Y400127D01*
X544139Y400058D01*
X544023Y399942D01*
X543815Y399826D01*
X543745Y399757D01*
X543699Y399734D01*
X543537Y399641D01*
X543398Y399502D01*
X543190Y399387D01*
X543097Y399294D01*
X542843Y399155D01*
X542773Y399086D01*
X542727Y399062D01*
X542519Y398947D01*
X542403Y398831D01*
X542194Y398715D01*
X542079Y398600D01*
X541928Y398542D01*
X541824Y398438D01*
X541778Y398414D01*
X541616Y398322D01*
X541488Y398218D01*
X541431Y398160D01*
X541222Y398044D01*
X541153Y397975D01*
X540944Y397859D01*
X540817Y397755D01*
X540782Y397720D01*
X540574Y397604D01*
X540481Y397512D01*
X540227Y397373D01*
X540134Y397280D01*
X539938Y397176D01*
X539914Y397130D01*
X539856Y397072D01*
X539602Y396933D01*
X539532Y396863D01*
X539486Y396840D01*
X539278Y396725D01*
X539162Y396609D01*
X538954Y396493D01*
X538884Y396424D01*
X538838Y396400D01*
X538630Y396285D01*
X538572Y396204D01*
X538537Y396169D01*
X538421Y396123D01*
X538375Y396100D01*
X538248Y395995D01*
X538190Y395938D01*
X538039Y395880D01*
X538005Y395845D01*
X537970Y395833D01*
X537947Y395787D01*
X537912Y395752D01*
X537866Y395729D01*
X537704Y395637D01*
X537611Y395544D01*
X537565Y395521D01*
X537403Y395428D01*
X537276Y395324D01*
X537241Y395289D01*
X537032Y395174D01*
X536963Y395104D01*
X536917Y395081D01*
X536708Y394965D01*
X536593Y394850D01*
X536546Y394826D01*
X536384Y394734D01*
X536269Y394618D01*
X536153Y394572D01*
X536106Y394549D01*
X535979Y394444D01*
X535921Y394387D01*
X535713Y394271D01*
X535644Y394201D01*
X535597Y394178D01*
X535435Y394086D01*
X535308Y393982D01*
X535273Y393947D01*
X535123Y393889D01*
X535042Y393831D01*
X534972Y393762D01*
X534926Y393738D01*
X534810Y393692D01*
X534590Y393657D01*
X534498Y393634D01*
X534382Y393588D01*
X534231Y393530D01*
X533792Y393507D01*
X533560Y393530D01*
X533433Y393565D01*
X533317Y393611D01*
X533120Y393669D01*
X532924Y393704D01*
X532808Y393750D01*
X532681Y393877D01*
X532472Y393993D01*
X532380Y394086D01*
X532333Y394109D01*
X532287Y394155D01*
X532241Y394178D01*
X532113Y394306D01*
X532090Y394352D01*
X531928Y394514D01*
X531905Y394560D01*
X531766Y394815D01*
X531720Y394861D01*
X531674Y394977D01*
X531604Y395255D01*
X531512Y395555D01*
X531488Y395926D01*
X531500Y408715D01*
X531477Y408808D01*
X531431Y408854D01*
X531361Y408877D01*
X531234Y408796D01*
X531141Y408634D01*
X531037Y408507D01*
X530956Y408380D01*
X530794Y408218D01*
X530724Y408102D01*
X530609Y407986D01*
X530586Y407940D01*
X530470Y407778D01*
X530377Y407685D01*
X530262Y407477D01*
X530181Y407419D01*
X530123Y407361D01*
X530053Y407245D01*
X529914Y407107D01*
X529891Y407060D01*
X529787Y406933D01*
X529706Y406852D01*
X529613Y406690D01*
X529474Y406551D01*
X529382Y406389D01*
X529243Y406250D01*
X529220Y406204D01*
X529116Y406076D01*
X529035Y405995D01*
X529012Y405949D01*
X528884Y405775D01*
X528849Y405764D01*
X528826Y405718D01*
X528780Y405671D01*
X528711Y405556D01*
X528595Y405440D01*
X528502Y405278D01*
X528363Y405139D01*
X528340Y405093D01*
X528236Y404965D01*
X528132Y404861D01*
X528063Y404745D01*
X528005Y404664D01*
X527958Y404641D01*
X527796Y404387D01*
X527715Y404329D01*
X527692Y404282D01*
X527576Y404120D01*
X527542Y404086D01*
X527507Y404074D01*
X527484Y404028D01*
X527322Y403819D01*
X527252Y403750D01*
X527160Y403588D01*
X527021Y403449D01*
X526928Y403287D01*
X526894Y403252D01*
X526847Y403229D01*
X526755Y403090D01*
X526697Y403009D01*
X526616Y402951D01*
X526500Y402766D01*
X526373Y402639D01*
X526280Y402477D01*
X526141Y402338D01*
X526118Y402292D01*
X526014Y402141D01*
X525968Y402118D01*
X525875Y401979D01*
X525817Y401898D01*
X525678Y401759D01*
X525609Y401643D01*
X525470Y401505D01*
X525377Y401343D01*
X525238Y401204D01*
X525169Y401088D01*
X525030Y400949D01*
X524926Y400775D01*
X524880Y400752D01*
X524822Y400694D01*
X524799Y400648D01*
X524694Y400521D01*
X524637Y400463D01*
X524613Y400417D01*
X524532Y400336D01*
X524486Y400312D01*
X524324Y400150D01*
X524174Y400093D01*
X524093Y400035D01*
X524046Y399988D01*
X523884Y399919D01*
X523734Y399884D01*
X523549Y399838D01*
X523421Y399803D01*
X523259Y399780D01*
X522657Y399803D01*
X522542Y399850D01*
X522414Y399884D01*
X522299Y399907D01*
X522206Y399930D01*
X522125Y399965D01*
X521894Y400127D01*
X521731Y400220D01*
X521674Y400278D01*
X521651Y400324D01*
X521465Y400509D01*
X521303Y400810D01*
X521211Y401018D01*
X521176Y401169D01*
X521153Y401285D01*
X521118Y401412D01*
X521095Y401574D01*
X521072Y401805D01*
X521095Y402037D01*
X521141Y402153D01*
X521164Y402245D01*
X521222Y402512D01*
X521269Y402627D01*
X521303Y402662D01*
X521326Y402708D01*
X521373Y402755D01*
X521442Y402917D01*
X521465Y402963D01*
X521604Y403102D01*
X521627Y403148D01*
X521731Y403299D01*
X521778Y403322D01*
X521836Y403380D01*
X521859Y403426D01*
X521974Y403588D01*
X522067Y403680D01*
X522090Y403727D01*
X522206Y403889D01*
X522276Y403958D01*
X522368Y404120D01*
X522426Y404178D01*
X522472Y404201D01*
X522507Y404236D01*
X522530Y404282D01*
X522634Y404410D01*
X522715Y404491D01*
X522738Y404537D01*
X522854Y404699D01*
X522947Y404792D01*
X523063Y405000D01*
X523144Y405058D01*
X523178Y405093D01*
X523201Y405139D01*
X523306Y405289D01*
X523352Y405312D01*
X523387Y405347D01*
X523410Y405393D01*
X523537Y405567D01*
X523572Y405579D01*
X523595Y405625D01*
X523641Y405671D01*
X523745Y405845D01*
X523792Y405868D01*
X523826Y405903D01*
X523849Y405949D01*
X523942Y406111D01*
X523977Y406146D01*
X524023Y406169D01*
X524058Y406204D01*
X524151Y406366D01*
X524208Y406424D01*
X524255Y406447D01*
X524347Y406586D01*
X524382Y406620D01*
X524405Y406667D01*
X524474Y406713D01*
X524498Y406759D01*
X524590Y406898D01*
X524613Y406944D01*
X524752Y407083D01*
X524845Y407245D01*
X524926Y407303D01*
X525053Y407500D01*
X525088Y407535D01*
X525134Y407558D01*
X525227Y407697D01*
X525285Y407778D01*
X525400Y407893D01*
X525516Y408102D01*
X525609Y408171D01*
X525632Y408218D01*
X525748Y408380D01*
X525817Y408426D01*
X525840Y408472D01*
X526002Y408681D01*
X526072Y408750D01*
X526164Y408912D01*
X526303Y409051D01*
X526326Y409097D01*
X526442Y409259D01*
X526488Y409282D01*
X526512Y409329D01*
X526674Y409537D01*
X526743Y409607D01*
X526766Y409653D01*
X526870Y409780D01*
X526951Y409861D01*
X526974Y409907D01*
X527090Y410069D01*
X527206Y410185D01*
X527299Y410347D01*
X527368Y410393D01*
X527391Y410440D01*
X527507Y410602D01*
X527623Y410718D01*
X527646Y410764D01*
X527750Y410891D01*
X527831Y410972D01*
X527854Y411018D01*
X527981Y411215D01*
X528028Y411238D01*
X528063Y411273D01*
X528155Y411435D01*
X528213Y411493D01*
X528259Y411516D01*
X528352Y411655D01*
X528410Y411736D01*
X528526Y411852D01*
X528618Y412014D01*
X528653Y412049D01*
X528699Y412072D01*
X528734Y412107D01*
X528757Y412199D01*
X528734Y412407D01*
X528676Y412465D01*
X528630Y412488D01*
X528572Y412546D01*
X528479Y412708D01*
X528340Y412847D01*
X528317Y412893D01*
X528213Y413021D01*
X528132Y413102D01*
X528109Y413148D01*
X528005Y413299D01*
X527958Y413322D01*
X527866Y413461D01*
X527808Y413542D01*
X527715Y413634D01*
X527692Y413681D01*
X527530Y413889D01*
X527438Y413982D01*
X527368Y414097D01*
X527229Y414236D01*
X527137Y414398D01*
X527067Y414444D01*
X527044Y414491D01*
X526998Y414537D01*
X526905Y414699D01*
X526766Y414838D01*
X526743Y414884D01*
X526639Y415012D01*
X526558Y415093D01*
X526535Y415139D01*
X526431Y415266D01*
X526396Y415278D01*
X526373Y415324D01*
X526222Y415544D01*
X526118Y415648D01*
X526095Y415694D01*
X525991Y415822D01*
X525910Y415903D01*
X525817Y416065D01*
X525782Y416100D01*
X525736Y416123D01*
X525678Y416180D01*
X525586Y416343D01*
X525447Y416482D01*
X525354Y416643D01*
X525238Y416759D01*
X525215Y416806D01*
X525088Y416979D01*
X525042Y417002D01*
X524903Y417211D01*
X524856Y417234D01*
X524776Y417315D01*
X524683Y417477D01*
X524590Y417569D01*
X524567Y417616D01*
X524405Y417824D01*
X524336Y417893D01*
X524231Y418067D01*
X524185Y418090D01*
X524127Y418148D01*
X524035Y418310D01*
X524000Y418345D01*
X523954Y418368D01*
X523896Y418426D01*
X523803Y418588D01*
X523688Y418704D01*
X523664Y418750D01*
X523549Y418912D01*
X523456Y419005D01*
X523387Y419120D01*
X523329Y419201D01*
X523282Y419225D01*
X523248Y419259D01*
X523224Y419306D01*
X523120Y419433D01*
X522993Y419560D01*
X522901Y419722D01*
X522808Y419815D01*
X522785Y419861D01*
X522623Y420069D01*
X522576Y420116D01*
X522553Y420162D01*
X522449Y420289D01*
X522345Y420393D01*
X522252Y420555D01*
X522218Y420590D01*
X522171Y420613D01*
X522079Y420752D01*
X522021Y420833D01*
X521928Y420926D01*
X521905Y420972D01*
X521743Y421181D01*
X521674Y421250D01*
X521651Y421296D01*
X521546Y421424D01*
X521442Y421528D01*
X521384Y421678D01*
X521303Y421806D01*
X521211Y422014D01*
X521176Y422211D01*
X521153Y422350D01*
X521130Y422465D01*
X521095Y422778D01*
X521118Y422940D01*
X521164Y423125D01*
X521188Y423287D01*
X521245Y423530D01*
X521338Y423669D01*
X521373Y423704D01*
X521419Y423819D01*
X521488Y423935D01*
X521604Y424051D01*
X521627Y424097D01*
X521894Y424363D01*
X522056Y424456D01*
X522148Y424549D01*
X522264Y424595D01*
X522553Y424699D01*
X522704Y424757D01*
X522981Y424803D01*
X523630Y424780D01*
X523699Y424757D01*
X523815Y424711D01*
X524023Y424618D01*
X524151Y424583D01*
X524278Y424502D01*
X524347Y424433D01*
X524556Y424317D01*
X524590Y424282D01*
X524613Y424236D01*
X524648Y424201D01*
X524694Y424178D01*
X524776Y424097D01*
X524799Y424051D01*
X524845Y424005D01*
X524868Y423958D01*
X525007Y423819D01*
X525076Y423704D01*
X525192Y423588D01*
X525215Y423542D01*
X525319Y423414D01*
X525424Y423310D01*
X525516Y423148D01*
X525655Y423009D01*
X525678Y422963D01*
X525782Y422836D01*
X525863Y422755D01*
X525887Y422708D01*
X525991Y422581D01*
X526049Y422523D01*
X526072Y422477D01*
X526234Y422268D01*
X526303Y422199D01*
X526326Y422153D01*
X526442Y421991D01*
X526558Y421875D01*
X526581Y421829D01*
X526685Y421701D01*
X526766Y421620D01*
X526836Y421505D01*
X526951Y421389D01*
X526974Y421343D01*
X527137Y421134D01*
X527206Y421065D01*
X527276Y420949D01*
X527333Y420868D01*
X527380Y420845D01*
X527414Y420810D01*
X527438Y420764D01*
X527553Y420602D01*
X527669Y420486D01*
X527738Y420370D01*
X527773Y420336D01*
X527819Y420312D01*
X527981Y420058D01*
X528016Y420046D01*
X528039Y420000D01*
X528109Y419931D01*
X528178Y419815D01*
X528317Y419676D01*
X528387Y419560D01*
X528549Y419398D01*
X528618Y419282D01*
X528734Y419167D01*
X528826Y419005D01*
X528861Y418947D01*
X528907Y418924D01*
X528942Y418889D01*
X528965Y418843D01*
X529127Y418634D01*
X529220Y418542D01*
X529243Y418495D01*
X529347Y418368D01*
X529428Y418287D01*
X529521Y418125D01*
X529602Y418067D01*
X529729Y417870D01*
X529845Y417755D01*
X529868Y417708D01*
X529995Y417535D01*
X530042Y417512D01*
X530099Y417431D01*
X530204Y417280D01*
X530250Y417257D01*
X530308Y417199D01*
X530401Y417037D01*
X530516Y416921D01*
X530539Y416875D01*
X530655Y416713D01*
X530748Y416620D01*
X530771Y416574D01*
X530875Y416424D01*
X530921Y416400D01*
X530979Y416343D01*
X531002Y416296D01*
X531106Y416169D01*
X531164Y416111D01*
X531188Y416065D01*
X531280Y415903D01*
X531384Y415868D01*
X531465Y415903D01*
X531488Y415995D01*
X531512Y429005D01*
X531558Y429120D01*
X531604Y429282D01*
X531627Y429375D01*
X531662Y429502D01*
X531720Y429653D01*
X531836Y429815D01*
X531951Y430023D01*
X532113Y430185D01*
X532137Y430232D01*
X532287Y430382D01*
X532333Y430405D01*
X532472Y430544D01*
X532727Y430683D01*
X532819Y430775D01*
X532981Y430822D01*
X533248Y430880D01*
X533363Y430926D01*
X533560Y430984D01*
X533861Y431007D01*
X534255Y430984D01*
D02*
G37*
G36*
X132036Y17677D02*
X130332D01*
Y23713D01*
X123703D01*
Y17677D01*
X122000D01*
Y30490D01*
X123703D01*
Y25231D01*
X130332D01*
Y30490D01*
X132036D01*
Y17677D01*
D02*
G37*
G36*
X558344Y443851D02*
X558529Y443833D01*
X558733Y443814D01*
X558955Y443796D01*
X559418Y443722D01*
X559881Y443611D01*
X560325Y443444D01*
X560529Y443351D01*
X560714Y443240D01*
X560732D01*
X560751Y443203D01*
X560862Y443129D01*
X561029Y442981D01*
X561214Y442777D01*
X561436Y442537D01*
X561640Y442222D01*
X561843Y441852D01*
X561992Y441426D01*
X559677Y441000D01*
Y441018D01*
X559640Y441092D01*
X559603Y441185D01*
X559547Y441296D01*
X559473Y441444D01*
X559362Y441574D01*
X559251Y441703D01*
X559103Y441814D01*
X559085Y441833D01*
X559029Y441870D01*
X558936Y441907D01*
X558807Y441963D01*
X558640Y442018D01*
X558436Y442074D01*
X558196Y442092D01*
X557918Y442111D01*
X557751D01*
X557585Y442092D01*
X557381Y442074D01*
X557140Y442037D01*
X556918Y442000D01*
X556714Y441926D01*
X556529Y441833D01*
X556511D01*
X556492Y441796D01*
X556399Y441703D01*
X556288Y441537D01*
X556270Y441444D01*
X556251Y441333D01*
Y441315D01*
Y441296D01*
X556288Y441185D01*
X556362Y441037D01*
X556418Y440963D01*
X556492Y440889D01*
X556511Y440870D01*
X556585Y440852D01*
X556622Y440815D01*
X556696Y440796D01*
X556788Y440759D01*
X556899Y440704D01*
X557048Y440667D01*
X557196Y440611D01*
X557381Y440555D01*
X557603Y440500D01*
X557844Y440426D01*
X558122Y440352D01*
X558436Y440278D01*
X558788Y440185D01*
X558807D01*
X558881Y440167D01*
X558973Y440148D01*
X559103Y440111D01*
X559270Y440056D01*
X559455Y440018D01*
X559862Y439889D01*
X560325Y439722D01*
X560770Y439537D01*
X560992Y439426D01*
X561195Y439333D01*
X561362Y439204D01*
X561529Y439093D01*
X561566Y439056D01*
X561658Y438982D01*
X561769Y438833D01*
X561917Y438630D01*
X562066Y438370D01*
X562177Y438056D01*
X562269Y437685D01*
X562306Y437278D01*
Y437259D01*
Y437222D01*
Y437148D01*
X562288Y437056D01*
X562269Y436963D01*
X562251Y436834D01*
X562177Y436519D01*
X562047Y436185D01*
X561954Y436000D01*
X561862Y435815D01*
X561732Y435630D01*
X561584Y435445D01*
X561418Y435260D01*
X561232Y435075D01*
X561214Y435056D01*
X561177Y435037D01*
X561121Y435000D01*
X561029Y434926D01*
X560918Y434871D01*
X560788Y434797D01*
X560621Y434704D01*
X560436Y434630D01*
X560233Y434538D01*
X559992Y434463D01*
X559733Y434371D01*
X559455Y434315D01*
X559140Y434260D01*
X558807Y434204D01*
X558455Y434186D01*
X558085Y434167D01*
X557899D01*
X557770Y434186D01*
X557603D01*
X557418Y434204D01*
X557214Y434223D01*
X556992Y434260D01*
X556511Y434352D01*
X556011Y434482D01*
X555511Y434667D01*
X555289Y434797D01*
X555066Y434926D01*
X555048Y434945D01*
X555011Y434963D01*
X554955Y435000D01*
X554900Y435075D01*
X554696Y435241D01*
X554474Y435482D01*
X554233Y435778D01*
X554011Y436130D01*
X553807Y436556D01*
X553641Y437019D01*
X556103Y437389D01*
Y437352D01*
X556140Y437278D01*
X556177Y437148D01*
X556233Y436982D01*
X556325Y436796D01*
X556437Y436630D01*
X556566Y436445D01*
X556733Y436297D01*
X556751Y436278D01*
X556825Y436241D01*
X556936Y436185D01*
X557085Y436130D01*
X557270Y436056D01*
X557510Y436000D01*
X557770Y435963D01*
X558085Y435945D01*
X558233D01*
X558418Y435963D01*
X558621Y435982D01*
X558844Y436019D01*
X559085Y436093D01*
X559307Y436167D01*
X559510Y436278D01*
X559529Y436297D01*
X559566Y436334D01*
X559621Y436389D01*
X559677Y436463D01*
X559733Y436556D01*
X559788Y436667D01*
X559825Y436796D01*
X559844Y436945D01*
Y436963D01*
Y437000D01*
X559825Y437111D01*
X559770Y437259D01*
X559659Y437408D01*
X559621Y437445D01*
X559566Y437463D01*
X559492Y437519D01*
X559381Y437556D01*
X559233Y437611D01*
X559066Y437667D01*
X558844Y437722D01*
X558807D01*
X558714Y437759D01*
X558566Y437796D01*
X558362Y437834D01*
X558122Y437889D01*
X557862Y437963D01*
X557566Y438037D01*
X557251Y438130D01*
X556603Y438315D01*
X556288Y438408D01*
X555992Y438519D01*
X555714Y438611D01*
X555455Y438722D01*
X555233Y438833D01*
X555066Y438926D01*
X555048Y438945D01*
X555011Y438963D01*
X554974Y439000D01*
X554900Y439074D01*
X554715Y439241D01*
X554529Y439481D01*
X554326Y439778D01*
X554141Y440130D01*
X554067Y440333D01*
X554029Y440555D01*
X553992Y440778D01*
X553974Y441018D01*
Y441037D01*
Y441074D01*
Y441129D01*
X553992Y441222D01*
X554011Y441315D01*
X554029Y441444D01*
X554085Y441722D01*
X554196Y442037D01*
X554381Y442370D01*
X554474Y442555D01*
X554603Y442722D01*
X554752Y442888D01*
X554918Y443037D01*
X554937Y443055D01*
X554955Y443074D01*
X555011Y443111D01*
X555103Y443166D01*
X555196Y443222D01*
X555326Y443296D01*
X555474Y443370D01*
X555640Y443462D01*
X555844Y443537D01*
X556066Y443611D01*
X556307Y443685D01*
X556566Y443740D01*
X556862Y443796D01*
X557177Y443833D01*
X557510Y443870D01*
X558196D01*
X558344Y443851D01*
D02*
G37*
G36*
X170354Y15527D02*
X170595Y15490D01*
X170873Y15434D01*
X171169Y15360D01*
X171484Y15268D01*
X171780Y15120D01*
X171799D01*
X171817Y15101D01*
X171910Y15046D01*
X172058Y14953D01*
X172243Y14823D01*
X172447Y14638D01*
X172669Y14435D01*
X172873Y14194D01*
X173076Y13916D01*
X173095Y13879D01*
X173169Y13786D01*
X173243Y13620D01*
X173372Y13379D01*
X173484Y13101D01*
X173632Y12787D01*
X173761Y12416D01*
X173872Y12009D01*
Y11990D01*
X173891Y11953D01*
X173909Y11898D01*
X173928Y11805D01*
X173946Y11694D01*
X173965Y11565D01*
X174002Y11398D01*
X174021Y11213D01*
X174058Y11009D01*
X174076Y10787D01*
X174095Y10528D01*
X174132Y10268D01*
X174150Y9972D01*
Y9676D01*
X174169Y9343D01*
Y8991D01*
Y8972D01*
Y8898D01*
Y8769D01*
Y8620D01*
X174150Y8417D01*
Y8195D01*
X174132Y7954D01*
X174113Y7695D01*
X174058Y7102D01*
X173965Y6491D01*
X173854Y5899D01*
X173780Y5621D01*
X173687Y5343D01*
Y5324D01*
X173669Y5287D01*
X173632Y5213D01*
X173595Y5121D01*
X173558Y4991D01*
X173484Y4861D01*
X173335Y4547D01*
X173150Y4214D01*
X172910Y3843D01*
X172632Y3510D01*
X172299Y3195D01*
X172280D01*
X172262Y3158D01*
X172206Y3121D01*
X172132Y3084D01*
X172039Y3028D01*
X171947Y2954D01*
X171669Y2825D01*
X171336Y2695D01*
X170947Y2566D01*
X170484Y2491D01*
X169984Y2454D01*
X169799D01*
X169669Y2473D01*
X169521Y2491D01*
X169336Y2528D01*
X169132Y2566D01*
X168910Y2621D01*
X168688Y2695D01*
X168447Y2769D01*
X168206Y2880D01*
X167966Y3010D01*
X167725Y3158D01*
X167484Y3343D01*
X167262Y3547D01*
X167058Y3769D01*
X167040Y3788D01*
X167003Y3843D01*
X166947Y3936D01*
X166855Y4084D01*
X166762Y4250D01*
X166670Y4473D01*
X166540Y4732D01*
X166429Y5028D01*
X166318Y5361D01*
X166207Y5750D01*
X166096Y6176D01*
X166003Y6658D01*
X165910Y7176D01*
X165855Y7732D01*
X165818Y8343D01*
X165799Y8991D01*
Y9009D01*
Y9083D01*
Y9213D01*
Y9361D01*
X165818Y9565D01*
Y9787D01*
X165836Y10028D01*
X165855Y10305D01*
X165910Y10879D01*
X166003Y11490D01*
X166114Y12102D01*
X166188Y12379D01*
X166262Y12657D01*
Y12675D01*
X166281Y12713D01*
X166318Y12787D01*
X166355Y12879D01*
X166392Y13009D01*
X166466Y13139D01*
X166614Y13453D01*
X166799Y13786D01*
X167040Y14138D01*
X167318Y14490D01*
X167651Y14786D01*
X167669D01*
X167688Y14823D01*
X167743Y14861D01*
X167817Y14898D01*
X167910Y14972D01*
X168021Y15027D01*
X168299Y15175D01*
X168632Y15305D01*
X169021Y15434D01*
X169484Y15509D01*
X169984Y15546D01*
X170151D01*
X170354Y15527D01*
D02*
G37*
G36*
X160392D02*
X160541Y15509D01*
X160726Y15490D01*
X160929Y15453D01*
X161133Y15416D01*
X161614Y15286D01*
X162096Y15101D01*
X162337Y14990D01*
X162577Y14861D01*
X162799Y14694D01*
X163003Y14509D01*
X163022Y14490D01*
X163059Y14472D01*
X163096Y14398D01*
X163170Y14324D01*
X163262Y14231D01*
X163355Y14101D01*
X163448Y13972D01*
X163559Y13805D01*
X163744Y13453D01*
X163929Y13009D01*
X164003Y12787D01*
X164040Y12527D01*
X164077Y12268D01*
X164096Y11990D01*
Y11953D01*
Y11861D01*
X164077Y11713D01*
X164059Y11509D01*
X164022Y11287D01*
X163948Y11028D01*
X163874Y10750D01*
X163762Y10472D01*
X163744Y10435D01*
X163707Y10342D01*
X163633Y10194D01*
X163522Y9991D01*
X163374Y9768D01*
X163188Y9491D01*
X162966Y9213D01*
X162707Y8898D01*
X162670Y8861D01*
X162577Y8750D01*
X162485Y8657D01*
X162392Y8565D01*
X162281Y8454D01*
X162133Y8306D01*
X161985Y8158D01*
X161800Y7991D01*
X161614Y7806D01*
X161392Y7602D01*
X161152Y7398D01*
X160892Y7158D01*
X160596Y6917D01*
X160300Y6658D01*
X160281Y6639D01*
X160244Y6602D01*
X160170Y6546D01*
X160078Y6472D01*
X159966Y6361D01*
X159837Y6250D01*
X159541Y6010D01*
X159226Y5732D01*
X158930Y5454D01*
X158670Y5213D01*
X158559Y5121D01*
X158467Y5028D01*
X158448Y5010D01*
X158393Y4954D01*
X158319Y4880D01*
X158226Y4769D01*
X158133Y4639D01*
X158022Y4510D01*
X157800Y4195D01*
X164114D01*
Y2677D01*
X155615D01*
Y2695D01*
Y2769D01*
Y2880D01*
X155634Y3028D01*
X155652Y3195D01*
X155689Y3380D01*
X155726Y3565D01*
X155800Y3769D01*
Y3788D01*
X155819Y3806D01*
X155856Y3917D01*
X155930Y4084D01*
X156041Y4306D01*
X156189Y4565D01*
X156374Y4861D01*
X156578Y5158D01*
X156837Y5473D01*
Y5491D01*
X156874Y5510D01*
X156967Y5621D01*
X157133Y5787D01*
X157374Y6028D01*
X157652Y6306D01*
X158004Y6639D01*
X158430Y7010D01*
X158892Y7398D01*
X158911Y7417D01*
X158985Y7472D01*
X159096Y7565D01*
X159226Y7676D01*
X159392Y7824D01*
X159596Y7991D01*
X159800Y8176D01*
X160040Y8380D01*
X160504Y8824D01*
X160966Y9269D01*
X161189Y9491D01*
X161392Y9713D01*
X161577Y9917D01*
X161726Y10120D01*
Y10139D01*
X161763Y10157D01*
X161800Y10213D01*
X161837Y10287D01*
X161966Y10491D01*
X162114Y10731D01*
X162244Y11028D01*
X162374Y11342D01*
X162448Y11694D01*
X162485Y12027D01*
Y12046D01*
Y12064D01*
X162466Y12176D01*
X162448Y12361D01*
X162392Y12564D01*
X162318Y12824D01*
X162188Y13083D01*
X162022Y13342D01*
X161800Y13601D01*
X161763Y13638D01*
X161670Y13713D01*
X161540Y13805D01*
X161337Y13935D01*
X161077Y14046D01*
X160781Y14157D01*
X160429Y14231D01*
X160040Y14250D01*
X159929D01*
X159855Y14231D01*
X159633Y14212D01*
X159374Y14157D01*
X159096Y14083D01*
X158781Y13953D01*
X158485Y13786D01*
X158207Y13564D01*
X158170Y13527D01*
X158096Y13435D01*
X157985Y13287D01*
X157874Y13064D01*
X157745Y12805D01*
X157633Y12472D01*
X157559Y12102D01*
X157522Y11676D01*
X155911Y11842D01*
Y11861D01*
X155930Y11916D01*
Y12009D01*
X155948Y12139D01*
X155985Y12287D01*
X156022Y12453D01*
X156078Y12657D01*
X156133Y12861D01*
X156282Y13305D01*
X156504Y13750D01*
X156634Y13972D01*
X156800Y14194D01*
X156967Y14398D01*
X157152Y14583D01*
X157170Y14601D01*
X157207Y14620D01*
X157263Y14675D01*
X157356Y14731D01*
X157467Y14805D01*
X157596Y14879D01*
X157745Y14972D01*
X157930Y15064D01*
X158133Y15157D01*
X158356Y15249D01*
X158596Y15323D01*
X158855Y15397D01*
X159133Y15453D01*
X159430Y15509D01*
X159744Y15527D01*
X160078Y15546D01*
X160263D01*
X160392Y15527D01*
D02*
G37*
G36*
X606135Y443851D02*
X606320Y443833D01*
X606524Y443814D01*
X606746Y443796D01*
X607209Y443722D01*
X607672Y443611D01*
X608116Y443444D01*
X608320Y443351D01*
X608505Y443240D01*
X608524D01*
X608542Y443203D01*
X608653Y443129D01*
X608820Y442981D01*
X609005Y442777D01*
X609227Y442537D01*
X609431Y442222D01*
X609635Y441852D01*
X609783Y441426D01*
X607468Y441000D01*
Y441018D01*
X607431Y441092D01*
X607394Y441185D01*
X607339Y441296D01*
X607265Y441444D01*
X607154Y441574D01*
X607042Y441703D01*
X606894Y441814D01*
X606876Y441833D01*
X606820Y441870D01*
X606728Y441907D01*
X606598Y441963D01*
X606431Y442018D01*
X606228Y442074D01*
X605987Y442092D01*
X605709Y442111D01*
X605543D01*
X605376Y442092D01*
X605172Y442074D01*
X604932Y442037D01*
X604709Y442000D01*
X604506Y441926D01*
X604320Y441833D01*
X604302D01*
X604283Y441796D01*
X604191Y441703D01*
X604080Y441537D01*
X604061Y441444D01*
X604043Y441333D01*
Y441315D01*
Y441296D01*
X604080Y441185D01*
X604154Y441037D01*
X604209Y440963D01*
X604283Y440889D01*
X604302Y440870D01*
X604376Y440852D01*
X604413Y440815D01*
X604487Y440796D01*
X604580Y440759D01*
X604691Y440704D01*
X604839Y440667D01*
X604987Y440611D01*
X605172Y440555D01*
X605395Y440500D01*
X605635Y440426D01*
X605913Y440352D01*
X606228Y440278D01*
X606580Y440185D01*
X606598D01*
X606672Y440167D01*
X606765Y440148D01*
X606894Y440111D01*
X607061Y440056D01*
X607246Y440018D01*
X607654Y439889D01*
X608116Y439722D01*
X608561Y439537D01*
X608783Y439426D01*
X608987Y439333D01*
X609153Y439204D01*
X609320Y439093D01*
X609357Y439056D01*
X609450Y438982D01*
X609561Y438833D01*
X609709Y438630D01*
X609857Y438370D01*
X609968Y438056D01*
X610061Y437685D01*
X610098Y437278D01*
Y437259D01*
Y437222D01*
Y437148D01*
X610079Y437056D01*
X610061Y436963D01*
X610042Y436834D01*
X609968Y436519D01*
X609838Y436185D01*
X609746Y436000D01*
X609653Y435815D01*
X609524Y435630D01*
X609375Y435445D01*
X609209Y435260D01*
X609024Y435075D01*
X609005Y435056D01*
X608968Y435037D01*
X608913Y435000D01*
X608820Y434926D01*
X608709Y434871D01*
X608579Y434797D01*
X608413Y434704D01*
X608228Y434630D01*
X608024Y434538D01*
X607783Y434463D01*
X607524Y434371D01*
X607246Y434315D01*
X606931Y434260D01*
X606598Y434204D01*
X606246Y434186D01*
X605876Y434167D01*
X605691D01*
X605561Y434186D01*
X605395D01*
X605209Y434204D01*
X605006Y434223D01*
X604783Y434260D01*
X604302Y434352D01*
X603802Y434482D01*
X603302Y434667D01*
X603080Y434797D01*
X602858Y434926D01*
X602839Y434945D01*
X602802Y434963D01*
X602747Y435000D01*
X602691Y435075D01*
X602487Y435241D01*
X602265Y435482D01*
X602024Y435778D01*
X601802Y436130D01*
X601599Y436556D01*
X601432Y437019D01*
X603895Y437389D01*
Y437352D01*
X603932Y437278D01*
X603969Y437148D01*
X604024Y436982D01*
X604117Y436796D01*
X604228Y436630D01*
X604357Y436445D01*
X604524Y436297D01*
X604543Y436278D01*
X604617Y436241D01*
X604728Y436185D01*
X604876Y436130D01*
X605061Y436056D01*
X605302Y436000D01*
X605561Y435963D01*
X605876Y435945D01*
X606024D01*
X606209Y435963D01*
X606413Y435982D01*
X606635Y436019D01*
X606876Y436093D01*
X607098Y436167D01*
X607302Y436278D01*
X607320Y436297D01*
X607357Y436334D01*
X607413Y436389D01*
X607468Y436463D01*
X607524Y436556D01*
X607579Y436667D01*
X607617Y436796D01*
X607635Y436945D01*
Y436963D01*
Y437000D01*
X607617Y437111D01*
X607561Y437259D01*
X607450Y437408D01*
X607413Y437445D01*
X607357Y437463D01*
X607283Y437519D01*
X607172Y437556D01*
X607024Y437611D01*
X606857Y437667D01*
X606635Y437722D01*
X606598D01*
X606506Y437759D01*
X606357Y437796D01*
X606154Y437834D01*
X605913Y437889D01*
X605654Y437963D01*
X605357Y438037D01*
X605043Y438130D01*
X604395Y438315D01*
X604080Y438408D01*
X603783Y438519D01*
X603506Y438611D01*
X603246Y438722D01*
X603024Y438833D01*
X602858Y438926D01*
X602839Y438945D01*
X602802Y438963D01*
X602765Y439000D01*
X602691Y439074D01*
X602506Y439241D01*
X602321Y439481D01*
X602117Y439778D01*
X601932Y440130D01*
X601858Y440333D01*
X601821Y440555D01*
X601784Y440778D01*
X601765Y441018D01*
Y441037D01*
Y441074D01*
Y441129D01*
X601784Y441222D01*
X601802Y441315D01*
X601821Y441444D01*
X601876Y441722D01*
X601987Y442037D01*
X602173Y442370D01*
X602265Y442555D01*
X602395Y442722D01*
X602543Y442888D01*
X602710Y443037D01*
X602728Y443055D01*
X602747Y443074D01*
X602802Y443111D01*
X602895Y443166D01*
X602987Y443222D01*
X603117Y443296D01*
X603265Y443370D01*
X603432Y443462D01*
X603635Y443537D01*
X603858Y443611D01*
X604098Y443685D01*
X604357Y443740D01*
X604654Y443796D01*
X604969Y443833D01*
X605302Y443870D01*
X605987D01*
X606135Y443851D01*
D02*
G37*
G36*
X568306D02*
X568491Y443833D01*
X568695Y443814D01*
X568917Y443796D01*
X569380Y443722D01*
X569843Y443611D01*
X570287Y443444D01*
X570491Y443351D01*
X570676Y443240D01*
X570694D01*
X570713Y443203D01*
X570824Y443129D01*
X570991Y442981D01*
X571176Y442777D01*
X571398Y442537D01*
X571602Y442222D01*
X571805Y441852D01*
X571954Y441426D01*
X569639Y441000D01*
Y441018D01*
X569602Y441092D01*
X569565Y441185D01*
X569509Y441296D01*
X569435Y441444D01*
X569324Y441574D01*
X569213Y441703D01*
X569065Y441814D01*
X569046Y441833D01*
X568991Y441870D01*
X568898Y441907D01*
X568769Y441963D01*
X568602Y442018D01*
X568398Y442074D01*
X568158Y442092D01*
X567880Y442111D01*
X567713D01*
X567547Y442092D01*
X567343Y442074D01*
X567102Y442037D01*
X566880Y442000D01*
X566676Y441926D01*
X566491Y441833D01*
X566473D01*
X566454Y441796D01*
X566362Y441703D01*
X566250Y441537D01*
X566232Y441444D01*
X566213Y441333D01*
Y441315D01*
Y441296D01*
X566250Y441185D01*
X566324Y441037D01*
X566380Y440963D01*
X566454Y440889D01*
X566473Y440870D01*
X566547Y440852D01*
X566584Y440815D01*
X566658Y440796D01*
X566750Y440759D01*
X566861Y440704D01*
X567010Y440667D01*
X567158Y440611D01*
X567343Y440555D01*
X567565Y440500D01*
X567806Y440426D01*
X568083Y440352D01*
X568398Y440278D01*
X568750Y440185D01*
X568769D01*
X568843Y440167D01*
X568935Y440148D01*
X569065Y440111D01*
X569232Y440056D01*
X569417Y440018D01*
X569824Y439889D01*
X570287Y439722D01*
X570731Y439537D01*
X570954Y439426D01*
X571157Y439333D01*
X571324Y439204D01*
X571491Y439093D01*
X571528Y439056D01*
X571620Y438982D01*
X571731Y438833D01*
X571879Y438630D01*
X572028Y438370D01*
X572139Y438056D01*
X572231Y437685D01*
X572268Y437278D01*
Y437259D01*
Y437222D01*
Y437148D01*
X572250Y437056D01*
X572231Y436963D01*
X572213Y436834D01*
X572139Y436519D01*
X572009Y436185D01*
X571917Y436000D01*
X571824Y435815D01*
X571694Y435630D01*
X571546Y435445D01*
X571380Y435260D01*
X571194Y435075D01*
X571176Y435056D01*
X571139Y435037D01*
X571083Y435000D01*
X570991Y434926D01*
X570880Y434871D01*
X570750Y434797D01*
X570583Y434704D01*
X570398Y434630D01*
X570194Y434538D01*
X569954Y434463D01*
X569695Y434371D01*
X569417Y434315D01*
X569102Y434260D01*
X568769Y434204D01*
X568417Y434186D01*
X568046Y434167D01*
X567861D01*
X567732Y434186D01*
X567565D01*
X567380Y434204D01*
X567176Y434223D01*
X566954Y434260D01*
X566473Y434352D01*
X565973Y434482D01*
X565473Y434667D01*
X565251Y434797D01*
X565028Y434926D01*
X565010Y434945D01*
X564973Y434963D01*
X564917Y435000D01*
X564862Y435075D01*
X564658Y435241D01*
X564436Y435482D01*
X564195Y435778D01*
X563973Y436130D01*
X563769Y436556D01*
X563602Y437019D01*
X566065Y437389D01*
Y437352D01*
X566102Y437278D01*
X566139Y437148D01*
X566195Y436982D01*
X566287Y436796D01*
X566399Y436630D01*
X566528Y436445D01*
X566695Y436297D01*
X566713Y436278D01*
X566787Y436241D01*
X566898Y436185D01*
X567047Y436130D01*
X567232Y436056D01*
X567472Y436000D01*
X567732Y435963D01*
X568046Y435945D01*
X568195D01*
X568380Y435963D01*
X568583Y435982D01*
X568806Y436019D01*
X569046Y436093D01*
X569269Y436167D01*
X569472Y436278D01*
X569491Y436297D01*
X569528Y436334D01*
X569583Y436389D01*
X569639Y436463D01*
X569695Y436556D01*
X569750Y436667D01*
X569787Y436796D01*
X569806Y436945D01*
Y436963D01*
Y437000D01*
X569787Y437111D01*
X569731Y437259D01*
X569620Y437408D01*
X569583Y437445D01*
X569528Y437463D01*
X569454Y437519D01*
X569343Y437556D01*
X569194Y437611D01*
X569028Y437667D01*
X568806Y437722D01*
X568769D01*
X568676Y437759D01*
X568528Y437796D01*
X568324Y437834D01*
X568083Y437889D01*
X567824Y437963D01*
X567528Y438037D01*
X567213Y438130D01*
X566565Y438315D01*
X566250Y438408D01*
X565954Y438519D01*
X565676Y438611D01*
X565417Y438722D01*
X565195Y438833D01*
X565028Y438926D01*
X565010Y438945D01*
X564973Y438963D01*
X564936Y439000D01*
X564862Y439074D01*
X564677Y439241D01*
X564491Y439481D01*
X564288Y439778D01*
X564103Y440130D01*
X564028Y440333D01*
X563991Y440555D01*
X563954Y440778D01*
X563936Y441018D01*
Y441037D01*
Y441074D01*
Y441129D01*
X563954Y441222D01*
X563973Y441315D01*
X563991Y441444D01*
X564047Y441722D01*
X564158Y442037D01*
X564343Y442370D01*
X564436Y442555D01*
X564565Y442722D01*
X564714Y442888D01*
X564880Y443037D01*
X564899Y443055D01*
X564917Y443074D01*
X564973Y443111D01*
X565065Y443166D01*
X565158Y443222D01*
X565288Y443296D01*
X565436Y443370D01*
X565602Y443462D01*
X565806Y443537D01*
X566028Y443611D01*
X566269Y443685D01*
X566528Y443740D01*
X566824Y443796D01*
X567139Y443833D01*
X567472Y443870D01*
X568158D01*
X568306Y443851D01*
D02*
G37*
%LPC*%
G36*
X523996Y439963D02*
X521311D01*
Y436537D01*
X524162D01*
X524440Y436556D01*
X524736D01*
X525032Y436574D01*
X525273Y436593D01*
X525384D01*
X525458Y436611D01*
X525477D01*
X525551Y436630D01*
X525662Y436667D01*
X525792Y436704D01*
X525940Y436778D01*
X526106Y436871D01*
X526255Y436982D01*
X526403Y437111D01*
X526421Y437130D01*
X526458Y437185D01*
X526514Y437278D01*
X526588Y437408D01*
X526662Y437556D01*
X526717Y437741D01*
X526754Y437963D01*
X526773Y438204D01*
Y438222D01*
Y438296D01*
X526754Y438408D01*
X526736Y438537D01*
X526699Y438704D01*
X526643Y438852D01*
X526569Y439019D01*
X526477Y439185D01*
X526458Y439204D01*
X526421Y439259D01*
X526366Y439333D01*
X526273Y439407D01*
X526162Y439519D01*
X526014Y439611D01*
X525847Y439704D01*
X525662Y439778D01*
X525644D01*
X525551Y439815D01*
X525403Y439833D01*
X525310Y439852D01*
X525181Y439870D01*
X525051Y439889D01*
X524884Y439907D01*
X524699Y439926D01*
X524477D01*
X524255Y439944D01*
X523996Y439963D01*
D02*
G37*
G36*
X523884Y445055D02*
X521311D01*
Y442092D01*
X523792D01*
X524107Y442111D01*
X524681D01*
X524792Y442129D01*
X524903D01*
X524977Y442148D01*
X525088Y442166D01*
X525255Y442222D01*
X525421Y442277D01*
X525588Y442351D01*
X525755Y442444D01*
X525903Y442574D01*
X525921Y442592D01*
X525958Y442648D01*
X526032Y442722D01*
X526106Y442851D01*
X526162Y443000D01*
X526236Y443166D01*
X526273Y443370D01*
X526292Y443592D01*
Y443611D01*
Y443685D01*
X526273Y443796D01*
X526255Y443944D01*
X526217Y444092D01*
X526143Y444240D01*
X526069Y444407D01*
X525958Y444555D01*
X525940Y444574D01*
X525903Y444610D01*
X525810Y444685D01*
X525718Y444759D01*
X525569Y444833D01*
X525403Y444907D01*
X525199Y444962D01*
X524977Y444999D01*
X524958D01*
X524884Y445018D01*
X524681D01*
X524570Y445036D01*
X524088D01*
X523884Y445055D01*
D02*
G37*
G36*
X616486Y441870D02*
X616393D01*
X616319Y441852D01*
X616153Y441833D01*
X615930Y441777D01*
X615671Y441685D01*
X615393Y441555D01*
X615116Y441370D01*
X614856Y441129D01*
X614838Y441092D01*
X614764Y441000D01*
X614653Y440815D01*
X614542Y440592D01*
X614412Y440296D01*
X614319Y439926D01*
X614245Y439500D01*
X614208Y439019D01*
Y439000D01*
Y438963D01*
Y438889D01*
X614227Y438796D01*
Y438667D01*
X614245Y438537D01*
X614282Y438241D01*
X614375Y437889D01*
X614486Y437537D01*
X614634Y437185D01*
X614856Y436889D01*
X614893Y436852D01*
X614968Y436778D01*
X615116Y436667D01*
X615319Y436537D01*
X615542Y436389D01*
X615819Y436278D01*
X616134Y436204D01*
X616486Y436167D01*
X616578D01*
X616653Y436185D01*
X616819Y436204D01*
X617041Y436260D01*
X617301Y436352D01*
X617578Y436463D01*
X617838Y436648D01*
X618097Y436889D01*
X618134Y436926D01*
X618208Y437019D01*
X618301Y437204D01*
X618430Y437426D01*
X618560Y437741D01*
X618652Y438093D01*
X618726Y438537D01*
X618764Y439019D01*
Y439037D01*
Y439074D01*
Y439148D01*
X618745Y439241D01*
Y439352D01*
X618726Y439500D01*
X618689Y439796D01*
X618597Y440130D01*
X618486Y440481D01*
X618319Y440833D01*
X618097Y441129D01*
X618060Y441166D01*
X617986Y441241D01*
X617838Y441370D01*
X617653Y441500D01*
X617412Y441629D01*
X617152Y441759D01*
X616838Y441833D01*
X616486Y441870D01*
D02*
G37*
G36*
X177198Y29249D02*
X177087D01*
X177013Y29231D01*
X176809Y29194D01*
X176568Y29138D01*
X176291Y29027D01*
X175994Y28861D01*
X175846Y28749D01*
X175698Y28638D01*
X175569Y28490D01*
X175439Y28324D01*
Y28305D01*
X175402Y28268D01*
X175365Y28194D01*
X175309Y28101D01*
X175254Y27953D01*
X175180Y27787D01*
X175124Y27583D01*
X175050Y27342D01*
X174976Y27064D01*
X174902Y26750D01*
X174828Y26398D01*
X174772Y26009D01*
X174717Y25565D01*
X174680Y25083D01*
X174661Y24565D01*
X174643Y23991D01*
Y23954D01*
Y23861D01*
Y23695D01*
X174661Y23472D01*
Y23232D01*
X174680Y22935D01*
X174698Y22620D01*
X174735Y22287D01*
X174828Y21565D01*
X174883Y21213D01*
X174958Y20880D01*
X175032Y20565D01*
X175143Y20269D01*
X175254Y20010D01*
X175383Y19787D01*
Y19769D01*
X175420Y19750D01*
X175513Y19621D01*
X175680Y19454D01*
X175883Y19269D01*
X176161Y19084D01*
X176476Y18917D01*
X176828Y18788D01*
X177013Y18769D01*
X177216Y18750D01*
X177328D01*
X177402Y18769D01*
X177587Y18806D01*
X177846Y18880D01*
X178124Y19010D01*
X178439Y19195D01*
X178587Y19306D01*
X178735Y19454D01*
X178883Y19602D01*
X179031Y19787D01*
Y19806D01*
X179068Y19843D01*
X179105Y19899D01*
X179142Y19991D01*
X179216Y20121D01*
X179272Y20287D01*
X179346Y20473D01*
X179420Y20695D01*
X179475Y20972D01*
X179550Y21269D01*
X179624Y21621D01*
X179679Y21991D01*
X179716Y22435D01*
X179753Y22898D01*
X179790Y23417D01*
Y23991D01*
Y24009D01*
Y24028D01*
Y24120D01*
Y24287D01*
X179772Y24509D01*
Y24750D01*
X179753Y25046D01*
X179735Y25361D01*
X179698Y25713D01*
X179605Y26416D01*
X179550Y26768D01*
X179475Y27102D01*
X179401Y27416D01*
X179290Y27713D01*
X179179Y27972D01*
X179050Y28194D01*
Y28212D01*
X179013Y28231D01*
X178976Y28287D01*
X178920Y28361D01*
X178753Y28527D01*
X178550Y28731D01*
X178272Y28916D01*
X177957Y29083D01*
X177791Y29157D01*
X177605Y29212D01*
X177402Y29231D01*
X177198Y29249D01*
D02*
G37*
G36*
X596007Y441981D02*
X595877D01*
X595729Y441944D01*
X595544Y441907D01*
X595340Y441833D01*
X595118Y441740D01*
X594896Y441592D01*
X594692Y441389D01*
X594673Y441370D01*
X594618Y441278D01*
X594525Y441148D01*
X594433Y440963D01*
X594322Y440741D01*
X594248Y440463D01*
X594192Y440148D01*
X594173Y439796D01*
X597840D01*
Y439815D01*
Y439852D01*
Y439889D01*
X597821Y439963D01*
X597803Y440167D01*
X597766Y440389D01*
X597692Y440648D01*
X597599Y440926D01*
X597451Y441185D01*
X597284Y441407D01*
X597266Y441426D01*
X597192Y441500D01*
X597080Y441592D01*
X596932Y441703D01*
X596747Y441796D01*
X596525Y441889D01*
X596284Y441963D01*
X596007Y441981D01*
D02*
G37*
G36*
X336593Y15982D02*
X336476D01*
X335976Y15965D01*
X335493Y15915D01*
X335077Y15832D01*
X334710Y15748D01*
X334560Y15698D01*
X334410Y15665D01*
X334294Y15632D01*
X334194Y15582D01*
X334110Y15565D01*
X334044Y15532D01*
X334010Y15515D01*
X333994D01*
X333694Y15382D01*
X333410Y15215D01*
X333161Y15032D01*
X332944Y14865D01*
X332761Y14715D01*
X332611Y14582D01*
X332527Y14499D01*
X332511Y14482D01*
X332494Y14466D01*
X332261Y14199D01*
X332044Y13916D01*
X331861Y13666D01*
X331711Y13416D01*
X331594Y13199D01*
X331494Y13033D01*
X331478Y12966D01*
X331444Y12916D01*
X331428Y12899D01*
Y12883D01*
X331261Y12416D01*
X331128Y11916D01*
X331045Y11416D01*
X330978Y10950D01*
X330961Y10733D01*
X330945Y10533D01*
X330928Y10367D01*
Y10217D01*
X330911Y10083D01*
Y10000D01*
Y9933D01*
Y9917D01*
X330928Y9417D01*
X330978Y8934D01*
X331045Y8484D01*
X331144Y8067D01*
X331261Y7684D01*
X331394Y7334D01*
X331528Y7001D01*
X331678Y6718D01*
X331811Y6451D01*
X331944Y6234D01*
X332077Y6034D01*
X332194Y5868D01*
X332294Y5751D01*
X332361Y5651D01*
X332411Y5601D01*
X332427Y5584D01*
X332727Y5301D01*
X333044Y5068D01*
X333360Y4851D01*
X333711Y4685D01*
X334044Y4535D01*
X334394Y4401D01*
X334710Y4302D01*
X335043Y4218D01*
X335343Y4151D01*
X335627Y4101D01*
X335877Y4068D01*
X336093Y4051D01*
X336260Y4035D01*
X336393Y4018D01*
X336510D01*
X336976Y4035D01*
X337410Y4085D01*
X337826Y4168D01*
X338209Y4268D01*
X338576Y4385D01*
X338909Y4518D01*
X339209Y4651D01*
X339492Y4801D01*
X339726Y4951D01*
X339942Y5085D01*
X340126Y5218D01*
X340275Y5335D01*
X340409Y5434D01*
X340492Y5518D01*
X340542Y5568D01*
X340559Y5584D01*
X340825Y5901D01*
X341059Y6234D01*
X341275Y6584D01*
X341442Y6934D01*
X341592Y7301D01*
X341725Y7667D01*
X341825Y8034D01*
X341908Y8384D01*
X341958Y8700D01*
X342008Y9017D01*
X342042Y9283D01*
X342075Y9517D01*
Y9717D01*
X342092Y9867D01*
Y9950D01*
Y9983D01*
X342075Y10500D01*
X342025Y10983D01*
X341958Y11433D01*
X341858Y11866D01*
X341742Y12249D01*
X341608Y12616D01*
X341475Y12949D01*
X341325Y13233D01*
X341175Y13499D01*
X341042Y13732D01*
X340909Y13932D01*
X340792Y14099D01*
X340709Y14216D01*
X340625Y14316D01*
X340575Y14366D01*
X340559Y14382D01*
X340259Y14665D01*
X339942Y14915D01*
X339609Y15132D01*
X339276Y15315D01*
X338926Y15465D01*
X338592Y15599D01*
X338259Y15698D01*
X337943Y15782D01*
X337643Y15848D01*
X337360Y15898D01*
X337110Y15932D01*
X336893Y15965D01*
X336726D01*
X336593Y15982D01*
D02*
G37*
G36*
X353089Y15765D02*
X350939D01*
Y8001D01*
X346174Y15765D01*
X343924D01*
Y4235D01*
X346074D01*
Y11833D01*
X350756Y4235D01*
X353089D01*
Y15765D01*
D02*
G37*
%LPD*%
G36*
X336776Y13982D02*
X337026Y13949D01*
X337259Y13916D01*
X337476Y13849D01*
X337859Y13682D01*
X338043Y13599D01*
X338193Y13516D01*
X338343Y13416D01*
X338459Y13333D01*
X338559Y13249D01*
X338659Y13166D01*
X338726Y13099D01*
X338776Y13066D01*
X338792Y13033D01*
X338809Y13016D01*
X338959Y12816D01*
X339109Y12599D01*
X339226Y12383D01*
X339326Y12133D01*
X339476Y11633D01*
X339576Y11150D01*
X339626Y10933D01*
X339642Y10717D01*
X339659Y10533D01*
X339676Y10367D01*
X339692Y10217D01*
Y10117D01*
Y10050D01*
Y10033D01*
X339676Y9667D01*
X339659Y9317D01*
X339609Y9000D01*
X339559Y8717D01*
X339492Y8434D01*
X339409Y8184D01*
X339326Y7967D01*
X339242Y7767D01*
X339159Y7584D01*
X339076Y7434D01*
X339009Y7301D01*
X338926Y7184D01*
X338876Y7101D01*
X338826Y7051D01*
X338809Y7017D01*
X338792Y7001D01*
X338626Y6817D01*
X338443Y6668D01*
X338243Y6534D01*
X338059Y6418D01*
X337859Y6334D01*
X337676Y6251D01*
X337309Y6134D01*
X336993Y6051D01*
X336860Y6034D01*
X336743Y6018D01*
X336643Y6001D01*
X336510D01*
X336260Y6018D01*
X336010Y6051D01*
X335777Y6101D01*
X335560Y6168D01*
X335160Y6318D01*
X334843Y6518D01*
X334693Y6601D01*
X334577Y6701D01*
X334460Y6784D01*
X334377Y6867D01*
X334310Y6917D01*
X334260Y6967D01*
X334227Y7001D01*
X334210Y7017D01*
X334060Y7217D01*
X333910Y7434D01*
X333794Y7667D01*
X333694Y7917D01*
X333527Y8400D01*
X333427Y8884D01*
X333394Y9117D01*
X333360Y9317D01*
X333344Y9517D01*
X333327Y9683D01*
X333311Y9817D01*
Y9917D01*
Y9983D01*
Y10000D01*
X333327Y10367D01*
X333344Y10700D01*
X333394Y11016D01*
X333444Y11316D01*
X333511Y11583D01*
X333577Y11833D01*
X333661Y12049D01*
X333744Y12249D01*
X333827Y12433D01*
X333910Y12583D01*
X333977Y12699D01*
X334044Y12816D01*
X334094Y12899D01*
X334144Y12949D01*
X334160Y12983D01*
X334177Y12999D01*
X334344Y13182D01*
X334527Y13333D01*
X334727Y13466D01*
X334910Y13582D01*
X335110Y13682D01*
X335310Y13749D01*
X335677Y13882D01*
X336010Y13949D01*
X336143Y13966D01*
X336277Y13982D01*
X336376Y13999D01*
X336510D01*
X336776Y13982D01*
D02*
G37*
%LPC*%
G36*
X579815Y427116D02*
X577623D01*
X573655Y416869D01*
X575846D01*
X576691Y419194D01*
X580807D01*
X581696Y416869D01*
X583932D01*
X579815Y427116D01*
D02*
G37*
G36*
X605286Y429304D02*
X605144D01*
X604533Y429284D01*
X603943Y429223D01*
X603435Y429121D01*
X602987Y429019D01*
X602804Y428958D01*
X602621Y428917D01*
X602478Y428877D01*
X602356Y428816D01*
X602254Y428795D01*
X602173Y428755D01*
X602132Y428734D01*
X602112D01*
X601746Y428572D01*
X601400Y428368D01*
X601095Y428144D01*
X600830Y427941D01*
X600607Y427758D01*
X600424Y427595D01*
X600322Y427493D01*
X600301Y427473D01*
X600281Y427453D01*
X599996Y427127D01*
X599732Y426781D01*
X599508Y426476D01*
X599325Y426171D01*
X599182Y425906D01*
X599060Y425703D01*
X599040Y425621D01*
X598999Y425560D01*
X598979Y425540D01*
Y425520D01*
X598775Y424950D01*
X598613Y424340D01*
X598511Y423729D01*
X598430Y423160D01*
X598409Y422895D01*
X598389Y422651D01*
X598369Y422448D01*
Y422265D01*
X598348Y422102D01*
Y422000D01*
Y421919D01*
Y421898D01*
X598369Y421288D01*
X598430Y420698D01*
X598511Y420149D01*
X598633Y419640D01*
X598775Y419172D01*
X598938Y418745D01*
X599101Y418338D01*
X599284Y417992D01*
X599447Y417666D01*
X599610Y417402D01*
X599772Y417158D01*
X599915Y416954D01*
X600037Y416812D01*
X600118Y416690D01*
X600179Y416629D01*
X600200Y416609D01*
X600566Y416263D01*
X600952Y415978D01*
X601339Y415713D01*
X601766Y415510D01*
X602173Y415327D01*
X602600Y415164D01*
X602987Y415042D01*
X603394Y414940D01*
X603760Y414859D01*
X604106Y414798D01*
X604411Y414757D01*
X604676Y414737D01*
X604879Y414716D01*
X605042Y414696D01*
X605184D01*
X605754Y414716D01*
X606283Y414777D01*
X606792Y414879D01*
X607259Y415001D01*
X607707Y415144D01*
X608114Y415306D01*
X608480Y415469D01*
X608826Y415652D01*
X609111Y415835D01*
X609375Y415998D01*
X609599Y416161D01*
X609782Y416303D01*
X609945Y416425D01*
X610047Y416527D01*
X610108Y416588D01*
X610128Y416609D01*
X610454Y416995D01*
X610739Y417402D01*
X611003Y417829D01*
X611207Y418256D01*
X611390Y418704D01*
X611552Y419152D01*
X611674Y419599D01*
X611776Y420027D01*
X611837Y420413D01*
X611898Y420800D01*
X611939Y421125D01*
X611980Y421410D01*
Y421654D01*
X612000Y421837D01*
Y421939D01*
Y421980D01*
X611980Y422610D01*
X611919Y423200D01*
X611837Y423750D01*
X611715Y424279D01*
X611573Y424747D01*
X611410Y425194D01*
X611247Y425601D01*
X611064Y425947D01*
X610881Y426273D01*
X610718Y426557D01*
X610555Y426801D01*
X610413Y427005D01*
X610311Y427147D01*
X610210Y427270D01*
X610149Y427331D01*
X610128Y427351D01*
X609762Y427697D01*
X609375Y428002D01*
X608969Y428266D01*
X608562Y428490D01*
X608134Y428673D01*
X607728Y428836D01*
X607321Y428958D01*
X606934Y429060D01*
X606568Y429141D01*
X606222Y429202D01*
X605917Y429243D01*
X605652Y429284D01*
X605449D01*
X605286Y429304D01*
D02*
G37*
G36*
X596212Y429039D02*
X593616D01*
Y421889D01*
X593602Y422407D01*
X593557Y422866D01*
X593542Y423088D01*
X593513Y423281D01*
X593483Y423473D01*
X593453Y423636D01*
X593409Y423784D01*
X593380Y423918D01*
X593350Y424036D01*
X593335Y424125D01*
X593305Y424199D01*
X593291Y424258D01*
X593276Y424288D01*
Y424303D01*
X593143Y424658D01*
X592980Y424984D01*
X592817Y425265D01*
X592654Y425502D01*
X592521Y425695D01*
X592402Y425843D01*
X592328Y425932D01*
X592313Y425961D01*
X592299D01*
X592047Y426198D01*
X591795Y426391D01*
X591528Y426553D01*
X591292Y426687D01*
X591084Y426791D01*
X590906Y426865D01*
X590847Y426879D01*
X590803Y426894D01*
X590773Y426909D01*
X590758D01*
X590477Y426983D01*
X590166Y427027D01*
X589840Y427072D01*
X589529Y427087D01*
X589248Y427101D01*
X589129Y427116D01*
X585042D01*
Y416869D01*
X588922D01*
X589322Y416884D01*
X589692Y416899D01*
X590003Y416928D01*
X590255Y416973D01*
X590462Y417017D01*
X590625Y417047D01*
X590670Y417062D01*
X590714D01*
X590729Y417076D01*
X590744D01*
X591069Y417195D01*
X591366Y417328D01*
X591603Y417461D01*
X591810Y417595D01*
X591973Y417713D01*
X592091Y417802D01*
X592165Y417861D01*
X592195Y417891D01*
X592447Y418172D01*
X592669Y418468D01*
X592861Y418779D01*
X593009Y419061D01*
X593128Y419327D01*
X593187Y419431D01*
X593217Y419520D01*
X593246Y419608D01*
X593276Y419668D01*
X593291Y419697D01*
Y419712D01*
X593394Y420067D01*
X593483Y420438D01*
X593542Y420793D01*
X593572Y421134D01*
X593587Y421297D01*
X593602Y421445D01*
Y421563D01*
X593616Y421682D01*
Y414961D01*
X596212D01*
Y429039D01*
D02*
G37*
G36*
X578860Y441926D02*
X578823D01*
X578712Y441907D01*
X578545Y441889D01*
X578342Y441833D01*
X578101Y441759D01*
X577842Y441629D01*
X577601Y441463D01*
X577360Y441222D01*
X577342Y441185D01*
X577268Y441092D01*
X577175Y440926D01*
X577083Y440704D01*
X576972Y440407D01*
X576879Y440056D01*
X576805Y439648D01*
X576786Y439167D01*
Y439148D01*
Y439093D01*
Y439019D01*
X576805Y438907D01*
Y438778D01*
X576823Y438630D01*
X576860Y438296D01*
X576935Y437907D01*
X577046Y437519D01*
X577194Y437167D01*
X577286Y437000D01*
X577397Y436852D01*
X577434Y436815D01*
X577509Y436741D01*
X577638Y436611D01*
X577823Y436482D01*
X578027Y436352D01*
X578286Y436222D01*
X578582Y436148D01*
X578897Y436111D01*
X578934D01*
X579045Y436130D01*
X579193Y436148D01*
X579397Y436204D01*
X579619Y436278D01*
X579860Y436408D01*
X580101Y436574D01*
X580323Y436796D01*
X580341Y436834D01*
X580416Y436926D01*
X580508Y437093D01*
X580619Y437333D01*
X580656Y437482D01*
X580712Y437648D01*
X580767Y437834D01*
X580804Y438037D01*
X580841Y438259D01*
X580878Y438500D01*
X580897Y438759D01*
Y439037D01*
Y439056D01*
Y439111D01*
Y439185D01*
Y439278D01*
X580878Y439407D01*
X580860Y439537D01*
X580823Y439852D01*
X580749Y440204D01*
X580656Y440574D01*
X580508Y440907D01*
X580304Y441203D01*
X580286Y441241D01*
X580193Y441315D01*
X580064Y441426D01*
X579897Y441574D01*
X579693Y441703D01*
X579453Y441814D01*
X579175Y441889D01*
X578860Y441926D01*
D02*
G37*
G36*
X568961Y427309D02*
X568783D01*
X568398Y427294D01*
X568013Y427249D01*
X567672Y427175D01*
X567332Y427087D01*
X567036Y426983D01*
X566740Y426865D01*
X566488Y426731D01*
X566251Y426598D01*
X566029Y426465D01*
X565851Y426331D01*
X565688Y426213D01*
X565555Y426109D01*
X565451Y426020D01*
X565377Y425946D01*
X565333Y425902D01*
X565318Y425887D01*
X565081Y425606D01*
X564888Y425310D01*
X564711Y424999D01*
X564563Y424673D01*
X564429Y424332D01*
X564326Y424007D01*
X564237Y423681D01*
X564163Y423370D01*
X564104Y423059D01*
X564074Y422792D01*
X564044Y422541D01*
X564015Y422333D01*
Y422155D01*
X564000Y422022D01*
Y421933D01*
Y421919D01*
Y421904D01*
X564015Y421460D01*
X564059Y421045D01*
X564118Y420645D01*
X564207Y420290D01*
X564296Y419949D01*
X564415Y419623D01*
X564533Y419342D01*
X564652Y419090D01*
X564770Y418853D01*
X564888Y418646D01*
X565007Y418483D01*
X565096Y418335D01*
X565185Y418231D01*
X565244Y418143D01*
X565288Y418098D01*
X565303Y418083D01*
X565555Y417831D01*
X565821Y417624D01*
X566103Y417432D01*
X566384Y417284D01*
X566665Y417150D01*
X566947Y417032D01*
X567213Y416943D01*
X567465Y416869D01*
X567717Y416810D01*
X567939Y416765D01*
X568146Y416736D01*
X568309Y416721D01*
X568457Y416706D01*
X568561Y416691D01*
X568650D01*
X568961Y416706D01*
X569242Y416721D01*
X569523Y416765D01*
X569775Y416824D01*
X570012Y416884D01*
X570234Y416943D01*
X570442Y417017D01*
X570634Y417106D01*
X570797Y417180D01*
X570945Y417254D01*
X571078Y417313D01*
X571182Y417372D01*
X571271Y417432D01*
X571330Y417476D01*
X571360Y417491D01*
X571375Y417506D01*
X571567Y417669D01*
X571745Y417846D01*
X572071Y418246D01*
X572337Y418661D01*
X572544Y419061D01*
X572633Y419253D01*
X572707Y419431D01*
X572766Y419594D01*
X572826Y419727D01*
X572870Y419845D01*
X572900Y419934D01*
X572915Y419994D01*
Y420008D01*
X570901Y420630D01*
X570782Y420230D01*
X570649Y419890D01*
X570516Y419608D01*
X570368Y419372D01*
X570249Y419194D01*
X570145Y419075D01*
X570071Y419001D01*
X570042Y418972D01*
X569805Y418794D01*
X569568Y418676D01*
X569331Y418587D01*
X569124Y418513D01*
X568931Y418483D01*
X568768Y418468D01*
X568709Y418453D01*
X568635D01*
X568428Y418468D01*
X568235Y418483D01*
X567880Y418587D01*
X567569Y418705D01*
X567317Y418868D01*
X567110Y419016D01*
X566962Y419135D01*
X566902Y419194D01*
X566858Y419238D01*
X566843Y419253D01*
X566828Y419268D01*
X566710Y419431D01*
X566606Y419623D01*
X566503Y419831D01*
X566428Y420053D01*
X566310Y420512D01*
X566221Y420971D01*
X566192Y421193D01*
X566177Y421385D01*
X566147Y421578D01*
Y421741D01*
X566132Y421859D01*
Y421963D01*
Y422037D01*
Y422052D01*
X566147Y422392D01*
X566162Y422703D01*
X566192Y422985D01*
X566236Y423251D01*
X566295Y423488D01*
X566354Y423710D01*
X566414Y423903D01*
X566488Y424081D01*
X566547Y424229D01*
X566606Y424362D01*
X566665Y424466D01*
X566725Y424554D01*
X566769Y424628D01*
X566799Y424673D01*
X566828Y424702D01*
Y424717D01*
X566962Y424865D01*
X567110Y424999D01*
X567258Y425102D01*
X567421Y425191D01*
X567732Y425339D01*
X568028Y425443D01*
X568280Y425502D01*
X568398Y425517D01*
X568487Y425532D01*
X568576Y425547D01*
X568679D01*
X568975Y425532D01*
X569242Y425472D01*
X569479Y425398D01*
X569686Y425310D01*
X569849Y425221D01*
X569968Y425147D01*
X570042Y425088D01*
X570071Y425073D01*
X570264Y424895D01*
X570442Y424688D01*
X570575Y424480D01*
X570678Y424273D01*
X570752Y424095D01*
X570797Y423962D01*
X570827Y423903D01*
Y423858D01*
X570841Y423844D01*
Y423829D01*
X572885Y424318D01*
X572737Y424747D01*
X572574Y425117D01*
X572396Y425443D01*
X572233Y425709D01*
X572071Y425917D01*
X572011Y426006D01*
X571952Y426080D01*
X571908Y426124D01*
X571863Y426169D01*
X571848Y426198D01*
X571833D01*
X571611Y426391D01*
X571360Y426568D01*
X571123Y426716D01*
X570871Y426835D01*
X570604Y426953D01*
X570353Y427042D01*
X570101Y427116D01*
X569864Y427175D01*
X569642Y427220D01*
X569435Y427249D01*
X569257Y427279D01*
X569094Y427294D01*
X568961Y427309D01*
D02*
G37*
%LPD*%
G36*
X580141Y420926D02*
X577313D01*
X578704Y424732D01*
X580141Y420926D01*
D02*
G37*
G36*
X605510Y426862D02*
X605815Y426822D01*
X606100Y426781D01*
X606364Y426700D01*
X606832Y426496D01*
X607056Y426395D01*
X607239Y426293D01*
X607422Y426171D01*
X607565Y426069D01*
X607687Y425967D01*
X607809Y425866D01*
X607890Y425784D01*
X607951Y425743D01*
X607972Y425703D01*
X607992Y425682D01*
X608175Y425438D01*
X608358Y425174D01*
X608501Y424909D01*
X608623Y424604D01*
X608806Y423994D01*
X608928Y423404D01*
X608989Y423139D01*
X609009Y422875D01*
X609030Y422651D01*
X609050Y422448D01*
X609070Y422265D01*
Y422142D01*
Y422061D01*
Y422041D01*
X609050Y421593D01*
X609030Y421166D01*
X608969Y420779D01*
X608908Y420433D01*
X608826Y420088D01*
X608724Y419782D01*
X608623Y419518D01*
X608521Y419274D01*
X608419Y419050D01*
X608317Y418867D01*
X608236Y418704D01*
X608134Y418562D01*
X608073Y418460D01*
X608012Y418399D01*
X607992Y418358D01*
X607972Y418338D01*
X607768Y418114D01*
X607544Y417931D01*
X607300Y417768D01*
X607076Y417626D01*
X606832Y417524D01*
X606609Y417422D01*
X606161Y417280D01*
X605774Y417178D01*
X605611Y417158D01*
X605469Y417137D01*
X605347Y417117D01*
X605184D01*
X604879Y417137D01*
X604574Y417178D01*
X604289Y417239D01*
X604025Y417321D01*
X603536Y417504D01*
X603150Y417748D01*
X602967Y417850D01*
X602824Y417972D01*
X602682Y418073D01*
X602580Y418175D01*
X602499Y418236D01*
X602438Y418297D01*
X602397Y418338D01*
X602377Y418358D01*
X602193Y418602D01*
X602010Y418867D01*
X601868Y419152D01*
X601746Y419457D01*
X601543Y420047D01*
X601420Y420637D01*
X601380Y420922D01*
X601339Y421166D01*
X601319Y421410D01*
X601298Y421613D01*
X601278Y421776D01*
Y421898D01*
Y421980D01*
Y422000D01*
X601298Y422448D01*
X601319Y422854D01*
X601380Y423241D01*
X601441Y423607D01*
X601522Y423933D01*
X601604Y424238D01*
X601705Y424502D01*
X601807Y424747D01*
X601909Y424970D01*
X602010Y425154D01*
X602092Y425296D01*
X602173Y425438D01*
X602234Y425540D01*
X602295Y425601D01*
X602316Y425642D01*
X602336Y425662D01*
X602539Y425886D01*
X602763Y426069D01*
X603007Y426232D01*
X603231Y426374D01*
X603475Y426496D01*
X603719Y426578D01*
X604167Y426740D01*
X604574Y426822D01*
X604737Y426842D01*
X604899Y426862D01*
X605022Y426883D01*
X605184D01*
X605510Y426862D01*
D02*
G37*
G36*
X588656Y425369D02*
X588833D01*
X588981Y425354D01*
X589115D01*
X589248Y425339D01*
X589352D01*
X589515Y425310D01*
X589633Y425295D01*
X589707Y425280D01*
X589722D01*
X589929Y425221D01*
X590107Y425147D01*
X590270Y425073D01*
X590418Y424984D01*
X590522Y424910D01*
X590610Y424851D01*
X590655Y424806D01*
X590670Y424791D01*
X590803Y424643D01*
X590921Y424480D01*
X591025Y424318D01*
X591114Y424169D01*
X591173Y424021D01*
X591217Y423903D01*
X591247Y423829D01*
X591262Y423814D01*
Y423799D01*
X591336Y423533D01*
X591395Y423251D01*
X591425Y422940D01*
X591454Y422644D01*
X591469Y422392D01*
X591484Y422274D01*
Y422170D01*
Y422096D01*
Y422037D01*
Y421993D01*
Y421978D01*
X591469Y421563D01*
X591454Y421178D01*
X591410Y420867D01*
X591380Y420601D01*
X591336Y420378D01*
X591321Y420290D01*
X591292Y420230D01*
X591277Y420171D01*
Y420127D01*
X591262Y420112D01*
Y420097D01*
X591173Y419860D01*
X591099Y419653D01*
X590995Y419490D01*
X590921Y419357D01*
X590847Y419253D01*
X590788Y419179D01*
X590744Y419135D01*
X590729Y419120D01*
X590596Y419016D01*
X590462Y418927D01*
X590329Y418853D01*
X590196Y418794D01*
X590077Y418750D01*
X589988Y418720D01*
X589929Y418690D01*
X589899D01*
X589737Y418661D01*
X589544Y418646D01*
X589337Y418616D01*
X589129D01*
X588937Y418601D01*
X587116D01*
Y425384D01*
X588463D01*
X588656Y425369D01*
D02*
G37*
%LPC*%
G36*
X535701Y425208D02*
X535620Y425150D01*
X535609Y417268D01*
X535632Y417199D01*
X535609Y417130D01*
X535632Y416852D01*
X535736Y416817D01*
X535852Y416887D01*
X535921Y417002D01*
X535968Y417025D01*
X536222Y417280D01*
X536269Y417303D01*
X536454Y417488D01*
X536500Y417512D01*
X536558Y417569D01*
X536581Y417616D01*
X536639Y417674D01*
X536685Y417697D01*
X536766Y417778D01*
X536789Y417824D01*
X536870Y417905D01*
X536917Y417928D01*
X537044Y418032D01*
X537067Y418079D01*
X537102Y418113D01*
X537148Y418137D01*
X537333Y418322D01*
X537380Y418345D01*
X537507Y418472D01*
X537530Y418518D01*
X537669Y418634D01*
X537843Y418808D01*
X537889Y418831D01*
X538097Y419039D01*
X538144Y419062D01*
X538583Y419502D01*
X538630Y419525D01*
X538861Y419757D01*
X538907Y419780D01*
X538942Y419815D01*
X538965Y419861D01*
X539023Y419919D01*
X539069Y419942D01*
X539347Y420220D01*
X539382Y420232D01*
X539405Y420278D01*
X539509Y420382D01*
X539556Y420405D01*
X539764Y420613D01*
X539810Y420637D01*
X539845Y420671D01*
X539868Y420718D01*
X539972Y420822D01*
X540019Y420845D01*
X540099Y420926D01*
X540123Y420972D01*
X540181Y421030D01*
X540227Y421053D01*
X540331Y421134D01*
X540354Y421181D01*
X540412Y421238D01*
X540458Y421262D01*
X540620Y421424D01*
X540667Y421447D01*
X540748Y421505D01*
X540771Y421597D01*
X540748Y421736D01*
X540690Y421794D01*
X540644Y421817D01*
X540597Y421863D01*
X540343Y422002D01*
X540227Y422118D01*
X540065Y422211D01*
X539995Y422280D01*
X539949Y422303D01*
X539903Y422350D01*
X539695Y422465D01*
X539625Y422535D01*
X539417Y422650D01*
X539301Y422766D01*
X539093Y422882D01*
X539000Y422975D01*
X538745Y423113D01*
X538653Y423206D01*
X538444Y423322D01*
X538329Y423438D01*
X538213Y423484D01*
X538167Y423507D01*
X538028Y423646D01*
X537819Y423762D01*
X537773Y423808D01*
X537727Y423831D01*
X537657Y423900D01*
X537495Y423993D01*
X537426Y424062D01*
X537403D01*
X537391Y424074D01*
X537356Y424109D01*
X537148Y424225D01*
X537056Y424317D01*
X536801Y424456D01*
X536708Y424549D01*
X536500Y424664D01*
X536465Y424699D01*
X536454Y424734D01*
X536407Y424757D01*
X536245Y424850D01*
X536118Y424954D01*
X535921Y425081D01*
X535806Y425197D01*
X535701Y425208D01*
D02*
G37*
G36*
X535713Y407627D02*
X535632Y407593D01*
X535609Y407500D01*
X535620Y399641D01*
X535609Y399375D01*
X535644Y399317D01*
X535736Y399294D01*
X535829Y399317D01*
X535991Y399479D01*
X536106Y399525D01*
X536234Y399630D01*
X536269Y399664D01*
X536477Y399780D01*
X536569Y399873D01*
X536616Y399896D01*
X536778Y399988D01*
X536870Y400081D01*
X536917Y400104D01*
X537125Y400220D01*
X537241Y400336D01*
X537495Y400475D01*
X537565Y400544D01*
X537611Y400567D01*
X537773Y400660D01*
X537912Y400799D01*
X538120Y400914D01*
X538190Y400984D01*
X538236Y401007D01*
X538444Y401123D01*
X538560Y401238D01*
X538803Y401366D01*
X538815Y401400D01*
X538861Y401424D01*
X539023Y401516D01*
X539127Y401597D01*
X539139Y401609D01*
X539208Y401678D01*
X539417Y401794D01*
X539509Y401887D01*
X539764Y402025D01*
X539856Y402118D01*
X540065Y402234D01*
X540181Y402350D01*
X540389Y402465D01*
X540458Y402535D01*
X540713Y402674D01*
X540748Y402755D01*
X540655Y402917D01*
X540551Y403021D01*
X540505Y403044D01*
X540227Y403322D01*
X540181Y403345D01*
X540123Y403426D01*
X540065Y403484D01*
X540019Y403507D01*
X539868Y403657D01*
X539856Y403692D01*
X539810Y403715D01*
X539556Y403970D01*
X539509Y403993D01*
X539474Y404028D01*
X539451Y404074D01*
X539394Y404132D01*
X539347Y404155D01*
X539243Y404236D01*
X539220Y404282D01*
X539069Y404433D01*
X539023Y404456D01*
X538965Y404537D01*
X538884Y404618D01*
X538838Y404641D01*
X538803Y404676D01*
X538780Y404722D01*
X538722Y404780D01*
X538676Y404803D01*
X538468Y405012D01*
X538421Y405035D01*
X538340Y405093D01*
X538317Y405139D01*
X538213Y405266D01*
X538167Y405289D01*
X538086Y405370D01*
X538063Y405417D01*
X538028Y405451D01*
X537981Y405475D01*
X537773Y405683D01*
X537727Y405706D01*
X537646Y405787D01*
X537623Y405833D01*
X537542Y405914D01*
X537495Y405938D01*
X537391Y406042D01*
X537368Y406088D01*
X537333Y406123D01*
X537287Y406146D01*
X537079Y406354D01*
X537032Y406377D01*
X536998Y406412D01*
X536974Y406458D01*
X536847Y406586D01*
X536801Y406609D01*
X536743Y406667D01*
X536720Y406713D01*
X536662Y406771D01*
X536616Y406794D01*
X536488Y406921D01*
X536477Y406956D01*
X536431Y406979D01*
X536361Y407049D01*
X536315Y407072D01*
X536257Y407153D01*
X536199Y407211D01*
X536153Y407234D01*
X535979Y407407D01*
X535956Y407454D01*
X535910Y407477D01*
X535887Y407523D01*
X535806Y407604D01*
X535713Y407627D01*
D02*
G37*
G36*
X169965Y14250D02*
X169854D01*
X169780Y14231D01*
X169577Y14194D01*
X169336Y14138D01*
X169058Y14027D01*
X168762Y13861D01*
X168614Y13750D01*
X168466Y13638D01*
X168336Y13490D01*
X168206Y13324D01*
Y13305D01*
X168169Y13268D01*
X168132Y13194D01*
X168077Y13101D01*
X168021Y12953D01*
X167947Y12787D01*
X167892Y12583D01*
X167817Y12342D01*
X167743Y12064D01*
X167669Y11750D01*
X167595Y11398D01*
X167540Y11009D01*
X167484Y10565D01*
X167447Y10083D01*
X167429Y9565D01*
X167410Y8991D01*
Y8954D01*
Y8861D01*
Y8694D01*
X167429Y8472D01*
Y8232D01*
X167447Y7935D01*
X167466Y7620D01*
X167503Y7287D01*
X167595Y6565D01*
X167651Y6213D01*
X167725Y5880D01*
X167799Y5565D01*
X167910Y5269D01*
X168021Y5010D01*
X168151Y4787D01*
Y4769D01*
X168188Y4750D01*
X168280Y4621D01*
X168447Y4454D01*
X168651Y4269D01*
X168929Y4084D01*
X169243Y3917D01*
X169595Y3788D01*
X169780Y3769D01*
X169984Y3751D01*
X170095D01*
X170169Y3769D01*
X170354Y3806D01*
X170613Y3880D01*
X170891Y4010D01*
X171206Y4195D01*
X171354Y4306D01*
X171502Y4454D01*
X171651Y4602D01*
X171799Y4787D01*
Y4806D01*
X171836Y4843D01*
X171873Y4899D01*
X171910Y4991D01*
X171984Y5121D01*
X172039Y5287D01*
X172113Y5473D01*
X172187Y5695D01*
X172243Y5972D01*
X172317Y6269D01*
X172391Y6621D01*
X172447Y6991D01*
X172484Y7435D01*
X172521Y7898D01*
X172558Y8417D01*
Y8991D01*
Y9009D01*
Y9028D01*
Y9120D01*
Y9287D01*
X172539Y9509D01*
Y9750D01*
X172521Y10046D01*
X172502Y10361D01*
X172465Y10713D01*
X172373Y11416D01*
X172317Y11768D01*
X172243Y12102D01*
X172169Y12416D01*
X172058Y12713D01*
X171947Y12972D01*
X171817Y13194D01*
Y13212D01*
X171780Y13231D01*
X171743Y13287D01*
X171688Y13361D01*
X171521Y13527D01*
X171317Y13731D01*
X171039Y13916D01*
X170725Y14083D01*
X170558Y14157D01*
X170373Y14212D01*
X170169Y14231D01*
X169965Y14250D01*
D02*
G37*
%LPD*%
D11*
X293000Y42000D02*
X302000D01*
X293000D02*
Y55000D01*
X316000Y42000D02*
X325000D01*
Y55000D01*
X234000Y42000D02*
Y55000D01*
X225000Y42000D02*
X234000D01*
X202000D02*
Y55000D01*
Y42000D02*
X211000D01*
X455000Y416000D02*
Y426000D01*
X395000D02*
X455000D01*
X395000Y416000D02*
Y426000D01*
Y416000D02*
X455000D01*
X459000Y403000D02*
Y439000D01*
X391000Y403000D02*
Y439000D01*
X56000Y329000D02*
X64000Y334000D01*
X56000Y329000D02*
X64000Y324000D01*
Y334000D01*
X-35000Y366000D02*
X57000D01*
X57000Y339000D02*
X57000Y366000D01*
Y88000D02*
Y319000D01*
X-35000Y88000D02*
X57000D01*
X619000Y78250D02*
Y88250D01*
X627000Y83250D01*
X619000Y78250D02*
X627000Y83250D01*
X626000Y72000D02*
Y77000D01*
Y72000D02*
X684000D01*
X626000Y278000D02*
X684000Y278000D01*
X626000Y263000D02*
X626000Y278000D01*
X627000Y110000D02*
Y127000D01*
Y147500D02*
Y164500D01*
Y185500D02*
X627000Y202500D01*
X627000Y223500D02*
Y240500D01*
X580500Y203500D02*
X580500Y211500D01*
X572500Y203500D02*
X580500Y203500D01*
X527500Y203500D02*
X535500D01*
X527500Y211500D02*
X527500Y203500D01*
X527500Y248500D02*
X527500Y256500D01*
X535500D01*
X580500Y248500D02*
Y256500D01*
X572500Y256500D02*
X580500Y256500D01*
X535000Y61000D02*
X537000Y61000D01*
X537000Y39000D02*
X537000Y61000D01*
X535000Y39000D02*
X537000D01*
X503000D02*
X505000Y39000D01*
X503000Y39000D02*
Y61000D01*
X505000Y61000D01*
X166000Y338000D02*
X326000Y178000D01*
X136000Y338000D02*
X296000Y178000D01*
X126000Y318000D02*
X266000Y178000D01*
X126000Y288000D02*
X237100Y178000D01*
X126000Y258000D02*
X206000Y178000D01*
X126000Y228000D02*
X176000Y178000D01*
X126000Y198000D02*
X146000Y178000D01*
X196000Y338000D02*
X356000Y178000D01*
X226000Y338000D02*
X366000Y198000D01*
X254900Y338000D02*
X366000Y228000D01*
X286000Y338000D02*
X366000Y258000D01*
X316000Y338000D02*
X366000Y288000D01*
X346000Y338000D02*
X366000Y318000D01*
X113000Y81000D02*
Y91000D01*
X93000Y81000D02*
Y91000D01*
X35000Y65000D02*
X45000Y65000D01*
X35000Y85000D02*
X45000D01*
X113000Y147000D02*
Y157000D01*
X93000Y147000D02*
Y157000D01*
X82502Y177000D02*
X92502D01*
X82502Y197000D02*
X92502D01*
X391497Y348505D02*
X405498D01*
X391497Y366505D02*
X405497D01*
X485500Y156000D02*
X502500Y156000D01*
X485500Y84000D02*
Y156000D01*
Y84000D02*
X502500Y84000D01*
X532500Y84000D02*
X549500Y84000D01*
Y156000D01*
X532500Y156000D02*
X549500Y156000D01*
X424000Y341000D02*
X430000D01*
X424000Y335000D02*
Y341000D01*
X480000Y341000D02*
X486000Y341000D01*
Y335000D02*
Y341000D01*
Y279000D02*
Y285000D01*
X480000Y279000D02*
X486000Y279000D01*
X424000D02*
X430000D01*
X424000D02*
Y285000D01*
X395000Y170000D02*
X451625Y170000D01*
X395000Y146250D02*
X395000Y170000D01*
Y100000D02*
Y123750D01*
Y100000D02*
X451625Y100000D01*
X465000Y146250D02*
X465000Y156625D01*
X451625Y170000D02*
X465000Y156625D01*
X451625Y100000D02*
X465000Y113375D01*
Y123750D01*
X405000Y175000D02*
X415000D01*
X405000Y195000D02*
X415000D01*
X496502Y55000D02*
X496503Y45000D01*
X476502D02*
Y55000D01*
X390000Y85000D02*
X446625Y85000D01*
X390000Y85000D02*
X390000Y61250D01*
X390000Y38750D02*
X390000Y15000D01*
X446625Y15000D01*
X460000Y61250D02*
X460000Y71625D01*
X446625Y85000D02*
X460000Y71625D01*
X446625Y15000D02*
X460000Y28375D01*
X460000Y38750D01*
X580594Y341523D02*
X583423Y338695D01*
X592615Y347887D01*
X570695Y351423D02*
X573523Y348594D01*
X570695Y351423D02*
X579887Y360615D01*
X643527Y398799D02*
X651305Y406577D01*
X638577Y419305D02*
X651305Y406577D01*
X630799Y411527D02*
X638577Y419305D01*
X459000Y450000D02*
X469000D01*
X464000Y443000D02*
X469000Y450000D01*
X459000D02*
X464000Y443000D01*
X263500Y0D02*
Y43500D01*
X374335Y411670D02*
X372002Y409337D01*
Y404672D01*
X374335Y402339D01*
X376667D01*
X379000Y404672D01*
Y409337D01*
X381333Y411670D01*
X383665D01*
X385998Y409337D01*
Y404672D01*
X383665Y402339D01*
X372002Y416335D02*
X385998D01*
X381333Y421000D01*
X385998Y425665D01*
X372002D01*
Y430330D02*
X385998D01*
Y437328D01*
X383665Y439661D01*
X374335D01*
X372002Y437328D01*
Y430330D01*
D13*
X326200Y66000D02*
G03*
X326200Y66000I-1200J0D01*
G01*
X235200D02*
G03*
X235200Y66000I-1200J0D01*
G01*
D14*
X116548Y36710D02*
G03*
X92210Y61048I-29548J-5210D01*
G01*
X81790D02*
G03*
X57452Y36710I5210J-29548D01*
G01*
X57221Y26659D02*
G03*
X81559Y2321I29548J5210D01*
G01*
X91917Y1958D02*
G03*
X116256Y26297I-5210J29548D01*
G01*
X91917Y391959D02*
G03*
X116256Y416297I-5210J29548D01*
G01*
X57221Y416659D02*
G03*
X81559Y392321I29548J5210D01*
G01*
X81790Y451048D02*
G03*
X57452Y426710I5210J-29548D01*
G01*
X116548D02*
G03*
X92210Y451048I-29548J-5210D01*
G01*
X591917Y1958D02*
G03*
X616256Y26297I-5210J29548D01*
G01*
X557221Y26659D02*
G03*
X581559Y2321I29548J5210D01*
G01*
X581790Y61048D02*
G03*
X557452Y36710I5210J-29548D01*
G01*
X616548D02*
G03*
X592210Y61048I-29548J-5210D01*
G01*
D16*
X587500Y205000D02*
G03*
X587500Y205000I-1500J0D01*
G01*
X536500Y71000D02*
G03*
X536500Y71000I-1500J0D01*
G01*
X420500Y339000D02*
G03*
X420500Y339000I-1500J0D01*
G01*
X577145Y343645D02*
G03*
X577145Y343645I-1500J0D01*
G01*
X124000Y338000D02*
Y446000D01*
X368000D01*
Y354000D02*
Y446000D01*
Y70000D02*
Y178000D01*
X124000Y70000D02*
X368000D01*
X124000D02*
Y178000D01*
D70*
X220051Y13999D02*
Y4001D01*
X226716Y13999D02*
Y4001D01*
X220051Y9238D02*
X226716D01*
X235667Y13999D02*
X229478D01*
Y4001D01*
X235667D01*
X229478Y9238D02*
X233286D01*
X244951Y4001D02*
X241142Y13999D01*
X237333Y4001D01*
X238762Y7334D02*
X243522D01*
X250616Y13999D02*
Y4001D01*
X247283Y13999D02*
X253949D01*
X272766Y9762D02*
X277050D01*
X278479Y10238D01*
X278955Y10714D01*
X279431Y11666D01*
Y13095D01*
X278955Y14047D01*
X278479Y14523D01*
X277050Y14999D01*
X272766D01*
Y5001D01*
X281669Y14999D02*
Y7858D01*
X282145Y6429D01*
X283097Y5477D01*
X284525Y5001D01*
X285477D01*
X286905Y5477D01*
X287858Y6429D01*
X288334Y7858D01*
Y14999D01*
X291095D02*
Y5001D01*
Y14999D02*
X294904Y5001D01*
X298713Y14999D02*
X294904Y5001D01*
X298713Y14999D02*
Y5001D01*
X301569Y9762D02*
X305854D01*
X307282Y10238D01*
X307758Y10714D01*
X308234Y11666D01*
Y13095D01*
X307758Y14047D01*
X307282Y14523D01*
X305854Y14999D01*
X301569D01*
Y5001D01*
D71*
X373000Y257498D02*
Y249000D01*
Y257498D02*
X376642D01*
X377856Y257094D01*
X378261Y256689D01*
X378666Y255879D01*
Y255070D01*
X378261Y254261D01*
X377856Y253856D01*
X376642Y253451D01*
X373000D01*
X375833D02*
X378666Y249000D01*
X384614Y257498D02*
X380567Y251833D01*
X386638D01*
X384614Y257498D02*
Y249000D01*
X390563Y257498D02*
X389349Y257094D01*
X388540Y255879D01*
X388135Y253856D01*
Y252642D01*
X388540Y250619D01*
X389349Y249405D01*
X390563Y249000D01*
X391372D01*
X392586Y249405D01*
X393396Y250619D01*
X393800Y252642D01*
Y253856D01*
X393396Y255879D01*
X392586Y257094D01*
X391372Y257498D01*
X390563D01*
X396107Y255475D02*
Y255879D01*
X396512Y256689D01*
X396916Y257094D01*
X397726Y257498D01*
X399344D01*
X400154Y257094D01*
X400558Y256689D01*
X400963Y255879D01*
Y255070D01*
X400558Y254261D01*
X399749Y253047D01*
X395702Y249000D01*
X401368D01*
X373000Y269998D02*
Y261500D01*
Y269998D02*
X376642D01*
X377856Y269594D01*
X378261Y269189D01*
X378666Y268379D01*
Y267570D01*
X378261Y266761D01*
X377856Y266356D01*
X376642Y265951D01*
X373000D01*
X375833D02*
X378666Y261500D01*
X384614Y269998D02*
X380567Y264333D01*
X386638D01*
X384614Y269998D02*
Y261500D01*
X390563Y269998D02*
X389349Y269594D01*
X388540Y268379D01*
X388135Y266356D01*
Y265142D01*
X388540Y263119D01*
X389349Y261905D01*
X390563Y261500D01*
X391372D01*
X392586Y261905D01*
X393396Y263119D01*
X393800Y265142D01*
Y266356D01*
X393396Y268379D01*
X392586Y269594D01*
X391372Y269998D01*
X390563D01*
X395702Y268379D02*
X396512Y268784D01*
X397726Y269998D01*
Y261500D01*
X260428Y66498D02*
X259619Y66094D01*
X258809Y65284D01*
X258405Y64475D01*
X258000Y63261D01*
Y61237D01*
X258405Y60023D01*
X258809Y59214D01*
X259619Y58405D01*
X260428Y58000D01*
X262047D01*
X262856Y58405D01*
X263666Y59214D01*
X264070Y60023D01*
X264475Y61237D01*
Y63261D01*
X264070Y64475D01*
X263666Y65284D01*
X262856Y66094D01*
X262047Y66498D01*
X260428D01*
X261642Y59619D02*
X264070Y57191D01*
X267267Y66498D02*
X271719D01*
X269290Y63261D01*
X270504D01*
X271314Y62856D01*
X271719Y62451D01*
X272123Y61237D01*
Y60428D01*
X271719Y59214D01*
X270909Y58405D01*
X269695Y58000D01*
X268481D01*
X267267Y58405D01*
X266862Y58809D01*
X266458Y59619D01*
X276453Y66498D02*
X275239Y66094D01*
X274430Y64879D01*
X274025Y62856D01*
Y61642D01*
X274430Y59619D01*
X275239Y58405D01*
X276453Y58000D01*
X277262D01*
X278477Y58405D01*
X279286Y59619D01*
X279691Y61642D01*
Y62856D01*
X279286Y64879D01*
X278477Y66094D01*
X277262Y66498D01*
X276453D01*
X282402D02*
X286853D01*
X284425Y63261D01*
X285639D01*
X286449Y62856D01*
X286853Y62451D01*
X287258Y61237D01*
Y60428D01*
X286853Y59214D01*
X286044Y58405D01*
X284830Y58000D01*
X283616D01*
X282402Y58405D01*
X281997Y58809D01*
X281593Y59619D01*
X171428Y66498D02*
X170619Y66094D01*
X169809Y65284D01*
X169405Y64475D01*
X169000Y63261D01*
Y61237D01*
X169405Y60023D01*
X169809Y59214D01*
X170619Y58405D01*
X171428Y58000D01*
X173047D01*
X173856Y58405D01*
X174666Y59214D01*
X175070Y60023D01*
X175475Y61237D01*
Y63261D01*
X175070Y64475D01*
X174666Y65284D01*
X173856Y66094D01*
X173047Y66498D01*
X171428D01*
X172642Y59619D02*
X175070Y57191D01*
X178267Y66498D02*
X182719D01*
X180290Y63261D01*
X181504D01*
X182314Y62856D01*
X182719Y62451D01*
X183123Y61237D01*
Y60428D01*
X182719Y59214D01*
X181909Y58405D01*
X180695Y58000D01*
X179481D01*
X178267Y58405D01*
X177862Y58809D01*
X177458Y59619D01*
X187453Y66498D02*
X186239Y66094D01*
X185430Y64879D01*
X185025Y62856D01*
Y61642D01*
X185430Y59619D01*
X186239Y58405D01*
X187453Y58000D01*
X188263D01*
X189477Y58405D01*
X190286Y59619D01*
X190691Y61642D01*
Y62856D01*
X190286Y64879D01*
X189477Y66094D01*
X188263Y66498D01*
X187453D01*
X192997Y64475D02*
Y64879D01*
X193402Y65689D01*
X193807Y66094D01*
X194616Y66498D01*
X196235D01*
X197044Y66094D01*
X197449Y65689D01*
X197853Y64879D01*
Y64070D01*
X197449Y63261D01*
X196639Y62047D01*
X192593Y58000D01*
X198258D01*
X20000Y379498D02*
X25666Y371000D01*
Y379498D02*
X20000Y371000D01*
X27567Y377879D02*
X28377Y378284D01*
X29591Y379498D01*
Y371000D01*
X36228Y379498D02*
X35013Y379094D01*
X34204Y377879D01*
X33799Y375856D01*
Y374642D01*
X34204Y372619D01*
X35013Y371405D01*
X36228Y371000D01*
X37037D01*
X38251Y371405D01*
X39060Y372619D01*
X39465Y374642D01*
Y375856D01*
X39060Y377879D01*
X38251Y379094D01*
X37037Y379498D01*
X36228D01*
X41367Y377879D02*
X42176Y378284D01*
X43390Y379498D01*
Y371000D01*
X632000Y64998D02*
X637665Y56500D01*
Y64998D02*
X632000Y56500D01*
X639567Y63380D02*
X640377Y63784D01*
X641591Y64998D01*
Y56500D01*
X648227Y64998D02*
X647013Y64594D01*
X646204Y63380D01*
X645799Y61356D01*
Y60142D01*
X646204Y58119D01*
X647013Y56905D01*
X648227Y56500D01*
X649037D01*
X650251Y56905D01*
X651060Y58119D01*
X651465Y60142D01*
Y61356D01*
X651060Y63380D01*
X650251Y64594D01*
X649037Y64998D01*
X648227D01*
X655795D02*
X654581Y64594D01*
X653772Y63380D01*
X653367Y61356D01*
Y60142D01*
X653772Y58119D01*
X654581Y56905D01*
X655795Y56500D01*
X656604D01*
X657818Y56905D01*
X658628Y58119D01*
X659032Y60142D01*
Y61356D01*
X658628Y63380D01*
X657818Y64594D01*
X656604Y64998D01*
X655795D01*
X539500Y190498D02*
Y184428D01*
X539905Y183214D01*
X540714Y182405D01*
X541928Y182000D01*
X542737D01*
X543951Y182405D01*
X544761Y183214D01*
X545165Y184428D01*
Y190498D01*
X552369D02*
X548322D01*
X547917Y186856D01*
X548322Y187261D01*
X549536Y187666D01*
X550750D01*
X551964Y187261D01*
X552773Y186451D01*
X553178Y185237D01*
Y184428D01*
X552773Y183214D01*
X551964Y182405D01*
X550750Y182000D01*
X549536D01*
X548322Y182405D01*
X547917Y182809D01*
X547513Y183619D01*
X557508Y190498D02*
X556294Y190093D01*
X555485Y188880D01*
X555080Y186856D01*
Y185642D01*
X555485Y183619D01*
X556294Y182405D01*
X557508Y182000D01*
X558317D01*
X559531Y182405D01*
X560341Y183619D01*
X560746Y185642D01*
Y186856D01*
X560341Y188880D01*
X559531Y190093D01*
X558317Y190498D01*
X557508D01*
X565075D02*
X563861Y190093D01*
X563052Y188880D01*
X562647Y186856D01*
Y185642D01*
X563052Y183619D01*
X563861Y182405D01*
X565075Y182000D01*
X565885D01*
X567099Y182405D01*
X567908Y183619D01*
X568313Y185642D01*
Y186856D01*
X567908Y188880D01*
X567099Y190093D01*
X565885Y190498D01*
X565075D01*
X498000Y78498D02*
Y72428D01*
X498405Y71214D01*
X499214Y70405D01*
X500428Y70000D01*
X501237D01*
X502451Y70405D01*
X503261Y71214D01*
X503666Y72428D01*
Y78498D01*
X506013Y76880D02*
X506822Y77284D01*
X508036Y78498D01*
Y70000D01*
X514673Y78498D02*
X513459Y78094D01*
X512649Y76880D01*
X512245Y74856D01*
Y73642D01*
X512649Y71619D01*
X513459Y70405D01*
X514673Y70000D01*
X515482D01*
X516696Y70405D01*
X517505Y71619D01*
X517910Y73642D01*
Y74856D01*
X517505Y76880D01*
X516696Y78094D01*
X515482Y78498D01*
X514673D01*
X519812Y76880D02*
X520621Y77284D01*
X521835Y78498D01*
Y70000D01*
X129000Y441498D02*
Y435428D01*
X129405Y434214D01*
X130214Y433405D01*
X131428Y433000D01*
X132237D01*
X133451Y433405D01*
X134261Y434214D01*
X134665Y435428D01*
Y441498D01*
X137013Y439879D02*
X137822Y440284D01*
X139036Y441498D01*
Y433000D01*
X145673Y441498D02*
X144459Y441093D01*
X143649Y439879D01*
X143245Y437856D01*
Y436642D01*
X143649Y434619D01*
X144459Y433405D01*
X145673Y433000D01*
X146482D01*
X147696Y433405D01*
X148505Y434619D01*
X148910Y436642D01*
Y437856D01*
X148505Y439879D01*
X147696Y441093D01*
X146482Y441498D01*
X145673D01*
X153240D02*
X152026Y441093D01*
X151217Y439879D01*
X150812Y437856D01*
Y436642D01*
X151217Y434619D01*
X152026Y433405D01*
X153240Y433000D01*
X154049D01*
X155263Y433405D01*
X156073Y434619D01*
X156477Y436642D01*
Y437856D01*
X156073Y439879D01*
X155263Y441093D01*
X154049Y441498D01*
X153240D01*
X453000Y202498D02*
Y194000D01*
Y202498D02*
X456642D01*
X457856Y202094D01*
X458261Y201689D01*
X458666Y200879D01*
Y200070D01*
X458261Y199261D01*
X457856Y198856D01*
X456642Y198451D01*
X453000D01*
X455833D02*
X458666Y194000D01*
X465424Y202498D02*
X461377D01*
X460972Y198856D01*
X461377Y199261D01*
X462591Y199666D01*
X463805D01*
X465019Y199261D01*
X465828Y198451D01*
X466233Y197237D01*
Y196428D01*
X465828Y195214D01*
X465019Y194405D01*
X463805Y194000D01*
X462591D01*
X461377Y194405D01*
X460972Y194809D01*
X460567Y195619D01*
X470563Y202498D02*
X469349Y202094D01*
X468540Y200879D01*
X468135Y198856D01*
Y197642D01*
X468540Y195619D01*
X469349Y194405D01*
X470563Y194000D01*
X471372D01*
X472586Y194405D01*
X473396Y195619D01*
X473800Y197642D01*
Y198856D01*
X473396Y200879D01*
X472586Y202094D01*
X471372Y202498D01*
X470563D01*
X481368D02*
X477321Y194000D01*
X475702Y202498D02*
X481368D01*
X453000Y216498D02*
Y208000D01*
Y216498D02*
X456642D01*
X457856Y216094D01*
X458261Y215689D01*
X458666Y214879D01*
Y214070D01*
X458261Y213261D01*
X457856Y212856D01*
X456642Y212451D01*
X453000D01*
X455833D02*
X458666Y208000D01*
X465424Y216498D02*
X461377D01*
X460972Y212856D01*
X461377Y213261D01*
X462591Y213666D01*
X463805D01*
X465019Y213261D01*
X465828Y212451D01*
X466233Y211237D01*
Y210428D01*
X465828Y209214D01*
X465019Y208405D01*
X463805Y208000D01*
X462591D01*
X461377Y208405D01*
X460972Y208809D01*
X460567Y209619D01*
X470563Y216498D02*
X469349Y216094D01*
X468540Y214879D01*
X468135Y212856D01*
Y211642D01*
X468540Y209619D01*
X469349Y208405D01*
X470563Y208000D01*
X471372D01*
X472586Y208405D01*
X473396Y209619D01*
X473800Y211642D01*
Y212856D01*
X473396Y214879D01*
X472586Y216094D01*
X471372Y216498D01*
X470563D01*
X480558Y215284D02*
X480154Y216094D01*
X478940Y216498D01*
X478130D01*
X476916Y216094D01*
X476107Y214879D01*
X475702Y212856D01*
Y210833D01*
X476107Y209214D01*
X476916Y208405D01*
X478130Y208000D01*
X478535D01*
X479749Y208405D01*
X480558Y209214D01*
X480963Y210428D01*
Y210833D01*
X480558Y212047D01*
X479749Y212856D01*
X478535Y213261D01*
X478130D01*
X476916Y212856D01*
X476107Y212047D01*
X475702Y210833D01*
X453000Y229498D02*
Y221000D01*
Y229498D02*
X456642D01*
X457856Y229093D01*
X458261Y228689D01*
X458666Y227880D01*
Y227070D01*
X458261Y226261D01*
X457856Y225856D01*
X456642Y225451D01*
X453000D01*
X455833D02*
X458666Y221000D01*
X465424Y229498D02*
X461377D01*
X460972Y225856D01*
X461377Y226261D01*
X462591Y226665D01*
X463805D01*
X465019Y226261D01*
X465828Y225451D01*
X466233Y224237D01*
Y223428D01*
X465828Y222214D01*
X465019Y221405D01*
X463805Y221000D01*
X462591D01*
X461377Y221405D01*
X460972Y221809D01*
X460567Y222619D01*
X470563Y229498D02*
X469349Y229093D01*
X468540Y227880D01*
X468135Y225856D01*
Y224642D01*
X468540Y222619D01*
X469349Y221405D01*
X470563Y221000D01*
X471372D01*
X472586Y221405D01*
X473396Y222619D01*
X473800Y224642D01*
Y225856D01*
X473396Y227880D01*
X472586Y229093D01*
X471372Y229498D01*
X470563D01*
X480558D02*
X476512D01*
X476107Y225856D01*
X476512Y226261D01*
X477726Y226665D01*
X478940D01*
X480154Y226261D01*
X480963Y225451D01*
X481368Y224237D01*
Y223428D01*
X480963Y222214D01*
X480154Y221405D01*
X478940Y221000D01*
X477726D01*
X476512Y221405D01*
X476107Y221809D01*
X475702Y222619D01*
X453000Y242498D02*
Y234000D01*
Y242498D02*
X456642D01*
X457856Y242094D01*
X458261Y241689D01*
X458666Y240879D01*
Y240070D01*
X458261Y239261D01*
X457856Y238856D01*
X456642Y238451D01*
X453000D01*
X455833D02*
X458666Y234000D01*
X465424Y242498D02*
X461377D01*
X460972Y238856D01*
X461377Y239261D01*
X462591Y239666D01*
X463805D01*
X465019Y239261D01*
X465828Y238451D01*
X466233Y237237D01*
Y236428D01*
X465828Y235214D01*
X465019Y234405D01*
X463805Y234000D01*
X462591D01*
X461377Y234405D01*
X460972Y234809D01*
X460567Y235619D01*
X470563Y242498D02*
X469349Y242094D01*
X468540Y240879D01*
X468135Y238856D01*
Y237642D01*
X468540Y235619D01*
X469349Y234405D01*
X470563Y234000D01*
X471372D01*
X472586Y234405D01*
X473396Y235619D01*
X473800Y237642D01*
Y238856D01*
X473396Y240879D01*
X472586Y242094D01*
X471372Y242498D01*
X470563D01*
X479749D02*
X475702Y236833D01*
X481772D01*
X479749Y242498D02*
Y234000D01*
X591000Y272498D02*
Y264000D01*
Y272498D02*
X594642D01*
X595856Y272094D01*
X596261Y271689D01*
X596665Y270879D01*
Y270070D01*
X596261Y269261D01*
X595856Y268856D01*
X594642Y268451D01*
X591000D01*
X593833D02*
X596665Y264000D01*
X603424Y272498D02*
X599377D01*
X598972Y268856D01*
X599377Y269261D01*
X600591Y269666D01*
X601805D01*
X603019Y269261D01*
X603828Y268451D01*
X604233Y267237D01*
Y266428D01*
X603828Y265214D01*
X603019Y264405D01*
X601805Y264000D01*
X600591D01*
X599377Y264405D01*
X598972Y264809D01*
X598567Y265619D01*
X608563Y272498D02*
X607349Y272094D01*
X606539Y270879D01*
X606135Y268856D01*
Y267642D01*
X606539Y265619D01*
X607349Y264405D01*
X608563Y264000D01*
X609372D01*
X610586Y264405D01*
X611396Y265619D01*
X611800Y267642D01*
Y268856D01*
X611396Y270879D01*
X610586Y272094D01*
X609372Y272498D01*
X608563D01*
X614512D02*
X618963D01*
X616535Y269261D01*
X617749D01*
X618558Y268856D01*
X618963Y268451D01*
X619368Y267237D01*
Y266428D01*
X618963Y265214D01*
X618154Y264405D01*
X616940Y264000D01*
X615726D01*
X614512Y264405D01*
X614107Y264809D01*
X613702Y265619D01*
X591000Y196498D02*
Y188000D01*
Y196498D02*
X594642D01*
X595856Y196094D01*
X596261Y195689D01*
X596665Y194879D01*
Y194070D01*
X596261Y193261D01*
X595856Y192856D01*
X594642Y192451D01*
X591000D01*
X593833D02*
X596665Y188000D01*
X603424Y196498D02*
X599377D01*
X598972Y192856D01*
X599377Y193261D01*
X600591Y193666D01*
X601805D01*
X603019Y193261D01*
X603828Y192451D01*
X604233Y191237D01*
Y190428D01*
X603828Y189214D01*
X603019Y188405D01*
X601805Y188000D01*
X600591D01*
X599377Y188405D01*
X598972Y188809D01*
X598567Y189619D01*
X608563Y196498D02*
X607349Y196094D01*
X606539Y194879D01*
X606135Y192856D01*
Y191642D01*
X606539Y189619D01*
X607349Y188405D01*
X608563Y188000D01*
X609372D01*
X610586Y188405D01*
X611396Y189619D01*
X611800Y191642D01*
Y192856D01*
X611396Y194879D01*
X610586Y196094D01*
X609372Y196498D01*
X608563D01*
X614107Y194475D02*
Y194879D01*
X614512Y195689D01*
X614916Y196094D01*
X615726Y196498D01*
X617344D01*
X618154Y196094D01*
X618558Y195689D01*
X618963Y194879D01*
Y194070D01*
X618558Y193261D01*
X617749Y192047D01*
X613702Y188000D01*
X619368D01*
X466000Y406498D02*
Y398000D01*
Y406498D02*
X469642D01*
X470856Y406093D01*
X471261Y405689D01*
X471665Y404879D01*
Y404070D01*
X471261Y403261D01*
X470856Y402856D01*
X469642Y402451D01*
X466000D01*
X468833D02*
X471665Y398000D01*
X477614Y406498D02*
X473567Y400833D01*
X479638D01*
X477614Y406498D02*
Y398000D01*
X483563Y406498D02*
X482349Y406093D01*
X481539Y404879D01*
X481135Y402856D01*
Y401642D01*
X481539Y399619D01*
X482349Y398405D01*
X483563Y398000D01*
X484372D01*
X485586Y398405D01*
X486396Y399619D01*
X486800Y401642D01*
Y402856D01*
X486396Y404879D01*
X485586Y406093D01*
X484372Y406498D01*
X483563D01*
X490726D02*
X489512Y406093D01*
X489107Y405284D01*
Y404475D01*
X489512Y403666D01*
X490321Y403261D01*
X491940Y402856D01*
X493154Y402451D01*
X493963Y401642D01*
X494368Y400833D01*
Y399619D01*
X493963Y398809D01*
X493558Y398405D01*
X492344Y398000D01*
X490726D01*
X489512Y398405D01*
X489107Y398809D01*
X488702Y399619D01*
Y400833D01*
X489107Y401642D01*
X489916Y402451D01*
X491130Y402856D01*
X492749Y403261D01*
X493558Y403666D01*
X493963Y404475D01*
Y405284D01*
X493558Y406093D01*
X492344Y406498D01*
X490726D01*
X568000Y323498D02*
Y315000D01*
Y323498D02*
X571642D01*
X572856Y323093D01*
X573261Y322689D01*
X573666Y321880D01*
Y321070D01*
X573261Y320261D01*
X572856Y319856D01*
X571642Y319451D01*
X568000D01*
X570833D02*
X573666Y315000D01*
X579614Y323498D02*
X575567Y317833D01*
X581638D01*
X579614Y323498D02*
Y315000D01*
X585563Y323498D02*
X584349Y323093D01*
X583540Y321880D01*
X583135Y319856D01*
Y318642D01*
X583540Y316619D01*
X584349Y315405D01*
X585563Y315000D01*
X586372D01*
X587586Y315405D01*
X588396Y316619D01*
X588800Y318642D01*
Y319856D01*
X588396Y321880D01*
X587586Y323093D01*
X586372Y323498D01*
X585563D01*
X596368D02*
X592321Y315000D01*
X590702Y323498D02*
X596368D01*
X418500Y244498D02*
Y236000D01*
Y244498D02*
X422142D01*
X423356Y244093D01*
X423761Y243689D01*
X424165Y242880D01*
Y242070D01*
X423761Y241261D01*
X423356Y240856D01*
X422142Y240451D01*
X418500D01*
X421333D02*
X424165Y236000D01*
X430114Y244498D02*
X426067Y238833D01*
X432138D01*
X430114Y244498D02*
Y236000D01*
X436063Y244498D02*
X434849Y244093D01*
X434039Y242880D01*
X433635Y240856D01*
Y239642D01*
X434039Y237619D01*
X434849Y236405D01*
X436063Y236000D01*
X436872D01*
X438086Y236405D01*
X438896Y237619D01*
X439300Y239642D01*
Y240856D01*
X438896Y242880D01*
X438086Y244093D01*
X436872Y244498D01*
X436063D01*
X443630D02*
X442416Y244093D01*
X441607Y242880D01*
X441202Y240856D01*
Y239642D01*
X441607Y237619D01*
X442416Y236405D01*
X443630Y236000D01*
X444440D01*
X445654Y236405D01*
X446463Y237619D01*
X446868Y239642D01*
Y240856D01*
X446463Y242880D01*
X445654Y244093D01*
X444440Y244498D01*
X443630D01*
X169000Y53498D02*
Y45000D01*
Y53498D02*
X172642D01*
X173856Y53094D01*
X174261Y52689D01*
X174666Y51880D01*
Y51070D01*
X174261Y50261D01*
X173856Y49856D01*
X172642Y49451D01*
X169000D01*
X171833D02*
X174666Y45000D01*
X177377Y53498D02*
X181828D01*
X179400Y50261D01*
X180614D01*
X181423Y49856D01*
X181828Y49451D01*
X182233Y48237D01*
Y47428D01*
X181828Y46214D01*
X181019Y45405D01*
X179805Y45000D01*
X178591D01*
X177377Y45405D01*
X176972Y45809D01*
X176567Y46619D01*
X186563Y53498D02*
X185349Y53094D01*
X184540Y51880D01*
X184135Y49856D01*
Y48642D01*
X184540Y46619D01*
X185349Y45405D01*
X186563Y45000D01*
X187372D01*
X188586Y45405D01*
X189396Y46619D01*
X189800Y48642D01*
Y49856D01*
X189396Y51880D01*
X188586Y53094D01*
X187372Y53498D01*
X186563D01*
X192512D02*
X196963D01*
X194535Y50261D01*
X195749D01*
X196558Y49856D01*
X196963Y49451D01*
X197368Y48237D01*
Y47428D01*
X196963Y46214D01*
X196154Y45405D01*
X194940Y45000D01*
X193726D01*
X192512Y45405D01*
X192107Y45809D01*
X191702Y46619D01*
X259000Y54498D02*
Y46000D01*
Y54498D02*
X262642D01*
X263856Y54093D01*
X264261Y53689D01*
X264666Y52880D01*
Y52070D01*
X264261Y51261D01*
X263856Y50856D01*
X262642Y50451D01*
X259000D01*
X261833D02*
X264666Y46000D01*
X267377Y54498D02*
X271828D01*
X269400Y51261D01*
X270614D01*
X271423Y50856D01*
X271828Y50451D01*
X272233Y49237D01*
Y48428D01*
X271828Y47214D01*
X271019Y46405D01*
X269805Y46000D01*
X268591D01*
X267377Y46405D01*
X266972Y46809D01*
X266567Y47619D01*
X276563Y54498D02*
X275349Y54093D01*
X274540Y52880D01*
X274135Y50856D01*
Y49642D01*
X274540Y47619D01*
X275349Y46405D01*
X276563Y46000D01*
X277372D01*
X278586Y46405D01*
X279396Y47619D01*
X279800Y49642D01*
Y50856D01*
X279396Y52880D01*
X278586Y54093D01*
X277372Y54498D01*
X276563D01*
X282107Y52475D02*
Y52880D01*
X282512Y53689D01*
X282916Y54093D01*
X283726Y54498D01*
X285344D01*
X286154Y54093D01*
X286558Y53689D01*
X286963Y52880D01*
Y52070D01*
X286558Y51261D01*
X285749Y50047D01*
X281702Y46000D01*
X287368D01*
X586000Y155498D02*
Y147000D01*
Y155498D02*
X589642D01*
X590856Y155093D01*
X591261Y154689D01*
X591665Y153879D01*
Y153070D01*
X591261Y152261D01*
X590856Y151856D01*
X589642Y151451D01*
X586000D01*
X588833D02*
X591665Y147000D01*
X594377Y155498D02*
X598828D01*
X596400Y152261D01*
X597614D01*
X598424Y151856D01*
X598828Y151451D01*
X599233Y150237D01*
Y149428D01*
X598828Y148214D01*
X598019Y147405D01*
X596805Y147000D01*
X595591D01*
X594377Y147405D01*
X593972Y147809D01*
X593567Y148619D01*
X603563Y155498D02*
X602349Y155093D01*
X601539Y153879D01*
X601135Y151856D01*
Y150642D01*
X601539Y148619D01*
X602349Y147405D01*
X603563Y147000D01*
X604372D01*
X605586Y147405D01*
X606396Y148619D01*
X606800Y150642D01*
Y151856D01*
X606396Y153879D01*
X605586Y155093D01*
X604372Y155498D01*
X603563D01*
X608702Y153879D02*
X609512Y154284D01*
X610726Y155498D01*
Y147000D01*
X586000Y114498D02*
Y106000D01*
Y114498D02*
X589642D01*
X590856Y114094D01*
X591261Y113689D01*
X591665Y112879D01*
Y112070D01*
X591261Y111261D01*
X590856Y110856D01*
X589642Y110451D01*
X586000D01*
X588833D02*
X591665Y106000D01*
X594377Y114498D02*
X598828D01*
X596400Y111261D01*
X597614D01*
X598424Y110856D01*
X598828Y110451D01*
X599233Y109237D01*
Y108428D01*
X598828Y107214D01*
X598019Y106405D01*
X596805Y106000D01*
X595591D01*
X594377Y106405D01*
X593972Y106809D01*
X593567Y107619D01*
X603563Y114498D02*
X602349Y114094D01*
X601539Y112879D01*
X601135Y110856D01*
Y109642D01*
X601539Y107619D01*
X602349Y106405D01*
X603563Y106000D01*
X604372D01*
X605586Y106405D01*
X606396Y107619D01*
X606800Y109642D01*
Y110856D01*
X606396Y112879D01*
X605586Y114094D01*
X604372Y114498D01*
X603563D01*
X611130D02*
X609916Y114094D01*
X609107Y112879D01*
X608702Y110856D01*
Y109642D01*
X609107Y107619D01*
X609916Y106405D01*
X611130Y106000D01*
X611940D01*
X613154Y106405D01*
X613963Y107619D01*
X614368Y109642D01*
Y110856D01*
X613963Y112879D01*
X613154Y114094D01*
X611940Y114498D01*
X611130D01*
X86000Y116498D02*
Y108000D01*
Y116498D02*
X89642D01*
X90856Y116094D01*
X91261Y115689D01*
X91665Y114880D01*
Y114070D01*
X91261Y113261D01*
X90856Y112856D01*
X89642Y112451D01*
X86000D01*
X88833D02*
X91665Y108000D01*
X93972Y114475D02*
Y114880D01*
X94377Y115689D01*
X94781Y116094D01*
X95591Y116498D01*
X97210D01*
X98019Y116094D01*
X98424Y115689D01*
X98828Y114880D01*
Y114070D01*
X98424Y113261D01*
X97614Y112047D01*
X93567Y108000D01*
X99233D01*
X103563Y116498D02*
X102349Y116094D01*
X101539Y114880D01*
X101135Y112856D01*
Y111642D01*
X101539Y109619D01*
X102349Y108405D01*
X103563Y108000D01*
X104372D01*
X105586Y108405D01*
X106396Y109619D01*
X106800Y111642D01*
Y112856D01*
X106396Y114880D01*
X105586Y116094D01*
X104372Y116498D01*
X103563D01*
X114368D02*
X110321Y108000D01*
X108702Y116498D02*
X114368D01*
X22000Y61498D02*
Y53000D01*
Y61498D02*
X25642D01*
X26856Y61094D01*
X27261Y60689D01*
X27666Y59879D01*
Y59070D01*
X27261Y58261D01*
X26856Y57856D01*
X25642Y57451D01*
X22000D01*
X24833D02*
X27666Y53000D01*
X29972Y59475D02*
Y59879D01*
X30377Y60689D01*
X30781Y61094D01*
X31591Y61498D01*
X33210D01*
X34019Y61094D01*
X34423Y60689D01*
X34828Y59879D01*
Y59070D01*
X34423Y58261D01*
X33614Y57047D01*
X29567Y53000D01*
X35233D01*
X39563Y61498D02*
X38349Y61094D01*
X37540Y59879D01*
X37135Y57856D01*
Y56642D01*
X37540Y54619D01*
X38349Y53405D01*
X39563Y53000D01*
X40372D01*
X41586Y53405D01*
X42396Y54619D01*
X42800Y56642D01*
Y57856D01*
X42396Y59879D01*
X41586Y61094D01*
X40372Y61498D01*
X39563D01*
X49558Y60284D02*
X49154Y61094D01*
X47940Y61498D01*
X47130D01*
X45916Y61094D01*
X45107Y59879D01*
X44702Y57856D01*
Y55833D01*
X45107Y54214D01*
X45916Y53405D01*
X47130Y53000D01*
X47535D01*
X48749Y53405D01*
X49558Y54214D01*
X49963Y55428D01*
Y55833D01*
X49558Y57047D01*
X48749Y57856D01*
X47535Y58261D01*
X47130D01*
X45916Y57856D01*
X45107Y57047D01*
X44702Y55833D01*
X86000Y130498D02*
Y122000D01*
Y130498D02*
X89642D01*
X90856Y130093D01*
X91261Y129689D01*
X91665Y128879D01*
Y128070D01*
X91261Y127261D01*
X90856Y126856D01*
X89642Y126451D01*
X86000D01*
X88833D02*
X91665Y122000D01*
X93972Y128475D02*
Y128879D01*
X94377Y129689D01*
X94781Y130093D01*
X95591Y130498D01*
X97210D01*
X98019Y130093D01*
X98424Y129689D01*
X98828Y128879D01*
Y128070D01*
X98424Y127261D01*
X97614Y126047D01*
X93567Y122000D01*
X99233D01*
X103563Y130498D02*
X102349Y130093D01*
X101539Y128879D01*
X101135Y126856D01*
Y125642D01*
X101539Y123619D01*
X102349Y122405D01*
X103563Y122000D01*
X104372D01*
X105586Y122405D01*
X106396Y123619D01*
X106800Y125642D01*
Y126856D01*
X106396Y128879D01*
X105586Y130093D01*
X104372Y130498D01*
X103563D01*
X109107Y128475D02*
Y128879D01*
X109512Y129689D01*
X109916Y130093D01*
X110726Y130498D01*
X112344D01*
X113154Y130093D01*
X113558Y129689D01*
X113963Y128879D01*
Y128070D01*
X113558Y127261D01*
X112749Y126047D01*
X108702Y122000D01*
X114368D01*
X69000Y208498D02*
Y200000D01*
Y208498D02*
X72642D01*
X73856Y208093D01*
X74261Y207689D01*
X74665Y206880D01*
Y206070D01*
X74261Y205261D01*
X73856Y204856D01*
X72642Y204451D01*
X69000D01*
X71833D02*
X74665Y200000D01*
X76972Y206475D02*
Y206880D01*
X77377Y207689D01*
X77781Y208093D01*
X78591Y208498D01*
X80210D01*
X81019Y208093D01*
X81424Y207689D01*
X81828Y206880D01*
Y206070D01*
X81424Y205261D01*
X80614Y204047D01*
X76567Y200000D01*
X82233D01*
X86563Y208498D02*
X85349Y208093D01*
X84539Y206880D01*
X84135Y204856D01*
Y203642D01*
X84539Y201619D01*
X85349Y200405D01*
X86563Y200000D01*
X87372D01*
X88586Y200405D01*
X89396Y201619D01*
X89800Y203642D01*
Y204856D01*
X89396Y206880D01*
X88586Y208093D01*
X87372Y208498D01*
X86563D01*
X91702Y206880D02*
X92512Y207284D01*
X93726Y208498D01*
Y200000D01*
X330500Y61998D02*
Y53500D01*
Y61998D02*
X334142D01*
X335356Y61593D01*
X335761Y61189D01*
X336166Y60380D01*
Y59570D01*
X335761Y58761D01*
X335356Y58356D01*
X334142Y57951D01*
X330500D01*
X333333D02*
X336166Y53500D01*
X338067Y60380D02*
X338877Y60784D01*
X340091Y61998D01*
Y53500D01*
X346727Y61998D02*
X345513Y61593D01*
X344704Y60380D01*
X344299Y58356D01*
Y57142D01*
X344704Y55119D01*
X345513Y53905D01*
X346727Y53500D01*
X347537D01*
X348751Y53905D01*
X349560Y55119D01*
X349965Y57142D01*
Y58356D01*
X349560Y60380D01*
X348751Y61593D01*
X347537Y61998D01*
X346727D01*
X357532D02*
X353485Y53500D01*
X351867Y61998D02*
X357532D01*
X419500Y229498D02*
Y221000D01*
Y229498D02*
X423142D01*
X424356Y229093D01*
X424761Y228689D01*
X425165Y227880D01*
Y227070D01*
X424761Y226261D01*
X424356Y225856D01*
X423142Y225451D01*
X419500D01*
X422333D02*
X425165Y221000D01*
X427067Y227880D02*
X427877Y228284D01*
X429091Y229498D01*
Y221000D01*
X435728Y229498D02*
X434513Y229093D01*
X433704Y227880D01*
X433299Y225856D01*
Y224642D01*
X433704Y222619D01*
X434513Y221405D01*
X435728Y221000D01*
X436537D01*
X437751Y221405D01*
X438560Y222619D01*
X438965Y224642D01*
Y225856D01*
X438560Y227880D01*
X437751Y229093D01*
X436537Y229498D01*
X435728D01*
X441676D02*
X446128D01*
X443700Y226261D01*
X444914D01*
X445723Y225856D01*
X446128Y225451D01*
X446532Y224237D01*
Y223428D01*
X446128Y222214D01*
X445318Y221405D01*
X444104Y221000D01*
X442890D01*
X441676Y221405D01*
X441272Y221809D01*
X440867Y222619D01*
X461000Y19498D02*
Y11000D01*
Y19498D02*
X464642D01*
X465856Y19094D01*
X466261Y18689D01*
X466665Y17880D01*
Y17070D01*
X466261Y16261D01*
X465856Y15856D01*
X464642Y15451D01*
X461000D01*
X463833D02*
X466665Y11000D01*
X468567Y17880D02*
X469377Y18284D01*
X470591Y19498D01*
Y11000D01*
X477228Y19498D02*
X476013Y19094D01*
X475204Y17880D01*
X474799Y15856D01*
Y14642D01*
X475204Y12619D01*
X476013Y11405D01*
X477228Y11000D01*
X478037D01*
X479251Y11405D01*
X480060Y12619D01*
X480465Y14642D01*
Y15856D01*
X480060Y17880D01*
X479251Y19094D01*
X478037Y19498D01*
X477228D01*
X482771Y17475D02*
Y17880D01*
X483176Y18689D01*
X483581Y19094D01*
X484390Y19498D01*
X486009D01*
X486818Y19094D01*
X487223Y18689D01*
X487628Y17880D01*
Y17070D01*
X487223Y16261D01*
X486414Y15047D01*
X482367Y11000D01*
X488032D01*
X371502Y27500D02*
X380000D01*
X371502D02*
Y31142D01*
X371907Y32356D01*
X372311Y32761D01*
X373120Y33166D01*
X373930D01*
X374739Y32761D01*
X375144Y32356D01*
X375549Y31142D01*
Y27500D01*
Y30333D02*
X380000Y33166D01*
X373120Y35067D02*
X372716Y35877D01*
X371502Y37091D01*
X380000D01*
X371502Y43727D02*
X371907Y42513D01*
X373120Y41704D01*
X375144Y41299D01*
X376358D01*
X378381Y41704D01*
X379595Y42513D01*
X380000Y43727D01*
Y44537D01*
X379595Y45751D01*
X378381Y46560D01*
X376358Y46965D01*
X375144D01*
X373120Y46560D01*
X371907Y45751D01*
X371502Y44537D01*
Y43727D01*
X373120Y48867D02*
X372716Y49676D01*
X371502Y50890D01*
X380000D01*
X402000Y387498D02*
Y379000D01*
X406856D01*
X411834Y387498D02*
X407787Y381833D01*
X413857D01*
X411834Y387498D02*
Y379000D01*
X417782Y387498D02*
X416568Y387094D01*
X415759Y385880D01*
X415354Y383856D01*
Y382642D01*
X415759Y380619D01*
X416568Y379405D01*
X417782Y379000D01*
X418592D01*
X419806Y379405D01*
X420615Y380619D01*
X421020Y382642D01*
Y383856D01*
X420615Y385880D01*
X419806Y387094D01*
X418592Y387498D01*
X417782D01*
X423326Y385475D02*
Y385880D01*
X423731Y386689D01*
X424136Y387094D01*
X424945Y387498D01*
X426564D01*
X427373Y387094D01*
X427778Y386689D01*
X428182Y385880D01*
Y385070D01*
X427778Y384261D01*
X426968Y383047D01*
X422922Y379000D01*
X428587D01*
X371000Y377498D02*
Y369000D01*
X375856D01*
X380834Y377498D02*
X376787Y371833D01*
X382857D01*
X380834Y377498D02*
Y369000D01*
X386782Y377498D02*
X385568Y377094D01*
X384759Y375880D01*
X384354Y373856D01*
Y372642D01*
X384759Y370619D01*
X385568Y369405D01*
X386782Y369000D01*
X387592D01*
X388806Y369405D01*
X389615Y370619D01*
X390020Y372642D01*
Y373856D01*
X389615Y375880D01*
X388806Y377094D01*
X387592Y377498D01*
X386782D01*
X391922Y375880D02*
X392731Y376284D01*
X393945Y377498D01*
Y369000D01*
X500000Y298498D02*
Y290000D01*
X504856D01*
X509834Y298498D02*
X505787Y292833D01*
X511857D01*
X509834Y298498D02*
Y290000D01*
X515782Y298498D02*
X514568Y298093D01*
X513759Y296880D01*
X513354Y294856D01*
Y293642D01*
X513759Y291619D01*
X514568Y290405D01*
X515782Y290000D01*
X516592D01*
X517806Y290405D01*
X518615Y291619D01*
X519020Y293642D01*
Y294856D01*
X518615Y296880D01*
X517806Y298093D01*
X516592Y298498D01*
X515782D01*
X523350D02*
X522136Y298093D01*
X521326Y296880D01*
X520922Y294856D01*
Y293642D01*
X521326Y291619D01*
X522136Y290405D01*
X523350Y290000D01*
X524159D01*
X525373Y290405D01*
X526183Y291619D01*
X526587Y293642D01*
Y294856D01*
X526183Y296880D01*
X525373Y298093D01*
X524159Y298498D01*
X523350D01*
X520000Y168498D02*
Y160000D01*
X524856D01*
X525787Y166880D02*
X526596Y167284D01*
X527810Y168498D01*
Y160000D01*
X534447Y168498D02*
X533233Y168093D01*
X532424Y166880D01*
X532019Y164856D01*
Y163642D01*
X532424Y161619D01*
X533233Y160405D01*
X534447Y160000D01*
X535256D01*
X536470Y160405D01*
X537280Y161619D01*
X537684Y163642D01*
Y164856D01*
X537280Y166880D01*
X536470Y168093D01*
X535256Y168498D01*
X534447D01*
X542014D02*
X540800Y168093D01*
X539991Y166880D01*
X539586Y164856D01*
Y163642D01*
X539991Y161619D01*
X540800Y160405D01*
X542014Y160000D01*
X542824D01*
X544038Y160405D01*
X544847Y161619D01*
X545252Y163642D01*
Y164856D01*
X544847Y166880D01*
X544038Y168093D01*
X542824Y168498D01*
X542014D01*
X454000Y274498D02*
Y266000D01*
X461851Y272475D02*
X461446Y273284D01*
X460637Y274093D01*
X459827Y274498D01*
X458209D01*
X457399Y274093D01*
X456590Y273284D01*
X456185Y272475D01*
X455781Y271261D01*
Y269237D01*
X456185Y268023D01*
X456590Y267214D01*
X457399Y266405D01*
X458209Y266000D01*
X459827D01*
X460637Y266405D01*
X461446Y267214D01*
X461851Y268023D01*
X468285Y274498D02*
X464238Y268833D01*
X470308D01*
X468285Y274498D02*
Y266000D01*
X474234Y274498D02*
X473020Y274093D01*
X472210Y272880D01*
X471806Y270856D01*
Y269642D01*
X472210Y267619D01*
X473020Y266405D01*
X474234Y266000D01*
X475043D01*
X476257Y266405D01*
X477066Y267619D01*
X477471Y269642D01*
Y270856D01*
X477066Y272880D01*
X476257Y274093D01*
X475043Y274498D01*
X474234D01*
X481801D02*
X480587Y274093D01*
X479778Y272880D01*
X479373Y270856D01*
Y269642D01*
X479778Y267619D01*
X480587Y266405D01*
X481801Y266000D01*
X482611D01*
X483825Y266405D01*
X484634Y267619D01*
X485039Y269642D01*
Y270856D01*
X484634Y272880D01*
X483825Y274093D01*
X482611Y274498D01*
X481801D01*
X506070Y272475D02*
X505666Y273284D01*
X504856Y274093D01*
X504047Y274498D01*
X502428D01*
X501619Y274093D01*
X500809Y273284D01*
X500405Y272475D01*
X500000Y271261D01*
Y269237D01*
X500405Y268023D01*
X500809Y267214D01*
X501619Y266405D01*
X502428Y266000D01*
X504047D01*
X504856Y266405D01*
X505666Y267214D01*
X506070Y268023D01*
X513314Y274498D02*
X509267D01*
X508862Y270856D01*
X509267Y271261D01*
X510481Y271665D01*
X511695D01*
X512909Y271261D01*
X513718Y270451D01*
X514123Y269237D01*
Y268428D01*
X513718Y267214D01*
X512909Y266405D01*
X511695Y266000D01*
X510481D01*
X509267Y266405D01*
X508862Y266809D01*
X508458Y267619D01*
X518453Y274498D02*
X517239Y274093D01*
X516430Y272880D01*
X516025Y270856D01*
Y269642D01*
X516430Y267619D01*
X517239Y266405D01*
X518453Y266000D01*
X519263D01*
X520477Y266405D01*
X521286Y267619D01*
X521691Y269642D01*
Y270856D01*
X521286Y272880D01*
X520477Y274093D01*
X519263Y274498D01*
X518453D01*
X523997Y272475D02*
Y272880D01*
X524402Y273689D01*
X524807Y274093D01*
X525616Y274498D01*
X527235D01*
X528044Y274093D01*
X528449Y273689D01*
X528853Y272880D01*
Y272070D01*
X528449Y271261D01*
X527639Y270047D01*
X523593Y266000D01*
X529258D01*
X570070Y288475D02*
X569665Y289284D01*
X568856Y290093D01*
X568047Y290498D01*
X566428D01*
X565619Y290093D01*
X564809Y289284D01*
X564405Y288475D01*
X564000Y287261D01*
Y285237D01*
X564405Y284023D01*
X564809Y283214D01*
X565619Y282405D01*
X566428Y282000D01*
X568047D01*
X568856Y282405D01*
X569665Y283214D01*
X570070Y284023D01*
X577314Y290498D02*
X573267D01*
X572862Y286856D01*
X573267Y287261D01*
X574481Y287666D01*
X575695D01*
X576909Y287261D01*
X577719Y286451D01*
X578123Y285237D01*
Y284428D01*
X577719Y283214D01*
X576909Y282405D01*
X575695Y282000D01*
X574481D01*
X573267Y282405D01*
X572862Y282809D01*
X572458Y283619D01*
X582453Y290498D02*
X581239Y290093D01*
X580430Y288880D01*
X580025Y286856D01*
Y285642D01*
X580430Y283619D01*
X581239Y282405D01*
X582453Y282000D01*
X583262D01*
X584477Y282405D01*
X585286Y283619D01*
X585691Y285642D01*
Y286856D01*
X585286Y288880D01*
X584477Y290093D01*
X583262Y290498D01*
X582453D01*
X587593Y288880D02*
X588402Y289284D01*
X589616Y290498D01*
Y282000D01*
X612525Y221070D02*
X611716Y220665D01*
X610906Y219856D01*
X610502Y219047D01*
Y217428D01*
X610906Y216619D01*
X611716Y215809D01*
X612525Y215405D01*
X613739Y215000D01*
X615763D01*
X616977Y215405D01*
X617786Y215809D01*
X618595Y216619D01*
X619000Y217428D01*
Y219047D01*
X618595Y219856D01*
X617786Y220665D01*
X616977Y221070D01*
X610502Y228314D02*
Y224267D01*
X614144Y223862D01*
X613739Y224267D01*
X613335Y225481D01*
Y226695D01*
X613739Y227909D01*
X614549Y228718D01*
X615763Y229123D01*
X616572D01*
X617786Y228718D01*
X618595Y227909D01*
X619000Y226695D01*
Y225481D01*
X618595Y224267D01*
X618191Y223862D01*
X617381Y223458D01*
X610502Y233453D02*
X610906Y232239D01*
X612121Y231430D01*
X614144Y231025D01*
X615358D01*
X617381Y231430D01*
X618595Y232239D01*
X619000Y233453D01*
Y234263D01*
X618595Y235477D01*
X617381Y236286D01*
X615358Y236691D01*
X614144D01*
X612121Y236286D01*
X610906Y235477D01*
X610502Y234263D01*
Y233453D01*
Y241021D02*
X610906Y239807D01*
X612121Y238997D01*
X614144Y238593D01*
X615358D01*
X617381Y238997D01*
X618595Y239807D01*
X619000Y241021D01*
Y241830D01*
X618595Y243044D01*
X617381Y243853D01*
X615358Y244258D01*
X614144D01*
X612121Y243853D01*
X610906Y243044D01*
X610502Y241830D01*
Y241021D01*
X525070Y340475D02*
X524665Y341284D01*
X523856Y342094D01*
X523047Y342498D01*
X521428D01*
X520619Y342094D01*
X519809Y341284D01*
X519405Y340475D01*
X519000Y339261D01*
Y337237D01*
X519405Y336023D01*
X519809Y335214D01*
X520619Y334405D01*
X521428Y334000D01*
X523047D01*
X523856Y334405D01*
X524665Y335214D01*
X525070Y336023D01*
X531505Y342498D02*
X527458Y336833D01*
X533528D01*
X531505Y342498D02*
Y334000D01*
X535025Y340880D02*
X535835Y341284D01*
X537048Y342498D01*
Y334000D01*
X545304Y342498D02*
X541257Y336833D01*
X547327D01*
X545304Y342498D02*
Y334000D01*
X377070Y301475D02*
X376665Y302284D01*
X375856Y303093D01*
X375047Y303498D01*
X373428D01*
X372619Y303093D01*
X371809Y302284D01*
X371405Y301475D01*
X371000Y300261D01*
Y298237D01*
X371405Y297023D01*
X371809Y296214D01*
X372619Y295405D01*
X373428Y295000D01*
X375047D01*
X375856Y295405D01*
X376665Y296214D01*
X377070Y297023D01*
X383504Y303498D02*
X379458Y297833D01*
X385528D01*
X383504Y303498D02*
Y295000D01*
X387025Y301880D02*
X387835Y302284D01*
X389049Y303498D01*
Y295000D01*
X394067Y303498D02*
X398518D01*
X396090Y300261D01*
X397304D01*
X398113Y299856D01*
X398518Y299451D01*
X398923Y298237D01*
Y297428D01*
X398518Y296214D01*
X397709Y295405D01*
X396494Y295000D01*
X395280D01*
X394067Y295405D01*
X393662Y295809D01*
X393257Y296619D01*
X369070Y333475D02*
X368666Y334284D01*
X367856Y335093D01*
X367047Y335498D01*
X365428D01*
X364619Y335093D01*
X363809Y334284D01*
X363405Y333475D01*
X363000Y332261D01*
Y330237D01*
X363405Y329023D01*
X363809Y328214D01*
X364619Y327405D01*
X365428Y327000D01*
X367047D01*
X367856Y327405D01*
X368666Y328214D01*
X369070Y329023D01*
X375504Y335498D02*
X371458Y329833D01*
X377528D01*
X375504Y335498D02*
Y327000D01*
X379025Y333880D02*
X379835Y334284D01*
X381049Y335498D01*
Y327000D01*
X387685Y335498D02*
X386471Y335093D01*
X385662Y333880D01*
X385257Y331856D01*
Y330642D01*
X385662Y328619D01*
X386471Y327405D01*
X387685Y327000D01*
X388494D01*
X389709Y327405D01*
X390518Y328619D01*
X390923Y330642D01*
Y331856D01*
X390518Y333880D01*
X389709Y335093D01*
X388494Y335498D01*
X387685D01*
X363070Y345475D02*
X362665Y346284D01*
X361856Y347094D01*
X361047Y347498D01*
X359428D01*
X358619Y347094D01*
X357809Y346284D01*
X357405Y345475D01*
X357000Y344261D01*
Y342237D01*
X357405Y341023D01*
X357809Y340214D01*
X358619Y339405D01*
X359428Y339000D01*
X361047D01*
X361856Y339405D01*
X362665Y340214D01*
X363070Y341023D01*
X369505Y347498D02*
X365458Y341833D01*
X371528D01*
X369505Y347498D02*
Y339000D01*
X375453Y347498D02*
X374239Y347094D01*
X373430Y345880D01*
X373025Y343856D01*
Y342642D01*
X373430Y340619D01*
X374239Y339405D01*
X375453Y339000D01*
X376263D01*
X377477Y339405D01*
X378286Y340619D01*
X378691Y342642D01*
Y343856D01*
X378286Y345880D01*
X377477Y347094D01*
X376263Y347498D01*
X375453D01*
X385853Y344665D02*
X385449Y343451D01*
X384639Y342642D01*
X383425Y342237D01*
X383021D01*
X381807Y342642D01*
X380997Y343451D01*
X380593Y344665D01*
Y345070D01*
X380997Y346284D01*
X381807Y347094D01*
X383021Y347498D01*
X383425D01*
X384639Y347094D01*
X385449Y346284D01*
X385853Y344665D01*
Y342642D01*
X385449Y340619D01*
X384639Y339405D01*
X383425Y339000D01*
X382616D01*
X381402Y339405D01*
X380997Y340214D01*
X525070Y353475D02*
X524665Y354284D01*
X523856Y355093D01*
X523047Y355498D01*
X521428D01*
X520619Y355093D01*
X519809Y354284D01*
X519405Y353475D01*
X519000Y352261D01*
Y350237D01*
X519405Y349023D01*
X519809Y348214D01*
X520619Y347405D01*
X521428Y347000D01*
X523047D01*
X523856Y347405D01*
X524665Y348214D01*
X525070Y349023D01*
X531505Y355498D02*
X527458Y349833D01*
X533528D01*
X531505Y355498D02*
Y347000D01*
X537453Y355498D02*
X536239Y355093D01*
X535430Y353880D01*
X535025Y351856D01*
Y350642D01*
X535430Y348619D01*
X536239Y347405D01*
X537453Y347000D01*
X538263D01*
X539477Y347405D01*
X540286Y348619D01*
X540691Y350642D01*
Y351856D01*
X540286Y353880D01*
X539477Y355093D01*
X538263Y355498D01*
X537453D01*
X544616D02*
X543402Y355093D01*
X542997Y354284D01*
Y353475D01*
X543402Y352665D01*
X544211Y352261D01*
X545830Y351856D01*
X547044Y351451D01*
X547853Y350642D01*
X548258Y349833D01*
Y348619D01*
X547853Y347809D01*
X547449Y347405D01*
X546235Y347000D01*
X544616D01*
X543402Y347405D01*
X542997Y347809D01*
X542593Y348619D01*
Y349833D01*
X542997Y350642D01*
X543807Y351451D01*
X545021Y351856D01*
X546639Y352261D01*
X547449Y352665D01*
X547853Y353475D01*
Y354284D01*
X547449Y355093D01*
X546235Y355498D01*
X544616D01*
X496570Y365975D02*
X496166Y366784D01*
X495356Y367593D01*
X494547Y367998D01*
X492928D01*
X492119Y367593D01*
X491309Y366784D01*
X490905Y365975D01*
X490500Y364761D01*
Y362737D01*
X490905Y361523D01*
X491309Y360714D01*
X492119Y359905D01*
X492928Y359500D01*
X494547D01*
X495356Y359905D01*
X496166Y360714D01*
X496570Y361523D01*
X503004Y367998D02*
X498958Y362333D01*
X505028D01*
X503004Y367998D02*
Y359500D01*
X508953Y367998D02*
X507739Y367593D01*
X506930Y366380D01*
X506525Y364356D01*
Y363142D01*
X506930Y361119D01*
X507739Y359905D01*
X508953Y359500D01*
X509763D01*
X510977Y359905D01*
X511786Y361119D01*
X512191Y363142D01*
Y364356D01*
X511786Y366380D01*
X510977Y367593D01*
X509763Y367998D01*
X508953D01*
X519758D02*
X515711Y359500D01*
X514093Y367998D02*
X519758D01*
X378070Y231475D02*
X377665Y232284D01*
X376856Y233093D01*
X376047Y233498D01*
X374428D01*
X373619Y233093D01*
X372809Y232284D01*
X372405Y231475D01*
X372000Y230261D01*
Y228237D01*
X372405Y227023D01*
X372809Y226214D01*
X373619Y225405D01*
X374428Y225000D01*
X376047D01*
X376856Y225405D01*
X377665Y226214D01*
X378070Y227023D01*
X384505Y233498D02*
X380458Y227833D01*
X386528D01*
X384505Y233498D02*
Y225000D01*
X390453Y233498D02*
X389239Y233093D01*
X388430Y231880D01*
X388025Y229856D01*
Y228642D01*
X388430Y226619D01*
X389239Y225405D01*
X390453Y225000D01*
X391263D01*
X392477Y225405D01*
X393286Y226619D01*
X393691Y228642D01*
Y229856D01*
X393286Y231880D01*
X392477Y233093D01*
X391263Y233498D01*
X390453D01*
X400449Y232284D02*
X400044Y233093D01*
X398830Y233498D01*
X398021D01*
X396807Y233093D01*
X395997Y231880D01*
X395593Y229856D01*
Y227833D01*
X395997Y226214D01*
X396807Y225405D01*
X398021Y225000D01*
X398425D01*
X399639Y225405D01*
X400449Y226214D01*
X400853Y227428D01*
Y227833D01*
X400449Y229047D01*
X399639Y229856D01*
X398425Y230261D01*
X398021D01*
X396807Y229856D01*
X395997Y229047D01*
X395593Y227833D01*
X378070Y243475D02*
X377665Y244284D01*
X376856Y245093D01*
X376047Y245498D01*
X374428D01*
X373619Y245093D01*
X372809Y244284D01*
X372405Y243475D01*
X372000Y242261D01*
Y240237D01*
X372405Y239023D01*
X372809Y238214D01*
X373619Y237405D01*
X374428Y237000D01*
X376047D01*
X376856Y237405D01*
X377665Y238214D01*
X378070Y239023D01*
X384505Y245498D02*
X380458Y239833D01*
X386528D01*
X384505Y245498D02*
Y237000D01*
X390453Y245498D02*
X389239Y245093D01*
X388430Y243880D01*
X388025Y241856D01*
Y240642D01*
X388430Y238619D01*
X389239Y237405D01*
X390453Y237000D01*
X391263D01*
X392477Y237405D01*
X393286Y238619D01*
X393691Y240642D01*
Y241856D01*
X393286Y243880D01*
X392477Y245093D01*
X391263Y245498D01*
X390453D01*
X400449D02*
X396402D01*
X395997Y241856D01*
X396402Y242261D01*
X397616Y242666D01*
X398830D01*
X400044Y242261D01*
X400853Y241451D01*
X401258Y240237D01*
Y239428D01*
X400853Y238214D01*
X400044Y237405D01*
X398830Y237000D01*
X397616D01*
X396402Y237405D01*
X395997Y237809D01*
X395593Y238619D01*
X459570Y371975D02*
X459165Y372784D01*
X458356Y373593D01*
X457547Y373998D01*
X455928D01*
X455119Y373593D01*
X454309Y372784D01*
X453905Y371975D01*
X453500Y370761D01*
Y368737D01*
X453905Y367523D01*
X454309Y366714D01*
X455119Y365905D01*
X455928Y365500D01*
X457547D01*
X458356Y365905D01*
X459165Y366714D01*
X459570Y367523D01*
X466004Y373998D02*
X461958Y368333D01*
X468028D01*
X466004Y373998D02*
Y365500D01*
X471953Y373998D02*
X470739Y373593D01*
X469930Y372379D01*
X469525Y370356D01*
Y369142D01*
X469930Y367119D01*
X470739Y365905D01*
X471953Y365500D01*
X472763D01*
X473977Y365905D01*
X474786Y367119D01*
X475191Y369142D01*
Y370356D01*
X474786Y372379D01*
X473977Y373593D01*
X472763Y373998D01*
X471953D01*
X481139D02*
X477093Y368333D01*
X483163D01*
X481139Y373998D02*
Y365500D01*
X584070Y332475D02*
X583666Y333284D01*
X582856Y334094D01*
X582047Y334498D01*
X580428D01*
X579619Y334094D01*
X578809Y333284D01*
X578405Y332475D01*
X578000Y331261D01*
Y329237D01*
X578405Y328023D01*
X578809Y327214D01*
X579619Y326405D01*
X580428Y326000D01*
X582047D01*
X582856Y326405D01*
X583666Y327214D01*
X584070Y328023D01*
X590504Y334498D02*
X586458Y328833D01*
X592528D01*
X590504Y334498D02*
Y326000D01*
X596453Y334498D02*
X595239Y334094D01*
X594430Y332879D01*
X594025Y330856D01*
Y329642D01*
X594430Y327619D01*
X595239Y326405D01*
X596453Y326000D01*
X597263D01*
X598477Y326405D01*
X599286Y327619D01*
X599691Y329642D01*
Y330856D01*
X599286Y332879D01*
X598477Y334094D01*
X597263Y334498D01*
X596453D01*
X602402D02*
X606853D01*
X604425Y331261D01*
X605639D01*
X606449Y330856D01*
X606853Y330451D01*
X607258Y329237D01*
Y328428D01*
X606853Y327214D01*
X606044Y326405D01*
X604830Y326000D01*
X603616D01*
X602402Y326405D01*
X601997Y326809D01*
X601593Y327619D01*
X565070Y310475D02*
X564665Y311284D01*
X563856Y312094D01*
X563047Y312498D01*
X561428D01*
X560619Y312094D01*
X559809Y311284D01*
X559405Y310475D01*
X559000Y309261D01*
Y307237D01*
X559405Y306023D01*
X559809Y305214D01*
X560619Y304405D01*
X561428Y304000D01*
X563047D01*
X563856Y304405D01*
X564665Y305214D01*
X565070Y306023D01*
X571505Y312498D02*
X567458Y306833D01*
X573528D01*
X571505Y312498D02*
Y304000D01*
X577453Y312498D02*
X576239Y312094D01*
X575430Y310879D01*
X575025Y308856D01*
Y307642D01*
X575430Y305619D01*
X576239Y304405D01*
X577453Y304000D01*
X578262D01*
X579477Y304405D01*
X580286Y305619D01*
X580691Y307642D01*
Y308856D01*
X580286Y310879D01*
X579477Y312094D01*
X578262Y312498D01*
X577453D01*
X582997Y310475D02*
Y310879D01*
X583402Y311689D01*
X583807Y312094D01*
X584616Y312498D01*
X586235D01*
X587044Y312094D01*
X587449Y311689D01*
X587853Y310879D01*
Y310070D01*
X587449Y309261D01*
X586639Y308047D01*
X582593Y304000D01*
X588258D01*
X512070Y320475D02*
X511665Y321284D01*
X510856Y322094D01*
X510047Y322498D01*
X508428D01*
X507619Y322094D01*
X506809Y321284D01*
X506405Y320475D01*
X506000Y319261D01*
Y317237D01*
X506405Y316023D01*
X506809Y315214D01*
X507619Y314405D01*
X508428Y314000D01*
X510047D01*
X510856Y314405D01*
X511665Y315214D01*
X512070Y316023D01*
X518504Y322498D02*
X514458Y316833D01*
X520528D01*
X518504Y322498D02*
Y314000D01*
X524453Y322498D02*
X523239Y322094D01*
X522430Y320880D01*
X522025Y318856D01*
Y317642D01*
X522430Y315619D01*
X523239Y314405D01*
X524453Y314000D01*
X525263D01*
X526477Y314405D01*
X527286Y315619D01*
X527691Y317642D01*
Y318856D01*
X527286Y320880D01*
X526477Y322094D01*
X525263Y322498D01*
X524453D01*
X529593Y320880D02*
X530402Y321284D01*
X531616Y322498D01*
Y314000D01*
X561070Y74475D02*
X560666Y75284D01*
X559856Y76094D01*
X559047Y76498D01*
X557428D01*
X556619Y76094D01*
X555809Y75284D01*
X555405Y74475D01*
X555000Y73261D01*
Y71237D01*
X555405Y70023D01*
X555809Y69214D01*
X556619Y68405D01*
X557428Y68000D01*
X559047D01*
X559856Y68405D01*
X560666Y69214D01*
X561070Y70023D01*
X563458Y74879D02*
X564267Y75284D01*
X565481Y76498D01*
Y68000D01*
X572118Y76498D02*
X570904Y76094D01*
X570094Y74879D01*
X569690Y72856D01*
Y71642D01*
X570094Y69619D01*
X570904Y68405D01*
X572118Y68000D01*
X572927D01*
X574141Y68405D01*
X574950Y69619D01*
X575355Y71642D01*
Y72856D01*
X574950Y74879D01*
X574141Y76094D01*
X572927Y76498D01*
X572118D01*
X579281D02*
X578066Y76094D01*
X577662Y75284D01*
Y74475D01*
X578066Y73665D01*
X578876Y73261D01*
X580494Y72856D01*
X581709Y72451D01*
X582518Y71642D01*
X582923Y70833D01*
Y69619D01*
X582518Y68809D01*
X582113Y68405D01*
X580899Y68000D01*
X579281D01*
X578066Y68405D01*
X577662Y68809D01*
X577257Y69619D01*
Y70833D01*
X577662Y71642D01*
X578471Y72451D01*
X579685Y72856D01*
X581304Y73261D01*
X582113Y73665D01*
X582518Y74475D01*
Y75284D01*
X582113Y76094D01*
X580899Y76498D01*
X579281D01*
X529070Y27475D02*
X528666Y28284D01*
X527856Y29093D01*
X527047Y29498D01*
X525428D01*
X524619Y29093D01*
X523809Y28284D01*
X523405Y27475D01*
X523000Y26261D01*
Y24237D01*
X523405Y23023D01*
X523809Y22214D01*
X524619Y21405D01*
X525428Y21000D01*
X527047D01*
X527856Y21405D01*
X528666Y22214D01*
X529070Y23023D01*
X531458Y27880D02*
X532267Y28284D01*
X533481Y29498D01*
Y21000D01*
X540118Y29498D02*
X538904Y29093D01*
X538094Y27880D01*
X537690Y25856D01*
Y24642D01*
X538094Y22619D01*
X538904Y21405D01*
X540118Y21000D01*
X540927D01*
X542141Y21405D01*
X542951Y22619D01*
X543355Y24642D01*
Y25856D01*
X542951Y27880D01*
X542141Y29093D01*
X540927Y29498D01*
X540118D01*
X550923D02*
X546876Y21000D01*
X545257Y29498D02*
X550923D01*
X459070Y178475D02*
X458666Y179284D01*
X457856Y180093D01*
X457047Y180498D01*
X455428D01*
X454619Y180093D01*
X453809Y179284D01*
X453405Y178475D01*
X453000Y177261D01*
Y175237D01*
X453405Y174023D01*
X453809Y173214D01*
X454619Y172405D01*
X455428Y172000D01*
X457047D01*
X457856Y172405D01*
X458666Y173214D01*
X459070Y174023D01*
X461458Y178880D02*
X462267Y179284D01*
X463481Y180498D01*
Y172000D01*
X470118Y180498D02*
X468904Y180093D01*
X468094Y178880D01*
X467690Y176856D01*
Y175642D01*
X468094Y173619D01*
X468904Y172405D01*
X470118Y172000D01*
X470927D01*
X472141Y172405D01*
X472951Y173619D01*
X473355Y175642D01*
Y176856D01*
X472951Y178880D01*
X472141Y180093D01*
X470927Y180498D01*
X470118D01*
X480113Y179284D02*
X479709Y180093D01*
X478494Y180498D01*
X477685D01*
X476471Y180093D01*
X475662Y178880D01*
X475257Y176856D01*
Y174833D01*
X475662Y173214D01*
X476471Y172405D01*
X477685Y172000D01*
X478090D01*
X479304Y172405D01*
X480113Y173214D01*
X480518Y174428D01*
Y174833D01*
X480113Y176047D01*
X479304Y176856D01*
X478090Y177261D01*
X477685D01*
X476471Y176856D01*
X475662Y176047D01*
X475257Y174833D01*
X379570Y204475D02*
X379165Y205284D01*
X378356Y206094D01*
X377547Y206498D01*
X375928D01*
X375119Y206094D01*
X374309Y205284D01*
X373905Y204475D01*
X373500Y203261D01*
Y201237D01*
X373905Y200023D01*
X374309Y199214D01*
X375119Y198405D01*
X375928Y198000D01*
X377547D01*
X378356Y198405D01*
X379165Y199214D01*
X379570Y200023D01*
X381958Y204879D02*
X382767Y205284D01*
X383981Y206498D01*
Y198000D01*
X390618Y206498D02*
X389404Y206094D01*
X388594Y204879D01*
X388190Y202856D01*
Y201642D01*
X388594Y199619D01*
X389404Y198405D01*
X390618Y198000D01*
X391427D01*
X392641Y198405D01*
X393451Y199619D01*
X393855Y201642D01*
Y202856D01*
X393451Y204879D01*
X392641Y206094D01*
X391427Y206498D01*
X390618D01*
X400613D02*
X396567D01*
X396162Y202856D01*
X396567Y203261D01*
X397780Y203666D01*
X398994D01*
X400209Y203261D01*
X401018Y202451D01*
X401423Y201237D01*
Y200428D01*
X401018Y199214D01*
X400209Y198405D01*
X398994Y198000D01*
X397780D01*
X396567Y198405D01*
X396162Y198809D01*
X395757Y199619D01*
X470570Y79475D02*
X470165Y80284D01*
X469356Y81094D01*
X468547Y81498D01*
X466928D01*
X466119Y81094D01*
X465309Y80284D01*
X464905Y79475D01*
X464500Y78261D01*
Y76237D01*
X464905Y75023D01*
X465309Y74214D01*
X466119Y73405D01*
X466928Y73000D01*
X468547D01*
X469356Y73405D01*
X470165Y74214D01*
X470570Y75023D01*
X472958Y79879D02*
X473767Y80284D01*
X474981Y81498D01*
Y73000D01*
X481618Y81498D02*
X480404Y81094D01*
X479594Y79879D01*
X479190Y77856D01*
Y76642D01*
X479594Y74619D01*
X480404Y73405D01*
X481618Y73000D01*
X482427D01*
X483641Y73405D01*
X484450Y74619D01*
X484855Y76642D01*
Y77856D01*
X484450Y79879D01*
X483641Y81094D01*
X482427Y81498D01*
X481618D01*
X490804D02*
X486757Y75833D01*
X492827D01*
X490804Y81498D02*
Y73000D01*
X456070Y92475D02*
X455666Y93284D01*
X454856Y94094D01*
X454047Y94498D01*
X452428D01*
X451619Y94094D01*
X450809Y93284D01*
X450405Y92475D01*
X450000Y91261D01*
Y89237D01*
X450405Y88023D01*
X450809Y87214D01*
X451619Y86405D01*
X452428Y86000D01*
X454047D01*
X454856Y86405D01*
X455666Y87214D01*
X456070Y88023D01*
X458458Y92879D02*
X459267Y93284D01*
X460481Y94498D01*
Y86000D01*
X467118Y94498D02*
X465904Y94094D01*
X465094Y92879D01*
X464690Y90856D01*
Y89642D01*
X465094Y87619D01*
X465904Y86405D01*
X467118Y86000D01*
X467927D01*
X469141Y86405D01*
X469950Y87619D01*
X470355Y89642D01*
Y90856D01*
X469950Y92879D01*
X469141Y94094D01*
X467927Y94498D01*
X467118D01*
X473066D02*
X477518D01*
X475090Y91261D01*
X476304D01*
X477113Y90856D01*
X477518Y90451D01*
X477923Y89237D01*
Y88428D01*
X477518Y87214D01*
X476708Y86405D01*
X475494Y86000D01*
X474281D01*
X473066Y86405D01*
X472662Y86809D01*
X472257Y87619D01*
X76070Y257475D02*
X75665Y258284D01*
X74856Y259093D01*
X74047Y259498D01*
X72428D01*
X71619Y259093D01*
X70809Y258284D01*
X70405Y257475D01*
X70000Y256261D01*
Y254237D01*
X70405Y253023D01*
X70809Y252214D01*
X71619Y251405D01*
X72428Y251000D01*
X74047D01*
X74856Y251405D01*
X75665Y252214D01*
X76070Y253023D01*
X78458Y257880D02*
X79267Y258284D01*
X80481Y259498D01*
Y251000D01*
X87118Y259498D02*
X85904Y259093D01*
X85094Y257880D01*
X84690Y255856D01*
Y254642D01*
X85094Y252619D01*
X85904Y251405D01*
X87118Y251000D01*
X87927D01*
X89141Y251405D01*
X89951Y252619D01*
X90355Y254642D01*
Y255856D01*
X89951Y257880D01*
X89141Y259093D01*
X87927Y259498D01*
X87118D01*
X92257Y257880D02*
X93067Y258284D01*
X94281Y259498D01*
Y251000D01*
M02*
