G04*
G04 #@! TF.GenerationSoftware,Altium Limited,Altium Designer,22.6.1 (34)*
G04*
G04 Layer_Color=39423*
%FSLAX44Y44*%
%MOMM*%
G71*
G04*
G04 #@! TF.SameCoordinates,A0D8632A-B648-4B75-ABCE-4127253DC59C*
G04*
G04*
G04 #@! TF.FilePolarity,Positive*
G04*
G01*
G75*
%ADD122C,0.1000*%
D122*
X118000Y32500D02*
G03*
X118000Y32500I-30000J0D01*
G01*
Y422500D02*
G03*
X118000Y422500I-30000J0D01*
G01*
X618000Y32500D02*
G03*
X618000Y32500I-30000J0D01*
G01*
X406500Y275500D02*
Y281500D01*
X403500Y278500D02*
X409500D01*
X396000Y273000D02*
X417000D01*
X396000Y284000D02*
X417000D01*
Y273000D02*
Y284000D01*
X396000Y273000D02*
Y284000D01*
X406500Y286500D02*
Y292500D01*
X403500Y289500D02*
X409500D01*
X396000Y284000D02*
X417000D01*
X396000Y295000D02*
X417000D01*
Y284000D02*
Y295000D01*
X396000Y284000D02*
Y295000D01*
X292000Y32000D02*
Y70000D01*
X305000Y51000D02*
X315000D01*
X310000Y46000D02*
Y56000D01*
X292000Y32000D02*
X328000D01*
X292000Y70000D02*
X328000D01*
Y32000D02*
Y70000D01*
X237000Y32000D02*
Y70000D01*
X201000D02*
X237000D01*
X201000Y32000D02*
X237000D01*
X219000Y46000D02*
Y56000D01*
X214000Y51000D02*
X224000D01*
X201000Y32000D02*
Y70000D01*
X386000Y386000D02*
X466000D01*
X386000D02*
Y458000D01*
X466000D01*
Y386000D02*
Y458000D01*
X426000Y417000D02*
Y427000D01*
X421000Y422000D02*
X431000D01*
X-4000Y223000D02*
Y233000D01*
X-9000Y228000D02*
X1000D01*
X65000Y88000D02*
Y368000D01*
X-66000Y88000D02*
X65000D01*
X-66000D02*
Y368000D01*
X65000D01*
X676000Y171000D02*
Y181000D01*
X671000Y176000D02*
X681000D01*
X619000Y71000D02*
Y281000D01*
X724000D01*
Y71000D02*
Y281000D01*
X619000Y71000D02*
X724000D01*
X590000Y196000D02*
Y266000D01*
X520000Y196000D02*
Y266000D01*
Y196000D02*
X590000Y196000D01*
X520000Y266000D02*
X590000Y266000D01*
X550000Y231000D02*
X560000D01*
X555000Y226000D02*
Y236000D01*
X516000Y51000D02*
X526000Y51000D01*
X521000Y56000D02*
X521000Y46000D01*
X503000Y75000D02*
X503000Y27000D01*
X539000Y75000D02*
X539000Y27000D01*
X503000D02*
X539000D01*
X503000Y75000D02*
X539000D01*
X117000Y64000D02*
Y454000D01*
X377000D01*
Y64000D02*
Y454000D01*
X117000Y64000D02*
X377000D01*
X247000Y254000D02*
Y264000D01*
X242000Y259000D02*
X252000D01*
X483498Y195992D02*
Y206992D01*
X504497Y195992D02*
Y206992D01*
X483498D02*
X504497D01*
X483498Y195992D02*
X504497D01*
X490998Y201493D02*
X496997D01*
X493997Y198493D02*
Y204492D01*
X483498Y206995D02*
Y217995D01*
X504497Y206995D02*
Y217995D01*
X483498D02*
X504497D01*
X483498Y206995D02*
X504497D01*
X490998Y212495D02*
X496997D01*
X493997Y209495D02*
Y215495D01*
X500997Y220497D02*
Y226497D01*
X497998Y223498D02*
X503997D01*
X490497Y217997D02*
X511497D01*
X490497Y228997D02*
X511497D01*
Y217997D02*
Y228997D01*
X490497Y217997D02*
Y228997D01*
Y229000D02*
Y240000D01*
X511497Y229000D02*
Y240000D01*
X490497D02*
X511497D01*
X490497Y229000D02*
X511497D01*
X497998Y234500D02*
X503997D01*
X500997Y231500D02*
Y237500D01*
X604997Y252500D02*
X604997Y261500D01*
X600498Y257000D02*
X609497D01*
X590998Y249000D02*
X618997Y249000D01*
X590998Y265000D02*
X618997D01*
Y249000D02*
Y265000D01*
X590998Y249000D02*
Y265000D01*
X604997Y200997D02*
Y209997D01*
X600498Y205497D02*
X609497D01*
X590997Y197497D02*
X618997Y197497D01*
X590998Y213497D02*
X618997D01*
X618997Y197497D01*
X590997Y197497D02*
X590998Y213497D01*
X465500Y387500D02*
Y398500D01*
X486500Y387500D02*
Y398500D01*
X465500D02*
X486500D01*
X465500Y387500D02*
X486500D01*
X473000Y393000D02*
X479000D01*
X476000Y390000D02*
Y396000D01*
X547186Y322864D02*
X554964Y315086D01*
X562036Y337714D02*
X569814Y329935D01*
X547186Y322864D02*
X562036Y337714D01*
X554964Y315086D02*
X569814Y329935D01*
X556379Y324279D02*
X560621Y328521D01*
X556379D02*
X560621Y324279D01*
X447000Y258500D02*
X453000D01*
X450000Y255500D02*
Y261500D01*
X455500Y248000D02*
Y269000D01*
X444500Y248000D02*
Y269000D01*
X455500D01*
X444500Y248000D02*
X455500D01*
X215000Y19500D02*
Y28500D01*
X210500Y24000D02*
X219500D01*
X201000Y16000D02*
X229000D01*
X201000Y32000D02*
X229000D01*
Y16000D02*
Y32000D01*
X201000Y16000D02*
Y32000D01*
X314000Y19500D02*
Y28500D01*
X309500Y24000D02*
X318500D01*
X300000Y32000D02*
X328000D01*
X300000Y16000D02*
X328000D01*
X300000D02*
Y32000D01*
X328000Y16000D02*
Y32000D01*
X603500Y134000D02*
Y143000D01*
X599000Y138500D02*
X608000D01*
X589500Y146500D02*
X617500D01*
X589500Y130500D02*
X617500D01*
X589500D02*
Y146500D01*
X617500Y130500D02*
Y146500D01*
X603500Y94000D02*
Y103000D01*
X599000Y98500D02*
X608000D01*
X589500Y106500D02*
X617500Y106500D01*
X589500Y90500D02*
X617500D01*
X589500Y106500D02*
X589500Y90500D01*
X617500D02*
Y106500D01*
X92000Y110000D02*
X116000D01*
X92000Y64000D02*
X116000D01*
Y110000D01*
X92000D02*
X92000Y64000D01*
X104000Y82000D02*
Y92000D01*
X99000Y87000D02*
X109000D01*
X41000Y71000D02*
Y81000D01*
X36000Y76000D02*
X46000D01*
X18000Y64000D02*
X64000D01*
X18000Y88000D02*
X64000Y88000D01*
X64000Y64000D01*
X18000D02*
Y88000D01*
X92000Y176000D02*
X116000D01*
X92000Y130000D02*
X116000Y130000D01*
X116000Y176000D01*
X92000D02*
X92000Y130000D01*
X104000Y148000D02*
X104000Y158000D01*
X99000Y153000D02*
X109000D01*
X88503Y193000D02*
X88503Y183000D01*
X83503Y188000D02*
X93503D01*
X65503Y176000D02*
X111503D01*
X65503Y200000D02*
X111503D01*
Y176000D02*
Y200000D01*
X65503Y176000D02*
Y200000D01*
X343000Y42003D02*
X343000Y51003D01*
X338500Y46503D02*
X347500Y46503D01*
X329000Y38503D02*
X357000D01*
X329000Y54503D02*
X357000Y54503D01*
X357000Y38503D01*
X329000Y54503D02*
X329000Y38503D01*
X437000Y187000D02*
X453000Y187000D01*
X437000Y215000D02*
X453000D01*
X437000Y187000D02*
X437000Y215000D01*
X453000Y187000D02*
Y215000D01*
X445000Y205500D02*
X445000Y196500D01*
X440500Y201000D02*
X449500Y201000D01*
X489500Y8000D02*
Y24000D01*
X520500Y24000D02*
X520500Y8000D01*
X489500Y24000D02*
X520500Y24000D01*
X489500Y8000D02*
X520500D01*
X500500Y16000D02*
X509500D01*
X505000Y11500D02*
Y20500D01*
X358000Y50000D02*
X374000D01*
X358000Y22000D02*
X374000D01*
Y50000D01*
X358000Y22000D02*
Y50000D01*
X366000Y31500D02*
Y40500D01*
X361500Y36000D02*
X370500D01*
X422000Y375500D02*
X434000Y375500D01*
X422000Y354500D02*
X434000Y354500D01*
Y375500D01*
X422000Y354500D02*
Y375500D01*
X428000Y362000D02*
Y368000D01*
X425000Y365000D02*
X431000D01*
X416997Y347505D02*
Y369505D01*
X381997Y347505D02*
Y369505D01*
Y347505D02*
X416997D01*
X381997Y369505D02*
X416997D01*
X394497Y358505D02*
X404497D01*
X399497Y353505D02*
Y363505D01*
X516500Y304400D02*
Y310400D01*
X513500Y307400D02*
X519500D01*
X506000Y301400D02*
X527000D01*
X506000Y313400D02*
X527000D01*
X527000Y301400D01*
X506000D02*
X506000Y313400D01*
X483500Y84000D02*
X553500Y84000D01*
X483500Y158000D02*
X553500Y158000D01*
X483500Y84000D02*
Y158000D01*
X553500Y84000D02*
Y158000D01*
X518500Y116000D02*
X518500Y126000D01*
X513500Y121000D02*
X523500D01*
X451000Y311000D02*
X461000D01*
X456000Y306000D02*
Y316000D01*
X417000Y272000D02*
Y350000D01*
Y272000D02*
X495000D01*
Y350000D01*
X417000D02*
X495000D01*
X251000Y35500D02*
Y44500D01*
X246500Y40000D02*
X255500D01*
X237000Y32000D02*
X265000Y32000D01*
X237000Y48000D02*
X265000D01*
Y32000D02*
Y48000D01*
X237000Y32000D02*
Y48000D01*
X292000Y32000D02*
Y48000D01*
X264000Y32000D02*
Y48000D01*
Y32000D02*
X292000D01*
X264000Y48000D02*
X292000Y48000D01*
X273500Y40000D02*
X282500D01*
X278000Y35500D02*
Y44500D01*
X343000Y25500D02*
Y34500D01*
X338500Y30000D02*
X347500Y30000D01*
X329000Y38000D02*
X357000D01*
X329000Y22000D02*
X357000Y22000D01*
X329000Y22000D02*
Y38000D01*
X357000Y22000D02*
X357000Y38000D01*
X530997Y266003D02*
X546997D01*
X530997Y297003D02*
X546997D01*
X530997Y266003D02*
Y297003D01*
X546997Y266003D02*
Y297003D01*
X538997Y277003D02*
Y286003D01*
X534497Y281503D02*
X543498Y281502D01*
X550500D02*
X559500Y281503D01*
X555000Y277003D02*
Y286003D01*
X563000Y266003D02*
Y297003D01*
X547000Y266003D02*
Y297003D01*
X563000D01*
X547000Y266003D02*
X563000D01*
X596000Y231000D02*
X606000D01*
X601000Y226000D02*
Y236000D01*
X611500Y213500D02*
Y248500D01*
X590500Y213500D02*
Y248500D01*
X611500D01*
X590500Y213500D02*
X611500D01*
X500500Y334003D02*
X500500Y323003D01*
X521500Y334003D02*
X521500Y323003D01*
X500500Y334003D02*
X521500D01*
X500500Y323003D02*
X521500Y323003D01*
X508250Y328503D02*
X513750D01*
X511000Y325753D02*
Y331253D01*
X416000Y305500D02*
Y326500D01*
X381000Y305500D02*
Y326500D01*
Y305500D02*
X416000D01*
X381000Y326500D02*
X416000D01*
X393500Y316000D02*
X403500D01*
X398500Y311000D02*
Y321000D01*
X408747Y337003D02*
X414248D01*
X411497Y334253D02*
X411497Y339753D01*
X405998Y347503D02*
X405998Y326502D01*
X416997D02*
Y347503D01*
X405998Y326502D02*
X416997D01*
X405998Y347503D02*
X416997D01*
X397745Y337003D02*
X403245Y337003D01*
X400495Y334253D02*
Y339753D01*
X394995Y326503D02*
Y347503D01*
X405995Y326502D02*
Y347503D01*
X394995Y326503D02*
X405995Y326502D01*
X394995Y347503D02*
X405995D01*
X505500Y341750D02*
X505500Y347250D01*
X502750Y344500D02*
X508250D01*
X495000Y339000D02*
X516000D01*
X495000Y350000D02*
X516000D01*
X516000Y339000D02*
X516000Y350000D01*
X495000Y339000D02*
Y350000D01*
X480000Y352752D02*
Y358252D01*
X477250Y355503D02*
X482750D01*
X469500Y361003D02*
X490500D01*
X469500Y350003D02*
X490500D01*
X469500D02*
Y361003D01*
X490500Y350003D02*
Y361003D01*
X425000Y252745D02*
Y258245D01*
X422250Y255495D02*
X427750D01*
X414500Y260995D02*
X435500Y260995D01*
X414500Y249995D02*
X435500D01*
X414500Y260995D02*
X414500Y249995D01*
X435500Y260995D02*
X435500Y249995D01*
X425000Y263748D02*
Y269247D01*
X422250Y266497D02*
X427750Y266497D01*
X414500Y271997D02*
X435500D01*
X414500Y260998D02*
X435500Y260997D01*
X414500Y260998D02*
Y271997D01*
X435500Y260997D02*
X435500Y271997D01*
X434500Y367000D02*
X434500Y351000D01*
X465500Y367000D02*
X465500Y351000D01*
X434500Y367000D02*
X465500D01*
X434500Y351000D02*
X465500D01*
X445500Y359000D02*
X454500D01*
X450000Y354500D02*
Y363500D01*
X563055Y338055D02*
X566945Y341945D01*
X563055D02*
X566945Y338055D01*
X561465Y351314D02*
X576314Y336465D01*
X553686Y343536D02*
X568535Y328686D01*
X553686Y343536D02*
X561465Y351314D01*
X568535Y328686D02*
X576314Y336465D01*
X543256Y318256D02*
X547145Y322145D01*
X543256D02*
X547145Y318256D01*
X541665Y331514D02*
X556514Y316665D01*
X533886Y323736D02*
X548736Y308886D01*
X533886Y323736D02*
X541665Y331514D01*
X548736Y308886D02*
X556514Y316665D01*
X497750Y312800D02*
X503250D01*
X500500Y310050D02*
Y315550D01*
X506000Y302300D02*
X506000Y323300D01*
X495000Y302300D02*
Y323300D01*
X506000Y323300D01*
X495000Y302300D02*
X506000Y302300D01*
X542500Y60000D02*
X551500D01*
X547000Y55500D02*
Y64500D01*
X539000Y44500D02*
Y75500D01*
X555000Y44500D02*
Y75500D01*
X539000Y44500D02*
X555000D01*
X539000Y75500D02*
X555000D01*
X537002Y11500D02*
Y20500D01*
X532503Y16000D02*
X541502Y16000D01*
X521503Y8000D02*
X552503D01*
X521503Y24000D02*
X552503Y24000D01*
Y8000D02*
Y24000D01*
X521503Y8000D02*
Y24000D01*
X431000Y131000D02*
Y141000D01*
X426000Y136000D02*
X436000D01*
X382000Y173000D02*
X480000D01*
X382000Y99000D02*
X480000D01*
X382000D02*
Y173000D01*
X480000Y99000D02*
Y173000D01*
X436000Y173500D02*
Y198500D01*
X386000Y173500D02*
Y198500D01*
Y173500D02*
X436000D01*
X386000Y198500D02*
X436000D01*
X406000Y186000D02*
X416000D01*
X411000Y181000D02*
Y191000D01*
X482503Y51000D02*
X492503D01*
X487503Y56000D02*
X487503Y46000D01*
X500003Y26000D02*
Y76000D01*
X475003Y26000D02*
X475003Y76000D01*
X500003Y76000D01*
X475003Y26000D02*
X500003Y26000D01*
X426000Y46000D02*
Y56000D01*
X421000Y51000D02*
X431000Y51000D01*
X377000Y88000D02*
X475000D01*
X377000Y14000D02*
X475000D01*
X377000D02*
Y88000D01*
X475000Y14000D02*
Y88000D01*
X63500Y396000D02*
X118500D01*
X63500Y256000D02*
Y396000D01*
Y256000D02*
X118500D01*
Y396000D01*
X91000Y321000D02*
Y331000D01*
X86000Y326000D02*
X96000D01*
X567452Y349594D02*
X581594Y335452D01*
X656548Y410406D01*
X642406Y424548D02*
X656548Y410406D01*
X567452Y349594D02*
X642406Y424548D01*
X608465Y376465D02*
X615536Y383535D01*
X608465D02*
X615536Y376465D01*
X458000Y455000D02*
X675000Y238000D01*
M02*
