G04*
G04 #@! TF.GenerationSoftware,Altium Limited,Altium Designer,22.6.1 (34)*
G04*
G04 Layer_Physical_Order=3*
G04 Layer_Color=13010237*
%FSLAX44Y44*%
%MOMM*%
G71*
G04*
G04 #@! TF.SameCoordinates,A0D8632A-B648-4B75-ABCE-4127253DC59C*
G04*
G04*
G04 #@! TF.FilePolarity,Positive*
G04*
G01*
G75*
%ADD105C,2.0000*%
%ADD106C,0.2000*%
%ADD108C,0.4500*%
%ADD109C,0.7000*%
G36*
X633000Y280000D02*
Y277000D01*
X631000Y275000D01*
X561000D01*
Y273000D01*
X633000D01*
X635000Y275000D01*
Y275387D01*
X636848Y276152D01*
X646259Y266741D01*
X645323Y264848D01*
X638000D01*
X634726Y264417D01*
X631676Y263154D01*
X629056Y261144D01*
X627046Y258524D01*
X625783Y255474D01*
X625352Y252200D01*
X625783Y248926D01*
X627046Y245876D01*
X629056Y243256D01*
X631676Y241246D01*
X634726Y239983D01*
X638000Y239552D01*
X646000D01*
X649274Y239983D01*
X652324Y241246D01*
X654944Y243256D01*
X656954Y245876D01*
X658217Y248926D01*
X658569Y251602D01*
X660474Y252526D01*
X673000Y240000D01*
Y191000D01*
X573142D01*
X572813Y191429D01*
X572256Y193000D01*
X573012Y194131D01*
X573384Y196000D01*
X573012Y197869D01*
X571953Y199453D01*
X570369Y200512D01*
X568500Y200884D01*
X566631Y200512D01*
X566299Y200291D01*
X564750Y199588D01*
X563201Y200291D01*
X562869Y200512D01*
X561000Y200884D01*
X559131Y200512D01*
X557547Y199453D01*
X556488Y197869D01*
X556116Y196000D01*
X556488Y194131D01*
X557547Y192547D01*
X559131Y191488D01*
X561000Y191116D01*
X562869Y191488D01*
X563201Y191709D01*
X564750Y192412D01*
X565961Y191863D01*
X567000Y191000D01*
X568834Y189166D01*
X569000Y189000D01*
X630442D01*
X630981Y187000D01*
X628728Y185272D01*
X626645Y182556D01*
X625335Y179394D01*
X624888Y176000D01*
X625335Y172606D01*
X626645Y169444D01*
X628728Y166728D01*
X631444Y164645D01*
X634606Y163335D01*
X638000Y162888D01*
X646000D01*
X649394Y163335D01*
X652556Y164645D01*
X655272Y166728D01*
X657355Y169444D01*
X658665Y172606D01*
X659112Y176000D01*
X658665Y179394D01*
X657355Y182556D01*
X655272Y185272D01*
X653019Y187000D01*
X653558Y189000D01*
X673000D01*
Y47000D01*
X665837D01*
X665837Y47000D01*
X663272Y46874D01*
X658242Y45873D01*
X653504Y43911D01*
X649240Y41062D01*
X647337Y39337D01*
X634663Y26663D01*
X634663Y26663D01*
X632938Y24760D01*
X630089Y20496D01*
X628126Y15758D01*
X627126Y10728D01*
X627000Y8163D01*
Y3000D01*
X201000D01*
Y61000D01*
X261000Y121000D01*
Y271000D01*
X331000Y341000D01*
Y451000D01*
X333000Y453000D01*
X460000D01*
X633000Y280000D01*
D02*
G37*
%LPC*%
G36*
X451500Y423884D02*
X449631Y423512D01*
X448047Y422453D01*
X446988Y420869D01*
X446616Y419000D01*
X446988Y417131D01*
X448047Y415547D01*
X449631Y414488D01*
X451500Y414116D01*
X453369Y414488D01*
X454953Y415547D01*
X456012Y417131D01*
X456384Y419000D01*
X456012Y420869D01*
X454953Y422453D01*
X453369Y423512D01*
X451500Y423884D01*
D02*
G37*
G36*
X438500D02*
X436631Y423512D01*
X435047Y422453D01*
X433988Y420869D01*
X433616Y419000D01*
X433988Y417131D01*
X435047Y415547D01*
X436631Y414488D01*
X438500Y414116D01*
X440369Y414488D01*
X441953Y415547D01*
X443012Y417131D01*
X443384Y419000D01*
X443012Y420869D01*
X441953Y422453D01*
X440369Y423512D01*
X438500Y423884D01*
D02*
G37*
G36*
X400500D02*
X398631Y423512D01*
X397047Y422453D01*
X395988Y420869D01*
X395616Y419000D01*
X395988Y417131D01*
X397047Y415547D01*
X398631Y414488D01*
X400500Y414116D01*
X402369Y414488D01*
X403953Y415547D01*
X405012Y417131D01*
X405384Y419000D01*
X405012Y420869D01*
X403953Y422453D01*
X402369Y423512D01*
X400500Y423884D01*
D02*
G37*
G36*
X372000Y399108D02*
X369854Y398681D01*
X368035Y397465D01*
X366819Y395646D01*
X366392Y393500D01*
X366819Y391354D01*
X368035Y389535D01*
X369854Y388319D01*
X372000Y387892D01*
X374146Y388319D01*
X375965Y389535D01*
X377181Y391354D01*
X377608Y393500D01*
X377181Y395646D01*
X375965Y397465D01*
X374146Y398681D01*
X372000Y399108D01*
D02*
G37*
G36*
X509000Y395000D02*
X479000D01*
X473000Y389000D01*
Y369000D01*
X479000Y363000D01*
X479000Y347000D01*
X481000D01*
Y365000D01*
X475000Y371000D01*
Y387000D01*
X481000Y393000D01*
X507000D01*
X527000Y373000D01*
Y349000D01*
X519000Y341000D01*
X506462D01*
X506380Y341055D01*
X504511Y341426D01*
X502642Y341055D01*
X501360Y340198D01*
X499452Y339453D01*
X497868Y340511D01*
X495999Y340883D01*
X494130Y340511D01*
X492546Y339453D01*
X491487Y337868D01*
X491115Y335999D01*
X491487Y334130D01*
X492546Y332546D01*
X494130Y331487D01*
X495999Y331115D01*
X497868Y331487D01*
X499150Y332344D01*
X501058Y333089D01*
X502642Y332030D01*
X504511Y331659D01*
X506380Y332030D01*
X507965Y333089D01*
X509023Y334674D01*
X509395Y336543D01*
X509770Y337000D01*
X519000Y337000D01*
X529000Y347000D01*
Y375000D01*
X509000Y395000D01*
D02*
G37*
G36*
X418000Y315333D02*
X416342Y315003D01*
X414936Y314064D01*
X413997Y312658D01*
X413667Y311000D01*
X413997Y309342D01*
X414936Y307936D01*
X416342Y306997D01*
X418000Y306667D01*
X419658Y306997D01*
X421064Y307936D01*
X422003Y309342D01*
X422333Y311000D01*
X422003Y312658D01*
X421064Y314064D01*
X419658Y315003D01*
X418000Y315333D01*
D02*
G37*
G36*
X401500Y307384D02*
X399631Y307012D01*
X398047Y305953D01*
X396988Y304369D01*
X396616Y302500D01*
X396988Y300631D01*
X398047Y299047D01*
X399631Y297988D01*
X401500Y297616D01*
X401708Y297658D01*
X403591Y297008D01*
X403778Y296185D01*
X403988Y295131D01*
X405047Y293547D01*
X406631Y292488D01*
X408500Y292116D01*
X410369Y292488D01*
X411953Y293547D01*
X413012Y295131D01*
X413384Y297000D01*
X413012Y298869D01*
X411953Y300453D01*
X410369Y301512D01*
X408500Y301884D01*
X408292Y301842D01*
X406409Y302491D01*
X406222Y303315D01*
X406012Y304369D01*
X404953Y305953D01*
X403369Y307012D01*
X401500Y307384D01*
D02*
G37*
G36*
X501000Y298884D02*
X499131Y298512D01*
X497547Y297453D01*
X496488Y295869D01*
X496116Y294000D01*
X496199Y293583D01*
X495500Y292884D01*
X493631Y292512D01*
X492047Y291453D01*
X490988Y289869D01*
X490616Y288000D01*
X490988Y286131D01*
X491730Y285020D01*
X491792Y283898D01*
X491299Y282641D01*
X490436Y282064D01*
X489497Y280658D01*
X489167Y279000D01*
X489497Y277342D01*
X490436Y275936D01*
X491842Y274997D01*
X493500Y274667D01*
X495158Y274997D01*
X496564Y275936D01*
X497503Y277342D01*
X497833Y279000D01*
X497503Y280658D01*
X497021Y281380D01*
X497226Y282619D01*
X497497Y283421D01*
X497691Y283703D01*
X498953Y284547D01*
X500012Y286131D01*
X500384Y288000D01*
X500301Y288417D01*
X501000Y289116D01*
X502869Y289488D01*
X504453Y290547D01*
X505512Y292131D01*
X505884Y294000D01*
X505512Y295869D01*
X504453Y297453D01*
X502869Y298512D01*
X501000Y298884D01*
D02*
G37*
G36*
X481000Y270884D02*
X479131Y270512D01*
X477547Y269453D01*
X476537Y267942D01*
X476061Y267869D01*
X474939D01*
X474463Y267942D01*
X473453Y269453D01*
X471869Y270512D01*
X470000Y270884D01*
X468131Y270512D01*
X466547Y269453D01*
X465488Y267869D01*
X465423Y267541D01*
X463500Y265884D01*
X461631Y265512D01*
X460047Y264453D01*
X458988Y262869D01*
X458616Y261000D01*
X458988Y259131D01*
X460047Y257547D01*
X461631Y256488D01*
X463500Y256116D01*
X465369Y256488D01*
X466953Y257547D01*
X468012Y259131D01*
X469809Y260224D01*
X471369Y259727D01*
X471488Y259131D01*
X472547Y257547D01*
X474131Y256488D01*
X476000Y256116D01*
X477869Y256488D01*
X479453Y257547D01*
X480512Y259131D01*
X480884Y261000D01*
X481000Y261116D01*
X482869Y261488D01*
X484453Y262547D01*
X485512Y264131D01*
X485884Y266000D01*
X485512Y267869D01*
X484453Y269453D01*
X482869Y270512D01*
X481000Y270884D01*
D02*
G37*
G36*
X393500Y288384D02*
X391631Y288012D01*
X390047Y286953D01*
X388988Y285369D01*
X388616Y283500D01*
X388988Y281631D01*
X390047Y280047D01*
X391558Y279037D01*
X391631Y278561D01*
Y277439D01*
X391558Y276963D01*
X390047Y275953D01*
X388988Y274369D01*
X388616Y272500D01*
X388988Y270631D01*
X390047Y269047D01*
X391631Y267988D01*
X393500Y267616D01*
X395369Y267988D01*
X396953Y269047D01*
X398012Y270631D01*
X398384Y272500D01*
X398012Y274369D01*
X396953Y275953D01*
X395442Y276963D01*
X395369Y277439D01*
Y278561D01*
X395442Y279037D01*
X396953Y280047D01*
X398012Y281631D01*
X398384Y283500D01*
X398012Y285369D01*
X396953Y286953D01*
X395369Y288012D01*
X393500Y288384D01*
D02*
G37*
G36*
X442999Y276883D02*
X441130Y276511D01*
X439546Y275453D01*
X438487Y273868D01*
X438479Y273827D01*
X438022Y271977D01*
X436171Y271520D01*
X436130Y271511D01*
X434546Y270453D01*
X433487Y268868D01*
X433115Y266999D01*
X433487Y265131D01*
X434546Y263546D01*
X436130Y262487D01*
X437999Y262116D01*
X439868Y262487D01*
X441452Y263546D01*
X442511Y265131D01*
X442519Y265172D01*
X442976Y267022D01*
X444827Y267479D01*
X444868Y267487D01*
X446452Y268546D01*
X447511Y270131D01*
X447883Y271999D01*
X447511Y273868D01*
X446452Y275453D01*
X444868Y276511D01*
X442999Y276883D01*
D02*
G37*
G36*
X351000Y280884D02*
X349131Y280512D01*
X347547Y279453D01*
X346488Y277869D01*
X346116Y276000D01*
X346488Y274131D01*
X347547Y272547D01*
X349131Y271488D01*
X349806Y271354D01*
X350229Y271270D01*
Y269230D01*
X349806Y269146D01*
X349131Y269012D01*
X347547Y267953D01*
X346488Y266369D01*
X346116Y264500D01*
X346488Y262631D01*
X347547Y261047D01*
X349131Y259988D01*
X351000Y259616D01*
X352869Y259988D01*
X354453Y261047D01*
X355512Y262631D01*
X355884Y264500D01*
X355512Y266369D01*
X354453Y267953D01*
X352869Y269012D01*
X352194Y269146D01*
X351771Y269230D01*
Y271270D01*
X352194Y271354D01*
X352869Y271488D01*
X354453Y272547D01*
X355512Y274131D01*
X355884Y276000D01*
X355512Y277869D01*
X354453Y279453D01*
X352869Y280512D01*
X351000Y280884D01*
D02*
G37*
G36*
X500500Y255833D02*
X498842Y255503D01*
X497436Y254564D01*
X496497Y253158D01*
X496167Y251500D01*
X496497Y249842D01*
X497436Y248436D01*
X498842Y247497D01*
X500500Y247167D01*
X502158Y247497D01*
X503564Y248436D01*
X504503Y249842D01*
X504833Y251500D01*
X504503Y253158D01*
X503564Y254564D01*
X502158Y255503D01*
X500500Y255833D01*
D02*
G37*
G36*
X449000Y251884D02*
X447131Y251512D01*
X445547Y250453D01*
X444488Y248869D01*
X444116Y247000D01*
X444488Y245131D01*
X445547Y243547D01*
X447131Y242488D01*
X449000Y242116D01*
X450869Y242488D01*
X452453Y243547D01*
X453512Y245131D01*
X453884Y247000D01*
X453512Y248869D01*
X452453Y250453D01*
X450869Y251512D01*
X449000Y251884D01*
D02*
G37*
G36*
X303500Y251608D02*
X301354Y251181D01*
X299535Y249965D01*
X298319Y248146D01*
X297892Y246000D01*
X298319Y243854D01*
X299535Y242035D01*
X301354Y240819D01*
X303500Y240392D01*
X305646Y240819D01*
X307465Y242035D01*
X308681Y243854D01*
X309108Y246000D01*
X308681Y248146D01*
X307465Y249965D01*
X305646Y251181D01*
X303500Y251608D01*
D02*
G37*
G36*
X461000Y247884D02*
X459131Y247512D01*
X457547Y246453D01*
X456488Y244869D01*
X456116Y243000D01*
X456488Y241131D01*
X457547Y239547D01*
X459131Y238488D01*
X461000Y238116D01*
X462869Y238488D01*
X464453Y239547D01*
X465512Y241131D01*
X465884Y243000D01*
X465512Y244869D01*
X464453Y246453D01*
X462869Y247512D01*
X461000Y247884D01*
D02*
G37*
G36*
X488500Y239381D02*
X486631Y239010D01*
X485047Y237951D01*
X483988Y236366D01*
X483616Y234498D01*
X483988Y232628D01*
X485047Y231044D01*
X486558Y230034D01*
X486631Y229559D01*
Y228436D01*
X486558Y227961D01*
X485047Y226951D01*
X483988Y225366D01*
X483616Y223498D01*
X483988Y221628D01*
X485047Y220044D01*
X486631Y218985D01*
X488500Y218614D01*
X490369Y218985D01*
X491953Y220044D01*
X493012Y221628D01*
X493384Y223498D01*
X493012Y225366D01*
X491953Y226951D01*
X490442Y227961D01*
X490369Y228436D01*
Y229559D01*
X490442Y230034D01*
X491953Y231044D01*
X493012Y232628D01*
X493384Y234498D01*
X493012Y236366D01*
X491953Y237951D01*
X490369Y239010D01*
X488500Y239381D01*
D02*
G37*
G36*
X646000Y226748D02*
X638000D01*
X634726Y226317D01*
X631676Y225054D01*
X629056Y223044D01*
X627046Y220424D01*
X625783Y217374D01*
X625352Y214100D01*
X625783Y210826D01*
X627046Y207776D01*
X629056Y205156D01*
X631676Y203146D01*
X634726Y201883D01*
X638000Y201452D01*
X646000D01*
X649274Y201883D01*
X652324Y203146D01*
X654944Y205156D01*
X656954Y207776D01*
X658217Y210826D01*
X658648Y214100D01*
X658217Y217374D01*
X656954Y220424D01*
X654944Y223044D01*
X652324Y225054D01*
X649274Y226317D01*
X646000Y226748D01*
D02*
G37*
G36*
X417000Y208608D02*
X414854Y208181D01*
X413035Y206965D01*
X411819Y205146D01*
X411392Y203000D01*
X411819Y200854D01*
X413035Y199035D01*
X414854Y197819D01*
X417000Y197392D01*
X419146Y197819D01*
X420965Y199035D01*
X422181Y200854D01*
X422608Y203000D01*
X422181Y205146D01*
X420965Y206965D01*
X419146Y208181D01*
X417000Y208608D01*
D02*
G37*
G36*
X481500Y217384D02*
X479631Y217012D01*
X478047Y215953D01*
X476988Y214369D01*
X476616Y212500D01*
X476988Y210631D01*
X478047Y209047D01*
X479558Y208037D01*
X479631Y207561D01*
Y206439D01*
X479558Y205963D01*
X478047Y204953D01*
X476988Y203369D01*
X476616Y201500D01*
X476988Y199631D01*
X478047Y198047D01*
X479631Y196988D01*
X481500Y196616D01*
X483369Y196988D01*
X484953Y198047D01*
X486012Y199631D01*
X486384Y201500D01*
X486012Y203369D01*
X484953Y204953D01*
X483442Y205963D01*
X483369Y206439D01*
Y207561D01*
X483442Y208037D01*
X484953Y209047D01*
X486012Y210631D01*
X486384Y212500D01*
X486012Y214369D01*
X484953Y215953D01*
X483369Y217012D01*
X481500Y217384D01*
D02*
G37*
G36*
X547000Y175333D02*
X545342Y175003D01*
X543936Y174064D01*
X542997Y172658D01*
X542667Y171000D01*
X542997Y169342D01*
X543936Y167936D01*
X545342Y166997D01*
X547000Y166667D01*
X548658Y166997D01*
X550064Y167936D01*
X551003Y169342D01*
X551333Y171000D01*
X551003Y172658D01*
X550064Y174064D01*
X548658Y175003D01*
X547000Y175333D01*
D02*
G37*
G36*
X335900Y170512D02*
X332506Y170065D01*
X329344Y168755D01*
X326628Y166672D01*
X324544Y163956D01*
X323235Y160794D01*
X322788Y157400D01*
X323235Y154006D01*
X324544Y150844D01*
X326628Y148128D01*
X329344Y146045D01*
X332506Y144735D01*
X335900Y144288D01*
X339294Y144735D01*
X342456Y146045D01*
X345172Y148128D01*
X347256Y150844D01*
X348565Y154006D01*
X349012Y157400D01*
X348565Y160794D01*
X347256Y163956D01*
X345172Y166672D01*
X342456Y168755D01*
X339294Y170065D01*
X335900Y170512D01*
D02*
G37*
G36*
X646000Y150548D02*
X638000D01*
X634726Y150117D01*
X631676Y148854D01*
X629056Y146844D01*
X627046Y144224D01*
X625783Y141174D01*
X625352Y137900D01*
X625783Y134626D01*
X627046Y131576D01*
X629056Y128956D01*
X631676Y126946D01*
X634726Y125683D01*
X638000Y125252D01*
X646000D01*
X649274Y125683D01*
X652324Y126946D01*
X654944Y128956D01*
X656954Y131576D01*
X658217Y134626D01*
X658648Y137900D01*
X658217Y141174D01*
X656954Y144224D01*
X654944Y146844D01*
X652324Y148854D01*
X649274Y150117D01*
X646000Y150548D01*
D02*
G37*
G36*
X338400Y118374D02*
Y109100D01*
X347674D01*
X347591Y109733D01*
X346382Y112652D01*
X344459Y115159D01*
X341952Y117082D01*
X339033Y118291D01*
X338400Y118374D01*
D02*
G37*
G36*
X333400Y118374D02*
X332767Y118291D01*
X329848Y117082D01*
X327341Y115159D01*
X325418Y112652D01*
X324209Y109733D01*
X324126Y109100D01*
X333400D01*
Y118374D01*
D02*
G37*
G36*
X347674Y104100D02*
X338400D01*
Y94826D01*
X339033Y94909D01*
X341952Y96118D01*
X344459Y98041D01*
X346382Y100548D01*
X347591Y103467D01*
X347674Y104100D01*
D02*
G37*
G36*
X333400D02*
X324126D01*
X324209Y103467D01*
X325418Y100548D01*
X327341Y98041D01*
X329848Y96118D01*
X332767Y94909D01*
X333400Y94825D01*
Y104100D01*
D02*
G37*
G36*
X652000Y112396D02*
X632000D01*
X630293Y112172D01*
X628702Y111513D01*
X627336Y110464D01*
X626287Y109098D01*
X625628Y107507D01*
X625404Y105800D01*
Y93800D01*
X625628Y92093D01*
X626287Y90502D01*
X627336Y89136D01*
X628702Y88087D01*
X630293Y87428D01*
X632000Y87204D01*
X652000D01*
X653707Y87428D01*
X655298Y88087D01*
X656664Y89136D01*
X657713Y90502D01*
X658372Y92093D01*
X658596Y93800D01*
Y105800D01*
X658372Y107507D01*
X657713Y109098D01*
X656664Y110464D01*
X655298Y111513D01*
X653707Y112172D01*
X652000Y112396D01*
D02*
G37*
G36*
X503000Y88658D02*
X500643Y88189D01*
X498645Y86855D01*
X497310Y84857D01*
X496842Y82500D01*
X497310Y80143D01*
X498645Y78145D01*
X500643Y76810D01*
X503000Y76342D01*
X505357Y76810D01*
X507355Y78145D01*
X508690Y80143D01*
X509158Y82500D01*
X508690Y84857D01*
X507355Y86855D01*
X505357Y88189D01*
X503000Y88658D01*
D02*
G37*
G36*
X577000Y77556D02*
X575303Y77333D01*
X573722Y76678D01*
X573493Y76502D01*
X572000Y75806D01*
X570508Y76502D01*
X570278Y76678D01*
X568697Y77333D01*
X567000Y77556D01*
X565303Y77333D01*
X563722Y76678D01*
X562364Y75636D01*
X561322Y74278D01*
X560667Y72697D01*
X560444Y71000D01*
X560667Y69303D01*
X561322Y67722D01*
X562364Y66364D01*
X563722Y65322D01*
X565303Y64667D01*
X567000Y64444D01*
X568697Y64667D01*
X570278Y65322D01*
X570508Y65498D01*
X572000Y66194D01*
X573493Y65498D01*
X573722Y65322D01*
X575303Y64667D01*
X577000Y64444D01*
X578697Y64667D01*
X580278Y65322D01*
X581636Y66364D01*
X582678Y67722D01*
X583333Y69303D01*
X583556Y71000D01*
X583333Y72697D01*
X582678Y74278D01*
X581636Y75636D01*
X580278Y76678D01*
X578697Y77333D01*
X577000Y77556D01*
D02*
G37*
G36*
X441000Y71556D02*
X439303Y71333D01*
X437722Y70678D01*
X437492Y70502D01*
X436000Y69806D01*
X434507Y70502D01*
X434278Y70678D01*
X432697Y71333D01*
X431000Y71556D01*
X429303Y71333D01*
X427722Y70678D01*
X426364Y69636D01*
X425322Y68278D01*
X424667Y66697D01*
X424444Y65000D01*
X424667Y63303D01*
X425322Y61722D01*
X426364Y60364D01*
X427722Y59322D01*
X429303Y58667D01*
X431000Y58444D01*
X432697Y58667D01*
X434278Y59322D01*
X434507Y59498D01*
X436000Y60194D01*
X437492Y59498D01*
X437722Y59322D01*
X439303Y58667D01*
X441000Y58444D01*
X442697Y58667D01*
X444278Y59322D01*
X445636Y60364D01*
X446678Y61722D01*
X447333Y63303D01*
X447556Y65000D01*
X447333Y66697D01*
X446678Y68278D01*
X445636Y69636D01*
X444278Y70678D01*
X442697Y71333D01*
X441000Y71556D01*
D02*
G37*
G36*
X286000Y60608D02*
X283854Y60181D01*
X282035Y58965D01*
X280819Y57146D01*
X280392Y55000D01*
X280819Y52854D01*
X282035Y51035D01*
X283854Y49819D01*
X286000Y49392D01*
X288146Y49819D01*
X289965Y51035D01*
X291181Y52854D01*
X291608Y55000D01*
X291181Y57146D01*
X289965Y58965D01*
X288146Y60181D01*
X286000Y60608D01*
D02*
G37*
G36*
X531000Y32639D02*
X529225Y32286D01*
X527720Y31280D01*
X526714Y29775D01*
X526361Y28000D01*
X526714Y26225D01*
X527720Y24720D01*
X529225Y23714D01*
X531000Y23361D01*
X532775Y23714D01*
X534280Y24720D01*
X535286Y26225D01*
X535639Y28000D01*
X535286Y29775D01*
X534280Y31280D01*
X532775Y32286D01*
X531000Y32639D01*
D02*
G37*
G36*
X504000Y34914D02*
X501737Y34464D01*
X499818Y33182D01*
X498536Y31263D01*
X498086Y29000D01*
X498536Y26737D01*
X499818Y24818D01*
X501737Y23537D01*
X504000Y23086D01*
X506263Y23537D01*
X508182Y24818D01*
X509464Y26737D01*
X509914Y29000D01*
X509464Y31263D01*
X508182Y33182D01*
X506263Y34464D01*
X504000Y34914D01*
D02*
G37*
G36*
X588000Y47613D02*
X585052Y47322D01*
X582217Y46462D01*
X579604Y45066D01*
X577314Y43186D01*
X575434Y40896D01*
X574038Y38283D01*
X573178Y35448D01*
X572887Y32500D01*
X573178Y29552D01*
X574038Y26717D01*
X575434Y24104D01*
X577314Y21814D01*
X579604Y19934D01*
X582217Y18538D01*
X585052Y17678D01*
X588000Y17387D01*
X590948Y17678D01*
X593783Y18538D01*
X596396Y19934D01*
X598686Y21814D01*
X600566Y24104D01*
X601962Y26717D01*
X602822Y29552D01*
X603113Y32500D01*
X602822Y35448D01*
X601962Y38283D01*
X600566Y40896D01*
X598686Y43186D01*
X596396Y45066D01*
X593783Y46462D01*
X590948Y47322D01*
X588000Y47613D01*
D02*
G37*
G36*
X336000Y21608D02*
X333854Y21181D01*
X332035Y19965D01*
X330819Y18146D01*
X330392Y16000D01*
X330819Y13854D01*
X332035Y12035D01*
X333854Y10819D01*
X336000Y10392D01*
X338146Y10819D01*
X339965Y12035D01*
X341181Y13854D01*
X341608Y16000D01*
X341181Y18146D01*
X339965Y19965D01*
X338146Y21181D01*
X336000Y21608D01*
D02*
G37*
%LPD*%
D105*
X335900Y106600D02*
D03*
D106*
X447000Y320000D02*
D03*
X465000D02*
D03*
X447000Y301000D02*
D03*
X465000D02*
D03*
X550000Y236000D02*
D03*
X560000D02*
D03*
Y226000D02*
D03*
X550000D02*
D03*
D108*
X552000Y196000D02*
D03*
X501700Y57000D02*
D03*
X508000Y318000D02*
D03*
X516000Y315000D02*
D03*
Y321000D02*
D03*
X522000Y315000D02*
D03*
X528000Y314000D02*
D03*
X536500Y329000D02*
D03*
X539000Y316000D02*
D03*
X548500Y327500D02*
D03*
X553000Y332000D02*
D03*
X557500Y336500D02*
D03*
X565000Y322000D02*
D03*
X569000Y326000D02*
D03*
X544500Y349500D02*
D03*
X537000Y342500D02*
D03*
X543500Y335500D02*
D03*
X557000Y314000D02*
D03*
X553000Y310000D02*
D03*
X549000Y306000D02*
D03*
X540000Y301000D02*
D03*
X534000D02*
D03*
X528000D02*
D03*
X522000Y300000D02*
D03*
X516000D02*
D03*
X504000Y301000D02*
D03*
X494000D02*
D03*
X510000Y300000D02*
D03*
X561000Y318000D02*
D03*
X545000Y303000D02*
D03*
X534000Y314000D02*
D03*
X523000Y328500D02*
D03*
X529500Y322500D02*
D03*
X516000Y335500D02*
D03*
X529500Y335000D02*
D03*
X551000Y343000D02*
D03*
X538500Y355000D02*
D03*
X532500Y361000D02*
D03*
X503000Y287000D02*
D03*
X510000D02*
D03*
X517000D02*
D03*
X530000D02*
D03*
X524000D02*
D03*
X432000Y231000D02*
D03*
X525000Y383000D02*
D03*
X489000Y193000D02*
D03*
X540000Y264000D02*
D03*
X523000Y231000D02*
D03*
X488000Y270000D02*
D03*
X492000Y266000D02*
D03*
X526000Y6000D02*
D03*
X506000D02*
D03*
X491000D02*
D03*
X450000Y350000D02*
D03*
X548000Y264000D02*
D03*
D109*
X457500Y370000D02*
D03*
X467500Y355500D02*
D03*
Y370000D02*
D03*
X268000Y66000D02*
D03*
X293000D02*
D03*
X266000Y186000D02*
D03*
X349000Y58000D02*
D03*
X336000Y421000D02*
D03*
X391000Y332000D02*
D03*
X378500Y316000D02*
D03*
X411500Y266500D02*
D03*
X546000Y28500D02*
D03*
Y41000D02*
D03*
X533000Y197000D02*
D03*
X576000Y331000D02*
D03*
X583500Y323500D02*
D03*
X591000Y316000D02*
D03*
X598500Y308500D02*
D03*
X606000Y301000D02*
D03*
X613500Y293500D02*
D03*
X621000Y286000D02*
D03*
X628500Y278500D02*
D03*
X556000Y351000D02*
D03*
X548500Y358500D02*
D03*
X541000Y366000D02*
D03*
X533500Y373500D02*
D03*
X511000Y396000D02*
D03*
X503500Y403500D02*
D03*
X496000Y411000D02*
D03*
X488500Y418500D02*
D03*
X481000Y426000D02*
D03*
X473500Y433500D02*
D03*
X466000Y441000D02*
D03*
X613500Y278500D02*
D03*
X598500D02*
D03*
X583500D02*
D03*
X568500D02*
D03*
Y293500D02*
D03*
X583500D02*
D03*
X598511Y293316D02*
D03*
X568500Y308500D02*
D03*
X583500D02*
D03*
X561000Y301000D02*
D03*
X576000Y316000D02*
D03*
X423000Y281000D02*
D03*
X411500Y255500D02*
D03*
X471000Y161000D02*
D03*
X491000D02*
D03*
X511000D02*
D03*
X531000D02*
D03*
X551000D02*
D03*
X474000Y182000D02*
D03*
X406000Y151000D02*
D03*
Y121000D02*
D03*
X266000Y6000D02*
D03*
X286000D02*
D03*
X306000D02*
D03*
X326000D02*
D03*
X346000D02*
D03*
X366000D02*
D03*
X386000D02*
D03*
X406000D02*
D03*
X466000D02*
D03*
X446000D02*
D03*
X426000D02*
D03*
X606000D02*
D03*
X586000D02*
D03*
X566000D02*
D03*
X546000D02*
D03*
X621000D02*
D03*
X268000Y121000D02*
D03*
X293000D02*
D03*
X266000Y201000D02*
D03*
Y221000D02*
D03*
Y241000D02*
D03*
X336000Y449000D02*
D03*
X356000D02*
D03*
X376000D02*
D03*
X391000D02*
D03*
Y421000D02*
D03*
X390000Y402000D02*
D03*
X336000Y356000D02*
D03*
X352000D02*
D03*
X336000Y302000D02*
D03*
Y261000D02*
D03*
X305000D02*
D03*
X294000Y186000D02*
D03*
X351000Y221000D02*
D03*
X294000D02*
D03*
X321000D02*
D03*
Y186000D02*
D03*
X351000D02*
D03*
X431000Y75000D02*
D03*
X441000D02*
D03*
X561000Y91000D02*
D03*
X609000Y157000D02*
D03*
Y119000D02*
D03*
X561000Y131000D02*
D03*
X567000Y83000D02*
D03*
X625000Y157000D02*
D03*
Y119000D02*
D03*
X561000Y111000D02*
D03*
Y151000D02*
D03*
X625000Y71000D02*
D03*
X477000Y51000D02*
D03*
X511000Y182000D02*
D03*
X396000Y255500D02*
D03*
X381000Y186000D02*
D03*
X396000Y161000D02*
D03*
X268000Y91000D02*
D03*
X406000Y71000D02*
D03*
X396000Y81000D02*
D03*
Y111000D02*
D03*
X366000Y171000D02*
D03*
Y201000D02*
D03*
X386000Y71000D02*
D03*
Y121000D02*
D03*
X431000Y111000D02*
D03*
X441000D02*
D03*
X431000Y91000D02*
D03*
X441000D02*
D03*
X386000Y96000D02*
D03*
X406000D02*
D03*
X669000Y51000D02*
D03*
Y71000D02*
D03*
Y91000D02*
D03*
Y111000D02*
D03*
Y131000D02*
D03*
Y151000D02*
D03*
Y171000D02*
D03*
Y211000D02*
D03*
Y231000D02*
D03*
X629000Y25000D02*
D03*
X653000Y47000D02*
D03*
X639000Y39000D02*
D03*
X336000Y326000D02*
D03*
X356000Y421000D02*
D03*
X396000Y203000D02*
D03*
X521000Y256000D02*
D03*
X586000Y185000D02*
D03*
M02*
